<?xml version="1.0" encoding="UTF-8" standalone="no"?>
<svg
   xmlns:dc="http://purl.org/dc/elements/1.1/"
   xmlns:cc="http://creativecommons.org/ns#"
   xmlns:rdf="http://www.w3.org/1999/02/22-rdf-syntax-ns#"
   xmlns:svg="http://www.w3.org/2000/svg"
   xmlns="http://www.w3.org/2000/svg"
   xmlns:sodipodi="http://sodipodi.sourceforge.net/DTD/sodipodi-0.dtd"
   xmlns:inkscape="http://www.inkscape.org/namespaces/inkscape"
   id="svg8"
   width="90"
   height="380"
   viewBox="0 0 89.999998 380.00001"
   version="1.1"
   sodipodi:docname="Burst.svg"
   inkscape:version="0.91 r13725">
  <metadata
     id="metadata29">
    <rdf:RDF>
      <cc:Work
         rdf:about="">
        <dc:format>image/svg+xml</dc:format>
        <dc:type
           rdf:resource="http://purl.org/dc/dcmitype/StillImage" />
        <dc:title>BlankPanel1</dc:title>
      </cc:Work>
    </rdf:RDF>
  </metadata>
  <defs
     id="defs27">
    <clipPath
       id="clipPath837"
       clipPathUnits="userSpaceOnUse">
      <path
         inkscape:connector-curvature="0"
         id="path835"
         d="M 0,842 595,842 595,0 0,0 Z" />
    </clipPath>
    <clipPath
       id="clipPath13703"
       clipPathUnits="userSpaceOnUse">
      <path
         inkscape:connector-curvature="0"
         id="path13701"
         d="m 0,1020.448 935.433,0 L 935.433,0 0,0 Z" />
    </clipPath>
  </defs>
  <sodipodi:namedview
     pagecolor="#ffffff"
     bordercolor="#666666"
     borderopacity="1"
     objecttolerance="10"
     gridtolerance="10"
     guidetolerance="10"
     inkscape:pageopacity="0"
     inkscape:pageshadow="2"
     inkscape:window-width="1875"
     inkscape:window-height="1035"
     id="namedview25"
     showgrid="true"
     inkscape:zoom="2.1091365"
     inkscape:cx="20.281326"
     inkscape:cy="206.22869"
     inkscape:window-x="45"
     inkscape:window-y="1"
     inkscape:window-maximized="1"
     inkscape:current-layer="svg8"
     showguides="true"
     inkscape:guide-bbox="true"
     inkscape:snap-bbox="true"
     inkscape:bbox-nodes="true"
     inkscape:snap-global="false">
    <inkscape:grid
       type="xygrid"
       id="grid3435" />
  </sodipodi:namedview>
  <title
     id="title2">BlankPanel1</title>
  <g
     id="g831"
     transform="matrix(1.3099937,0,0,-1.3320509,-810.99388,716.99937)"
     style="fill:#cdcfca;fill-opacity:1">
    <g
       id="g13693"
       inkscape:label="02"
       transform="translate(619.08227,-482.18084)"
       style="fill:#cdcfca;fill-opacity:1">
      <path
         d="m 0,735.3352 68.666843,0 0,285.1128 -68.666843,0 z"
         style="fill:#cdcfca;fill-opacity:1;fill-rule:evenodd;stroke:none;stroke-width:0.22436777"
         id="path13695"
         inkscape:connector-curvature="0" />
      <path
         transform="matrix(0.75000002,0,0,-0.75000002,0.58989299,1020.518)"
         inkscape:connector-curvature="0"
         id="path26"
         d="m -0.45300759,190.33385 0,-189.888131 45.51625659,0 45.516257,0 0,189.888131 0,189.88814 -45.516257,0 -45.51625659,0 z"
         style="opacity:1;fill:#cdcfca;fill-opacity:1;stroke:#000000;stroke-width:0.47412768;stroke-linecap:square;stroke-miterlimit:4;stroke-dasharray:none;stroke-dashoffset:0;stroke-opacity:0.98999999" />
    </g>
  </g>
  <g
     style="opacity:0"
     inkscape:label="Layer 1"
     id="layer2"
     inkscape:groupmode="layer"
     transform="matrix(1.3333333,0,0,-1.3333333,-826.22953,717.78285)" />
  <rect
     ry="3.4925556"
     y="332.95712"
     x="2.5362735"
     height="40.031113"
     width="84.927452"
     id="rect211"
     style="opacity:1;fill:#000000;fill-opacity:1;stroke:#000000;stroke-width:1.07254672;stroke-linecap:square;stroke-miterlimit:4;stroke-dasharray:none;stroke-dashoffset:0;stroke-opacity:0.98999999" />
  <g
     style="font-style:normal;font-weight:normal;font-size:40px;line-height:100%;font-family:sans-serif;letter-spacing:0px;word-spacing:0px;fill:#000000;fill-opacity:1;stroke:none;stroke-width:1px;stroke-linecap:butt;stroke-linejoin:miter;stroke-opacity:1"
     id="text3437"
     transform="translate(0,1.8964802)">
    <path
       d="m 21.966246,19.200031 q -1.14,0 -2.28,-0.08 -1.12,-0.06 -2.34,-0.32 l 0,-13.44 q 0.96,-0.18 2.1,-0.26 1.14,-0.1 2.12,-0.1 1.32,0 2.42,0.2 1.12,0.18 1.92,0.64 0.8,0.46 1.24,1.22 0.46,0.74 0.46,1.84 0,1.66 -1.6,2.62 1.32,0.5 1.8,1.36 0.48,0.86 0.48,1.94 0,2.18 -1.6,3.28 -1.58,1.1 -4.72,1.1 z m -1.58,-6.22 0,3.58 q 0.34,0.04 0.74,0.06 0.4,0.02 0.88,0.02 1.4,0 2.26,-0.4 0.86,-0.4 0.86,-1.48 0,-0.96 -0.72,-1.36 -0.72,-0.42 -2.06,-0.42 l -1.96,0 z m 0,-2.38 1.52,0 q 1.44,0 2.06,-0.36 0.62,-0.38 0.62,-1.2 0,-0.84 -0.64,-1.18 -0.64,-0.34 -1.88,-0.34 -0.4,0 -0.86,0.02 -0.46,0 -0.82,0.04 l 0,3.02 z"
       style="font-style:normal;font-variant:normal;font-weight:bold;font-stretch:normal;font-size:20px;line-height:100%;font-family:Ubuntu;-inkscape-font-specification:'Ubuntu, Bold';text-align:start;writing-mode:lr-tb;text-anchor:start"
       id="path4496"
       inkscape:connector-curvature="0" />
    <path
       d="m 39.563746,18.660031 q -0.76,0.22 -1.96,0.4 -1.2,0.2 -2.52,0.2 -1.34,0 -2.24,-0.36 -0.88,-0.36 -1.4,-1 -0.52,-0.66 -0.74,-1.56 -0.22,-0.9 -0.22,-1.98 l 0,-5.86 2.98,0 0,5.5 q 0,1.44 0.38,2.08 0.38,0.64 1.42,0.64 0.32,0 0.68,-0.02 0.36,-0.04 0.64,-0.08 l 0,-8.12 2.98,0 0,10.16 z"
       style="font-style:normal;font-variant:normal;font-weight:bold;font-stretch:normal;font-size:20px;line-height:100%;font-family:Ubuntu;-inkscape-font-specification:'Ubuntu, Bold';text-align:start;writing-mode:lr-tb;text-anchor:start"
       id="path4498"
       inkscape:connector-curvature="0" />
    <path
       d="m 48.681559,11.140031 q -0.4,-0.1 -0.94,-0.2 -0.54,-0.12 -1.16,-0.12 -0.28,0 -0.68,0.06 -0.38,0.04 -0.58,0.1 l 0,8.04 -2.98,0 0,-9.96 q 0.8,-0.28 1.88,-0.52 1.1,-0.26 2.44,-0.26 0.24,0 0.58,0.04 0.34,0.02 0.68,0.08 0.34,0.04 0.68,0.12 0.34,0.06 0.58,0.16 l -0.5,2.46 z"
       style="font-style:normal;font-variant:normal;font-weight:bold;font-stretch:normal;font-size:20px;line-height:100%;font-family:Ubuntu;-inkscape-font-specification:'Ubuntu, Bold';text-align:start;writing-mode:lr-tb;text-anchor:start"
       id="path4500"
       inkscape:connector-curvature="0" />
    <path
       d="m 53.799059,16.880031 q 0.82,0 1.16,-0.16 0.34,-0.16 0.34,-0.62 0,-0.36 -0.44,-0.62 -0.44,-0.28 -1.34,-0.62 -0.7,-0.26 -1.28,-0.54 -0.56,-0.28 -0.96,-0.66 -0.4,-0.4 -0.62,-0.94 -0.22,-0.54 -0.22,-1.3 0,-1.48 1.1,-2.34 1.1,-0.86 3.02,-0.86 0.96,0 1.84,0.18 0.88,0.16 1.4,0.36 l -0.52,2.32 q -0.52,-0.18 -1.14,-0.32 -0.6,-0.14 -1.36,-0.14 -1.4,0 -1.4,0.78 0,0.18 0.06,0.32 0.06,0.14 0.24,0.28 0.18,0.12 0.48,0.28 0.32,0.14 0.8,0.32 0.98,0.36 1.62,0.72 0.64,0.34 1,0.76 0.38,0.4 0.52,0.9 0.16,0.5 0.16,1.16 0,1.56 -1.18,2.36 -1.16,0.8 -3.3,0.8 -1.4,0 -2.34,-0.24 -0.92,-0.24 -1.28,-0.4 l 0.5,-2.42 q 0.76,0.3 1.56,0.48 0.8,0.16 1.58,0.16 z"
       style="font-style:normal;font-variant:normal;font-weight:bold;font-stretch:normal;font-size:20px;line-height:100%;font-family:Ubuntu;-inkscape-font-specification:'Ubuntu, Bold';text-align:start;writing-mode:lr-tb;text-anchor:start"
       id="path4502"
       inkscape:connector-curvature="0" />
    <path
       d="m 60.366559,5.880031 2.98,-0.48 0,3.1 3.58,0 0,2.48 -3.58,0 0,3.7 q 0,0.94 0.32,1.5 0.34,0.56 1.34,0.56 0.48,0 0.98,-0.08 0.52,-0.1 0.94,-0.26 l 0.42,2.32 q -0.54,0.22 -1.2,0.38 -0.66,0.16 -1.62,0.16 -1.22,0 -2.02,-0.32 -0.8,-0.34 -1.28,-0.92 -0.48,-0.6 -0.68,-1.44 -0.18,-0.84 -0.18,-1.86 l 0,-8.84 z"
       style="font-style:normal;font-variant:normal;font-weight:bold;font-stretch:normal;font-size:20px;line-height:100%;font-family:Ubuntu;-inkscape-font-specification:'Ubuntu, Bold';text-align:start;writing-mode:lr-tb;text-anchor:start"
       id="path4504"
       inkscape:connector-curvature="0" />
    <path
       d="m 72.393746,8.740031 q 0,1.62 -0.12,3.02 -0.12,1.4 -0.32,2.84 l -2.28,0 q -0.2,-1.44 -0.34,-2.84 -0.12,-1.4 -0.12,-3.02 l 0,-3.58 3.18,0 0,3.58 z m 0.26,8.7 q 0,0.88 -0.58,1.36 -0.56,0.48 -1.28,0.48 -0.72,0 -1.3,-0.48 -0.56,-0.48 -0.56,-1.36 0,-0.88 0.56,-1.36 0.58,-0.48 1.3,-0.48 0.72,0 1.28,0.48 0.58,0.48 0.58,1.36 z"
       style="font-style:normal;font-variant:normal;font-weight:bold;font-stretch:normal;font-size:20px;line-height:100%;font-family:Ubuntu;-inkscape-font-specification:'Ubuntu, Bold';text-align:start;writing-mode:lr-tb;text-anchor:start"
       id="path4506"
       inkscape:connector-curvature="0" />
  </g>
  <g
     style="font-style:normal;font-weight:normal;font-size:40px;line-height:125%;font-family:sans-serif;letter-spacing:0px;word-spacing:0px;fill:#000000;fill-opacity:1;stroke:none;stroke-width:1px;stroke-linecap:butt;stroke-linejoin:miter;stroke-opacity:1"
     id="text4406"
     transform="translate(0,-4.4741582)">
    <path
       d="m 16.671793,95.165523 q 1.755,0 2.68875,0.63 0.93375,0.61875 0.93375,1.935 0,0.82125 -0.3825,1.33875 -0.37125,0.50625 -1.08,0.79875 0.23625,0.292497 0.495,0.674997 0.25875,0.37125 0.50625,0.7875 0.25875,0.405 0.495,0.855 0.23625,0.43875 0.43875,0.86625 l -1.96875,0 q -0.21375,-0.3825 -0.43875,-0.77625 -0.21375,-0.39375 -0.45,-0.765 -0.225,-0.37125 -0.45,-0.6975 -0.225,-0.3375 -0.45,-0.6075 l -0.86625,0 0,2.84625 -1.755,0 0,-7.683747 q 0.57375,-0.1125 1.18125,-0.1575 0.61875,-0.045 1.1025,-0.045 z m 0.10125,1.49625 q -0.19125,0 -0.34875,0.01125 -0.14625,0.01125 -0.28125,0.0225 l 0,2.115 0.495,0 q 0.99,0 1.4175,-0.2475 0.4275,-0.2475 0.4275,-0.84375 0,-0.57375 -0.43875,-0.81 -0.4275,-0.2475 -1.27125,-0.2475 z"
       style="font-style:normal;font-variant:normal;font-weight:bold;font-stretch:normal;font-size:11.25px;line-height:125%;font-family:Ubuntu;-inkscape-font-specification:'Ubuntu, Bold';text-align:start;writing-mode:lr-tb;text-anchor:start"
       id="path4473"
       inkscape:connector-curvature="0" />
    <path
       d="m 21.223297,100.13802 q 0,-0.787497 0.23625,-1.372497 0.2475,-0.59625 0.64125,-0.99 0.39375,-0.39375 0.9,-0.59625 0.5175,-0.2025 1.0575,-0.2025 1.26,0 1.99125,0.77625 0.73125,0.765 0.73125,2.261247 0,0.14625 -0.01125,0.32625 -0.01125,0.16875 -0.0225,0.30375 l -3.8025,0 q 0.05625,0.5175 0.48375,0.82125 0.4275,0.30375 1.1475,0.30375 0.46125,0 0.9,-0.0787 0.45,-0.09 0.73125,-0.21375 l 0.225,1.36125 q -0.135,0.0675 -0.36,0.135 -0.225,0.0675 -0.50625,0.1125 -0.27,0.0562 -0.585,0.09 -0.315,0.0337 -0.63,0.0337 -0.79875,0 -1.395,-0.23625 -0.585,-0.23625 -0.97875,-0.64125 -0.3825,-0.41625 -0.57375,-0.97875 -0.18,-0.5625 -0.18,-1.215 z m 3.9375,-0.641247 q -0.01125,-0.21375 -0.07875,-0.41625 -0.05625,-0.2025 -0.19125,-0.36 -0.12375,-0.1575 -0.32625,-0.25875 -0.19125,-0.10125 -0.48375,-0.10125 -0.28125,0 -0.48375,0.10125 -0.2025,0.09 -0.3375,0.2475 -0.135,0.1575 -0.21375,0.37125 -0.0675,0.2025 -0.10125,0.41625 l 2.21625,0 z"
       style="font-style:normal;font-variant:normal;font-weight:bold;font-stretch:normal;font-size:11.25px;line-height:125%;font-family:Ubuntu;-inkscape-font-specification:'Ubuntu, Bold';text-align:start;writing-mode:lr-tb;text-anchor:start"
       id="path4475"
       inkscape:connector-curvature="0" />
    <path
       d="m 31.887594,100.13802 q 0,-0.776247 -0.34875,-1.237497 -0.34875,-0.4725 -1.035,-0.4725 -0.225,0 -0.41625,0.0225 -0.19125,0.01125 -0.315,0.03375 l 0,3.026247 q 0.1575,0.10125 0.405,0.16875 0.25875,0.0675 0.5175,0.0675 1.1925,0 1.1925,-1.60875 z m 1.71,-0.045 q 0,0.68625 -0.16875,1.24875 -0.16875,0.5625 -0.495,0.9675 -0.32625,0.405 -0.81,0.63 -0.48375,0.225 -1.11375,0.225 -0.34875,0 -0.6525,-0.0675 -0.30375,-0.0675 -0.585,-0.19125 l 0,2.2275 -1.67625,0 0,-7.796247 q 0.225,-0.0675 0.5175,-0.12375 0.2925,-0.0675 0.6075,-0.1125 0.32625,-0.045 0.6525,-0.0675 0.3375,-0.03375 0.64125,-0.03375 0.73125,0 1.305,0.225 0.57375,0.21375 0.9675,0.61875 0.39375,0.39375 0.59625,0.9675 0.21375,0.57375 0.21375,1.282497 z"
       style="font-style:normal;font-variant:normal;font-weight:bold;font-stretch:normal;font-size:11.25px;line-height:125%;font-family:Ubuntu;-inkscape-font-specification:'Ubuntu, Bold';text-align:start;writing-mode:lr-tb;text-anchor:start"
       id="path4477"
       inkscape:connector-curvature="0" />
    <path
       d="m 34.604644,100.13802 q 0,-0.787497 0.23625,-1.372497 0.2475,-0.59625 0.64125,-0.99 0.39375,-0.39375 0.9,-0.59625 0.5175,-0.2025 1.0575,-0.2025 1.26,0 1.99125,0.77625 0.73125,0.765 0.73125,2.261247 0,0.14625 -0.01125,0.32625 -0.01125,0.16875 -0.0225,0.30375 l -3.8025,0 q 0.05625,0.5175 0.48375,0.82125 0.4275,0.30375 1.1475,0.30375 0.46125,0 0.9,-0.0787 0.45,-0.09 0.73125,-0.21375 l 0.225,1.36125 q -0.135,0.0675 -0.36,0.135 -0.225,0.0675 -0.50625,0.1125 -0.27,0.0562 -0.585,0.09 -0.315,0.0337 -0.63,0.0337 -0.79875,0 -1.395,-0.23625 -0.585,-0.23625 -0.97875,-0.64125 -0.3825,-0.41625 -0.57375,-0.97875 -0.18,-0.5625 -0.18,-1.215 z m 3.9375,-0.641247 q -0.01125,-0.21375 -0.07875,-0.41625 -0.05625,-0.2025 -0.19125,-0.36 -0.12375,-0.1575 -0.32625,-0.25875 -0.19125,-0.10125 -0.48375,-0.10125 -0.28125,0 -0.48375,0.10125 -0.2025,0.09 -0.3375,0.2475 -0.135,0.1575 -0.21375,0.37125 -0.0675,0.2025 -0.10125,0.41625 l 2.21625,0 z"
       style="font-style:normal;font-variant:normal;font-weight:bold;font-stretch:normal;font-size:11.25px;line-height:125%;font-family:Ubuntu;-inkscape-font-specification:'Ubuntu, Bold';text-align:start;writing-mode:lr-tb;text-anchor:start"
       id="path4479"
       inkscape:connector-curvature="0" />
    <path
       d="m 41.421441,95.660523 1.67625,-0.27 0,1.74375 2.01375,0 0,1.395 -2.01375,0 0,2.081247 q 0,0.52875 0.18,0.84375 0.19125,0.315 0.75375,0.315 0.27,0 0.55125,-0.045 0.2925,-0.0563 0.52875,-0.14625 l 0.23625,1.305 q -0.30375,0.12375 -0.675,0.21375 -0.37125,0.09 -0.91125,0.09 -0.68625,0 -1.13625,-0.18 -0.45,-0.19125 -0.72,-0.5175 -0.27,-0.3375 -0.3825,-0.81 -0.10125,-0.4725 -0.10125,-1.04625 l 0,-4.972497 z"
       style="font-style:normal;font-variant:normal;font-weight:bold;font-stretch:normal;font-size:11.25px;line-height:125%;font-family:Ubuntu;-inkscape-font-specification:'Ubuntu, Bold';text-align:start;writing-mode:lr-tb;text-anchor:start"
       id="path4481"
       inkscape:connector-curvature="0" />
    <path
       d="m 48.141734,103.05177 -1.67625,0 0,-5.917497 1.67625,0 0,5.917497 z m 0.1575,-7.627497 q 0,0.46125 -0.30375,0.73125 -0.2925,0.25875 -0.6975,0.25875 -0.405,0 -0.70875,-0.25875 -0.2925,-0.27 -0.2925,-0.73125 0,-0.46125 0.2925,-0.72 0.30375,-0.27 0.70875,-0.27 0.405,0 0.6975,0.27 0.30375,0.25875 0.30375,0.72 z"
       style="font-style:normal;font-variant:normal;font-weight:bold;font-stretch:normal;font-size:11.25px;line-height:125%;font-family:Ubuntu;-inkscape-font-specification:'Ubuntu, Bold';text-align:start;writing-mode:lr-tb;text-anchor:start"
       id="path4483"
       inkscape:connector-curvature="0" />
    <path
       d="m 49.661187,95.660523 1.67625,-0.27 0,1.74375 2.01375,0 0,1.395 -2.01375,0 0,2.081247 q 0,0.52875 0.18,0.84375 0.19125,0.315 0.75375,0.315 0.27,0 0.55125,-0.045 0.2925,-0.0563 0.52875,-0.14625 l 0.23625,1.305 q -0.30375,0.12375 -0.675,0.21375 -0.37125,0.09 -0.91125,0.09 -0.68625,0 -1.13625,-0.18 -0.45,-0.19125 -0.72,-0.5175 -0.27,-0.3375 -0.3825,-0.81 -0.10125,-0.4725 -0.10125,-1.04625 l 0,-4.972497 z"
       style="font-style:normal;font-variant:normal;font-weight:bold;font-stretch:normal;font-size:11.25px;line-height:125%;font-family:Ubuntu;-inkscape-font-specification:'Ubuntu, Bold';text-align:start;writing-mode:lr-tb;text-anchor:start"
       id="path4485"
       inkscape:connector-curvature="0" />
    <path
       d="m 56.38148,103.05177 -1.67625,0 0,-5.917497 1.67625,0 0,5.917497 z m 0.1575,-7.627497 q 0,0.46125 -0.30375,0.73125 -0.2925,0.25875 -0.6975,0.25875 -0.405,0 -0.70875,-0.25875 -0.2925,-0.27 -0.2925,-0.73125 0,-0.46125 0.2925,-0.72 0.30375,-0.27 0.70875,-0.27 0.405,0 0.6975,0.27 0.30375,0.25875 0.30375,0.72 z"
       style="font-style:normal;font-variant:normal;font-weight:bold;font-stretch:normal;font-size:11.25px;line-height:125%;font-family:Ubuntu;-inkscape-font-specification:'Ubuntu, Bold';text-align:start;writing-mode:lr-tb;text-anchor:start"
       id="path4487"
       inkscape:connector-curvature="0" />
    <path
       d="m 63.492183,100.08177 q 0,0.6975 -0.2025,1.2825 -0.2025,0.57375 -0.585,0.99 -0.3825,0.405 -0.9225,0.63 -0.52875,0.225 -1.1925,0.225 -0.6525,0 -1.1925,-0.225 -0.52875,-0.225 -0.91125,-0.63 -0.3825,-0.41625 -0.59625,-0.99 -0.21375,-0.585 -0.21375,-1.2825 0,-0.697497 0.21375,-1.271247 0.225,-0.57375 0.6075,-0.97875 0.39375,-0.405 0.9225,-0.63 0.54,-0.225 1.17,-0.225 0.64125,0 1.17,0.225 0.54,0.225 0.9225,0.63 0.3825,0.405 0.59625,0.97875 0.21375,0.57375 0.21375,1.271247 z m -1.71,0 q 0,-0.776247 -0.315,-1.214997 -0.30375,-0.45 -0.8775,-0.45 -0.57375,0 -0.88875,0.45 -0.315,0.43875 -0.315,1.214997 0,0.77625 0.315,1.2375 0.315,0.45 0.88875,0.45 0.57375,0 0.8775,-0.45 0.315,-0.46125 0.315,-1.2375 z"
       style="font-style:normal;font-variant:normal;font-weight:bold;font-stretch:normal;font-size:11.25px;line-height:125%;font-family:Ubuntu;-inkscape-font-specification:'Ubuntu, Bold';text-align:start;writing-mode:lr-tb;text-anchor:start"
       id="path4489"
       inkscape:connector-curvature="0" />
    <path
       d="m 64.79068,97.336773 q 0.4275,-0.12375 1.1025,-0.225 0.675,-0.1125 1.4175,-0.1125 0.75375,0 1.24875,0.2025 0.50625,0.19125 0.79875,0.55125 0.2925,0.36 0.41625,0.855 0.12375,0.495 0.12375,1.1025 l 0,3.341247 -1.67625,0 0,-3.138747 q 0,-0.81 -0.21375,-1.1475 -0.21375,-0.3375 -0.79875,-0.3375 -0.18,0 -0.3825,0.0225 -0.2025,0.01125 -0.36,0.03375 l 0,4.567497 -1.67625,0 0,-5.714997 z"
       style="font-style:normal;font-variant:normal;font-weight:bold;font-stretch:normal;font-size:11.25px;line-height:125%;font-family:Ubuntu;-inkscape-font-specification:'Ubuntu, Bold';text-align:start;writing-mode:lr-tb;text-anchor:start"
       id="path4491"
       inkscape:connector-curvature="0" />
    <path
       d="m 73.103199,101.84802 q 0.46125,0 0.6525,-0.09 0.19125,-0.09 0.19125,-0.34875 0,-0.2025 -0.2475,-0.34875 -0.2475,-0.1575 -0.75375,-0.34875 -0.39375,-0.14625 -0.72,-0.30375 -0.315,-0.1575 -0.54,-0.37125 -0.225,-0.224997 -0.34875,-0.528747 -0.12375,-0.30375 -0.12375,-0.73125 0,-0.8325 0.61875,-1.31625 0.61875,-0.48375 1.69875,-0.48375 0.54,0 1.035,0.10125 0.495,0.09 0.7875,0.2025 l -0.2925,1.305 q -0.2925,-0.10125 -0.64125,-0.18 -0.3375,-0.07875 -0.765,-0.07875 -0.7875,0 -0.7875,0.43875 0,0.10125 0.03375,0.18 0.03375,0.07875 0.135,0.1575 0.10125,0.0675 0.27,0.1575 0.18,0.07875 0.45,0.18 0.55125,0.2025 0.91125,0.405 0.36,0.191247 0.5625,0.427497 0.21375,0.225 0.2925,0.50625 0.09,0.28125 0.09,0.6525 0,0.8775 -0.66375,1.3275 -0.6525,0.45 -1.85625,0.45 -0.7875,0 -1.31625,-0.135 -0.5175,-0.135 -0.72,-0.225 l 0.28125,-1.36125 q 0.4275,0.16875 0.8775,0.27 0.45,0.09 0.88875,0.09 z"
       style="font-style:normal;font-variant:normal;font-weight:bold;font-stretch:normal;font-size:11.25px;line-height:125%;font-family:Ubuntu;-inkscape-font-specification:'Ubuntu, Bold';text-align:start;writing-mode:lr-tb;text-anchor:start"
       id="path4493"
       inkscape:connector-curvature="0" />
  </g>
  <g
     style="font-style:normal;font-weight:normal;font-size:40px;line-height:125%;font-family:sans-serif;letter-spacing:0px;word-spacing:0px;fill:#000000;fill-opacity:1;stroke:none;stroke-width:1px;stroke-linecap:butt;stroke-linejoin:miter;stroke-opacity:1"
     id="text4410"
     transform="translate(0,28.577585)">
    <path
       d="m 17.020813,143.25552 0,1.49625 -2.35125,0 0,6.3 -1.755,0 0,-6.3 -2.35125,0 0,-1.49625 6.4575,0 z"
       style="font-style:normal;font-variant:normal;font-weight:bold;font-stretch:normal;font-size:11.25px;line-height:125%;font-family:Ubuntu;-inkscape-font-specification:'Ubuntu, Bold';text-align:start;writing-mode:lr-tb;text-anchor:start"
       id="path4464"
       inkscape:connector-curvature="0" />
    <path
       d="m 19.701477,151.05177 -1.67625,0 0,-5.9175 1.67625,0 0,5.9175 z m 0.1575,-7.6275 q 0,0.46125 -0.30375,0.73125 -0.2925,0.25875 -0.6975,0.25875 -0.405,0 -0.70875,-0.25875 -0.2925,-0.27 -0.2925,-0.73125 0,-0.46125 0.2925,-0.72 0.30375,-0.27 0.70875,-0.27 0.405,0 0.6975,0.27 0.30375,0.25875 0.30375,0.72 z"
       style="font-style:normal;font-variant:normal;font-weight:bold;font-stretch:normal;font-size:11.25px;line-height:125%;font-family:Ubuntu;-inkscape-font-specification:'Ubuntu, Bold';text-align:start;writing-mode:lr-tb;text-anchor:start"
       id="path4466"
       inkscape:connector-curvature="0" />
    <path
       d="m 24.52843,147.91302 q 0,-0.81 -0.21375,-1.1475 -0.2025,-0.3375 -0.70875,-0.3375 -0.1575,0 -0.32625,0.0225 -0.16875,0.0112 -0.32625,0.0337 l 0,4.5675 -1.67625,0 0,-5.715 q 0.21375,-0.0563 0.495,-0.1125 0.2925,-0.0675 0.6075,-0.1125 0.32625,-0.0563 0.66375,-0.0788 0.3375,-0.0337 0.66375,-0.0337 0.64125,0 1.035,0.16875 0.405,0.1575 0.66375,0.3825 0.36,-0.25875 0.82125,-0.405 0.4725,-0.14625 0.86625,-0.14625 0.70875,0 1.15875,0.2025 0.46125,0.19125 0.73125,0.55125 0.27,0.36 0.37125,0.855 0.10125,0.495 0.10125,1.1025 l 0,3.34125 -1.67625,0 0,-3.13875 q 0,-0.81 -0.21375,-1.1475 -0.2025,-0.3375 -0.70875,-0.3375 -0.135,0 -0.3825,0.0675 -0.23625,0.0675 -0.39375,0.16875 0.07875,0.25875 0.10125,0.55125 0.0225,0.28125 0.0225,0.6075 l 0,3.22875 -1.67625,0 0,-3.13875 z"
       style="font-style:normal;font-variant:normal;font-weight:bold;font-stretch:normal;font-size:11.25px;line-height:125%;font-family:Ubuntu;-inkscape-font-specification:'Ubuntu, Bold';text-align:start;writing-mode:lr-tb;text-anchor:start"
       id="path4468"
       inkscape:connector-curvature="0" />
    <path
       d="m 30.685872,148.13802 q 0,-0.7875 0.23625,-1.3725 0.2475,-0.59625 0.64125,-0.99 0.39375,-0.39375 0.9,-0.59625 0.5175,-0.2025 1.0575,-0.2025 1.26,0 1.99125,0.77625 0.73125,0.765 0.73125,2.26125 0,0.14625 -0.01125,0.32625 -0.01125,0.16875 -0.0225,0.30375 l -3.8025,0 q 0.05625,0.5175 0.48375,0.82125 0.4275,0.30375 1.1475,0.30375 0.46125,0 0.9,-0.0788 0.45,-0.09 0.73125,-0.21375 l 0.225,1.36125 q -0.135,0.0675 -0.36,0.135 -0.225,0.0675 -0.50625,0.1125 -0.27,0.0563 -0.585,0.09 -0.315,0.0337 -0.63,0.0337 -0.79875,0 -1.395,-0.23625 -0.585,-0.23625 -0.97875,-0.64125 -0.3825,-0.41625 -0.57375,-0.97875 -0.18,-0.5625 -0.18,-1.215 z m 3.9375,-0.64125 q -0.01125,-0.21375 -0.07875,-0.41625 -0.05625,-0.2025 -0.19125,-0.36 -0.12375,-0.1575 -0.32625,-0.25875 -0.19125,-0.10125 -0.48375,-0.10125 -0.28125,0 -0.48375,0.10125 -0.2025,0.09 -0.3375,0.2475 -0.135,0.1575 -0.21375,0.37125 -0.0675,0.2025 -0.10125,0.41625 l 2.21625,0 z"
       style="font-style:normal;font-variant:normal;font-weight:bold;font-stretch:normal;font-size:11.25px;line-height:125%;font-family:Ubuntu;-inkscape-font-specification:'Ubuntu, Bold';text-align:start;writing-mode:lr-tb;text-anchor:start"
       id="path4470"
       inkscape:connector-curvature="0" />
  </g>
  <g
     style="font-style:normal;font-weight:normal;font-size:40px;line-height:125%;font-family:sans-serif;letter-spacing:0px;word-spacing:0px;fill:#000000;fill-opacity:1;stroke:none;stroke-width:1px;stroke-linecap:butt;stroke-linejoin:miter;stroke-opacity:1"
     id="text4414"
     transform="translate(-0.94825536,28.577585)">
    <path
       d="m 57.687375,151.05177 q -0.12375,-0.405 -0.28125,-0.8325 -0.14625,-0.4275 -0.2925,-0.855 l -3.0375,0 q -0.14625,0.4275 -0.30375,0.855 -0.14625,0.4275 -0.27,0.8325 l -1.8225,0 q 0.43875,-1.26 0.8325,-2.32875 0.39375,-1.06875 0.765,-2.01375 0.3825,-0.945 0.7425,-1.78875 0.37125,-0.855 0.765,-1.665 l 1.67625,0 q 0.3825,0.81 0.75375,1.665 0.37125,0.84375 0.7425,1.78875 0.3825,0.945 0.77625,2.01375 0.39375,1.06875 0.8325,2.32875 l -1.87875,0 z m -2.10375,-6.03 q -0.05625,0.16875 -0.16875,0.46125 -0.1125,0.2925 -0.25875,0.675 -0.14625,0.3825 -0.32625,0.84375 -0.16875,0.46125 -0.34875,0.9675 l 2.21625,0 q -0.18,-0.50625 -0.34875,-0.9675 -0.16875,-0.46125 -0.32625,-0.84375 -0.14625,-0.3825 -0.25875,-0.675 -0.1125,-0.2925 -0.18,-0.46125 z"
       style="font-style:normal;font-variant:normal;font-weight:bold;font-stretch:normal;font-size:11.25px;line-height:125%;font-family:Ubuntu;-inkscape-font-specification:'Ubuntu, Bold';text-align:start;writing-mode:lr-tb;text-anchor:start"
       id="path4453"
       inkscape:connector-curvature="0" />
    <path
       d="m 60.049699,148.09302 q 0,-0.64125 0.2025,-1.20375 0.21375,-0.57375 0.6075,-0.99 0.39375,-0.4275 0.95625,-0.675 0.5625,-0.2475 1.2825,-0.2475 0.4725,0 0.86625,0.09 0.39375,0.0788 0.765,0.23625 l -0.34875,1.33875 q -0.23625,-0.09 -0.5175,-0.1575 -0.28125,-0.0675 -0.63,-0.0675 -0.7425,0 -1.11375,0.46125 -0.36,0.46125 -0.36,1.215 0,0.79875 0.3375,1.2375 0.34875,0.43875 1.20375,0.43875 0.30375,0 0.6525,-0.0563 0.34875,-0.0563 0.64125,-0.18 l 0.23625,1.3725 q -0.2925,0.12375 -0.73125,0.21375 -0.43875,0.09 -0.9675,0.09 -0.81,0 -1.395,-0.23625 -0.585,-0.2475 -0.9675,-0.66375 -0.37125,-0.41625 -0.55125,-0.97875 -0.16875,-0.57375 -0.16875,-1.2375 z"
       style="font-style:normal;font-variant:normal;font-weight:bold;font-stretch:normal;font-size:11.25px;line-height:125%;font-family:Ubuntu;-inkscape-font-specification:'Ubuntu, Bold';text-align:start;writing-mode:lr-tb;text-anchor:start"
       id="path4455"
       inkscape:connector-curvature="0" />
    <path
       d="m 65.389055,148.09302 q 0,-0.64125 0.2025,-1.20375 0.21375,-0.57375 0.6075,-0.99 0.39375,-0.4275 0.95625,-0.675 0.5625,-0.2475 1.2825,-0.2475 0.4725,0 0.86625,0.09 0.39375,0.0788 0.765,0.23625 l -0.34875,1.33875 q -0.23625,-0.09 -0.5175,-0.1575 -0.28125,-0.0675 -0.63,-0.0675 -0.7425,0 -1.11375,0.46125 -0.36,0.46125 -0.36,1.215 0,0.79875 0.3375,1.2375 0.34875,0.43875 1.20375,0.43875 0.30375,0 0.6525,-0.0563 0.34875,-0.0563 0.64125,-0.18 l 0.23625,1.3725 q -0.2925,0.12375 -0.73125,0.21375 -0.43875,0.09 -0.9675,0.09 -0.81,0 -1.395,-0.23625 -0.585,-0.2475 -0.9675,-0.66375 -0.37125,-0.41625 -0.55125,-0.97875 -0.16875,-0.57375 -0.16875,-1.2375 z"
       style="font-style:normal;font-variant:normal;font-weight:bold;font-stretch:normal;font-size:11.25px;line-height:125%;font-family:Ubuntu;-inkscape-font-specification:'Ubuntu, Bold';text-align:start;writing-mode:lr-tb;text-anchor:start"
       id="path4457"
       inkscape:connector-curvature="0" />
    <path
       d="m 70.72841,148.13802 q 0,-0.7875 0.23625,-1.3725 0.2475,-0.59625 0.64125,-0.99 0.39375,-0.39375 0.9,-0.59625 0.5175,-0.2025 1.0575,-0.2025 1.26,0 1.99125,0.77625 0.73125,0.765 0.73125,2.26125 0,0.14625 -0.01125,0.32625 -0.01125,0.16875 -0.0225,0.30375 l -3.8025,0 q 0.05625,0.5175 0.48375,0.82125 0.4275,0.30375 1.1475,0.30375 0.46125,0 0.9,-0.0788 0.45,-0.09 0.73125,-0.21375 l 0.225,1.36125 q -0.135,0.0675 -0.36,0.135 -0.225,0.0675 -0.50625,0.1125 -0.27,0.0563 -0.585,0.09 -0.315,0.0337 -0.63,0.0337 -0.79875,0 -1.395,-0.23625 -0.585,-0.23625 -0.97875,-0.64125 -0.3825,-0.41625 -0.57375,-0.97875 -0.18,-0.5625 -0.18,-1.215 z m 3.9375,-0.64125 q -0.01125,-0.21375 -0.07875,-0.41625 -0.05625,-0.2025 -0.19125,-0.36 -0.12375,-0.1575 -0.32625,-0.25875 -0.19125,-0.10125 -0.48375,-0.10125 -0.28125,0 -0.48375,0.10125 -0.2025,0.09 -0.3375,0.2475 -0.135,0.1575 -0.21375,0.37125 -0.0675,0.2025 -0.10125,0.41625 l 2.21625,0 z"
       style="font-style:normal;font-variant:normal;font-weight:bold;font-stretch:normal;font-size:11.25px;line-height:125%;font-family:Ubuntu;-inkscape-font-specification:'Ubuntu, Bold';text-align:start;writing-mode:lr-tb;text-anchor:start"
       id="path4459"
       inkscape:connector-curvature="0" />
    <path
       d="m 79.963957,151.16427 q -0.73125,-0.0112 -1.1925,-0.1575 -0.45,-0.14625 -0.72,-0.405 -0.25875,-0.27 -0.36,-0.64125 -0.09,-0.3825 -0.09,-0.855 l 0,-6.51375 1.67625,-0.27 0,6.44625 q 0,0.225 0.03375,0.405 0.03375,0.18 0.12375,0.30375 0.10125,0.12375 0.28125,0.2025 0.18,0.0787 0.48375,0.10125 l -0.23625,1.38375 z"
       style="font-style:normal;font-variant:normal;font-weight:bold;font-stretch:normal;font-size:11.25px;line-height:125%;font-family:Ubuntu;-inkscape-font-specification:'Ubuntu, Bold';text-align:start;writing-mode:lr-tb;text-anchor:start"
       id="path4461"
       inkscape:connector-curvature="0" />
  </g>
  <g
     style="font-style:normal;font-weight:normal;font-size:40px;line-height:125%;font-family:sans-serif;letter-spacing:0px;word-spacing:0px;fill:#000000;fill-opacity:1;stroke:none;stroke-width:1px;stroke-linecap:butt;stroke-linejoin:miter;stroke-opacity:1"
     id="text4422"
     transform="translate(0,32.844737)">
    <path
       d="m 13.84463,192.43052 q 0,0.57375 -0.135,1.08 -0.12375,0.50625 -0.45,0.88875 -0.315,0.37125 -0.86625,0.59625 -0.54,0.21375 -1.3725,0.21375 -0.765,0 -1.3162504,-0.18 -0.55125,-0.19125 -0.91125,-0.43875 l 0.585,-1.36125 q 0.32625,0.19125 0.6975004,0.3375 0.37125,0.14625 0.81,0.14625 0.64125,0 0.9225,-0.315 0.28125,-0.315 0.28125,-1.0575 l 0,-5.085 1.755,0 0,5.175 z"
       style="font-style:normal;font-variant:normal;font-weight:bold;font-stretch:normal;font-size:11.25px;line-height:125%;font-family:Ubuntu;-inkscape-font-specification:'Ubuntu, Bold';text-align:start;writing-mode:lr-tb;text-anchor:start"
       id="path4440"
       inkscape:connector-curvature="0" />
    <path
       d="m 17.099219,195.05177 -1.67625,0 0,-5.9175 1.67625,0 0,5.9175 z m 0.1575,-7.6275 q 0,0.46125 -0.30375,0.73125 -0.2925,0.25875 -0.6975,0.25875 -0.405,0 -0.70875,-0.25875 -0.2925,-0.27 -0.2925,-0.73125 0,-0.46125 0.2925,-0.72 0.30375,-0.27 0.70875,-0.27 0.405,0 0.6975,0.27 0.30375,0.25875 0.30375,0.72 z"
       style="font-style:normal;font-variant:normal;font-weight:bold;font-stretch:normal;font-size:11.25px;line-height:125%;font-family:Ubuntu;-inkscape-font-specification:'Ubuntu, Bold';text-align:start;writing-mode:lr-tb;text-anchor:start"
       id="path4442"
       inkscape:connector-curvature="0" />
    <path
       d="m 18.618673,187.66052 1.67625,-0.27 0,1.74375 2.01375,0 0,1.395 -2.01375,0 0,2.08125 q 0,0.52875 0.18,0.84375 0.19125,0.315 0.75375,0.315 0.27,0 0.55125,-0.045 0.2925,-0.0562 0.52875,-0.14625 l 0.23625,1.305 q -0.30375,0.12375 -0.675,0.21375 -0.37125,0.09 -0.91125,0.09 -0.68625,0 -1.13625,-0.18 -0.45,-0.19125 -0.72,-0.5175 -0.27,-0.3375 -0.3825,-0.81 -0.10125,-0.4725 -0.10125,-1.04625 l 0,-4.9725 z"
       style="font-style:normal;font-variant:normal;font-weight:bold;font-stretch:normal;font-size:11.25px;line-height:125%;font-family:Ubuntu;-inkscape-font-specification:'Ubuntu, Bold';text-align:start;writing-mode:lr-tb;text-anchor:start"
       id="path4444"
       inkscape:connector-curvature="0" />
    <path
       d="m 23.606466,187.66052 1.67625,-0.27 0,1.74375 2.01375,0 0,1.395 -2.01375,0 0,2.08125 q 0,0.52875 0.18,0.84375 0.19125,0.315 0.75375,0.315 0.27,0 0.55125,-0.045 0.2925,-0.0562 0.52875,-0.14625 l 0.23625,1.305 q -0.30375,0.12375 -0.675,0.21375 -0.37125,0.09 -0.91125,0.09 -0.68625,0 -1.13625,-0.18 -0.45,-0.19125 -0.72,-0.5175 -0.27,-0.3375 -0.3825,-0.81 -0.10125,-0.4725 -0.10125,-1.04625 l 0,-4.9725 z"
       style="font-style:normal;font-variant:normal;font-weight:bold;font-stretch:normal;font-size:11.25px;line-height:125%;font-family:Ubuntu;-inkscape-font-specification:'Ubuntu, Bold';text-align:start;writing-mode:lr-tb;text-anchor:start"
       id="path4446"
       inkscape:connector-curvature="0" />
    <path
       d="m 28.149532,192.13802 q 0,-0.7875 0.23625,-1.3725 0.2475,-0.59625 0.64125,-0.99 0.39375,-0.39375 0.9,-0.59625 0.5175,-0.2025 1.0575,-0.2025 1.26,0 1.99125,0.77625 0.73125,0.765 0.73125,2.26125 0,0.14625 -0.01125,0.32625 -0.01125,0.16875 -0.0225,0.30375 l -3.8025,0 q 0.05625,0.5175 0.48375,0.82125 0.4275,0.30375 1.1475,0.30375 0.46125,0 0.9,-0.0788 0.45,-0.09 0.73125,-0.21375 l 0.225,1.36125 q -0.135,0.0675 -0.36,0.135 -0.225,0.0675 -0.50625,0.1125 -0.27,0.0563 -0.585,0.09 -0.315,0.0337 -0.63,0.0337 -0.79875,0 -1.395,-0.23625 -0.585,-0.23625 -0.97875,-0.64125 -0.3825,-0.41625 -0.57375,-0.97875 -0.18,-0.5625 -0.18,-1.215 z m 3.9375,-0.64125 q -0.01125,-0.21375 -0.07875,-0.41625 -0.05625,-0.2025 -0.19125,-0.36 -0.12375,-0.1575 -0.32625,-0.25875 -0.19125,-0.10125 -0.48375,-0.10125 -0.28125,0 -0.48375,0.10125 -0.2025,0.09 -0.3375,0.2475 -0.135,0.1575 -0.21375,0.37125 -0.0675,0.2025 -0.10125,0.41625 l 2.21625,0 z"
       style="font-style:normal;font-variant:normal;font-weight:bold;font-stretch:normal;font-size:11.25px;line-height:125%;font-family:Ubuntu;-inkscape-font-specification:'Ubuntu, Bold';text-align:start;writing-mode:lr-tb;text-anchor:start"
       id="path4448"
       inkscape:connector-curvature="0" />
    <path
       d="m 38.588829,190.61927 q -0.225,-0.0563 -0.52875,-0.1125 -0.30375,-0.0675 -0.6525,-0.0675 -0.1575,0 -0.3825,0.0337 -0.21375,0.0225 -0.32625,0.0563 l 0,4.5225 -1.67625,0 0,-5.6025 q 0.45,-0.1575 1.0575,-0.2925 0.61875,-0.14625 1.3725,-0.14625 0.135,0 0.32625,0.0225 0.19125,0.0113 0.3825,0.045 0.19125,0.0225 0.3825,0.0675 0.19125,0.0337 0.32625,0.09 l -0.28125,1.38375 z"
       style="font-style:normal;font-variant:normal;font-weight:bold;font-stretch:normal;font-size:11.25px;line-height:125%;font-family:Ubuntu;-inkscape-font-specification:'Ubuntu, Bold';text-align:start;writing-mode:lr-tb;text-anchor:start"
       id="path4450"
       inkscape:connector-curvature="0" />
  </g>
  <g
     style="font-style:normal;font-weight:normal;font-size:40px;line-height:125%;font-family:sans-serif;letter-spacing:0px;word-spacing:0px;fill:#000000;fill-opacity:1;stroke:none;stroke-width:1px;stroke-linecap:butt;stroke-linejoin:miter;stroke-opacity:1"
     id="text4426"
     transform="translate(-0.24040936,32.844737)">
    <path
       d="m 52.978572,187.25552 q 0.2025,0.37125 0.46125,0.9225 0.27,0.54 0.55125,1.18125 0.2925,0.63 0.57375,1.29375 0.28125,0.66375 0.52875,1.24875 0.2475,-0.585 0.52875,-1.24875 0.28125,-0.66375 0.5625,-1.29375 0.2925,-0.64125 0.55125,-1.18125 0.27,-0.55125 0.4725,-0.9225 l 1.5975,0 q 0.1125,0.77625 0.2025,1.74375 0.10125,0.95625 0.16875,2.0025 0.07875,1.035 0.135,2.08125 0.0675,1.04625 0.1125,1.96875 l -1.71,0 q -0.03375,-1.13625 -0.09,-2.475 -0.05625,-1.33875 -0.16875,-2.7 -0.2025,0.4725 -0.45,1.04625 -0.2475,0.57375 -0.495,1.1475 -0.23625,0.57375 -0.46125,1.1025 -0.225,0.5175 -0.3825,0.88875 l -1.22625,0 q -0.1575,-0.37125 -0.3825,-0.88875 -0.225,-0.52875 -0.4725,-1.1025 -0.23625,-0.57375 -0.48375,-1.1475 -0.2475,-0.57375 -0.45,-1.04625 -0.1125,1.36125 -0.16875,2.7 -0.05625,1.33875 -0.09,2.475 l -1.71,0 q 0.045,-0.9225 0.10125,-1.96875 0.0675,-1.04625 0.135,-2.08125 0.07875,-1.04625 0.16875,-2.0025 0.10125,-0.9675 0.21375,-1.74375 l 1.67625,0 z"
       style="font-style:normal;font-variant:normal;font-weight:bold;font-stretch:normal;font-size:11.25px;line-height:125%;font-family:Ubuntu;-inkscape-font-specification:'Ubuntu, Bold';text-align:start;writing-mode:lr-tb;text-anchor:start"
       id="path4431"
       inkscape:connector-curvature="0" />
    <path
       d="m 66.416521,192.08177 q 0,0.6975 -0.2025,1.2825 -0.2025,0.57375 -0.585,0.99 -0.3825,0.405 -0.9225,0.63 -0.52875,0.225 -1.1925,0.225 -0.6525,0 -1.1925,-0.225 -0.52875,-0.225 -0.91125,-0.63 -0.3825,-0.41625 -0.59625,-0.99 -0.21375,-0.585 -0.21375,-1.2825 0,-0.6975 0.21375,-1.27125 0.225,-0.57375 0.6075,-0.97875 0.39375,-0.405 0.9225,-0.63 0.54,-0.225 1.17,-0.225 0.64125,0 1.17,0.225 0.54,0.225 0.9225,0.63 0.3825,0.405 0.59625,0.97875 0.21375,0.57375 0.21375,1.27125 z m -1.71,0 q 0,-0.77625 -0.315,-1.215 -0.30375,-0.45 -0.8775,-0.45 -0.57375,0 -0.88875,0.45 -0.315,0.43875 -0.315,1.215 0,0.77625 0.315,1.2375 0.315,0.45 0.88875,0.45 0.57375,0 0.8775,-0.45 0.315,-0.46125 0.315,-1.2375 z"
       style="font-style:normal;font-variant:normal;font-weight:bold;font-stretch:normal;font-size:11.25px;line-height:125%;font-family:Ubuntu;-inkscape-font-specification:'Ubuntu, Bold';text-align:start;writing-mode:lr-tb;text-anchor:start"
       id="path4433"
       inkscape:connector-curvature="0" />
    <path
       d="m 69.143767,192.04802 q 0,0.77625 0.34875,1.24875 0.34875,0.4725 1.035,0.4725 0.225,0 0.41625,-0.0113 0.19125,-0.0225 0.315,-0.045 l 0,-3.04875 q -0.1575,-0.10125 -0.41625,-0.16875 -0.2475,-0.0675 -0.50625,-0.0675 -1.1925,0 -1.1925,1.62 z m 3.79125,2.8125 q -0.225,0.0675 -0.5175,0.135 -0.2925,0.0563 -0.61875,0.10125 -0.315,0.045 -0.6525,0.0675 -0.32625,0.0338 -0.63,0.0338 -0.73125,0 -1.305,-0.21375 -0.57375,-0.21375 -0.9675,-0.6075 -0.39375,-0.405 -0.6075,-0.9675 -0.2025,-0.57375 -0.2025,-1.2825 0,-0.72 0.18,-1.29375 0.18,-0.585 0.5175,-0.99 0.3375,-0.405 0.82125,-0.61875 0.495,-0.21375 1.125,-0.21375 0.34875,0 0.61875,0.0675 0.28125,0.0675 0.5625,0.19125 l 0,-2.6775 1.67625,-0.27 0,8.53875 z"
       style="font-style:normal;font-variant:normal;font-weight:bold;font-stretch:normal;font-size:11.25px;line-height:125%;font-family:Ubuntu;-inkscape-font-specification:'Ubuntu, Bold';text-align:start;writing-mode:lr-tb;text-anchor:start"
       id="path4435"
       inkscape:connector-curvature="0" />
    <path
       d="m 74.223318,192.13802 q 0,-0.7875 0.23625,-1.3725 0.2475,-0.59625 0.64125,-0.99 0.39375,-0.39375 0.9,-0.59625 0.5175,-0.2025 1.0575,-0.2025 1.26,0 1.99125,0.77625 0.73125,0.765 0.73125,2.26125 0,0.14625 -0.01125,0.32625 -0.01125,0.16875 -0.0225,0.30375 l -3.8025,0 q 0.05625,0.5175 0.48375,0.82125 0.4275,0.30375 1.1475,0.30375 0.46125,0 0.9,-0.0788 0.45,-0.09 0.73125,-0.21375 l 0.225,1.36125 q -0.135,0.0675 -0.36,0.135 -0.225,0.0675 -0.50625,0.1125 -0.27,0.0563 -0.585,0.09 -0.315,0.0337 -0.63,0.0337 -0.79875,0 -1.395,-0.23625 -0.585,-0.23625 -0.97875,-0.64125 -0.3825,-0.41625 -0.57375,-0.97875 -0.18,-0.5625 -0.18,-1.215 z m 3.9375,-0.64125 q -0.01125,-0.21375 -0.07875,-0.41625 -0.05625,-0.2025 -0.19125,-0.36 -0.12375,-0.1575 -0.32625,-0.25875 -0.19125,-0.10125 -0.48375,-0.10125 -0.28125,0 -0.48375,0.10125 -0.2025,0.09 -0.3375,0.2475 -0.135,0.1575 -0.21375,0.37125 -0.0675,0.2025 -0.10125,0.41625 l 2.21625,0 z"
       style="font-style:normal;font-variant:normal;font-weight:bold;font-stretch:normal;font-size:11.25px;line-height:125%;font-family:Ubuntu;-inkscape-font-specification:'Ubuntu, Bold';text-align:start;writing-mode:lr-tb;text-anchor:start"
       id="path4437"
       inkscape:connector-curvature="0" />
  </g>
  <g
     style="font-style:normal;font-weight:normal;font-size:40px;line-height:125%;font-family:sans-serif;letter-spacing:0px;word-spacing:0px;fill:#000000;fill-opacity:1;stroke:none;stroke-width:1px;stroke-linecap:butt;stroke-linejoin:miter;stroke-opacity:1"
     id="text4508"
     transform="translate(0,12)">
    <path
       d="m 17.194297,242.11375 q 1.755,0 2.68875,0.63 0.93375,0.61875 0.93375,1.935 0,0.82125 -0.3825,1.33875 -0.37125,0.50625 -1.08,0.79875 0.23625,0.2925 0.495,0.675 0.25875,0.37125 0.50625,0.7875 0.25875,0.405 0.495,0.855 0.23625,0.43875 0.43875,0.86625 l -1.96875,0 q -0.21375,-0.3825 -0.43875,-0.77625 -0.21375,-0.39375 -0.45,-0.765 -0.225,-0.37125 -0.45,-0.6975 -0.225,-0.3375 -0.45,-0.6075 l -0.86625,0 0,2.84625 -1.755,0 0,-7.68375 q 0.57375,-0.1125 1.18125,-0.1575 0.61875,-0.045 1.1025,-0.045 z m 0.10125,1.49625 q -0.19125,0 -0.34875,0.0112 -0.14625,0.0112 -0.28125,0.0225 l 0,2.115 0.495,0 q 0.99,0 1.4175,-0.2475 0.4275,-0.2475 0.4275,-0.84375 0,-0.57375 -0.43875,-0.81 -0.4275,-0.2475 -1.27125,-0.2475 z"
       style="font-style:normal;font-variant:normal;font-weight:bold;font-stretch:normal;font-size:11.25px;line-height:125%;font-family:Ubuntu;-inkscape-font-specification:'Ubuntu, Bold';text-align:start;writing-mode:lr-tb;text-anchor:start"
       id="path4526"
       inkscape:connector-curvature="0" />
    <path
       d="m 21.745801,247.08625 q 0,-0.7875 0.23625,-1.3725 0.2475,-0.59625 0.64125,-0.99 0.39375,-0.39375 0.9,-0.59625 0.5175,-0.2025 1.0575,-0.2025 1.26,0 1.99125,0.77625 0.73125,0.765 0.73125,2.26125 0,0.14625 -0.01125,0.32625 -0.01125,0.16875 -0.0225,0.30375 l -3.8025,0 q 0.05625,0.5175 0.48375,0.82125 0.4275,0.30375 1.1475,0.30375 0.46125,0 0.9,-0.0788 0.45,-0.09 0.73125,-0.21375 l 0.225,1.36125 q -0.135,0.0675 -0.36,0.135 -0.225,0.0675 -0.50625,0.1125 -0.27,0.0563 -0.585,0.09 -0.315,0.0337 -0.63,0.0337 -0.79875,0 -1.395,-0.23625 -0.585,-0.23625 -0.97875,-0.64125 -0.3825,-0.41625 -0.57375,-0.97875 -0.18,-0.5625 -0.18,-1.215 z m 3.9375,-0.64125 q -0.01125,-0.21375 -0.07875,-0.41625 -0.05625,-0.2025 -0.19125,-0.36 -0.12375,-0.1575 -0.32625,-0.25875 -0.19125,-0.10125 -0.48375,-0.10125 -0.28125,0 -0.48375,0.10125 -0.2025,0.09 -0.3375,0.2475 -0.135,0.1575 -0.21375,0.37125 -0.0675,0.2025 -0.10125,0.41625 l 2.21625,0 z"
       style="font-style:normal;font-variant:normal;font-weight:bold;font-stretch:normal;font-size:11.25px;line-height:125%;font-family:Ubuntu;-inkscape-font-specification:'Ubuntu, Bold';text-align:start;writing-mode:lr-tb;text-anchor:start"
       id="path4528"
       inkscape:connector-curvature="0" />
    <path
       d="m 32.410097,247.08625 q 0,-0.77625 -0.34875,-1.2375 -0.34875,-0.4725 -1.035,-0.4725 -0.225,0 -0.41625,0.0225 -0.19125,0.0112 -0.315,0.0337 l 0,3.02625 q 0.1575,0.10125 0.405,0.16875 0.25875,0.0675 0.5175,0.0675 1.1925,0 1.1925,-1.60875 z m 1.71,-0.045 q 0,0.68625 -0.16875,1.24875 -0.16875,0.5625 -0.495,0.9675 -0.32625,0.405 -0.81,0.63 -0.48375,0.225 -1.11375,0.225 -0.34875,0 -0.6525,-0.0675 -0.30375,-0.0675 -0.585,-0.19125 l 0,2.2275 -1.67625,0 0,-7.79625 q 0.225,-0.0675 0.5175,-0.12375 0.2925,-0.0675 0.6075,-0.1125 0.32625,-0.045 0.6525,-0.0675 0.3375,-0.0337 0.64125,-0.0337 0.73125,0 1.305,0.225 0.57375,0.21375 0.9675,0.61875 0.39375,0.39375 0.59625,0.9675 0.21375,0.57375 0.21375,1.2825 z"
       style="font-style:normal;font-variant:normal;font-weight:bold;font-stretch:normal;font-size:11.25px;line-height:125%;font-family:Ubuntu;-inkscape-font-specification:'Ubuntu, Bold';text-align:start;writing-mode:lr-tb;text-anchor:start"
       id="path4530"
       inkscape:connector-curvature="0" />
  </g>
  <g
     style="font-style:normal;font-weight:normal;font-size:40px;line-height:125%;font-family:sans-serif;letter-spacing:0px;word-spacing:0px;fill:#000000;fill-opacity:1;stroke:none;stroke-width:1px;stroke-linecap:butt;stroke-linejoin:miter;stroke-opacity:1"
     id="text4512"
     transform="translate(-3.3188938,12)">
    <path
       d="m 59.949277,242.20375 0,1.49625 -2.35125,0 0,6.3 -1.755,0 0,-6.3 -2.35125,0 0,-1.49625 6.4575,0 z"
       style="font-style:normal;font-variant:normal;font-weight:bold;font-stretch:normal;font-size:11.25px;line-height:125%;font-family:Ubuntu;-inkscape-font-specification:'Ubuntu, Bold';text-align:start;writing-mode:lr-tb;text-anchor:start"
       id="path4517"
       inkscape:connector-curvature="0" />
    <path
       d="m 62.629941,250 -1.67625,0 0,-5.9175 1.67625,0 0,5.9175 z m 0.1575,-7.6275 q 0,0.46125 -0.30375,0.73125 -0.2925,0.25875 -0.6975,0.25875 -0.405,0 -0.70875,-0.25875 -0.2925,-0.27 -0.2925,-0.73125 0,-0.46125 0.2925,-0.72 0.30375,-0.27 0.70875,-0.27 0.405,0 0.6975,0.27 0.30375,0.25875 0.30375,0.72 z"
       style="font-style:normal;font-variant:normal;font-weight:bold;font-stretch:normal;font-size:11.25px;line-height:125%;font-family:Ubuntu;-inkscape-font-specification:'Ubuntu, Bold';text-align:start;writing-mode:lr-tb;text-anchor:start"
       id="path4519"
       inkscape:connector-curvature="0" />
    <path
       d="m 67.456894,246.86125 q 0,-0.81 -0.21375,-1.1475 -0.2025,-0.3375 -0.70875,-0.3375 -0.1575,0 -0.32625,0.0225 -0.16875,0.0112 -0.32625,0.0337 l 0,4.5675 -1.67625,0 0,-5.715 q 0.21375,-0.0563 0.495,-0.1125 0.2925,-0.0675 0.6075,-0.1125 0.32625,-0.0563 0.66375,-0.0788 0.3375,-0.0337 0.66375,-0.0337 0.64125,0 1.035,0.16875 0.405,0.1575 0.66375,0.3825 0.36,-0.25875 0.82125,-0.405 0.4725,-0.14625 0.86625,-0.14625 0.70875,0 1.15875,0.2025 0.46125,0.19125 0.73125,0.55125 0.27,0.36 0.37125,0.855 0.10125,0.495 0.10125,1.1025 l 0,3.34125 -1.67625,0 0,-3.13875 q 0,-0.81 -0.21375,-1.1475 -0.2025,-0.3375 -0.70875,-0.3375 -0.135,0 -0.3825,0.0675 -0.23625,0.0675 -0.39375,0.16875 0.07875,0.25875 0.10125,0.55125 0.0225,0.28125 0.0225,0.6075 l 0,3.22875 -1.67625,0 0,-3.13875 z"
       style="font-style:normal;font-variant:normal;font-weight:bold;font-stretch:normal;font-size:11.25px;line-height:125%;font-family:Ubuntu;-inkscape-font-specification:'Ubuntu, Bold';text-align:start;writing-mode:lr-tb;text-anchor:start"
       id="path4521"
       inkscape:connector-curvature="0" />
    <path
       d="m 73.614336,247.08625 q 0,-0.7875 0.23625,-1.3725 0.2475,-0.59625 0.64125,-0.99 0.39375,-0.39375 0.9,-0.59625 0.5175,-0.2025 1.0575,-0.2025 1.26,0 1.99125,0.77625 0.73125,0.765 0.73125,2.26125 0,0.14625 -0.01125,0.32625 -0.01125,0.16875 -0.0225,0.30375 l -3.8025,0 q 0.05625,0.5175 0.48375,0.82125 0.4275,0.30375 1.1475,0.30375 0.46125,0 0.9,-0.0788 0.45,-0.09 0.73125,-0.21375 l 0.225,1.36125 q -0.135,0.0675 -0.36,0.135 -0.225,0.0675 -0.50625,0.1125 -0.27,0.0563 -0.585,0.09 -0.315,0.0337 -0.63,0.0337 -0.79875,0 -1.395,-0.23625 -0.585,-0.23625 -0.97875,-0.64125 -0.3825,-0.41625 -0.57375,-0.97875 -0.18,-0.5625 -0.18,-1.215 z m 3.9375,-0.64125 q -0.01125,-0.21375 -0.07875,-0.41625 -0.05625,-0.2025 -0.19125,-0.36 -0.12375,-0.1575 -0.32625,-0.25875 -0.19125,-0.10125 -0.48375,-0.10125 -0.28125,0 -0.48375,0.10125 -0.2025,0.09 -0.3375,0.2475 -0.135,0.1575 -0.21375,0.37125 -0.0675,0.2025 -0.10125,0.41625 l 2.21625,0 z"
       style="font-style:normal;font-variant:normal;font-weight:bold;font-stretch:normal;font-size:11.25px;line-height:125%;font-family:Ubuntu;-inkscape-font-specification:'Ubuntu, Bold';text-align:start;writing-mode:lr-tb;text-anchor:start"
       id="path4523"
       inkscape:connector-curvature="0" />
  </g>
  <g
     style="font-style:normal;font-weight:normal;font-size:40px;line-height:125%;font-family:sans-serif;letter-spacing:0px;word-spacing:0px;fill:#000000;fill-opacity:1;stroke:none;stroke-width:1px;stroke-linecap:butt;stroke-linejoin:miter;stroke-opacity:1"
     id="text4532"
     transform="translate(0,2.8447661)">
    <path
       d="m 8.2877084,293.13969 q -1.22625,0 -1.7775,0.68625 -0.54,0.675 -0.54,1.85625 0,0.57375 0.135,1.04625 0.135,0.46125 0.405,0.79875 0.27,0.3375 0.675,0.52875 0.405,0.18 0.945,0.18 0.2925,0 0.495,-0.0113 0.21375,-0.0113 0.37125,-0.045 l 0,-2.71125 1.7549996,0 0,3.85875 q -0.315,0.12375 -1.0124996,0.25875 -0.6975,0.14625 -1.72125,0.14625 -0.8775,0 -1.5975,-0.27 -0.70875,-0.27 -1.215,-0.7875 -0.50625,-0.5175 -0.7875,-1.27125 -0.27,-0.75375 -0.27,-1.72125 0,-0.97875 0.30375,-1.7325 0.30375,-0.75375 0.8325,-1.27125 0.52875,-0.52875 1.2375,-0.79875 0.72,-0.27 1.53,-0.27 0.55125,0 0.99,0.0788 0.45,0.0675 0.765,0.16875 0.3262496,0.09 0.5287496,0.19125 0.21375,0.10125 0.30375,0.1575 l -0.50625,1.40625 q -0.3599996,-0.19125 -0.8324996,-0.32625 -0.46125,-0.14625 -1.0125,-0.14625 z"
       style="font-style:normal;font-variant:normal;font-weight:bold;font-stretch:normal;font-size:11.25px;line-height:125%;font-family:Ubuntu;-inkscape-font-specification:'Ubuntu, Bold';text-align:start;writing-mode:lr-tb;text-anchor:start"
       id="path4552"
       inkscape:connector-curvature="0" />
    <path
       d="m 14.544115,298.41594 q 0.2475,0 0.4725,-0.0112 0.225,-0.0113 0.36,-0.0337 l 0,-1.27125 q -0.10125,-0.0225 -0.30375,-0.045 -0.2025,-0.0225 -0.37125,-0.0225 -0.23625,0 -0.45,0.0337 -0.2025,0.0225 -0.36,0.10125 -0.1575,0.0788 -0.2475,0.21375 -0.09,0.135 -0.09,0.3375 0,0.39375 0.25875,0.55125 0.27,0.14625 0.73125,0.14625 z m -0.135,-4.905 q 0.7425,0 1.2375,0.16875 0.495,0.16875 0.7875,0.48375 0.30375,0.315 0.4275,0.765 0.12375,0.45 0.12375,1.00125 l 0,3.4875 q -0.36,0.0788 -1.00125,0.18 -0.64125,0.1125 -1.5525,0.1125 -0.57375,0 -1.04625,-0.10125 -0.46125,-0.10125 -0.79875,-0.32625 -0.3375,-0.23625 -0.5175,-0.6075 -0.18,-0.37125 -0.18,-0.91125 0,-0.5175 0.2025,-0.8775 0.21375,-0.36 0.5625,-0.57375 0.34875,-0.21375 0.79875,-0.30375 0.45,-0.10125 0.93375,-0.10125 0.32625,0 0.57375,0.0337 0.25875,0.0225 0.41625,0.0675 l 0,-0.1575 q 0,-0.4275 -0.25875,-0.68625 -0.25875,-0.25875 -0.9,-0.25875 -0.4275,0 -0.84375,0.0675 -0.41625,0.0563 -0.72,0.16875 l -0.21375,-1.35 q 0.14625,-0.045 0.36,-0.09 0.225,-0.0562 0.48375,-0.09 0.25875,-0.045 0.54,-0.0675 0.2925,-0.0337 0.585,-0.0337 z"
       style="font-style:normal;font-variant:normal;font-weight:bold;font-stretch:normal;font-size:11.25px;line-height:125%;font-family:Ubuntu;-inkscape-font-specification:'Ubuntu, Bold';text-align:start;writing-mode:lr-tb;text-anchor:start"
       id="path4554"
       inkscape:connector-curvature="0" />
    <path
       d="m 18.444876,292.19469 1.67625,-0.27 0,1.74375 2.01375,0 0,1.395 -2.01375,0 0,2.08125 q 0,0.52875 0.18,0.84375 0.19125,0.315 0.75375,0.315 0.27,0 0.55125,-0.045 0.2925,-0.0563 0.52875,-0.14625 l 0.23625,1.305 q -0.30375,0.12375 -0.675,0.21375 -0.37125,0.09 -0.91125,0.09 -0.68625,0 -1.13625,-0.18 -0.45,-0.19125 -0.72,-0.5175 -0.27,-0.3375 -0.3825,-0.81 -0.10125,-0.4725 -0.10125,-1.04625 l 0,-4.9725 z"
       style="font-style:normal;font-variant:normal;font-weight:bold;font-stretch:normal;font-size:11.25px;line-height:125%;font-family:Ubuntu;-inkscape-font-specification:'Ubuntu, Bold';text-align:start;writing-mode:lr-tb;text-anchor:start"
       id="path4556"
       inkscape:connector-curvature="0" />
    <path
       d="m 22.987943,296.67219 q 0,-0.7875 0.23625,-1.3725 0.2475,-0.59625 0.64125,-0.99 0.39375,-0.39375 0.9,-0.59625 0.5175,-0.2025 1.0575,-0.2025 1.26,0 1.99125,0.77625 0.73125,0.765 0.73125,2.26125 0,0.14625 -0.01125,0.32625 -0.01125,0.16875 -0.0225,0.30375 l -3.8025,0 q 0.05625,0.5175 0.48375,0.82125 0.4275,0.30375 1.1475,0.30375 0.46125,0 0.9,-0.0788 0.45,-0.09 0.73125,-0.21375 l 0.225,1.36125 q -0.135,0.0675 -0.36,0.135 -0.225,0.0675 -0.50625,0.1125 -0.27,0.0563 -0.585,0.09 -0.315,0.0337 -0.63,0.0337 -0.79875,0 -1.395,-0.23625 -0.585,-0.23625 -0.97875,-0.64125 -0.3825,-0.41625 -0.57375,-0.97875 -0.18,-0.5625 -0.18,-1.215 z m 3.9375,-0.64125 q -0.01125,-0.21375 -0.07875,-0.41625 -0.05625,-0.2025 -0.19125,-0.36 -0.12375,-0.1575 -0.32625,-0.25875 -0.19125,-0.10125 -0.48375,-0.10125 -0.28125,0 -0.48375,0.10125 -0.2025,0.09 -0.3375,0.2475 -0.135,0.1575 -0.21375,0.37125 -0.0675,0.2025 -0.10125,0.41625 l 2.21625,0 z"
       style="font-style:normal;font-variant:normal;font-weight:bold;font-stretch:normal;font-size:11.25px;line-height:125%;font-family:Ubuntu;-inkscape-font-specification:'Ubuntu, Bold';text-align:start;writing-mode:lr-tb;text-anchor:start"
       id="path4558"
       inkscape:connector-curvature="0" />
  </g>
  <g
     style="font-style:normal;font-weight:normal;font-size:40px;line-height:125%;font-family:sans-serif;letter-spacing:0px;word-spacing:0px;fill:#000000;fill-opacity:1;stroke:none;stroke-width:1px;stroke-linecap:butt;stroke-linejoin:miter;stroke-opacity:1"
     id="text4536"
     transform="translate(0,2.8447661)">
    <path
       d="m 60.917399,299.74344 q -1.90125,0 -2.9025,-1.0575 -0.99,-1.0575 -0.99,-3.00375 0,-0.9675 0.30375,-1.72125 0.30375,-0.765 0.8325,-1.2825 0.52875,-0.52875 1.26,-0.79875 0.73125,-0.27 1.58625,-0.27 0.495,0 0.9,0.0788 0.405,0.0675 0.70875,0.16875 0.30375,0.09 0.50625,0.19125 0.2025,0.10125 0.2925,0.1575 l -0.50625,1.4175 q -0.36,-0.19125 -0.84375,-0.32625 -0.4725,-0.135 -1.08,-0.135 -0.405,0 -0.79875,0.135 -0.3825,0.135 -0.68625,0.43875 -0.2925,0.2925 -0.4725,0.765 -0.18,0.4725 -0.18,1.1475 0,0.54 0.1125,1.0125 0.12375,0.46125 0.3825,0.79875 0.27,0.3375 0.6975,0.54 0.4275,0.19125 1.035,0.19125 0.3825,0 0.68625,-0.045 0.30375,-0.045 0.54,-0.10125 0.23625,-0.0675 0.41625,-0.14625 0.18,-0.0788 0.32625,-0.14625 l 0.48375,1.40625 q -0.37125,0.225 -1.04625,0.405 -0.675,0.18 -1.56375,0.18 z"
       style="font-style:normal;font-variant:normal;font-weight:bold;font-stretch:normal;font-size:11.25px;line-height:125%;font-family:Ubuntu;-inkscape-font-specification:'Ubuntu, Bold';text-align:start;writing-mode:lr-tb;text-anchor:start"
       id="path4541"
       inkscape:connector-curvature="0" />
    <path
       d="m 66.90732,299.69844 q -0.73125,-0.0113 -1.1925,-0.1575 -0.45,-0.14625 -0.72,-0.405 -0.25875,-0.27 -0.36,-0.64125 -0.09,-0.3825 -0.09,-0.855 l 0,-6.51375 1.67625,-0.27 0,6.44625 q 0,0.225 0.03375,0.405 0.03375,0.18 0.12375,0.30375 0.10125,0.12375 0.28125,0.2025 0.18,0.0788 0.48375,0.10125 l -0.23625,1.38375 z"
       style="font-style:normal;font-variant:normal;font-weight:bold;font-stretch:normal;font-size:11.25px;line-height:125%;font-family:Ubuntu;-inkscape-font-specification:'Ubuntu, Bold';text-align:start;writing-mode:lr-tb;text-anchor:start"
       id="path4543"
       inkscape:connector-curvature="0" />
    <path
       d="m 73.639391,296.61594 q 0,0.6975 -0.2025,1.2825 -0.2025,0.57375 -0.585,0.99 -0.3825,0.405 -0.9225,0.63 -0.52875,0.225 -1.1925,0.225 -0.6525,0 -1.1925,-0.225 -0.52875,-0.225 -0.91125,-0.63 -0.3825,-0.41625 -0.59625,-0.99 -0.21375,-0.585 -0.21375,-1.2825 0,-0.6975 0.21375,-1.27125 0.225,-0.57375 0.6075,-0.97875 0.39375,-0.405 0.9225,-0.63 0.54,-0.225 1.17,-0.225 0.64125,0 1.17,0.225 0.54,0.225 0.9225,0.63 0.3825,0.405 0.59625,0.97875 0.21375,0.57375 0.21375,1.27125 z m -1.71,0 q 0,-0.77625 -0.315,-1.215 -0.30375,-0.45 -0.8775,-0.45 -0.57375,0 -0.88875,0.45 -0.315,0.43875 -0.315,1.215 0,0.77625 0.315,1.2375 0.315,0.45 0.88875,0.45 0.57375,0 0.8775,-0.45 0.315,-0.46125 0.315,-1.2375 z"
       style="font-style:normal;font-variant:normal;font-weight:bold;font-stretch:normal;font-size:11.25px;line-height:125%;font-family:Ubuntu;-inkscape-font-specification:'Ubuntu, Bold';text-align:start;writing-mode:lr-tb;text-anchor:start"
       id="path4545"
       inkscape:connector-curvature="0" />
    <path
       d="m 74.656637,296.62719 q 0,-0.64125 0.2025,-1.20375 0.21375,-0.57375 0.6075,-0.99 0.39375,-0.4275 0.95625,-0.675 0.5625,-0.2475 1.2825,-0.2475 0.4725,0 0.86625,0.09 0.39375,0.0788 0.765,0.23625 l -0.34875,1.33875 q -0.23625,-0.09 -0.5175,-0.1575 -0.28125,-0.0675 -0.63,-0.0675 -0.7425,0 -1.11375,0.46125 -0.36,0.46125 -0.36,1.215 0,0.79875 0.3375,1.2375 0.34875,0.43875 1.20375,0.43875 0.30375,0 0.6525,-0.0563 0.34875,-0.0562 0.64125,-0.18 l 0.23625,1.3725 q -0.2925,0.12375 -0.73125,0.21375 -0.43875,0.09 -0.9675,0.09 -0.81,0 -1.395,-0.23625 -0.585,-0.2475 -0.9675,-0.66375 -0.37125,-0.41625 -0.55125,-0.97875 -0.16875,-0.57375 -0.16875,-1.2375 z"
       style="font-style:normal;font-variant:normal;font-weight:bold;font-stretch:normal;font-size:11.25px;line-height:125%;font-family:Ubuntu;-inkscape-font-specification:'Ubuntu, Bold';text-align:start;writing-mode:lr-tb;text-anchor:start"
       id="path4547"
       inkscape:connector-curvature="0" />
    <path
       d="m 82.239137,295.80594 q 0.2475,-0.27 0.50625,-0.5625 0.27,-0.2925 0.5175,-0.57375 0.2475,-0.2925 0.46125,-0.55125 0.225,-0.25875 0.3825,-0.45 l 1.99125,0 q -0.59625,0.68625 -1.17,1.31625 -0.5625,0.61875 -1.2375,1.2825 0.3375,0.30375 0.6975,0.73125 0.36,0.41625 0.6975,0.86625 0.3375,0.45 0.61875,0.9 0.28125,0.45 0.4725,0.82125 l -1.92375,0 q -0.18,-0.2925 -0.41625,-0.64125 -0.225,-0.36 -0.48375,-0.70875 -0.25875,-0.36 -0.55125,-0.68625 -0.28125,-0.32625 -0.5625,-0.55125 l 0,2.5875 -1.67625,0 0,-8.46 1.67625,-0.27 0,4.95 z"
       style="font-style:normal;font-variant:normal;font-weight:bold;font-stretch:normal;font-size:11.25px;line-height:125%;font-family:Ubuntu;-inkscape-font-specification:'Ubuntu, Bold';text-align:start;writing-mode:lr-tb;text-anchor:start"
       id="path4549"
       inkscape:connector-curvature="0" />
  </g>
  <g
     style="font-style:normal;font-weight:normal;font-size:40px;line-height:125%;font-family:sans-serif;letter-spacing:0px;word-spacing:0px;fill:#e6e6e6;fill-opacity:1;stroke:none;stroke-width:1px;stroke-linecap:butt;stroke-linejoin:miter;stroke-opacity:1"
     id="text4572">
    <path
       d="m 12.633782,371 q -1.90125,0 -2.9025005,-1.0575 -0.99,-1.0575 -0.99,-3.00375 0,-0.9675 0.30375,-1.72125 0.30375,-0.765 0.8325,-1.2825 0.5287505,-0.52875 1.2600005,-0.79875 0.73125,-0.27 1.58625,-0.27 0.495,0 0.9,0.0788 0.405,0.0675 0.70875,0.16875 0.30375,0.09 0.50625,0.19125 0.2025,0.10125 0.2925,0.1575 l -0.50625,1.4175 q -0.36,-0.19125 -0.84375,-0.32625 -0.4725,-0.135 -1.08,-0.135 -0.405,0 -0.79875,0.135 -0.3825,0.135 -0.68625,0.43875 -0.2925,0.2925 -0.4725,0.765 -0.18,0.4725 -0.18,1.1475 0,0.54 0.1125,1.0125 0.12375,0.46125 0.3825,0.79875 0.27,0.3375 0.6975,0.54 0.4275,0.19125 1.035,0.19125 0.3825,0 0.68625,-0.045 0.30375,-0.045 0.54,-0.10125 0.23625,-0.0675 0.41625,-0.14625 0.18,-0.0787 0.32625,-0.14625 l 0.48375,1.40625 q -0.37125,0.225 -1.04625,0.405 -0.675,0.18 -1.56375,0.18 z"
       style="font-style:normal;font-variant:normal;font-weight:bold;font-stretch:normal;font-size:11.25px;line-height:125%;font-family:Ubuntu;-inkscape-font-specification:'Ubuntu, Bold';text-align:start;writing-mode:lr-tb;text-anchor:start;fill:#e6e6e6"
       id="path4601" />
    <path
       d="m 18.91093,370.8425 q -0.46125,-0.97875 -0.91125,-2.03625 -0.45,-1.0575 -0.855,-2.0925 -0.405,-1.035 -0.75375,-1.98 -0.3375,-0.945 -0.585,-1.6875 l 1.935,0 q 0.225,0.675 0.48375,1.4625 0.27,0.77625 0.54,1.5525 0.28125,0.77625 0.54,1.485 0.25875,0.70875 0.48375,1.22625 0.21375,-0.5175 0.4725,-1.22625 0.27,-0.70875 0.54,-1.485 0.28125,-0.77625 0.54,-1.5525 0.27,-0.7875 0.495,-1.4625 l 1.8675,0 q -0.25875,0.7425 -0.59625,1.6875 -0.3375,0.945 -0.7425,1.98 -0.405,1.035 -0.855,2.0925 -0.45,1.0575 -0.91125,2.03625 l -1.6875,0 z"
       style="font-style:normal;font-variant:normal;font-weight:bold;font-stretch:normal;font-size:11.25px;line-height:125%;font-family:Ubuntu;-inkscape-font-specification:'Ubuntu, Bold';text-align:start;writing-mode:lr-tb;text-anchor:start;fill:#e6e6e6"
       id="path4603" />
  </g>
  <g
     style="font-style:normal;font-weight:normal;font-size:40px;line-height:125%;font-family:sans-serif;letter-spacing:0px;word-spacing:0px;fill:#e6e6e6;fill-opacity:1;stroke:none;stroke-width:1px;stroke-linecap:butt;stroke-linejoin:miter;stroke-opacity:1"
     id="text4576"
     transform="translate(-1.0057767,0)">
    <path
       d="m 34.161154,370.8425 0,-7.79625 5.265,0 0,1.47375 -3.51,0 0,1.53 3.11625,0 0,1.44 -3.11625,0 0,1.87875 3.76875,0 0,1.47375 -5.52375,0 z"
       style="font-style:normal;font-variant:normal;font-weight:bold;font-stretch:normal;font-size:11.25px;line-height:125%;font-family:Ubuntu;-inkscape-font-specification:'Ubuntu, Bold';text-align:start;writing-mode:lr-tb;text-anchor:start;fill:#e6e6e6"
       id="path4594"
       inkscape:connector-curvature="0" />
    <path
       d="m 42.248674,366.93875 q 0,0.57375 0.135,1.035 0.14625,0.46125 0.405,0.79875 0.27,0.32625 0.6525,0.50625 0.3825,0.18 0.8775,0.18 0.48375,0 0.86625,-0.18 0.39375,-0.18 0.6525,-0.50625 0.27,-0.3375 0.405,-0.79875 0.14625,-0.46125 0.14625,-1.035 0,-0.57375 -0.14625,-1.035 -0.135,-0.4725 -0.405,-0.79875 -0.25875,-0.3375 -0.6525,-0.5175 -0.3825,-0.18 -0.86625,-0.18 -0.495,0 -0.8775,0.19125 -0.3825,0.18 -0.6525,0.5175 -0.25875,0.32625 -0.405,0.79875 -0.135,0.46125 -0.135,1.02375 z m 5.95125,0 q 0,1.00125 -0.30375,1.76625 -0.2925,0.75375 -0.81,1.27125 -0.5175,0.50625 -1.2375,0.765 -0.70875,0.25875 -1.53,0.25875 -0.79875,0 -1.5075,-0.25875 -0.70875,-0.25875 -1.2375,-0.765 -0.52875,-0.5175 -0.8325,-1.27125 -0.30375,-0.765 -0.30375,-1.76625 0,-1.00125 0.315,-1.755 0.315,-0.765 0.84375,-1.2825 0.54,-0.5175 1.2375,-0.77625 0.70875,-0.25875 1.485,-0.25875 0.79875,0 1.5075,0.25875 0.70875,0.25875 1.2375,0.77625 0.52875,0.5175 0.8325,1.2825 0.30375,0.75375 0.30375,1.755 z"
       style="font-style:normal;font-variant:normal;font-weight:bold;font-stretch:normal;font-size:11.25px;line-height:125%;font-family:Ubuntu;-inkscape-font-specification:'Ubuntu, Bold';text-align:start;writing-mode:lr-tb;text-anchor:start;fill:#e6e6e6"
       id="path4596"
       inkscape:connector-curvature="0" />
    <path
       d="m 53.228849,371 q -1.90125,0 -2.9025,-1.0575 -0.99,-1.0575 -0.99,-3.00375 0,-0.9675 0.30375,-1.72125 0.30375,-0.765 0.8325,-1.2825 0.52875,-0.52875 1.26,-0.79875 0.73125,-0.27 1.58625,-0.27 0.495,0 0.9,0.0788 0.405,0.0675 0.70875,0.16875 0.30375,0.09 0.50625,0.19125 0.2025,0.10125 0.2925,0.1575 l -0.50625,1.4175 q -0.36,-0.19125 -0.84375,-0.32625 -0.4725,-0.135 -1.08,-0.135 -0.405,0 -0.79875,0.135 -0.3825,0.135 -0.68625,0.43875 -0.2925,0.2925 -0.4725,0.765 -0.18,0.4725 -0.18,1.1475 0,0.54 0.1125,1.0125 0.12375,0.46125 0.3825,0.79875 0.27,0.3375 0.6975,0.54 0.4275,0.19125 1.035,0.19125 0.3825,0 0.68625,-0.045 0.30375,-0.045 0.54,-0.10125 0.23625,-0.0675 0.41625,-0.14625 0.18,-0.0787 0.32625,-0.14625 l 0.48375,1.40625 q -0.37125,0.225 -1.04625,0.405 -0.675,0.18 -1.56375,0.18 z"
       style="font-style:normal;font-variant:normal;font-weight:bold;font-stretch:normal;font-size:11.25px;line-height:125%;font-family:Ubuntu;-inkscape-font-specification:'Ubuntu, Bold';text-align:start;writing-mode:lr-tb;text-anchor:start;fill:#e6e6e6"
       id="path4598"
       inkscape:connector-curvature="0" />
  </g>
  <g
     style="font-style:normal;font-weight:normal;font-size:40px;line-height:125%;font-family:sans-serif;letter-spacing:0px;word-spacing:0px;fill:#e6e6e6;fill-opacity:1;stroke:none;stroke-width:1px;stroke-linecap:butt;stroke-linejoin:miter;stroke-opacity:1"
     id="text4580"
     transform="translate(0.6705178,0)">
    <path
       d="m 63.765366,364.39625 q -1.22625,0 -1.7775,0.68625 -0.54,0.675 -0.54,1.85625 0,0.57375 0.135,1.04625 0.135,0.46125 0.405,0.79875 0.27,0.3375 0.675,0.52875 0.405,0.18 0.945,0.18 0.2925,0 0.495,-0.0113 0.21375,-0.0112 0.37125,-0.045 l 0,-2.71125 1.755,0 0,3.85875 q -0.315,0.12375 -1.0125,0.25875 -0.6975,0.14625 -1.72125,0.14625 -0.8775,0 -1.5975,-0.27 -0.70875,-0.27 -1.215,-0.7875 -0.50625,-0.5175 -0.7875,-1.27125 -0.27,-0.75375 -0.27,-1.72125 0,-0.97875 0.30375,-1.7325 0.30375,-0.75375 0.8325,-1.27125 0.52875,-0.52875 1.2375,-0.79875 0.72,-0.27 1.53,-0.27 0.55125,0 0.99,0.0788 0.45,0.0675 0.765,0.16875 0.32625,0.09 0.52875,0.19125 0.21375,0.10125 0.30375,0.1575 l -0.50625,1.40625 q -0.36,-0.19125 -0.8325,-0.32625 -0.46125,-0.14625 -1.0125,-0.14625 z"
       style="font-style:normal;font-variant:normal;font-weight:bold;font-stretch:normal;font-size:11.25px;line-height:125%;font-family:Ubuntu;-inkscape-font-specification:'Ubuntu, Bold';text-align:start;writing-mode:lr-tb;text-anchor:start;fill:#e6e6e6"
       id="path4585"
       inkscape:connector-curvature="0" />
    <path
       d="m 70.021772,369.6725 q 0.2475,0 0.4725,-0.0113 0.225,-0.0113 0.36,-0.0337 l 0,-1.27125 q -0.10125,-0.0225 -0.30375,-0.045 -0.2025,-0.0225 -0.37125,-0.0225 -0.23625,0 -0.45,0.0337 -0.2025,0.0225 -0.36,0.10125 -0.1575,0.0788 -0.2475,0.21375 -0.09,0.135 -0.09,0.3375 0,0.39375 0.25875,0.55125 0.27,0.14625 0.73125,0.14625 z m -0.135,-4.905 q 0.7425,0 1.2375,0.16875 0.495,0.16875 0.7875,0.48375 0.30375,0.315 0.4275,0.765 0.12375,0.45 0.12375,1.00125 l 0,3.4875 q -0.36,0.0788 -1.00125,0.18 -0.64125,0.1125 -1.5525,0.1125 -0.57375,0 -1.04625,-0.10125 -0.46125,-0.10125 -0.79875,-0.32625 -0.3375,-0.23625 -0.5175,-0.6075 -0.18,-0.37125 -0.18,-0.91125 0,-0.5175 0.2025,-0.8775 0.21375,-0.36 0.5625,-0.57375 0.34875,-0.21375 0.79875,-0.30375 0.45,-0.10125 0.93375,-0.10125 0.32625,0 0.57375,0.0337 0.25875,0.0225 0.41625,0.0675 l 0,-0.1575 q 0,-0.4275 -0.25875,-0.68625 -0.25875,-0.25875 -0.9,-0.25875 -0.4275,0 -0.84375,0.0675 -0.41625,0.0562 -0.72,0.16875 l -0.21375,-1.35 q 0.14625,-0.045 0.36,-0.09 0.225,-0.0563 0.48375,-0.09 0.25875,-0.045 0.54,-0.0675 0.2925,-0.0337 0.585,-0.0337 z"
       style="font-style:normal;font-variant:normal;font-weight:bold;font-stretch:normal;font-size:11.25px;line-height:125%;font-family:Ubuntu;-inkscape-font-specification:'Ubuntu, Bold';text-align:start;writing-mode:lr-tb;text-anchor:start;fill:#e6e6e6"
       id="path4587"
       inkscape:connector-curvature="0" />
    <path
       d="m 73.922534,363.45125 1.67625,-0.27 0,1.74375 2.01375,0 0,1.395 -2.01375,0 0,2.08125 q 0,0.52875 0.18,0.84375 0.19125,0.315 0.75375,0.315 0.27,0 0.55125,-0.045 0.2925,-0.0562 0.52875,-0.14625 l 0.23625,1.305 q -0.30375,0.12375 -0.675,0.21375 -0.37125,0.09 -0.91125,0.09 -0.68625,0 -1.13625,-0.18 -0.45,-0.19125 -0.72,-0.5175 -0.27,-0.3375 -0.3825,-0.81 -0.10125,-0.4725 -0.10125,-1.04625 l 0,-4.9725 z"
       style="font-style:normal;font-variant:normal;font-weight:bold;font-stretch:normal;font-size:11.25px;line-height:125%;font-family:Ubuntu;-inkscape-font-specification:'Ubuntu, Bold';text-align:start;writing-mode:lr-tb;text-anchor:start;fill:#e6e6e6"
       id="path4589"
       inkscape:connector-curvature="0" />
    <path
       d="m 78.465601,367.92875 q 0,-0.7875 0.23625,-1.3725 0.2475,-0.59625 0.64125,-0.99 0.39375,-0.39375 0.9,-0.59625 0.5175,-0.2025 1.0575,-0.2025 1.26,0 1.99125,0.77625 0.73125,0.765 0.73125,2.26125 0,0.14625 -0.01125,0.32625 -0.01125,0.16875 -0.0225,0.30375 l -3.8025,0 q 0.05625,0.5175 0.48375,0.82125 0.4275,0.30375 1.1475,0.30375 0.46125,0 0.9,-0.0788 0.45,-0.09 0.73125,-0.21375 l 0.225,1.36125 q -0.135,0.0675 -0.36,0.135 -0.225,0.0675 -0.50625,0.1125 -0.27,0.0562 -0.585,0.09 -0.315,0.0337 -0.63,0.0337 -0.79875,0 -1.395,-0.23625 -0.585,-0.23625 -0.97875,-0.64125 -0.3825,-0.41625 -0.57375,-0.97875 -0.18,-0.5625 -0.18,-1.215 z m 3.9375,-0.64125 q -0.01125,-0.21375 -0.07875,-0.41625 -0.05625,-0.2025 -0.19125,-0.36 -0.12375,-0.1575 -0.32625,-0.25875 -0.19125,-0.10125 -0.48375,-0.10125 -0.28125,0 -0.48375,0.10125 -0.2025,0.09 -0.3375,0.2475 -0.135,0.1575 -0.21375,0.37125 -0.0675,0.2025 -0.10125,0.41625 l 2.21625,0 z"
       style="font-style:normal;font-variant:normal;font-weight:bold;font-stretch:normal;font-size:11.25px;line-height:125%;font-family:Ubuntu;-inkscape-font-specification:'Ubuntu, Bold';text-align:start;writing-mode:lr-tb;text-anchor:start;fill:#e6e6e6"
       id="path4591"
       inkscape:connector-curvature="0" />
  </g>
</svg>
