<?xml version="1.0" encoding="UTF-8" standalone="no"?>
<!-- Created with Inkscape (http://www.inkscape.org/) -->

<svg
   xmlns:dc="http://purl.org/dc/elements/1.1/"
   xmlns:cc="http://creativecommons.org/ns#"
   xmlns:rdf="http://www.w3.org/1999/02/22-rdf-syntax-ns#"
   xmlns:svg="http://www.w3.org/2000/svg"
   xmlns="http://www.w3.org/2000/svg"
   xmlns:sodipodi="http://sodipodi.sourceforge.net/DTD/sodipodi-0.dtd"
   xmlns:inkscape="http://www.inkscape.org/namespaces/inkscape"
   width="120"
   height="380"
   viewBox="0 0 31.75 100.54167"
   version="1.1"
   id="svg8"
   inkscape:version="0.92.2 2405546, 2018-03-11"
   sodipodi:docname="Erwin.svg"
   inkscape:export-filename="E:\Users\Martin\Documents\Rack_Source\rack\plugins\ML_modules\res\Quantum.png"
   inkscape:export-xdpi="96"
   inkscape:export-ydpi="96">
  <defs
     id="defs2">
    <inkscape:perspective
       sodipodi:type="inkscape:persp3d"
       inkscape:vp_x="0 : 50.270835 : 1"
       inkscape:vp_y="0 : 1000 : 0"
       inkscape:vp_z="31.75 : 50.270835 : 1"
       inkscape:persp3d-origin="15.875 : 33.51389 : 1"
       id="perspective4742" />
  </defs>
  <sodipodi:namedview
     id="base"
     pagecolor="#ffffff"
     bordercolor="#666666"
     borderopacity="1.0"
     inkscape:pageopacity="0.0"
     inkscape:pageshadow="2"
     inkscape:zoom="2.8284271"
     inkscape:cx="79.933613"
     inkscape:cy="210.01096"
     inkscape:document-units="px"
     inkscape:current-layer="layer1"
     showgrid="true"
     units="px"
     fit-margin-top="0"
     fit-margin-left="0"
     fit-margin-right="0"
     fit-margin-bottom="0"
     showguides="true"
     inkscape:snap-to-guides="false"
     objecttolerance="20"
     inkscape:window-width="1898"
     inkscape:window-height="1026"
     inkscape:window-x="10"
     inkscape:window-y="42"
     inkscape:window-maximized="1"
     gridtolerance="17"
     inkscape:snap-perpendicular="false"
     inkscape:pagecheckerboard="true"
     inkscape:snap-page="false"
     inkscape:snap-text-baseline="true"
     inkscape:object-nodes="false"
     inkscape:snap-global="false">
    <inkscape:grid
       type="xygrid"
       id="grid43"
       originx="-7.3436628e-018"
       originy="100.54167"
       spacingx="0.52916668"
       spacingy="0.52916668"
       dotted="false"
       empspacing="20" />
  </sodipodi:namedview>
  <metadata
     id="metadata5">
    <rdf:RDF>
      <cc:Work
         rdf:about="">
        <dc:format>image/svg+xml</dc:format>
        <dc:type
           rdf:resource="http://purl.org/dc/dcmitype/StillImage" />
        <dc:title></dc:title>
      </cc:Work>
    </rdf:RDF>
  </metadata>
  <g
     inkscape:label="Layer 1"
     inkscape:groupmode="layer"
     id="layer1"
     transform="translate(0,-196.45832)"
     style="display:inline">
    <rect
       style="opacity:1;fill:#cdcfca;fill-opacity:1;stroke:#000000;stroke-width:0.26458335;stroke-linecap:square;stroke-miterlimit:4;stroke-dasharray:none;stroke-dashoffset:0;stroke-opacity:0.98999999"
       id="rect973"
       width="31.75"
       height="100.40938"
       x="-7.3436632e-18"
       y="196.45831"
       ry="0" />
    <rect
       style="fill:#808080;fill-opacity:1;stroke:#000000;stroke-width:0.26458334;stroke-opacity:0.99000001;stroke-miterlimit:4;stroke-dasharray:none"
       id="rect4778"
       width="10.583334"
       height="34.395832"
       x="17.864887"
       y="222.38744"
       ry="1.0583334" />
    <rect
       ry="1.0583334"
       y="257.84164"
       x="17.864887"
       height="34.395832"
       width="10.583334"
       id="rect101"
       style="fill:#323232;fill-opacity:1;stroke:#000000;stroke-width:0.26458334;stroke-opacity:0.99000001;stroke-miterlimit:4;stroke-dasharray:none" />
    <rect
       id="rect26-7-3-4-6-26"
       width="12.699998"
       height="24.819998"
       x="3.1749961"
       y="209.42279"
       style="fill:#808080;fill-opacity:1;stroke-width:0.26458334;stroke:#000000;stroke-opacity:0.99000001;stroke-miterlimit:4;stroke-dasharray:none"
       ry="1.0583334" />
    <rect
       id="rect26-7-3-4-6-26-7"
       width="10.583334"
       height="11.641665"
       x="17.991661"
       y="209.42279"
       style="fill:#808080;fill-opacity:1;stroke-width:0.26458334;stroke:#000000;stroke-opacity:0.99000001;stroke-miterlimit:4;stroke-dasharray:none"
       ry="1.0583334" />
    <g
       aria-label="In"
       style="font-style:normal;font-weight:normal;font-size:3.17500019px;line-height:125%;font-family:Sans;letter-spacing:0px;word-spacing:0px;fill:#000000;fill-opacity:1;stroke:none;stroke-width:0.26458335px;stroke-linecap:butt;stroke-linejoin:miter;stroke-opacity:1"
       id="text848"
       transform="translate(0,0.56126604)">
      <path
         d="m 21.94941,222.68261 h 0.4953 v 2.20028 h -0.4953 z"
         style="font-style:normal;font-variant:normal;font-weight:bold;font-stretch:normal;font-size:3.17499995px;font-family:Ubuntu;-inkscape-font-specification:'Ubuntu, Bold';font-variant-ligatures:normal;font-variant-caps:normal;font-variant-numeric:normal;font-feature-settings:normal;text-align:start;writing-mode:lr-tb;text-anchor:start;fill:#323232;fill-opacity:1;stroke-width:0.26458335px"
         id="path869"
         inkscape:connector-curvature="0" />
      <path
         d="m 22.92225,223.26999 q 0.12065,-0.0349 0.31115,-0.0635 0.1905,-0.0317 0.40005,-0.0317 0.212725,0 0.352425,0.0571 0.142875,0.054 0.225425,0.15557 0.08255,0.1016 0.117475,0.2413 0.03493,0.1397 0.03493,0.31115 v 0.94298 H 23.89063 v -0.88583 q 0,-0.2286 -0.06032,-0.32385 -0.06033,-0.0953 -0.225425,-0.0953 -0.0508,0 -0.10795,0.006 -0.05715,0.003 -0.1016,0.01 v 1.28905 H 22.92225 Z"
         style="font-style:normal;font-variant:normal;font-weight:bold;font-stretch:normal;font-size:3.17499995px;font-family:Ubuntu;-inkscape-font-specification:'Ubuntu, Bold';font-variant-ligatures:normal;font-variant-caps:normal;font-variant-numeric:normal;font-feature-settings:normal;text-align:start;writing-mode:lr-tb;text-anchor:start;fill:#323232;fill-opacity:1;stroke-width:0.26458335px"
         id="path871"
         inkscape:connector-curvature="0" />
    </g>
    <g
       aria-label="Semi"
       style="font-style:normal;font-weight:normal;font-size:3.17500019px;line-height:125%;font-family:Sans;letter-spacing:0px;word-spacing:0px;fill:#000000;fill-opacity:1;stroke:none;stroke-width:0.26458335px;stroke-linecap:butt;stroke-linejoin:miter;stroke-opacity:1"
       id="text852"
       transform="translate(0.58672356,-0.4677217)">
      <path
         d="m 19.903649,220.11683 q 0.104775,0 0.17145,-0.0159 0.06985,-0.019 0.111125,-0.0476 0.04128,-0.0317 0.05715,-0.073 0.01588,-0.0413 0.01588,-0.0921 0,-0.10795 -0.1016,-0.1778 -0.1016,-0.073 -0.34925,-0.15557 -0.10795,-0.0381 -0.2159,-0.0857 -0.10795,-0.0508 -0.193675,-0.12382 -0.08573,-0.0762 -0.1397,-0.18098 -0.05398,-0.10795 -0.05398,-0.26035 0,-0.1524 0.05715,-0.27305 0.05715,-0.12382 0.161925,-0.20955 0.104775,-0.0857 0.254,-0.13017 0.149225,-0.0476 0.33655,-0.0476 0.22225,0 0.384175,0.0476 0.161925,0.0476 0.2667,0.10477 l -0.142875,0.39053 q -0.09207,-0.0476 -0.206375,-0.0825 -0.111125,-0.0381 -0.269875,-0.0381 -0.1778,0 -0.257175,0.0508 -0.0762,0.0476 -0.0762,0.14922 0,0.0603 0.02858,0.1016 0.02858,0.0413 0.07937,0.0762 0.05398,0.0318 0.12065,0.0603 0.06985,0.0254 0.1524,0.054 0.17145,0.0635 0.29845,0.127 0.127,0.0603 0.20955,0.14288 0.08573,0.0825 0.127,0.19367 0.04127,0.11113 0.04127,0.26988 0,0.30797 -0.2159,0.47942 -0.2159,0.16828 -0.650875,0.16828 -0.14605,0 -0.263525,-0.019 -0.117475,-0.0159 -0.20955,-0.0413 -0.0889,-0.0254 -0.155575,-0.054 -0.0635,-0.0286 -0.10795,-0.054 l 0.1397,-0.3937 q 0.09842,0.054 0.2413,0.0984 0.14605,0.0413 0.3556,0.0413 z"
         style="font-style:normal;font-variant:normal;font-weight:bold;font-stretch:normal;font-size:3.17499995px;font-family:Ubuntu;-inkscape-font-specification:'Ubuntu, Bold';font-variant-ligatures:normal;font-variant-caps:normal;font-variant-numeric:normal;font-feature-settings:normal;text-align:start;writing-mode:lr-tb;text-anchor:start;fill:#323232;fill-opacity:1;stroke-width:0.26458335px"
         id="path874"
         inkscape:connector-curvature="0" />
      <path
         d="m 21.040398,219.67233 q 0,-0.22225 0.06668,-0.38735 0.06985,-0.16827 0.180975,-0.2794 0.111125,-0.11112 0.254,-0.16827 0.14605,-0.0572 0.29845,-0.0572 0.3556,0 0.561975,0.21907 0.206375,0.2159 0.206375,0.63818 0,0.0413 -0.0032,0.0921 -0.0032,0.0476 -0.0064,0.0857 h -1.07315 q 0.01588,0.14605 0.136525,0.23177 0.12065,0.0857 0.32385,0.0857 0.130175,0 0.254,-0.0222 0.127,-0.0254 0.206375,-0.0603 l 0.0635,0.38417 q -0.0381,0.0191 -0.1016,0.0381 -0.0635,0.019 -0.142875,0.0317 -0.0762,0.0159 -0.1651,0.0254 -0.0889,0.01 -0.1778,0.01 -0.225425,0 -0.3937,-0.0667 -0.1651,-0.0667 -0.276225,-0.18097 -0.10795,-0.11748 -0.161925,-0.27623 -0.0508,-0.15875 -0.0508,-0.3429 z m 1.11125,-0.18097 q -0.0032,-0.0603 -0.02223,-0.11748 -0.01587,-0.0572 -0.05397,-0.1016 -0.03493,-0.0444 -0.09208,-0.073 -0.05398,-0.0286 -0.136525,-0.0286 -0.07938,0 -0.136525,0.0286 -0.05715,0.0254 -0.09525,0.0699 -0.0381,0.0444 -0.06032,0.10477 -0.01905,0.0571 -0.02858,0.11748 z"
         style="font-style:normal;font-variant:normal;font-weight:bold;font-stretch:normal;font-size:3.17499995px;font-family:Ubuntu;-inkscape-font-specification:'Ubuntu, Bold';font-variant-ligatures:normal;font-variant-caps:normal;font-variant-numeric:normal;font-feature-settings:normal;text-align:start;writing-mode:lr-tb;text-anchor:start;fill:#323232;fill-opacity:1;stroke-width:0.26458335px"
         id="path876"
         inkscape:connector-curvature="0" />
      <path
         d="m 23.891498,219.60883 q 0,-0.2286 -0.06032,-0.32385 -0.05715,-0.0952 -0.200025,-0.0952 -0.04445,0 -0.09208,0.006 -0.04763,0.003 -0.09207,0.01 v 1.28905 h -0.473075 v -1.6129 q 0.06033,-0.0159 0.1397,-0.0318 0.08255,-0.019 0.17145,-0.0317 0.09207,-0.0159 0.187325,-0.0222 0.09525,-0.01 0.187325,-0.01 0.180975,0 0.2921,0.0476 0.1143,0.0445 0.187325,0.10795 0.1016,-0.073 0.231775,-0.1143 0.13335,-0.0413 0.244475,-0.0413 0.200025,0 0.327025,0.0572 0.130175,0.054 0.206375,0.15557 0.0762,0.1016 0.104775,0.2413 0.02858,0.1397 0.02858,0.31115 v 0.94298 h -0.473075 v -0.88583 q 0,-0.2286 -0.06033,-0.32385 -0.05715,-0.0952 -0.200025,-0.0952 -0.0381,0 -0.10795,0.019 -0.06668,0.0191 -0.111125,0.0476 0.02223,0.073 0.02858,0.15557 0.0064,0.0794 0.0064,0.17145 v 0.91123 h -0.473075 z"
         style="font-style:normal;font-variant:normal;font-weight:bold;font-stretch:normal;font-size:3.17499995px;font-family:Ubuntu;-inkscape-font-specification:'Ubuntu, Bold';font-variant-ligatures:normal;font-variant-caps:normal;font-variant-numeric:normal;font-feature-settings:normal;text-align:start;writing-mode:lr-tb;text-anchor:start;fill:#323232;fill-opacity:1;stroke-width:0.26458335px"
         id="path878"
         inkscape:connector-curvature="0" />
      <path
         d="M 26.181715,220.49466 H 25.70864 v -1.67005 h 0.473075 z m 0.04445,-2.15265 q 0,0.13017 -0.08573,0.20637 -0.08255,0.073 -0.19685,0.073 -0.1143,0 -0.200025,-0.073 -0.08255,-0.0762 -0.08255,-0.20637 0,-0.13018 0.08255,-0.2032 0.08573,-0.0762 0.200025,-0.0762 0.1143,0 0.19685,0.0762 0.08573,0.073 0.08573,0.2032 z"
         style="font-style:normal;font-variant:normal;font-weight:bold;font-stretch:normal;font-size:3.17499995px;font-family:Ubuntu;-inkscape-font-specification:'Ubuntu, Bold';font-variant-ligatures:normal;font-variant-caps:normal;font-variant-numeric:normal;font-feature-settings:normal;text-align:start;writing-mode:lr-tb;text-anchor:start;fill:#323232;fill-opacity:1;stroke-width:0.26458335px"
         id="path880"
         inkscape:connector-curvature="0" />
    </g>
    <g
       aria-label="Octave"
       style="font-style:normal;font-weight:normal;font-size:3.17500019px;line-height:125%;font-family:Sans;letter-spacing:0px;word-spacing:0px;fill:#000000;fill-opacity:1;stroke:none;stroke-width:0.26458335px;stroke-linecap:butt;stroke-linejoin:miter;stroke-opacity:1"
       id="text856"
       transform="translate(0,-0.4677217)">
      <path
         d="m 4.8322461,219.39293 q 0,0.16193 0.0381,0.2921 0.041275,0.13018 0.1143,0.22543 0.0762,0.0921 0.18415,0.14287 0.10795,0.0508 0.24765,0.0508 0.136525,0 0.244475,-0.0508 0.111125,-0.0508 0.18415,-0.14287 0.0762,-0.0952 0.1143,-0.22543 0.041275,-0.13017 0.041275,-0.2921 0,-0.16192 -0.041275,-0.2921 -0.0381,-0.13335 -0.1143,-0.22542 -0.073025,-0.0952 -0.18415,-0.14605 -0.10795,-0.0508 -0.244475,-0.0508 -0.1397,0 -0.24765,0.054 -0.10795,0.0508 -0.18415,0.14605 -0.073025,0.0921 -0.1143,0.22543 -0.0381,0.13017 -0.0381,0.28892 z m 1.679575,0 q 0,0.28258 -0.085725,0.49848 -0.08255,0.21272 -0.2286,0.35877 -0.14605,0.14288 -0.34925,0.2159 -0.200025,0.073 -0.4318,0.073 -0.225425,0 -0.42545,-0.073 -0.200025,-0.073 -0.34925,-0.2159 -0.149225,-0.14605 -0.23495,-0.35877 -0.085725,-0.2159 -0.085725,-0.49848 0,-0.28257 0.0889,-0.4953 0.0889,-0.2159 0.238125,-0.36195 0.1524,-0.14605 0.34925,-0.21907 0.200025,-0.073 0.4191,-0.073 0.225425,0 0.42545,0.073 0.200025,0.073 0.34925,0.21907 0.149225,0.14605 0.23495,0.36195 0.085725,0.21273 0.085725,0.4953 z"
         style="font-style:normal;font-variant:normal;font-weight:bold;font-stretch:normal;font-size:3.17499995px;font-family:Ubuntu;-inkscape-font-specification:'Ubuntu, Bold';font-variant-ligatures:normal;font-variant-caps:normal;font-variant-numeric:normal;font-feature-settings:normal;text-align:start;writing-mode:lr-tb;text-anchor:start;fill:#323232;fill-opacity:1;stroke-width:0.26458335px"
         id="path883"
         inkscape:connector-curvature="0" />
      <path
         d="m 6.8104694,219.65963 q 0,-0.18097 0.05715,-0.33972 0.060325,-0.16193 0.17145,-0.2794 0.111125,-0.12065 0.269875,-0.1905 0.15875,-0.0699 0.36195,-0.0699 0.13335,0 0.244475,0.0254 0.111125,0.0222 0.2159,0.0667 l -0.098425,0.37783 q -0.066675,-0.0254 -0.14605,-0.0444 -0.079375,-0.0191 -0.1778,-0.0191 -0.20955,0 -0.314325,0.13017 -0.1016,0.13018 -0.1016,0.3429 0,0.22543 0.09525,0.34925 0.098425,0.12383 0.339725,0.12383 0.085725,0 0.18415,-0.0159 0.098425,-0.0159 0.180975,-0.0508 l 0.066675,0.38735 q -0.08255,0.0349 -0.206375,0.0603 -0.123825,0.0254 -0.27305,0.0254 -0.2286,0 -0.3937,-0.0667 -0.1651,-0.0699 -0.27305,-0.18732 -0.104775,-0.11748 -0.155575,-0.27623 -0.047625,-0.16192 -0.047625,-0.34925 z"
         style="font-style:normal;font-variant:normal;font-weight:bold;font-stretch:normal;font-size:3.17499995px;font-family:Ubuntu;-inkscape-font-specification:'Ubuntu, Bold';font-variant-ligatures:normal;font-variant-caps:normal;font-variant-numeric:normal;font-feature-settings:normal;text-align:start;writing-mode:lr-tb;text-anchor:start;fill:#323232;fill-opacity:1;stroke-width:0.26458335px"
         id="path885"
         inkscape:connector-curvature="0" />
      <path
         d="m 8.4614695,218.40868 0.473075,-0.0762 v 0.49213 h 0.568325 v 0.3937 h -0.568325 v 0.58737 q 0,0.14923 0.0508,0.23813 0.053975,0.0889 0.212725,0.0889 0.0762,0 0.155575,-0.0127 0.08255,-0.0159 0.149225,-0.0413 l 0.066675,0.3683 q -0.085725,0.0349 -0.1905,0.0603 -0.104775,0.0254 -0.257175,0.0254 -0.193675,0 -0.320675,-0.0508 -0.127,-0.054 -0.2032,-0.14605 -0.0762,-0.0953 -0.10795,-0.2286 -0.028575,-0.13335 -0.028575,-0.29528 z"
         style="font-style:normal;font-variant:normal;font-weight:bold;font-stretch:normal;font-size:3.17499995px;font-family:Ubuntu;-inkscape-font-specification:'Ubuntu, Bold';font-variant-ligatures:normal;font-variant-caps:normal;font-variant-numeric:normal;font-feature-settings:normal;text-align:start;writing-mode:lr-tb;text-anchor:start;fill:#323232;fill-opacity:1;stroke-width:0.26458335px"
         id="path887"
         inkscape:connector-curvature="0" />
      <path
         d="m 10.461174,220.16446 q 0.06985,0 0.13335,-0.003 0.0635,-0.003 0.1016,-0.01 v -0.35878 q -0.02858,-0.006 -0.08573,-0.0127 -0.05715,-0.006 -0.104775,-0.006 -0.06668,0 -0.127,0.01 -0.05715,0.006 -0.1016,0.0286 -0.04445,0.0222 -0.06985,0.0603 -0.0254,0.0381 -0.0254,0.0953 0,0.11112 0.07302,0.15557 0.0762,0.0413 0.206375,0.0413 z m -0.0381,-1.3843 q 0.20955,0 0.34925,0.0476 0.1397,0.0476 0.22225,0.13653 0.08573,0.0889 0.12065,0.2159 0.03493,0.127 0.03493,0.28257 v 0.98425 q -0.1016,0.0222 -0.282575,0.0508 -0.180975,0.0318 -0.43815,0.0318 -0.161925,0 -0.295275,-0.0286 -0.130175,-0.0286 -0.2254255,-0.0921 -0.09525,-0.0667 -0.14605,-0.17145 -0.0508,-0.10477 -0.0508,-0.25717 0,-0.14605 0.05715,-0.24765 0.060325,-0.1016 0.15875,-0.16193 0.098425,-0.0603 0.2254255,-0.0857 0.127,-0.0286 0.263525,-0.0286 0.09207,0 0.161925,0.01 0.07302,0.006 0.117475,0.019 v -0.0444 q 0,-0.12065 -0.07302,-0.19368 -0.07302,-0.073 -0.254,-0.073 -0.12065,0 -0.238125,0.0191 -0.117475,0.0159 -0.2032005,0.0476 l -0.060325,-0.381 q 0.041275,-0.0127 0.1016,-0.0254 0.0635,-0.0159 0.1365255,-0.0254 0.07302,-0.0127 0.1524,-0.019 0.08255,-0.01 0.1651,-0.01 z"
         style="font-style:normal;font-variant:normal;font-weight:bold;font-stretch:normal;font-size:3.17499995px;font-family:Ubuntu;-inkscape-font-specification:'Ubuntu, Bold';font-variant-ligatures:normal;font-variant-caps:normal;font-variant-numeric:normal;font-feature-settings:normal;text-align:start;writing-mode:lr-tb;text-anchor:start;fill:#323232;fill-opacity:1;stroke-width:0.26458335px"
         id="path889"
         inkscape:connector-curvature="0" />
      <path
         d="m 11.988547,220.49466 q -0.161925,-0.3175 -0.3302,-0.74295 -0.1651,-0.42545 -0.314325,-0.9271 h 0.50165 q 0.03175,0.12382 0.07302,0.26987 0.04445,0.14288 0.0889,0.2921 0.04763,0.14605 0.09207,0.28575 0.04763,0.1397 0.09207,0.254 0.04128,-0.1143 0.0889,-0.254 0.04763,-0.1397 0.09207,-0.28575 0.04763,-0.14922 0.0889,-0.2921 0.04445,-0.14605 0.0762,-0.26987 h 0.48895 q -0.149225,0.50165 -0.3175,0.9271 -0.1651,0.42545 -0.327025,0.74295 z"
         style="font-style:normal;font-variant:normal;font-weight:bold;font-stretch:normal;font-size:3.17499995px;font-family:Ubuntu;-inkscape-font-specification:'Ubuntu, Bold';font-variant-ligatures:normal;font-variant-caps:normal;font-variant-numeric:normal;font-feature-settings:normal;text-align:start;writing-mode:lr-tb;text-anchor:start;fill:#323232;fill-opacity:1;stroke-width:0.26458335px"
         id="path891"
         inkscape:connector-curvature="0" />
      <path
         d="m 13.160469,219.67233 q 0,-0.22225 0.06667,-0.38735 0.06985,-0.16827 0.180975,-0.2794 0.111125,-0.11112 0.254,-0.16827 0.14605,-0.0572 0.29845,-0.0572 0.3556,0 0.561975,0.21907 0.206375,0.2159 0.206375,0.63818 0,0.0413 -0.0032,0.0921 -0.0032,0.0476 -0.0064,0.0857 h -1.07315 q 0.01588,0.14605 0.136525,0.23177 0.12065,0.0857 0.32385,0.0857 0.130175,0 0.254,-0.0222 0.127,-0.0254 0.206375,-0.0603 l 0.0635,0.38417 q -0.0381,0.0191 -0.1016,0.0381 -0.0635,0.019 -0.142875,0.0317 -0.0762,0.0159 -0.1651,0.0254 -0.0889,0.01 -0.1778,0.01 -0.225425,0 -0.3937,-0.0667 -0.1651,-0.0667 -0.276225,-0.18097 -0.10795,-0.11748 -0.161925,-0.27623 -0.0508,-0.15875 -0.0508,-0.3429 z m 1.11125,-0.18097 q -0.0032,-0.0603 -0.02222,-0.11748 -0.01588,-0.0572 -0.05397,-0.1016 -0.03493,-0.0444 -0.09208,-0.073 -0.05397,-0.0286 -0.136525,-0.0286 -0.07938,0 -0.136525,0.0286 -0.05715,0.0254 -0.09525,0.0699 -0.0381,0.0444 -0.06033,0.10477 -0.01905,0.0571 -0.02858,0.11748 z"
         style="font-style:normal;font-variant:normal;font-weight:bold;font-stretch:normal;font-size:3.17499995px;font-family:Ubuntu;-inkscape-font-specification:'Ubuntu, Bold';font-variant-ligatures:normal;font-variant-caps:normal;font-variant-numeric:normal;font-feature-settings:normal;text-align:start;writing-mode:lr-tb;text-anchor:start;fill:#323232;fill-opacity:1;stroke-width:0.26458335px"
         id="path893"
         inkscape:connector-curvature="0" />
    </g>
    <g
       aria-label="Out"
       style="font-style:normal;font-weight:normal;font-size:3.17500019px;line-height:125%;font-family:Sans;letter-spacing:0px;word-spacing:0px;fill:#cdcfca;fill-opacity:1;stroke:none;stroke-width:0.26458335px;stroke-linecap:butt;stroke-linejoin:miter;stroke-opacity:1"
       id="text860"
       transform="translate(0,0.37417736)">
      <path
         d="m 20.900867,259.42205 q 0,0.16192 0.0381,0.2921 0.04127,0.13017 0.1143,0.22542 0.0762,0.0921 0.18415,0.14288 0.10795,0.0508 0.24765,0.0508 0.136525,0 0.244475,-0.0508 0.111125,-0.0508 0.18415,-0.14288 0.0762,-0.0953 0.1143,-0.22542 0.04127,-0.13018 0.04127,-0.2921 0,-0.16193 -0.04127,-0.2921 -0.0381,-0.13335 -0.1143,-0.22543 -0.07303,-0.0952 -0.18415,-0.14605 -0.10795,-0.0508 -0.244475,-0.0508 -0.1397,0 -0.24765,0.054 -0.10795,0.0508 -0.18415,0.14605 -0.07303,0.0921 -0.1143,0.22542 -0.0381,0.13018 -0.0381,0.28893 z m 1.679575,0 q 0,0.28257 -0.08573,0.49847 -0.08255,0.21273 -0.2286,0.35878 -0.14605,0.14287 -0.34925,0.2159 -0.200025,0.073 -0.4318,0.073 -0.225425,0 -0.42545,-0.073 -0.200025,-0.073 -0.34925,-0.2159 -0.149225,-0.14605 -0.23495,-0.35878 -0.08573,-0.2159 -0.08573,-0.49847 0,-0.28258 0.0889,-0.4953 0.0889,-0.2159 0.238125,-0.36195 0.1524,-0.14605 0.34925,-0.21908 0.200025,-0.073 0.4191,-0.073 0.225425,0 0.42545,0.073 0.200025,0.073 0.34925,0.21908 0.149225,0.14605 0.23495,0.36195 0.08573,0.21272 0.08573,0.4953 z"
         style="font-style:normal;font-variant:normal;font-weight:bold;font-stretch:normal;font-size:3.17499995px;font-family:Ubuntu;-inkscape-font-specification:'Ubuntu, Bold';font-variant-ligatures:normal;font-variant-caps:normal;font-variant-numeric:normal;font-feature-settings:normal;text-align:start;writing-mode:lr-tb;text-anchor:start;fill:#cdcfca;fill-opacity:1;stroke-width:0.26458335px"
         id="path862"
         inkscape:connector-curvature="0" />
      <path
         d="m 24.38404,260.46662 q -0.12065,0.0349 -0.31115,0.0635 -0.1905,0.0317 -0.40005,0.0317 -0.212725,0 -0.3556,-0.0571 -0.1397,-0.0572 -0.22225,-0.15875 -0.08255,-0.10477 -0.117475,-0.24765 -0.03493,-0.14287 -0.03493,-0.31432 v -0.93028 h 0.473075 v 0.87313 q 0,0.2286 0.06032,0.3302 0.06032,0.1016 0.225425,0.1016 0.0508,0 0.10795,-0.003 0.05715,-0.006 0.1016,-0.0127 v -1.28905 h 0.473075 z"
         style="font-style:normal;font-variant:normal;font-weight:bold;font-stretch:normal;font-size:3.17499995px;font-family:Ubuntu;-inkscape-font-specification:'Ubuntu, Bold';font-variant-ligatures:normal;font-variant-caps:normal;font-variant-numeric:normal;font-feature-settings:normal;text-align:start;writing-mode:lr-tb;text-anchor:start;fill:#cdcfca;fill-opacity:1;stroke-width:0.26458335px"
         id="path864"
         inkscape:connector-curvature="0" />
      <path
         d="m 24.815344,258.4378 0.473075,-0.0762 v 0.49212 h 0.568325 v 0.3937 h -0.568325 v 0.58738 q 0,0.14922 0.0508,0.23812 0.05398,0.0889 0.212725,0.0889 0.0762,0 0.155575,-0.0127 0.08255,-0.0159 0.149225,-0.0413 l 0.06668,0.3683 q -0.08573,0.0349 -0.1905,0.0603 -0.104775,0.0254 -0.257175,0.0254 -0.193675,0 -0.320675,-0.0508 -0.127,-0.054 -0.2032,-0.14605 -0.0762,-0.0953 -0.10795,-0.2286 -0.02858,-0.13335 -0.02858,-0.29527 z"
         style="font-style:normal;font-variant:normal;font-weight:bold;font-stretch:normal;font-size:3.17499995px;font-family:Ubuntu;-inkscape-font-specification:'Ubuntu, Bold';font-variant-ligatures:normal;font-variant-caps:normal;font-variant-numeric:normal;font-feature-settings:normal;text-align:start;writing-mode:lr-tb;text-anchor:start;fill:#cdcfca;fill-opacity:1;stroke-width:0.26458335px"
         id="path866"
         inkscape:connector-curvature="0" />
    </g>
    <g
       aria-label="Mon"
       style="font-style:normal;font-weight:normal;font-size:3.17500019px;line-height:125%;font-family:Sans;letter-spacing:0px;word-spacing:0px;fill:#323232;fill-opacity:1;stroke:none;stroke-width:0.26458335px;stroke-linecap:butt;stroke-linejoin:miter;stroke-opacity:1"
       id="text941"
       transform="translate(-0.87124472,0.09354434)">
      <path
         d="m 11.105244,235.22398 q 0.05433,0.0938 0.121003,0.22966 0.06668,0.13582 0.13582,0.28645 0.06914,0.14817 0.135819,0.30374 0.06914,0.15311 0.125942,0.28399 0.0568,-0.13088 0.123472,-0.28399 0.06668,-0.15557 0.135819,-0.30374 0.06914,-0.15063 0.13582,-0.28645 0.06668,-0.13582 0.121003,-0.22966 h 0.281516 q 0.02223,0.18768 0.04198,0.40005 0.01975,0.2099 0.03457,0.43215 0.01729,0.21978 0.02963,0.4445 0.01482,0.22225 0.02469,0.43462 h -0.306211 q -0.0099,-0.2988 -0.0247,-0.61489 -0.01235,-0.31609 -0.03951,-0.61242 -0.02716,0.0568 -0.0642,0.13582 -0.03704,0.079 -0.07902,0.17286 -0.04198,0.0914 -0.08643,0.19015 -0.04198,0.0988 -0.08396,0.19261 -0.03951,0.0914 -0.07408,0.17286 -0.03457,0.079 -0.05927,0.13582 h -0.232128 q -0.02469,-0.0568 -0.05927,-0.13829 -0.03457,-0.0815 -0.07655,-0.17286 -0.03951,-0.0938 -0.08396,-0.19261 -0.04198,-0.0988 -0.08396,-0.19015 -0.04198,-0.0914 -0.07902,-0.17039 -0.03704,-0.0815 -0.06421,-0.13582 -0.02716,0.29633 -0.04198,0.61242 -0.01235,0.31609 -0.02223,0.61489 h -0.306211 q 0.0099,-0.21237 0.02222,-0.43956 0.01482,-0.22719 0.02963,-0.44944 0.01729,-0.22472 0.03704,-0.43462 0.01975,-0.2099 0.04198,-0.3877 z"
         style="font-style:normal;font-variant:normal;font-weight:600;font-stretch:normal;font-size:2.46944451px;font-family:Ubuntu;-inkscape-font-specification:'Ubuntu, Semi-Bold';font-variant-ligatures:normal;font-variant-caps:normal;font-variant-numeric:normal;font-feature-settings:normal;text-align:start;writing-mode:lr-tb;text-anchor:start;fill:#323232;fill-opacity:1;stroke-width:0.26458335px"
         id="path950"
         inkscape:connector-curvature="0" />
      <path
         d="m 14.070468,236.28831 q 0,0.1531 -0.04445,0.27905 -0.04445,0.12594 -0.125941,0.21484 -0.08149,0.0889 -0.197556,0.13829 -0.113594,0.0494 -0.251883,0.0494 -0.138289,0 -0.251884,-0.0494 -0.113594,-0.0494 -0.195086,-0.13829 -0.08149,-0.0889 -0.128411,-0.21484 -0.04445,-0.12595 -0.04445,-0.27905 0,-0.15311 0.04445,-0.27658 0.04692,-0.12594 0.128411,-0.21484 0.08396,-0.0889 0.197556,-0.13582 0.113594,-0.0494 0.249414,-0.0494 0.135819,0 0.249414,0.0494 0.116064,0.0469 0.197555,0.13582 0.08149,0.0889 0.125942,0.21484 0.04692,0.12347 0.04692,0.27658 z m -0.306211,0 q 0,-0.19262 -0.08396,-0.30374 -0.08149,-0.1136 -0.229658,-0.1136 -0.148167,0 -0.232128,0.1136 -0.08149,0.11112 -0.08149,0.30374 0,0.19508 0.08149,0.30868 0.08396,0.11359 0.232128,0.11359 0.148166,0 0.229658,-0.11359 0.08396,-0.1136 0.08396,-0.30868 z"
         style="font-style:normal;font-variant:normal;font-weight:600;font-stretch:normal;font-size:2.46944451px;font-family:Ubuntu;-inkscape-font-specification:'Ubuntu, Semi-Bold';font-variant-ligatures:normal;font-variant-caps:normal;font-variant-numeric:normal;font-feature-settings:normal;text-align:start;writing-mode:lr-tb;text-anchor:start;fill:#323232;fill-opacity:1;stroke-width:0.26458335px"
         id="path952"
         inkscape:connector-curvature="0" />
      <path
         d="m 14.3783,235.68576 q 0.08643,-0.0247 0.224719,-0.0469 0.138289,-0.0222 0.306212,-0.0222 0.158044,0 0.26423,0.0444 0.106186,0.042 0.167922,0.121 0.06421,0.0765 0.0889,0.18768 0.02716,0.10866 0.02716,0.23954 v 0.72601 H 15.15864 v -0.67909 q 0,-0.10372 -0.01482,-0.17534 -0.01235,-0.0741 -0.04445,-0.11853 -0.02963,-0.0469 -0.08396,-0.0667 -0.05186,-0.0222 -0.128411,-0.0222 -0.0568,0 -0.118534,0.007 -0.06174,0.007 -0.09137,0.0123 v 1.0421 H 14.3783 Z"
         style="font-style:normal;font-variant:normal;font-weight:600;font-stretch:normal;font-size:2.46944451px;font-family:Ubuntu;-inkscape-font-specification:'Ubuntu, Semi-Bold';font-variant-ligatures:normal;font-variant-caps:normal;font-variant-numeric:normal;font-feature-settings:normal;text-align:start;writing-mode:lr-tb;text-anchor:start;fill:#323232;fill-opacity:1;stroke-width:0.26458335px"
         id="path954"
         inkscape:connector-curvature="0" />
    </g>
  </g>
</svg>
