<?xml version="1.0" encoding="UTF-8" standalone="no"?>
<svg
   xmlns:dc="http://purl.org/dc/elements/1.1/"
   xmlns:cc="http://creativecommons.org/ns#"
   xmlns:rdf="http://www.w3.org/1999/02/22-rdf-syntax-ns#"
   xmlns:svg="http://www.w3.org/2000/svg"
   xmlns="http://www.w3.org/2000/svg"
   xmlns:sodipodi="http://sodipodi.sourceforge.net/DTD/sodipodi-0.dtd"
   xmlns:inkscape="http://www.inkscape.org/namespaces/inkscape"
   id="Layer_1"
   data-name="Layer 1"
   width="525"
   height="380"
   viewBox="0 0 525 380"
   version="1.1"
   sodipodi:docname="GateSeq.svg"
   inkscape:version="0.92.2 2405546, 2018-03-11">
  <metadata
     id="metadata132">
    <rdf:RDF>
      <cc:Work
         rdf:about="">
        <dc:format>image/svg+xml</dc:format>
        <dc:type
           rdf:resource="http://purl.org/dc/dcmitype/StillImage" />
      </cc:Work>
    </rdf:RDF>
  </metadata>
  <defs
     id="defs130" />
  <sodipodi:namedview
     pagecolor="#ffffff"
     bordercolor="#666666"
     borderopacity="1"
     objecttolerance="10"
     gridtolerance="10"
     guidetolerance="10"
     inkscape:pageopacity="0"
     inkscape:pageshadow="2"
     inkscape:window-width="1920"
     inkscape:window-height="1022"
     id="namedview128"
     showgrid="false"
     inkscape:zoom="1.32"
     inkscape:cx="263.63636"
     inkscape:cy="239.47471"
     inkscape:window-x="0"
     inkscape:window-y="0"
     inkscape:window-maximized="1"
     inkscape:current-layer="Layer_1"
     showguides="true"
     inkscape:guide-bbox="true" />
  <title
     id="title2">GateSeq</title>
  <g
     style="display:inline;opacity:1"
     id="bg"
     transform="translate(0.37879143,-0.90909077)">
    <path
       id="path25077"
       d="M 0,0 H 525 V 380 H 0 Z"
       style="fill:#cdcfca"
       inkscape:connector-curvature="0" />
  </g>
  <path
     id="path10"
     d="m 69.978791,142.49091 0.5,-0.2 0.6,-0.3 a 1,1 0 0 0 0.5,-0.4 0.78,0.78 0 0 0 0.4,-0.4 h 0.9 v 6.2 h -1.3 v -4.5 l -0.6,0.3 a 4.88,4.88 0 0 1 -0.7,0.3 z"
     style="display:inline;opacity:1;fill:#323232;fill-opacity:1"
     inkscape:connector-curvature="0" />
  <path
     id="path12"
     d="m 98.978791,142.79091 a 1.7,1.7 0 0 1 -0.1,0.7 l -0.3,0.6 a 2.65,2.65 0 0 1 -0.5,0.6 l -0.5,0.5 -0.3,0.3 -0.3,0.3 -0.3,0.3 c -0.1,0.1 -0.1,0.1 -0.1,0.2 h 2.7 v 1.1 h -4.2 v -0.4 a 2.2,2.2 0 0 1 0.1,-0.8 2.51,2.51 0 0 1 0.4,-0.7 c 0.2,-0.2 0.3,-0.4 0.5,-0.6 l 0.6,-0.5 0.4,-0.4 a 1.38,1.38 0 0 0 0.3,-0.4 0.52,0.52 0 0 0 0.2,-0.4 c 0.1,-0.1 0.1,-0.2 0.1,-0.4 a 0.71,0.71 0 0 0 -0.61,-0.8 h -0.19 c -0.2,0 -0.3,0 -0.4,0.1 a 0.76,0.76 0 0 0 -0.4,0.2 c -0.1,0.1 -0.2,0.1 -0.3,0.2 l -0.2,0.2 -0.7,-0.9 a 2.36,2.36 0 0 1 0.9,-0.6 2.15,2.15 0 0 1 1.1,-0.2 2.77,2.77 0 0 1 0.9,0.1 2.51,2.51 0 0 1 0.7,0.4 1.27,1.27 0 0 1 0.4,0.6 c 0,0.2 0.1,0.5 0.1,0.7 z"
     style="display:inline;opacity:1;fill:#323232;fill-opacity:1"
     inkscape:connector-curvature="0" />
  <path
     id="path14"
     d="m 121.57879,147.59091 h -0.5 l -0.5,-0.1 -0.5,-0.1 -0.3,-0.1 0.3,-1.1 c 0.2,0.1 0.4,0.1 0.6,0.2 a 2.77,2.77 0 0 0 0.9,0.1 2.92,2.92 0 0 0 0.9,-0.2 0.86,0.86 0 0 0 0.3,-0.6 0.6,0.6 0 0 0 -0.1,-0.4 l -0.3,-0.3 a 0.6,0.6 0 0 0 -0.4,-0.1 h -1 v -1.1 h 1 c 0.1,0 0.2,-0.1 0.3,-0.1 a 0.22,0.22 0 0 0 0.2,-0.2 c 0,-0.1 0.1,-0.2 0.1,-0.4 a 0.37,0.37 0 0 0 -0.1,-0.3 0.22,0.22 0 0 0 -0.2,-0.2 0.37,0.37 0 0 0 -0.3,-0.1 h -0.3 a 1.7,1.7 0 0 0 -0.7,0.1 l -0.6,0.3 -0.5,-1 0.3,-0.2 c 0.1,-0.1 0.3,-0.1 0.4,-0.2 a 0.9,0.9 0 0 1 0.5,-0.1 c 0.2,0 0.4,-0.1 0.6,-0.1 a 2.77,2.77 0 0 1 0.9,0.1 2.51,2.51 0 0 1 0.7,0.4 1.27,1.27 0 0 1 0.4,0.6 1.7,1.7 0 0 1 0.1,0.7 1.3,1.3 0 0 1 -0.8,1.2 1.56,1.56 0 0 1 0.8,0.6 1.61,1.61 0 0 1 0.3,0.9 2.2,2.2 0 0 1 -0.1,0.8 3.11,3.11 0 0 1 -0.4,0.6 2,2 0 0 1 -0.8,0.4 z"
     style="display:inline;opacity:1;fill:#323232;fill-opacity:1"
     inkscape:connector-curvature="0" />
  <path
     id="path16"
     d="m 148.77879,141.19091 v 3.7 h 0.7 v 1.1 h -0.7 v 1.4 h -1.3 v -1.4 h -2.7 v -1 a 4.05,4.05 0 0 1 0.5,-0.9 6.07,6.07 0 0 1 0.7,-1 3.92,3.92 0 0 1 0.8,-1 c 0.3,-0.3 0.5,-0.6 0.8,-0.9 z m -1.3,1.6 -0.8,1 a 4.13,4.13 0 0 0 -0.7,1.1 h 1.4 z"
     style="display:inline;opacity:1;fill:#323232;fill-opacity:1"
     inkscape:connector-curvature="0" />
  <path
     id="path18"
     d="m 172.97879,145.59091 a 0.9,0.9 0 0 0 -0.1,-0.5 c -0.1,-0.2 -0.2,-0.3 -0.4,-0.3 a 1.88,1.88 0 0 0 -0.8,-0.2 4.87,4.87 0 0 0 -1.2,-0.1 c 0.1,-0.6 0.1,-1.1 0.2,-1.7 a 9.15,9.15 0 0 0 0.1,-1.6 h 3.4 v 1.1 h -2.2 v 1.1 a 3.08,3.08 0 0 1 1.9,0.6 1.72,1.72 0 0 1 0.6,1.5 2.2,2.2 0 0 1 -0.1,0.8 1.47,1.47 0 0 1 -0.5,0.6 2.7,2.7 0 0 1 -1.9,0.5 h -0.5 l -0.5,-0.1 -0.4,-0.1 c -0.1,0 -0.2,-0.1 -0.3,-0.1 l 0.2,-1.1 c 0.2,0.1 0.4,0.1 0.6,0.2 a 2.77,2.77 0 0 0 0.9,0.1 2.92,2.92 0 0 0 0.9,-0.2 4.33,4.33 0 0 0 0.1,-0.5 z"
     style="display:inline;opacity:1;fill:#323232;fill-opacity:1"
     inkscape:connector-curvature="0" />
  <path
     id="path20"
     d="m 197.37879,143.49091 a 1.8,1.8 0 0 1 1,0.2 1.61,1.61 0 0 1 0.7,0.4 2.09,2.09 0 0 1 0.4,0.6 2,2 0 0 1 0.1,0.8 1.48,1.48 0 0 1 -0.1,0.7 1.61,1.61 0 0 1 -0.4,0.7 1.79,1.79 0 0 1 -0.7,0.5 3.55,3.55 0 0 1 -1,0.2 2.19,2.19 0 0 1 -1.7,-0.7 3.61,3.61 0 0 1 -0.6,-2 4.53,4.53 0 0 1 0.3,-1.6 4.18,4.18 0 0 1 0.8,-1.2 3.75,3.75 0 0 1 1.2,-0.7 4.53,4.53 0 0 1 1.6,-0.3 v 1.1 a 2.77,2.77 0 0 0 -0.9,0.1 1.45,1.45 0 0 0 -0.7,0.2 1.84,1.84 0 0 0 -1,1 0.6,0.6 0 0 1 0.4,-0.1 1.08,1.08 0 0 1 0.6,0.1 z m -0.2,1 h -0.4 a 0.76,0.76 0 0 0 -0.4,0.1 v 0.8 c 0,0.2 0.1,0.3 0.1,0.5 a 0.32,0.32 0 0 0 0.3,0.3 0.85,0.85 0 0 0 0.8,0 c 0.1,-0.1 0.2,-0.1 0.3,-0.2 a 0.37,0.37 0 0 0 0.1,-0.3 v -0.3 a 1.45,1.45 0 0 0 -0.2,-0.7 c -0.1,-0.2 -0.3,-0.2 -0.6,-0.2 z"
     style="display:inline;opacity:1;fill:#323232;fill-opacity:1"
     inkscape:connector-curvature="0" />
  <path
     id="path22"
     d="m 221.17879,147.39091 c 0.1,-0.4 0.1,-0.9 0.2,-1.3 0.1,-0.4 0.3,-0.9 0.4,-1.4 a 7.54,7.54 0 0 1 0.6,-1.3 c 0.2,-0.3 0.4,-0.7 0.6,-1 h -2.7 v -1.1 h 4.4 v 1 l -0.6,0.9 c -0.2,0.4 -0.5,0.8 -0.7,1.3 a 8.8,8.8 0 0 0 -0.5,1.5 c -0.1,0.5 -0.2,1.1 -0.3,1.6 z"
     style="display:inline;opacity:1;fill:#323232;fill-opacity:1"
     inkscape:connector-curvature="0" />
  <path
     id="path24"
     d="m 249.67879,145.69091 a 1.48,1.48 0 0 1 -0.1,0.7 2.09,2.09 0 0 1 -0.4,0.6 1.61,1.61 0 0 1 -0.7,0.4 3.4,3.4 0 0 1 -1,0.1 3.55,3.55 0 0 1 -1,-0.2 1.61,1.61 0 0 1 -0.7,-0.4 2.09,2.09 0 0 1 -0.4,-0.6 1.27,1.27 0 0 1 -0.1,-0.6 0.9,0.9 0 0 1 0.1,-0.5 0.76,0.76 0 0 1 0.2,-0.4 l 0.3,-0.3 0.3,-0.3 -0.6,-0.6 a 1.88,1.88 0 0 1 -0.2,-0.8 c 0,-0.2 0.1,-0.5 0.1,-0.7 a 1.84,1.84 0 0 1 1,-1 1.41,1.41 0 0 1 0.9,-0.1 1.49,1.49 0 0 1 0.9,0.2 c 0.2,0.1 0.5,0.2 0.6,0.4 a 1.76,1.76 0 0 1 0.4,0.5 1.27,1.27 0 0 1 0.1,0.6 1.88,1.88 0 0 1 -0.2,0.8 1.7,1.7 0 0 1 -0.6,0.6 2.34,2.34 0 0 1 0.7,0.7 0.94,0.94 0 0 1 0.4,0.9 z m -3.1,0 a 0.76,0.76 0 0 0 0.2,0.5 c 0.1,0.1 0.2,0.1 0.3,0.2 a 0.6,0.6 0 0 0 0.4,0.1 1.85,1.85 0 0 0 0.7,-0.2 0.74,0.74 0 0 0 0.1,-0.9 l -0.3,-0.3 a 0.52,0.52 0 0 0 -0.4,-0.2 l -0.5,-0.2 c -0.2,0.1 -0.3,0.3 -0.4,0.4 -0.1,0.1 -0.1,0.4 -0.1,0.6 z m 1.7,-3 v -0.2 c 0,-0.1 -0.1,-0.1 -0.1,-0.2 l -0.2,-0.2 c -0.1,0 -0.2,-0.1 -0.4,-0.1 a 0.37,0.37 0 0 0 -0.3,0.1 0.78,0.78 0 0 0 -0.4,0.4 v 0.2 a 0.76,0.76 0 0 0 0.2,0.5 1,1 0 0 0 0.7,0.4 0.78,0.78 0 0 0 0.4,-0.4 c 0.1,-0.1 0.1,-0.2 0.1,-0.5 z"
     style="display:inline;opacity:1;fill:#323232;fill-opacity:1"
     inkscape:connector-curvature="0" />
  <path
     id="path26"
     d="m 273.27879,144.99091 a 0.6,0.6 0 0 1 -0.4,0.1 h -0.4 a 3.4,3.4 0 0 1 -1,-0.1 1.61,1.61 0 0 1 -0.7,-0.4 2.09,2.09 0 0 1 -0.4,-0.6 2,2 0 0 1 0,-1.5 1.61,1.61 0 0 1 0.4,-0.7 1.79,1.79 0 0 1 0.7,-0.5 2.46,2.46 0 0 1 2.7,0.5 3.7,3.7 0 0 1 0.6,2.1 8.75,8.75 0 0 1 -0.2,1.6 2.59,2.59 0 0 1 -0.7,1.1 3.86,3.86 0 0 1 -3,0.9 v -1.2 a 2.77,2.77 0 0 0 0.9,-0.1 1.45,1.45 0 0 0 0.7,-0.2 1,1 0 0 0 0.5,-0.4 z m -0.7,-0.9 h 0.4 c 0.1,0 0.2,-0.1 0.3,-0.1 v -0.9 c 0,-0.2 -0.1,-0.3 -0.1,-0.5 l -0.3,-0.3 a 0.75,0.75 0 0 0 -0.5,-0.1 0.6,0.6 0 0 0 -0.6,0.3 0.37,0.37 0 0 0 -0.1,0.3 v 0.3 a 1.45,1.45 0 0 0 0.2,0.7 0.74,0.74 0 0 0 0.7,0.3 z"
     style="display:inline;opacity:1;fill:#323232;fill-opacity:1"
     inkscape:connector-curvature="0" />
  <g
     id="g32"
     style="display:inline;opacity:1;fill:#323232;fill-opacity:1"
     transform="translate(0.37879143,-0.90909077)">
    <path
       id="path28"
       d="m 292.8,143.4 0.5,-0.2 a 2.19,2.19 0 0 0 0.5,-0.3 1,1 0 0 0 0.5,-0.4 1.76,1.76 0 0 0 0.5,-0.4 h 0.9 v 6.2 h -1.3 v -4.5 l -0.6,0.3 -0.6,0.3 z"
       style="fill:#323232;fill-opacity:1"
       inkscape:connector-curvature="0" />
    <path
       id="path30"
       d="m 302.1,145.2 a 4.1,4.1 0 0 1 -0.6,2.4 2,2 0 0 1 -2.78,0.51 v 0 a 1.21,1.21 0 0 1 -0.5,-0.5 4.1,4.1 0 0 1 -0.6,-2.4 3.4,3.4 0 0 1 0.2,-1.4 1.91,1.91 0 0 1 0.5,-1 1.34,1.34 0 0 1 0.7,-0.6 2.92,2.92 0 0 1 0.9,-0.2 1.82,1.82 0 0 1 1.6,0.8 5,5 0 0 1 0.58,2.39 z m -1.4,0 v -0.9 c 0,-0.2 -0.1,-0.4 -0.1,-0.7 0,-0.3 -0.1,-0.3 -0.3,-0.4 -0.2,-0.1 -0.3,-0.2 -0.4,-0.1 -0.1,0.1 -0.3,0 -0.4,0.1 -0.1,0.1 -0.2,0.3 -0.3,0.4 a 1.48,1.48 0 0 0 -0.1,0.7 v 1.8 c 0,0.2 0.1,0.5 0.1,0.7 0,0.2 0.1,0.3 0.3,0.4 0.2,0.1 0.3,0.2 0.4,0.1 0.1,-0.1 0.3,0 0.4,-0.1 0.1,-0.1 0.2,-0.3 0.3,-0.4 a 1.48,1.48 0 0 0 0.1,-0.7 z"
       style="fill:#323232;fill-opacity:1"
       inkscape:connector-curvature="0" />
  </g>
  <g
     id="g38"
     style="display:inline;opacity:1;fill:#323232;fill-opacity:1"
     transform="translate(0.37879143,-0.90909077)">
    <path
       id="path34"
       d="m 317.9,143.4 0.5,-0.2 a 2.19,2.19 0 0 0 0.5,-0.3 1,1 0 0 0 0.5,-0.4 1.76,1.76 0 0 0 0.5,-0.4 h 0.9 v 6.2 h -1.3 v -4.5 l -0.6,0.3 -0.6,0.3 z"
       style="fill:#323232;fill-opacity:1"
       inkscape:connector-curvature="0" />
    <path
       id="path36"
       d="m 323,143.4 0.5,-0.2 a 2.19,2.19 0 0 0 0.5,-0.3 1,1 0 0 0 0.5,-0.4 1.76,1.76 0 0 0 0.5,-0.4 h 0.9 v 6.2 h -1.3 v -4.5 l -0.6,0.3 -0.6,0.3 z"
       style="fill:#323232;fill-opacity:1"
       inkscape:connector-curvature="0" />
  </g>
  <g
     id="g44"
     style="display:inline;opacity:1;fill:#323232;fill-opacity:1"
     transform="translate(0.37879143,-0.90909077)">
    <path
       id="path40"
       d="m 342.9,143.4 0.5,-0.2 a 2.19,2.19 0 0 0 0.5,-0.3 1,1 0 0 0 0.5,-0.4 1.76,1.76 0 0 0 0.5,-0.4 h 0.9 v 6.2 h -1.3 v -4.5 l -0.6,0.3 -0.6,0.3 z"
       style="fill:#323232;fill-opacity:1"
       inkscape:connector-curvature="0" />
    <path
       id="path42"
       d="m 351.9,143.7 a 1.7,1.7 0 0 1 -0.1,0.7 2.09,2.09 0 0 1 -0.4,0.6 2.65,2.65 0 0 1 -0.5,0.6 l -0.5,0.5 -0.3,0.3 -0.3,0.3 -0.3,0.3 c -0.1,0.1 -0.1,0.1 -0.1,0.2 h 2.7 v 1.1 h -4.2 v -0.4 a 2.2,2.2 0 0 1 0.1,-0.8 2.51,2.51 0 0 1 0.4,-0.7 c 0.2,-0.2 0.3,-0.4 0.5,-0.6 l 0.6,-0.5 0.4,-0.4 a 1.38,1.38 0 0 0 0.3,-0.4 0.52,0.52 0 0 0 0.2,-0.4 c 0.1,-0.1 0.1,-0.2 0.1,-0.4 a 0.71,0.71 0 0 0 -0.61,-0.8 h -0.19 a 0.9,0.9 0 0 0 -0.5,0.1 0.76,0.76 0 0 0 -0.4,0.2 c -0.1,0.1 -0.2,0.1 -0.3,0.2 l -0.2,0.2 -0.7,-0.9 a 2.36,2.36 0 0 1 0.9,-0.6 2.15,2.15 0 0 1 1.1,-0.2 3.75,3.75 0 0 1 1,0.1 c 0.2,0.1 0.5,0.2 0.6,0.4 a 1.27,1.27 0 0 1 0.4,0.6 1.08,1.08 0 0 1 0.3,0.7 z"
       style="fill:#323232;fill-opacity:1"
       inkscape:connector-curvature="0" />
  </g>
  <g
     id="g50"
     style="display:inline;opacity:1;fill:#323232;fill-opacity:1"
     transform="translate(0.37879143,-0.90909077)">
    <path
       id="path46"
       d="m 368,143.4 0.5,-0.2 a 2.19,2.19 0 0 0 0.5,-0.3 1,1 0 0 0 0.5,-0.4 1.76,1.76 0 0 0 0.5,-0.4 h 0.9 v 6.2 h -1.3 v -4.5 l -0.6,0.3 -0.6,0.3 z"
       style="fill:#323232;fill-opacity:1"
       inkscape:connector-curvature="0" />
    <path
       id="path48"
       d="M 374.5,148.5 H 374 l -0.5,-0.1 -0.5,-0.1 -0.3,-0.1 0.3,-1.1 c 0.2,0.1 0.4,0.1 0.6,0.2 a 2.77,2.77 0 0 0 0.9,0.1 2.92,2.92 0 0 0 0.9,-0.2 0.86,0.86 0 0 0 0.3,-0.6 0.6,0.6 0 0 0 -0.1,-0.4 l -0.3,-0.3 a 0.6,0.6 0 0 0 -0.4,-0.1 h -1 v -1.1 h 1 c 0.1,0 0.2,-0.1 0.3,-0.1 a 0.22,0.22 0 0 0 0.2,-0.2 c 0,-0.1 0.1,-0.2 0.1,-0.4 a 0.37,0.37 0 0 0 -0.1,-0.3 0.22,0.22 0 0 0 -0.2,-0.2 0.37,0.37 0 0 0 -0.3,-0.1 h -0.3 a 1.7,1.7 0 0 0 -0.7,0.1 l -0.6,0.3 -0.5,-1 0.3,-0.2 c 0.1,-0.1 0.3,-0.1 0.4,-0.2 a 0.9,0.9 0 0 1 0.5,-0.1 c 0.2,0 0.4,-0.1 0.6,-0.1 a 3.75,3.75 0 0 1 1,0.1 2.51,2.51 0 0 1 0.7,0.4 1.27,1.27 0 0 1 0.4,0.6 1.7,1.7 0 0 1 0.1,0.7 1.3,1.3 0 0 1 -0.8,1.2 1.56,1.56 0 0 1 0.8,0.6 1.61,1.61 0 0 1 0.3,0.9 2.2,2.2 0 0 1 -0.1,0.8 1.47,1.47 0 0 1 -0.5,0.6 2,2 0 0 1 -0.8,0.4 z"
       style="fill:#323232;fill-opacity:1"
       inkscape:connector-curvature="0" />
  </g>
  <g
     id="g56"
     style="display:inline;opacity:1;fill:#323232;fill-opacity:1"
     transform="translate(0.37879143,-0.90909077)">
    <path
       id="path52"
       d="m 393.1,143.4 0.5,-0.2 a 2.19,2.19 0 0 0 0.5,-0.3 1,1 0 0 0 0.5,-0.4 1.76,1.76 0 0 0 0.5,-0.4 h 0.9 v 6.2 h -1.3 v -4.5 l -0.6,0.3 -0.6,0.3 z"
       style="fill:#323232;fill-opacity:1"
       inkscape:connector-curvature="0" />
    <path
       id="path54"
       d="m 401.8,142.1 v 3.7 h 0.7 v 1.1 h -0.7 v 1.4 h -1.3 v -1.4 h -2.7 v -1 a 4.05,4.05 0 0 1 0.5,-0.9 6.07,6.07 0 0 1 0.7,-1 3.92,3.92 0 0 1 0.8,-1 c 0.3,-0.3 0.5,-0.6 0.8,-0.9 z m -1.4,1.6 -0.8,1 a 4.13,4.13 0 0 0 -0.7,1.1 h 1.4 z"
       style="fill:#323232;fill-opacity:1"
       inkscape:connector-curvature="0" />
  </g>
  <g
     id="g62"
     style="display:inline;opacity:1;fill:#323232;fill-opacity:1"
     transform="translate(0.37879143,-0.90909077)">
    <path
       id="path58"
       d="m 418.2,143.4 0.5,-0.2 a 2.19,2.19 0 0 0 0.5,-0.3 1,1 0 0 0 0.5,-0.4 1.76,1.76 0 0 0 0.5,-0.4 h 0.9 v 6.2 h -1.3 v -4.5 l -0.6,0.3 -0.6,0.3 z"
       style="fill:#323232;fill-opacity:1"
       inkscape:connector-curvature="0" />
    <path
       id="path60"
       d="m 425.9,146.5 a 0.9,0.9 0 0 0 -0.1,-0.5 c -0.1,-0.2 -0.2,-0.3 -0.4,-0.3 a 1.88,1.88 0 0 0 -0.8,-0.2 4.87,4.87 0 0 0 -1.2,-0.1 c 0.1,-0.6 0.1,-1.1 0.2,-1.7 a 9.15,9.15 0 0 0 0.1,-1.6 h 3.4 v 1.1 h -2.2 v 1.1 a 3.08,3.08 0 0 1 1.9,0.6 1.72,1.72 0 0 1 0.6,1.5 2.2,2.2 0 0 1 -0.1,0.8 1.47,1.47 0 0 1 -0.5,0.6 2.7,2.7 0 0 1 -1.9,0.5 h -0.5 l -0.5,-0.1 -0.5,-0.1 c -0.1,0 -0.2,-0.1 -0.3,-0.1 l 0.2,-1.1 c 0.2,0.1 0.4,0.1 0.6,0.2 a 2.77,2.77 0 0 0 0.9,0.1 2.92,2.92 0 0 0 0.9,-0.2 0.76,0.76 0 0 0 0.2,-0.5 z"
       style="fill:#323232;fill-opacity:1"
       inkscape:connector-curvature="0" />
  </g>
  <g
     id="g68"
     style="display:inline;opacity:1;fill:#323232;fill-opacity:1"
     transform="translate(0.37879143,-0.90909077)">
    <path
       id="path64"
       d="m 443.2,143.4 0.5,-0.2 a 2.19,2.19 0 0 0 0.5,-0.3 1,1 0 0 0 0.5,-0.4 1.76,1.76 0 0 0 0.5,-0.4 h 0.9 v 6.2 h -1.3 v -4.5 l -0.6,0.3 -0.6,0.3 z"
       style="fill:#323232;fill-opacity:1"
       inkscape:connector-curvature="0" />
    <path
       id="path66"
       d="m 450.4,144.4 a 1.8,1.8 0 0 1 1,0.2 1.61,1.61 0 0 1 0.7,0.4 2.09,2.09 0 0 1 0.4,0.6 2,2 0 0 1 0.1,0.8 1.48,1.48 0 0 1 -0.1,0.7 1.61,1.61 0 0 1 -0.4,0.7 1.79,1.79 0 0 1 -0.7,0.5 3.55,3.55 0 0 1 -1,0.2 2.19,2.19 0 0 1 -1.7,-0.7 3.61,3.61 0 0 1 -0.6,-2 4.53,4.53 0 0 1 0.3,-1.6 4.18,4.18 0 0 1 0.8,-1.2 3.74,3.74 0 0 1 1.2,-0.7 4.53,4.53 0 0 1 1.6,-0.3 v 1.1 a 2.77,2.77 0 0 0 -0.9,0.1 1.45,1.45 0 0 0 -0.7,0.2 1.84,1.84 0 0 0 -1,1 0.6,0.6 0 0 1 0.4,-0.1 1.27,1.27 0 0 1 0.6,0.1 z m -0.2,1 h -0.4 a 0.76,0.76 0 0 0 -0.4,0.1 v 0.8 c 0,0.2 0.1,0.3 0.1,0.5 a 0.32,0.32 0 0 0 0.3,0.3 0.75,0.75 0 0 0 0.5,0.1 0.6,0.6 0 0 0 0.4,-0.1 c 0.1,0 0.2,-0.1 0.3,-0.2 a 0.37,0.37 0 0 0 0.1,-0.3 v -0.3 a 1.45,1.45 0 0 0 -0.2,-0.7 1.85,1.85 0 0 0 -0.7,-0.2 z"
       style="fill:#323232;fill-opacity:1"
       inkscape:connector-curvature="0" />
  </g>
  <path
     id="path70"
     d="m 17.378791,147.89091 a 3.46,3.46 0 0 1 -2.6,-0.9 4.19,4.19 0 0 1 -0.9,-2.7 4,4 0 0 1 0.3,-1.5 4.13,4.13 0 0 1 0.7,-1.1 2.59,2.59 0 0 1 1.1,-0.7 3.4,3.4 0 0 1 1.4,-0.2 2.2,2.2 0 0 1 0.8,0.1 c 0.2,0 0.4,0.1 0.6,0.1 0.2,0 0.3,0.1 0.5,0.2 l 0.3,0.1 -0.5,1.3 a 6.89,6.89 0 0 0 -0.8,-0.3 3.4,3.4 0 0 0 -1,-0.1 1.7,1.7 0 0 0 -0.7,0.1 2.09,2.09 0 0 0 -0.6,0.4 1.61,1.61 0 0 0 -0.4,0.7 3.55,3.55 0 0 0 -0.2,1 2.77,2.77 0 0 0 0.1,0.9 4.87,4.87 0 0 0 0.3,0.7 2.65,2.65 0 0 0 0.6,0.5 2.92,2.92 0 0 0 0.9,0.2 h 0.6 l 0.5,-0.1 c 0.1,0 0.2,-0.1 0.4,-0.1 l 0.3,-0.1 0.4,1.2 a 3.55,3.55 0 0 1 -0.9,0.4 4.12,4.12 0 0 0 -1.2,-0.1 z"
     style="display:inline;opacity:1;fill:#323232;fill-opacity:1"
     inkscape:connector-curvature="0" />
  <path
     id="path72"
     d="m 41.778791,140.79091 a 4,4 0 0 1 2.4,0.5 1.84,1.84 0 0 1 0.8,1.8 2.06,2.06 0 0 1 -0.8,1.8 5,5 0 0 1 -2.4,0.6 h -0.5 v 2.3 h -1.6 v -6.8 a 4.1,4.1 0 0 1 1.1,-0.1 3.75,3.75 0 0 1 1,-0.1 z m 0.1,1.3 h -0.6 v 2 h 0.5 a 5,5 0 0 0 1.2,-0.2 1.09,1.09 0 0 0 0.3,-1.3 l -0.3,-0.3 c -0.1,-0.1 -0.3,-0.1 -0.5,-0.2 z"
     style="display:inline;opacity:1;fill:#323232;fill-opacity:1"
     inkscape:connector-curvature="0" />
  <path
     id="path74"
     d="m 505.07879,140.79091 a 4,4 0 0 1 2.4,0.5 1.84,1.84 0 0 1 0.8,1.8 2.06,2.06 0 0 1 -0.8,1.8 5,5 0 0 1 -2.4,0.6 h -0.5 v 2.3 h -1.6 v -6.8 a 4.1,4.1 0 0 1 1.1,-0.1 3.4,3.4 0 0 1 1,-0.1 z m 0.1,1.3 h -0.6 v 2 h 0.5 a 5,5 0 0 0 1.2,-0.2 1.09,1.09 0 0 0 0.3,-1.3 l -0.3,-0.3 c -0.1,-0.1 -0.3,-0.1 -0.5,-0.2 z"
     style="display:inline;opacity:1;fill:#323232;fill-opacity:1"
     inkscape:connector-curvature="0" />
  <g
     id="g122"
     style="display:inline;opacity:1;fill:#323232;fill-opacity:1"
     transform="translate(7.2101614,-1.4436208)">
    <path
       id="path116"
       d="m 63.4,43.9 a 3.64,3.64 0 0 1 2.1,0.5 1.76,1.76 0 0 1 0.8,1.5 2,2 0 0 1 -0.3,1.1 1.46,1.46 0 0 1 -0.9,0.6 c 0.1,0.2 0.3,0.3 0.4,0.5 0.1,0.2 0.3,0.4 0.4,0.6 a 4.35,4.35 0 0 1 0.4,0.7 c 0.1,0.2 0.2,0.5 0.3,0.7 H 65 L 64.7,49.5 A 2.09,2.09 0 0 0 64.3,48.9 L 64,48.4 A 1.76,1.76 0 0 0 63.6,47.9 H 63 v 2.3 H 61.6 V 44 a 3.08,3.08 0 0 1 1,-0.1 z m 0.1,1.2 H 63 v 1.7 h 0.4 a 2,2 0 0 0 1.1,-0.2 0.61,0.61 0 0 0 0.3,-0.7 0.91,0.91 0 0 0 -0.3,-0.7 3.4,3.4 0 0 0 -1,-0.1 z"
       style="fill:#323232;fill-opacity:1"
       inkscape:connector-curvature="0" />
    <path
       id="path118"
       d="m 71.4,50 c -0.3,0.1 -0.6,0.1 -0.9,0.2 a 4.48,4.48 0 0 1 -1.1,0.1 1.8,1.8 0 0 1 -1,-0.2 C 68.2,50 67.9,49.9 67.8,49.6 A 0.91,0.91 0 0 1 67.5,48.9 2.77,2.77 0 0 1 67.4,48 v -2.6 h 1.3 v 2.5 a 1.49,1.49 0 0 0 0.2,0.9 0.71,0.71 0 0 0 0.6,0.3 h 0.6 v -3.7 h 1.3 z"
       style="fill:#323232;fill-opacity:1"
       inkscape:connector-curvature="0" />
    <path
       id="path120"
       d="m 72.7,45.6 c 0.3,-0.1 0.6,-0.1 0.9,-0.2 a 4.48,4.48 0 0 1 1.1,-0.1 1.8,1.8 0 0 1 1,0.2 c 0.2,0.1 0.5,0.2 0.6,0.5 a 0.91,0.91 0 0 1 0.3,0.7 2.77,2.77 0 0 1 0.1,0.9 v 2.7 H 75.4 V 47.8 A 1.49,1.49 0 0 0 75.2,46.9 0.86,0.86 0 0 0 74.6,46.6 H 74 v 3.7 h -1.3 z"
       style="fill:#323232;fill-opacity:1"
       inkscape:connector-curvature="0" />
  </g>
  <g
     id="g148"
     style="display:inline;opacity:1;fill:#323232;fill-opacity:1"
     transform="translate(2.3712714,-0.90909077)">
    <path
       id="path138"
       d="m 135,92.2 c -0.2,-0.5 -0.5,-1.1 -0.7,-1.6 -0.2,-0.5 -0.5,-1.1 -0.7,-1.7 -0.2,-0.6 -0.4,-1.1 -0.6,-1.6 A 11.22,11.22 0 0 1 132.5,86 h 1.5 a 5.64,5.64 0 0 0 0.4,1.2 l 0.4,1.2 0.4,1.2 a 10.38,10.38 0 0 0 0.4,1 6.9,6.9 0 0 1 0.4,-1 l 0.4,-1.2 0.4,-1.2 c 0.1,-0.4 0.3,-0.8 0.4,-1.2 h 1.5 l -0.5,1.3 c -0.2,0.5 -0.4,1 -0.6,1.6 -0.2,0.6 -0.5,1.1 -0.7,1.6 -0.2,0.5 -0.5,1.1 -0.7,1.6 z"
       style="fill:#323232;fill-opacity:1"
       inkscape:connector-curvature="0" />
    <path
       id="path140"
       d="m 139.2,93.8 h -1.4 l 3,-8.7 h 1.4 z"
       style="fill:#323232;fill-opacity:1"
       inkscape:connector-curvature="0" />
    <path
       id="path142"
       d="m 144.6,85.9 a 3.84,3.84 0 0 1 2.1,0.5 2.09,2.09 0 0 1 0.8,1.6 1.55,1.55 0 0 1 -0.8,1.6 4.19,4.19 0 0 1 -2.2,0.5 h -0.4 v 2.1 h -1.4 V 86 a 3.4,3.4 0 0 1 1,-0.1 z m 0,1.2 H 144 v 1.8 h 0.4 a 2,2 0 0 0 1.1,-0.2 0.84,0.84 0 0 0 0.4,-0.7 0.6,0.6 0 0 0 -0.1,-0.4 l -0.3,-0.3 a 0.6,0.6 0 0 0 -0.4,-0.1 0.75,0.75 0 0 0 -0.5,-0.1 z"
       style="fill:#323232;fill-opacity:1"
       inkscape:connector-curvature="0" />
    <path
       id="path144"
       d="m 149.9,87.3 a 3.4,3.4 0 0 1 1,0.1 c 0.2,0.1 0.5,0.2 0.6,0.4 a 0.86,0.86 0 0 1 0.3,0.6 2.2,2.2 0 0 1 0.1,0.8 V 92 l -0.8,0.2 a 4.87,4.87 0 0 1 -1.2,0.1 2,2 0 0 1 -0.8,-0.1 0.86,0.86 0 0 1 -0.6,-0.3 1,1 0 0 1 -0.4,-0.5 1.7,1.7 0 0 1 -0.1,-0.7 1.85,1.85 0 0 1 0.2,-0.7 c 0.1,-0.2 0.3,-0.3 0.4,-0.5 a 1.42,1.42 0 0 1 0.6,-0.2 2,2 0 0 1 0.8,-0.1 h 0.5 l 0.3,0.1 v -0.1 a 1.42,1.42 0 0 0 -0.2,-0.6 1,1 0 0 0 -0.7,-0.2 h -0.7 c -0.2,0 -0.4,0.1 -0.6,0.1 l -0.2,-1.1 0.3,-0.1 0.4,-0.1 0.4,-0.1 z m 0.1,3.9 h 0.7 v -1 h -0.9 a 0.37,0.37 0 0 0 -0.3,0.1 c -0.1,0 -0.1,0.1 -0.2,0.2 a 0.37,0.37 0 0 0 -0.1,0.3 0.52,0.52 0 0 0 0.2,0.4 0.64,0.64 0 0 0 0.6,0 z"
       style="fill:#323232;fill-opacity:1"
       inkscape:connector-curvature="0" />
    <path
       id="path146"
       d="m 153.1,86.3 1.3,-0.2 v 1.4 h 1.6 v 1.1 h -1.6 v 1.7 a 1.7,1.7 0 0 0 0.1,0.7 0.48,0.48 0 0 0 0.6,0.2 h 0.4 c 0.1,0 0.3,-0.1 0.4,-0.1 l 0.2,1 c -0.2,0.1 -0.4,0.1 -0.5,0.2 a 1.7,1.7 0 0 1 -0.7,0.1 1.49,1.49 0 0 1 -0.9,-0.2 2.09,2.09 0 0 1 -0.6,-0.4 c -0.1,-0.2 -0.3,-0.4 -0.3,-0.6 A 2.49,2.49 0 0 1 153,90.4 v -4.1 z"
       style="fill:#323232;fill-opacity:1"
       inkscape:connector-curvature="0" />
  </g>
  <g
     id="g160"
     style="display:inline;opacity:1;fill:#323232;fill-opacity:1"
     transform="translate(6.5864114,-0.90909077)">
    <path
       id="path150"
       d="m 171.7,92.4 a 2.74,2.74 0 0 1 -2.3,-0.8 3.07,3.07 0 0 1 -0.8,-2.4 6.75,6.75 0 0 1 0.2,-1.4 3.59,3.59 0 0 1 0.7,-1 2.07,2.07 0 0 1 1,-0.6 5.07,5.07 0 0 1 1.3,-0.2 1.7,1.7 0 0 1 0.7,0.1 c 0.2,0 0.4,0.1 0.6,0.1 a 0.76,0.76 0 0 1 0.4,0.2 l 0.2,0.1 -0.4,1.1 a 4.88,4.88 0 0 0 -0.7,-0.3 2.77,2.77 0 0 0 -0.9,-0.1 1.27,1.27 0 0 0 -0.6,0.1 l -0.6,0.3 a 2.09,2.09 0 0 0 -0.4,0.6 2.77,2.77 0 0 0 -0.1,0.9 2.2,2.2 0 0 0 0.1,0.8 3.33,3.33 0 0 0 0.3,0.6 0.92,0.92 0 0 0 0.6,0.4 2.35,2.35 0 0 0 0.8,0.2 h 0.6 l 0.4,-0.1 0.3,-0.1 0.3,-0.1 0.4,1.1 c -0.3,0.1 -0.5,0.3 -0.8,0.3 a 1.53,1.53 0 0 1 -1.3,0.2 z"
       style="fill:#323232;fill-opacity:1"
       inkscape:connector-curvature="0" />
    <path
       id="path152"
       d="m 176.5,92.4 a 2.77,2.77 0 0 1 -0.9,-0.1 L 175,92 a 2.19,2.19 0 0 1 -0.3,-0.5 1.7,1.7 0 0 1 -0.1,-0.7 v -5.2 l 1.3,-0.2 v 5.5 c 0,0.1 0,0.2 0.1,0.2 l 0.2,0.2 c 0.1,0 0.3,0.1 0.4,0.1 z"
       style="fill:#323232;fill-opacity:1"
       inkscape:connector-curvature="0" />
    <path
       id="path154"
       d="m 177.2,90 a 4.25,4.25 0 0 1 0.2,-1.1 2.18,2.18 0 0 1 0.5,-0.8 1.79,1.79 0 0 1 0.7,-0.5 3.09,3.09 0 0 1 0.8,-0.2 2.27,2.27 0 0 1 1.6,0.6 3,3 0 0 1 0.6,1.8 v 0.5 h -3 a 1.07,1.07 0 0 0 1.2,0.92 h 0.1 a 1.7,1.7 0 0 0 0.7,-0.1 1.42,1.42 0 0 0 0.6,-0.2 l 0.2,1.1 -0.3,0.1 -0.4,0.1 -0.5,0.1 h -0.5 a 3.6,3.6 0 0 1 -1.1,-0.2 2.1,2.1 0 0 1 -1.3,-1.3 2.48,2.48 0 0 0 -0.1,-0.82 z m 3.2,-0.5 a 0.37,0.37 0 0 0 -0.1,-0.3 c 0,-0.1 -0.1,-0.2 -0.1,-0.3 0,-0.1 -0.2,-0.2 -0.3,-0.2 a 0.85,0.85 0 0 0 -0.8,0 c -0.1,0 -0.2,0.1 -0.3,0.2 -0.1,0.1 -0.1,0.2 -0.2,0.3 a 0.37,0.37 0 0 0 -0.1,0.3 z"
       style="fill:#323232;fill-opacity:1"
       inkscape:connector-curvature="0" />
    <path
       id="path156"
       d="m 184.4,87.5 a 3.4,3.4 0 0 1 1,0.1 2.09,2.09 0 0 1 0.6,0.4 0.86,0.86 0 0 1 0.3,0.6 2.2,2.2 0 0 1 0.1,0.8 v 2.8 l -0.8,0.2 a 4.87,4.87 0 0 1 -1.2,0.1 2,2 0 0 1 -0.8,-0.1 0.86,0.86 0 0 1 -0.6,-0.3 1,1 0 0 1 -0.4,-0.5 1.7,1.7 0 0 1 -0.1,-0.7 1.85,1.85 0 0 1 0.2,-0.7 c 0.1,-0.2 0.3,-0.3 0.4,-0.5 a 1.42,1.42 0 0 1 0.6,-0.2 2,2 0 0 1 0.8,-0.1 h 0.5 l 0.3,0.1 v -0.1 a 1.42,1.42 0 0 0 -0.2,-0.6 1,1 0 0 0 -0.7,-0.2 h -0.7 c -0.2,0 -0.4,0.1 -0.6,0.1 l -0.2,-1.1 0.3,-0.1 0.4,-0.1 0.4,-0.1 z m 0.1,3.9 h 0.7 v -1 h -0.9 a 0.37,0.37 0 0 0 -0.3,0.1 c -0.1,0 -0.1,0.1 -0.2,0.2 a 0.37,0.37 0 0 0 -0.1,0.3 0.52,0.52 0 0 0 0.2,0.4 z"
       style="fill:#323232;fill-opacity:1"
       inkscape:connector-curvature="0" />
    <path
       id="path158"
       d="m 190.6,88.8 -0.4,-0.1 H 189 v 3.6 h -1.3 v -4.5 a 2.92,2.92 0 0 1 0.9,-0.2 4.1,4.1 0 0 1 1.1,-0.1 h 0.6 l 0.3,0.1 0.3,0.1 z"
       style="fill:#323232;fill-opacity:1"
       inkscape:connector-curvature="0" />
  </g>
  <g
     id="g174"
     style="display:inline;opacity:1;fill:#323232;fill-opacity:1"
     transform="translate(3.8095114,-0.90909077)">
    <path
       id="path162"
       d="m 203,91 v 1.2 h -4.2 V 86 h 1.4 v 5 z"
       style="fill:#323232;fill-opacity:1"
       inkscape:connector-curvature="0" />
    <path
       id="path164"
       d="m 203.6,89.9 a 4.25,4.25 0 0 1 0.2,-1.1 2.18,2.18 0 0 1 0.5,-0.8 1.79,1.79 0 0 1 0.7,-0.5 3.09,3.09 0 0 1 0.8,-0.2 2.27,2.27 0 0 1 1.6,0.6 3,3 0 0 1 0.6,1.8 v 0.5 h -3 a 1.07,1.07 0 0 0 1.2,0.92 h 0.1 a 1.7,1.7 0 0 0 0.7,-0.1 1.42,1.42 0 0 0 0.6,-0.2 l 0.2,1.1 -0.3,0.1 -0.4,0.1 -0.5,0.1 h -0.5 A 3.6,3.6 0 0 1 205,92 a 2.1,2.1 0 0 1 -1.3,-1.3 2,2 0 0 1 -0.1,-0.8 z m 3.1,-0.6 A 0.37,0.37 0 0 0 206.6,89 c 0,-0.1 -0.1,-0.2 -0.1,-0.3 0,-0.1 -0.2,-0.2 -0.3,-0.2 a 0.85,0.85 0 0 0 -0.8,0 c -0.1,0 -0.2,0.1 -0.3,0.2 -0.1,0.1 -0.1,0.2 -0.2,0.3 a 0.37,0.37 0 0 0 -0.1,0.3 z"
       style="fill:#323232;fill-opacity:1"
       inkscape:connector-curvature="0" />
    <path
       id="path166"
       d="m 209,87.6 c 0.3,-0.1 0.6,-0.1 0.9,-0.2 a 4.48,4.48 0 0 1 1.1,-0.1 1.8,1.8 0 0 1 1,0.2 c 0.2,0.1 0.5,0.2 0.6,0.4 a 0.91,0.91 0 0 1 0.3,0.7 2.77,2.77 0 0 1 0.1,0.9 v 2.7 h -1.3 v -2.5 a 1.49,1.49 0 0 0 -0.2,-0.9 0.86,0.86 0 0 0 -0.6,-0.3 h -0.6 v 3.7 H 209 Z"
       style="fill:#323232;fill-opacity:1"
       inkscape:connector-curvature="0" />
    <path
       id="path168"
       d="m 218.4,91.6 a 2.11,2.11 0 0 1 -0.6,1.7 3,3 0 0 1 -1.8,0.6 2.77,2.77 0 0 1 -0.9,-0.1 2.35,2.35 0 0 1 -0.8,-0.2 l 0.2,-1.1 a 1.45,1.45 0 0 0 0.7,0.2 2.2,2.2 0 0 0 0.8,0.1 1.88,1.88 0 0 0 0.8,-0.2 0.84,0.84 0 0 0 0.2,-0.7 v -0.2 c -0.1,0.1 -0.3,0.1 -0.4,0.2 h -0.5 a 2,2 0 0 1 -1.5,-0.6 1.94,1.94 0 0 1 -0.5,-1.6 1.49,1.49 0 0 1 0.2,-0.9 1.79,1.79 0 0 1 0.5,-0.7 2.18,2.18 0 0 1 0.8,-0.5 3.55,3.55 0 0 1 1,-0.2 h 0.5 l 0.5,0.1 0.5,0.1 0.4,0.1 z m -2.9,-1.9 c 0,0.8 0.3,1.1 0.9,1.1 a 0.6,0.6 0 0 0 0.4,-0.1 c 0.1,0 0.2,-0.1 0.3,-0.1 v -2.1 h -0.5 a 1.14,1.14 0 0 0 -0.8,0.3 1.61,1.61 0 0 0 -0.3,0.9 z"
       style="fill:#323232;fill-opacity:1"
       inkscape:connector-curvature="0" />
    <path
       id="path170"
       d="m 219.6,86.3 1.3,-0.2 v 1.4 h 1.6 v 1.1 H 221 v 1.7 a 1.7,1.7 0 0 0 0.1,0.7 0.48,0.48 0 0 0 0.6,0.2 h 0.4 c 0.1,0 0.3,-0.1 0.4,-0.1 l 0.2,1 c -0.2,0.1 -0.4,0.1 -0.5,0.2 a 1.7,1.7 0 0 1 -0.7,0.1 1.49,1.49 0 0 1 -0.9,-0.2 2.09,2.09 0 0 1 -0.6,-0.4 c -0.1,-0.2 -0.3,-0.4 -0.3,-0.6 a 2.49,2.49 0 0 1 -0.1,-0.8 z"
       style="fill:#323232;fill-opacity:1"
       inkscape:connector-curvature="0" />
    <path
       id="path172"
       d="m 223.7,92.2 v -6.8 l 1.3,-0.2 v 2.3 l 0.4,-0.1 h 0.4 a 1.8,1.8 0 0 1 1,0.2 2.09,2.09 0 0 1 0.6,0.4 0.91,0.91 0 0 1 0.3,0.7 2.77,2.77 0 0 1 0.1,0.9 v 2.7 h -1.3 v -2.5 a 1.49,1.49 0 0 0 -0.2,-0.9 0.71,0.71 0 0 0 -0.6,-0.3 h -0.3 l -0.3,0.1 v 3.6 z"
       style="fill:#323232;fill-opacity:1"
       inkscape:connector-curvature="0" />
  </g>
  <g
     id="g190"
     style="display:inline;opacity:1;fill:#323232;fill-opacity:1"
     transform="translate(0.37879143,-0.90909077)">
    <path
       id="path176"
       d="m 323.6,86 a 4.75,4.75 0 0 1 2.6,0.6 2.67,2.67 0 0 1 0.23,3.77 l -0.23,0.23 a 4,4 0 0 1 -2.6,0.6 h -0.5 v 2.6 h -1.7 v -7.5 c 0.4,-0.1 0.8,-0.1 1.2,-0.2 a 3.75,3.75 0 0 1 1,-0.1 z m 0.2,1.5 h -0.7 v 2.2 h 0.5 a 5.07,5.07 0 0 0 1.3,-0.2 1,1 0 0 0 0.5,-0.9 0.75,0.75 0 0 0 -0.1,-0.5 c -0.1,-0.1 -0.2,-0.3 -0.3,-0.3 -0.1,0 -0.3,-0.2 -0.5,-0.2 a 2,2 0 0 0 -0.7,-0.1 z"
       style="fill:#323232;fill-opacity:1"
       inkscape:connector-curvature="0" />
    <path
       id="path178"
       d="m 332.8,93.7 c -0.1,-0.3 -0.2,-0.5 -0.3,-0.8 l -0.3,-0.8 h -3 l -0.3,0.8 c -0.1,0.3 -0.2,0.5 -0.3,0.8 h -1.8 c 0.3,-0.8 0.6,-1.6 0.8,-2.3 a 11.92,11.92 0 0 1 0.8,-2 c 0.2,-0.6 0.5,-1.2 0.7,-1.8 a 8,8 0 0 1 0.8,-1.6 h 1.6 a 11.11,11.11 0 0 1 0.7,1.6 17.08,17.08 0 0 1 0.7,1.8 c 0.2,0.6 0.5,1.3 0.8,2 0.3,0.7 0.5,1.5 0.8,2.3 z m -2,-5.9 -0.2,0.4 -0.2,0.7 -0.3,0.8 -0.4,0.9 h 2.2 l -0.3,-0.9 a 6.9,6.9 0 0 0 -0.3,-0.8 L 331,88.2 Z"
       style="fill:#323232;fill-opacity:1"
       inkscape:connector-curvature="0" />
    <path
       id="path180"
       d="m 340.4,86.1 v 1.5 h -2.3 v 6.2 h -1.7 v -6.2 h -2.3 v -1.5 z"
       style="fill:#323232;fill-opacity:1"
       inkscape:connector-curvature="0" />
    <path
       id="path182"
       d="m 347.4,86.1 v 1.5 h -2.3 v 6.2 h -1.7 v -6.2 h -2.3 v -1.5 z"
       style="fill:#323232;fill-opacity:1"
       inkscape:connector-curvature="0" />
    <path
       id="path184"
       d="m 348.5,93.7 v -7.6 h 5.1 v 1.4 h -3.4 V 89 h 3 v 1.4 h -3 v 1.8 h 3.7 v 1.4 z"
       style="fill:#323232;fill-opacity:1"
       inkscape:connector-curvature="0" />
    <path
       id="path186"
       d="m 357.4,86 a 4.75,4.75 0 0 1 2.6,0.6 2.08,2.08 0 0 1 0.9,1.9 2,2 0 0 1 -0.4,1.3 2.26,2.26 0 0 1 -1.1,0.8 4.23,4.23 0 0 1 0.5,0.7 5.58,5.58 0 0 1 0.5,0.8 c 0.2,0.3 0.3,0.5 0.5,0.8 a 5.9,5.9 0 0 1 0.4,0.8 h -1.9 L 359,92.9 c -0.1,-0.3 -0.3,-0.5 -0.4,-0.8 a 3,3 0 0 0 -0.5,-0.7 C 358,91.2 357.8,91 357.7,90.8 h -0.9 v 2.8 h -1.7 v -7.5 c 0.4,-0.1 0.8,-0.1 1.2,-0.2 a 4.49,4.49 0 0 0 1.1,0.1 z m 0.1,1.5 h -0.6 v 2.1 h 0.5 a 3.18,3.18 0 0 0 1.4,-0.2 1,1 0 0 0 0,-1.6 1.59,1.59 0 0 0 -1.3,-0.3 z"
       style="fill:#323232;fill-opacity:1"
       inkscape:connector-curvature="0" />
    <path
       id="path188"
       d="m 367.6,93.7 c -0.5,-0.9 -1,-1.7 -1.6,-2.6 l -1.8,-2.4 v 5 h -1.7 v -7.6 h 1.4 a 8.17,8.17 0 0 1 0.8,0.9 c 0.3,0.4 0.6,0.7 0.9,1.1 l 0.9,1.2 0.9,1.2 V 86 h 1.7 v 7.6 h -1.5 z"
       style="fill:#323232;fill-opacity:1"
       inkscape:connector-curvature="0" />
  </g>
  <g
     id="g200"
     style="display:inline;opacity:1;fill:#323232;fill-opacity:1"
     transform="translate(0.37879143,-1.4436208)">
    <path
       id="path192"
       d="m 333.1,50.8 h -1.2 a 5.85,5.85 0 0 1 -1.3,-0.2 v -7.4 c 0.4,-0.1 0.8,-0.1 1.2,-0.2 h 1.2 a 5.7,5.7 0 0 1 1.3,0.1 3,3 0 0 1 1,0.4 2.34,2.34 0 0 1 0.7,0.7 1.23,1.23 0 0 1 0.2,1 1.42,1.42 0 0 1 -0.9,1.4 1.59,1.59 0 0 1 1,0.8 2,2 0 0 1 0.3,1.1 1.92,1.92 0 0 1 -0.9,1.8 4.68,4.68 0 0 1 -2.6,0.5 z m -0.9,-4.7 h 0.8 a 2,2 0 0 0 1.1,-0.2 0.61,0.61 0 0 0 0.3,-0.7 0.75,0.75 0 0 0 -0.4,-0.7 3.55,3.55 0 0 0 -1,-0.2 h -1 z m 0,1.3 v 2 h 0.9 a 5,5 0 0 0 1.2,-0.2 0.89,0.89 0 0 0 0.5,-0.8 0.91,0.91 0 0 0 -0.4,-0.8 2.15,2.15 0 0 0 -1.1,-0.2 z"
       style="fill:#323232;fill-opacity:1"
       inkscape:connector-curvature="0" />
    <path
       id="path194"
       d="m 343,50.7 c -0.1,-0.3 -0.2,-0.5 -0.3,-0.8 l -0.3,-0.8 h -3 l -0.3,0.8 c -0.1,0.3 -0.2,0.5 -0.3,0.8 H 337 c 0.3,-0.8 0.6,-1.6 0.8,-2.3 a 11.92,11.92 0 0 1 0.8,-2 13.36,13.36 0 0 0 0.7,-1.8 8,8 0 0 1 0.8,-1.6 h 1.6 a 11.11,11.11 0 0 1 0.7,1.6 c 0.2,0.6 0.5,1.1 0.7,1.8 a 16.68,16.68 0 0 0 0.8,2 c 0.3,0.7 0.5,1.5 0.8,2.3 z m -2.1,-5.9 -0.2,0.5 -0.2,0.7 -0.3,0.8 -0.4,0.9 h 2.2 l -0.3,-1 a 6.9,6.9 0 0 0 -0.3,-0.8 l -0.3,-0.7 z"
       style="fill:#323232;fill-opacity:1"
       inkscape:connector-curvature="0" />
    <path
       id="path196"
       d="m 350.9,50.7 c -0.5,-0.9 -1,-1.7 -1.6,-2.6 l -1.8,-2.4 v 5 h -1.7 v -7.6 h 1.4 A 8.17,8.17 0 0 1 348,44 c 0.3,0.4 0.6,0.7 0.9,1.1 l 0.9,1.2 0.9,1.2 V 43 h 1.7 v 7.6 h -1.5 z"
       style="fill:#323232;fill-opacity:1"
       inkscape:connector-curvature="0" />
    <path
       id="path198"
       d="m 358.6,50.7 a 5.58,5.58 0 0 1 -0.5,-0.8 5.5,5.5 0 0 0 -0.7,-0.9 3,3 0 0 0 -0.8,-0.8 2.7,2.7 0 0 0 -0.8,-0.7 v 3.2 h -1.7 v -7.6 h 1.7 V 46 c 0.4,-0.5 0.9,-1 1.3,-1.5 l 1.3,-1.4 h 2 c -0.5,0.6 -1,1.2 -1.6,1.8 l -1.7,1.7 a 7.69,7.69 0 0 1 1.8,1.8 18.82,18.82 0 0 1 1.6,2.3 z"
       style="fill:#323232;fill-opacity:1"
       inkscape:connector-curvature="0" />
  </g>
  <g
     id="g212"
     style="display:inline;opacity:1;fill:#323232;fill-opacity:1"
     transform="translate(0.37879143,-1.4436208)">
    <path
       id="path202"
       d="m 461.2,43.1 c 0.1,0.2 0.3,0.5 0.5,0.9 a 4.33,4.33 0 0 1 0.5,1.2 c 0.2,0.4 0.4,0.8 0.6,1.3 l 0.5,1.2 0.5,-1.2 c 0.2,-0.4 0.4,-0.9 0.6,-1.3 a 6.12,6.12 0 0 0 0.5,-1.2 3.6,3.6 0 0 1 0.5,-0.9 h 1.6 c 0.1,0.5 0.1,1.1 0.2,1.7 0.1,0.6 0.1,1.3 0.2,2 a 13.4,13.4 0 0 1 0.1,2 c 0,0.7 0.1,1.3 0.1,1.9 h -1.7 a 20.93,20.93 0 0 0 -0.1,-2.4 c -0.1,-0.9 -0.1,-1.8 -0.2,-2.6 l -0.4,1 -0.5,1.1 -0.5,1.1 -0.4,0.9 h -1.2 l -0.4,-0.9 -0.5,-1.1 -0.5,-1.1 -0.4,-1 c -0.1,0.9 -0.1,1.8 -0.2,2.6 a 20.08,20.08 0 0 0 -0.1,2.4 H 459 a 12.75,12.75 0 0 1 0.1,-1.9 13.4,13.4 0 0 0 0.1,-2 13.55,13.55 0 0 1 0.2,-2 c 0.1,-0.7 0.1,-1.2 0.2,-1.7 z"
       style="fill:#323232;fill-opacity:1"
       inkscape:connector-curvature="0" />
    <path
       id="path204"
       d="m 469,50.7 v -7.6 h 5.1 v 1.4 h -3.4 V 46 h 3 v 1.4 h -3 v 1.8 h 3.7 v 1.4 z"
       style="fill:#323232;fill-opacity:1"
       inkscape:connector-curvature="0" />
    <path
       id="path206"
       d="m 478,43 a 4.75,4.75 0 0 1 2.6,0.6 2.08,2.08 0 0 1 0.9,1.9 2,2 0 0 1 -0.4,1.3 2.26,2.26 0 0 1 -1.1,0.8 4.23,4.23 0 0 1 0.5,0.7 5.58,5.58 0 0 1 0.5,0.8 c 0.2,0.3 0.3,0.5 0.5,0.8 a 5.9,5.9 0 0 1 0.4,0.8 h -2 l -0.4,-0.8 c -0.1,-0.3 -0.3,-0.5 -0.4,-0.8 a 3,3 0 0 0 -0.5,-0.7 c -0.1,-0.2 -0.3,-0.4 -0.4,-0.6 h -0.9 v 2.8 h -1.7 V 43.1 C 476,43 476.4,43 476.8,42.9 A 5.28,5.28 0 0 0 478,43 Z m 0.1,1.5 h -0.6 v 2.1 h 0.5 a 3.18,3.18 0 0 0 1.4,-0.2 1,1 0 0 0 0,-1.6 1.74,1.74 0 0 0 -1.3,-0.3 z"
       style="fill:#323232;fill-opacity:1"
       inkscape:connector-curvature="0" />
    <path
       id="path208"
       d="m 486.6,44.4 a 1.9,1.9 0 0 0 -1.7,0.7 2.38,2.38 0 0 0 -0.5,1.8 3.4,3.4 0 0 0 0.1,1 2,2 0 0 0 0.4,0.8 1.79,1.79 0 0 0 0.7,0.5 2.92,2.92 0 0 0 0.9,0.2 h 0.9 v -2.7 h 1.7 v 3.8 c -0.3,0.1 -0.7,0.2 -1,0.3 a 9.7,9.7 0 0 1 -1.7,0.1 4.53,4.53 0 0 1 -1.6,-0.3 3.17,3.17 0 0 1 -1.2,-0.8 8.34,8.34 0 0 1 -0.8,-1.2 5,5 0 0 1 0,-3.4 3.6,3.6 0 0 1 0.8,-1.2 5,5 0 0 1 1.2,-0.8 4,4 0 0 1 1.5,-0.3 3.4,3.4 0 0 1 1,0.1 2.35,2.35 0 0 1 0.8,0.2 0.76,0.76 0 0 1 0.5,0.2 l 0.3,0.2 -0.5,1.4 c -0.3,-0.1 -0.5,-0.2 -0.8,-0.3 a 1.93,1.93 0 0 0 -1,-0.3 z"
       style="fill:#323232;fill-opacity:1"
       inkscape:connector-curvature="0" />
    <path
       id="path210"
       d="m 490.6,50.7 v -7.6 h 5.1 v 1.4 h -3.4 V 46 h 3 v 1.4 h -3 v 1.8 h 3.7 v 1.4 z"
       style="fill:#323232;fill-opacity:1"
       inkscape:connector-curvature="0" />
  </g>
  <g
     id="g222"
     style="display:inline;opacity:1;fill:#323232;fill-opacity:1"
     transform="translate(6.6364114,-1.4436208)">
    <path
       id="path214"
       d="m 172.4,50.3 a 2.74,2.74 0 0 1 -2.3,-0.8 3.07,3.07 0 0 1 -0.8,-2.4 6.75,6.75 0 0 1 0.2,-1.4 3.59,3.59 0 0 1 0.7,-1 2.07,2.07 0 0 1 1,-0.6 5.07,5.07 0 0 1 1.3,-0.2 1.7,1.7 0 0 1 0.7,0.1 c 0.2,0 0.4,0.1 0.6,0.1 a 0.76,0.76 0 0 1 0.4,0.2 l 0.2,0.1 -0.4,1.1 a 4.87,4.87 0 0 0 -0.7,-0.3 2.77,2.77 0 0 0 -0.9,-0.1 1.27,1.27 0 0 0 -0.6,0.1 l -0.6,0.3 a 2.09,2.09 0 0 0 -0.4,0.6 2.77,2.77 0 0 0 -0.1,0.9 2.2,2.2 0 0 0 0.1,0.8 3.33,3.33 0 0 0 0.3,0.6 0.92,0.92 0 0 0 0.6,0.4 2.35,2.35 0 0 0 0.8,0.2 h 0.6 l 0.4,-0.1 0.3,-0.1 0.3,-0.1 0.4,1.1 c -0.3,0.1 -0.5,0.3 -0.8,0.3 a 3.18,3.18 0 0 1 -1.3,0.2 z"
       style="fill:#323232;fill-opacity:1"
       inkscape:connector-curvature="0" />
    <path
       id="path216"
       d="m 179.6,47.8 a 3.55,3.55 0 0 1 -0.2,1 2.18,2.18 0 0 1 -0.5,0.8 3,3 0 0 1 -0.7,0.5 3.55,3.55 0 0 1 -1,0.2 2.92,2.92 0 0 1 -0.9,-0.2 1.79,1.79 0 0 1 -0.7,-0.5 2.18,2.18 0 0 1 -0.5,-0.8 2.6,2.6 0 0 1 0,-2 2.18,2.18 0 0 1 0.5,-0.8 3,3 0 0 1 0.7,-0.5 3.08,3.08 0 0 1 1.9,0 1.79,1.79 0 0 1 0.7,0.5 2.18,2.18 0 0 1 0.5,0.8 3.55,3.55 0 0 1 0.2,1 z m -1.4,0 a 3,3 0 0 0 -0.2,-1 1,1 0 0 0 -0.7,-0.4 0.67,0.67 0 0 0 -0.7,0.4 1.16,1.16 0 0 0 -0.2,1 3,3 0 0 0 0.2,1 1,1 0 0 0 0.7,0.4 0.67,0.67 0 0 0 0.7,-0.4 1.64,1.64 0 0 0 0.2,-1 z"
       style="fill:#323232;fill-opacity:1"
       inkscape:connector-curvature="0" />
    <path
       id="path218"
       d="m 185,47.8 a 3.4,3.4 0 0 1 -0.1,1 3,3 0 0 1 -0.4,0.8 2.65,2.65 0 0 1 -0.6,0.5 2.92,2.92 0 0 1 -0.9,0.2 h -0.5 c -0.2,0 -0.3,-0.1 -0.5,-0.2 v 1.8 h -1.3 v -6.2 l 0.4,-0.1 0.5,-0.1 0.5,-0.1 h 0.5 a 3.55,3.55 0 0 1 1,0.2 2.1,2.1 0 0 1 1.3,1.3 c 0,0.2 0.1,0.6 0.1,0.9 z m -1.4,0 a 1.69,1.69 0 0 0 -0.3,-1 1.23,1.23 0 0 0 -0.8,-0.4 H 182 V 49 a 0.37,0.37 0 0 0 0.3,0.1 c 0.1,0 0.3,0.1 0.4,0 0.6,0.1 0.9,-0.4 0.9,-1.3 z"
       style="fill:#323232;fill-opacity:1"
       inkscape:connector-curvature="0" />
    <path
       id="path220"
       d="m 190.1,45.5 c -0.3,0.9 -0.6,1.8 -0.9,2.6 a 16,16 0 0 1 -1,2.3 c -0.1,0.2 -0.2,0.5 -0.3,0.7 -0.1,0.2 -0.3,0.3 -0.4,0.5 -0.1,0.2 -0.3,0.2 -0.5,0.3 a 1.48,1.48 0 0 1 -0.7,0.1 1.27,1.27 0 0 1 -0.6,-0.1 c -0.2,0 -0.3,-0.1 -0.4,-0.1 l 0.2,-1.1 c 0.1,0 0.2,0.1 0.4,0.1 h 0.3 a 1.42,1.42 0 0 0 0.6,-0.2 c 0.1,-0.2 0.3,-0.3 0.3,-0.5 -0.3,-0.6 -0.6,-1.3 -0.9,-2 -0.3,-0.7 -0.6,-1.7 -0.9,-2.5 h 1.4 c 0.1,0.2 0.1,0.5 0.2,0.8 0.1,0.3 0.2,0.5 0.3,0.8 0.1,0.3 0.2,0.5 0.3,0.8 a 4.88,4.88 0 0 0 0.3,0.7 1.85,1.85 0 0 0 0.2,-0.7 2.35,2.35 0 0 0 0.2,-0.8 l 0.2,-0.8 0.2,-0.8 z"
       style="fill:#323232;fill-opacity:1"
       inkscape:connector-curvature="0" />
  </g>
  <g
     id="g234"
     style="display:inline;opacity:1;fill:#323232;fill-opacity:1"
     transform="translate(0.37879143,-1.4436208)">
    <path
       id="path224"
       d="m 98.3,43.9 a 4.19,4.19 0 0 1 2.2,0.5 1.76,1.76 0 0 1 0.8,1.5 2,2 0 0 1 -0.3,1.1 1.46,1.46 0 0 1 -0.9,0.6 c 0.1,0.2 0.3,0.3 0.4,0.5 0.1,0.2 0.3,0.4 0.4,0.6 a 4.35,4.35 0 0 1 0.4,0.7 c 0.1,0.2 0.2,0.5 0.3,0.7 H 100 l -0.3,-0.6 a 2.09,2.09 0 0 0 -0.4,-0.6 l -0.4,-0.6 a 1.76,1.76 0 0 0 -0.4,-0.5 h -0.7 v 2.3 H 96.4 V 44 a 2.77,2.77 0 0 1 0.9,-0.1 z m 0.1,1.2 h -0.5 v 1.7 h 0.4 a 2,2 0 0 0 1.1,-0.2 0.61,0.61 0 0 0 0.3,-0.7 0.91,0.91 0 0 0 -0.3,-0.7 3.4,3.4 0 0 0 -1,-0.1 z"
       style="fill:#323232;fill-opacity:1"
       inkscape:connector-curvature="0" />
    <path
       id="path226"
       d="m 101.9,47.9 a 4.25,4.25 0 0 1 0.2,-1.1 2.18,2.18 0 0 1 0.5,-0.8 1.79,1.79 0 0 1 0.7,-0.5 3.09,3.09 0 0 1 0.8,-0.2 2.27,2.27 0 0 1 1.6,0.6 3,3 0 0 1 0.6,1.8 v 0.5 h -3 a 1.07,1.07 0 0 0 1.2,0.92 h 0.1 a 1.7,1.7 0 0 0 0.7,-0.1 1.42,1.42 0 0 0 0.6,-0.2 l 0.2,1.1 -0.3,0.1 -0.4,0.1 -0.5,0.1 h -0.5 a 3.59,3.59 0 0 1 -1.1,-0.2 2.1,2.1 0 0 1 -1.3,-1.3 2.48,2.48 0 0 0 -0.1,-0.82 z m 3.2,-0.5 c 0,-0.1 -0.1,-0.2 -0.1,-0.4 0,-0.2 -0.1,-0.2 -0.2,-0.3 -0.1,-0.1 -0.2,-0.2 -0.3,-0.2 a 0.85,0.85 0 0 0 -0.8,0 c -0.1,0 -0.2,0.1 -0.3,0.2 -0.1,0.1 -0.1,0.2 -0.2,0.3 a 0.37,0.37 0 0 0 -0.1,0.3 z"
       style="fill:#323232;fill-opacity:1"
       inkscape:connector-curvature="0" />
    <path
       id="path228"
       d="m 108.8,49.2 a 0.75,0.75 0 0 0 0.5,-0.1 c 0.1,-0.1 0.2,-0.2 0.2,-0.3 0,-0.1 -0.1,-0.2 -0.2,-0.3 l -0.6,-0.3 a 1.42,1.42 0 0 0 -0.6,-0.2 1.38,1.38 0 0 1 -0.4,-0.3 c -0.1,-0.1 -0.2,-0.3 -0.3,-0.4 a 1.27,1.27 0 0 1 -0.1,-0.6 1.23,1.23 0 0 1 0.5,-1 2.3,2.3 0 0 1 1.4,-0.4 2,2 0 0 1 0.8,0.1 1.42,1.42 0 0 1 0.6,0.2 l -0.2,1 -0.5,-0.1 c -0.2,0 -0.4,-0.1 -0.6,-0.1 q -0.6,0 -0.6,0.3 v 0.1 l 0.1,0.1 0.2,0.1 0.4,0.2 a 4.87,4.87 0 0 1 0.7,0.3 1.38,1.38 0 0 1 0.4,0.3 0.76,0.76 0 0 1 0.2,0.4 c 0,0.2 0.1,0.3 0.1,0.5 a 1.61,1.61 0 0 1 -0.5,1.1 2.6,2.6 0 0 1 -1.5,0.4 3.4,3.4 0 0 1 -1,-0.1 1.42,1.42 0 0 1 -0.6,-0.2 l 0.2,-1.1 a 1.85,1.85 0 0 0 0.7,0.2 1,1 0 0 0 0.7,0.2 z"
       style="fill:#323232;fill-opacity:1"
       inkscape:connector-curvature="0" />
    <path
       id="path230"
       d="m 111.6,47.9 a 4.25,4.25 0 0 1 0.2,-1.1 2.18,2.18 0 0 1 0.5,-0.8 1.79,1.79 0 0 1 0.7,-0.5 3.09,3.09 0 0 1 0.8,-0.2 2.27,2.27 0 0 1 1.6,0.6 3,3 0 0 1 0.6,1.8 v 0.5 h -3 a 1.07,1.07 0 0 0 1.2,0.92 h 0.1 a 1.7,1.7 0 0 0 0.7,-0.1 1.42,1.42 0 0 0 0.6,-0.2 l 0.2,1.1 -0.3,0.1 -0.4,0.1 -0.5,0.1 h -0.5 A 3.59,3.59 0 0 1 113,50 2.1,2.1 0 0 1 111.7,48.7 c 0,-0.2 -0.1,-0.5 -0.1,-0.8 z m 3.1,-0.5 a 0.37,0.37 0 0 0 -0.1,-0.3 c 0,-0.1 -0.1,-0.2 -0.2,-0.3 -0.1,-0.1 -0.2,-0.2 -0.3,-0.2 a 0.85,0.85 0 0 0 -0.8,0 c -0.1,0 -0.2,0.1 -0.3,0.2 -0.1,0.1 -0.2,0.2 -0.2,0.3 0,0.1 -0.1,0.2 -0.1,0.3 z"
       style="fill:#323232;fill-opacity:1"
       inkscape:connector-curvature="0" />
    <path
       id="path232"
       d="m 117,44.3 1.3,-0.2 v 1.4 h 1.7 v 1.1 h -1.6 v 1.7 a 1,1 0 0 0 0.2,0.7 0.48,0.48 0 0 0 0.6,0.2 h 0.4 A 0.76,0.76 0 0 0 120,49 l 0.2,1 c -0.2,0.1 -0.4,0.1 -0.5,0.2 a 1.7,1.7 0 0 1 -0.7,0.1 1.49,1.49 0 0 1 -0.9,-0.2 2.09,2.09 0 0 1 -0.6,-0.4 c -0.1,-0.2 -0.3,-0.4 -0.3,-0.6 a 2.49,2.49 0 0 1 -0.1,-0.8 z"
       style="fill:#323232;fill-opacity:1"
       inkscape:connector-curvature="0" />
  </g>
  <path
     id="path27449"
     d="M 66.878791,132.49091 H 453.97879"
     style="display:inline;opacity:1;fill:#323232;fill-opacity:1;stroke:#323232;stroke-miterlimit:10;stroke-opacity:1"
     inkscape:connector-curvature="0" />
  <path
     id="path27449-8"
     d="m 261.37879,354.79091 v -208.4"
     style="display:inline;opacity:1;fill:none;stroke:#b1b1b1;stroke-miterlimit:10;stroke-opacity:1"
     inkscape:connector-curvature="0" />
  <path
     id="path27449-8-2"
     data-name="path27449-8"
     d="m 160.55879,354.79091 v -208.4"
     style="display:inline;opacity:1;fill:none;stroke:#b1b1b1;stroke-miterlimit:10;stroke-opacity:1"
     inkscape:connector-curvature="0" />
  <path
     id="path27449-8-3"
     data-name="path27449-8"
     d="m 360.96879,354.79091 v -208.4"
     style="display:inline;opacity:1;fill:none;stroke:#b1b1b1;stroke-miterlimit:10;stroke-opacity:1"
     inkscape:connector-curvature="0" />
  <g
     aria-label="Clock"
     style="font-style:normal;font-weight:normal;font-size:12px;line-height:125%;font-family:Sans;letter-spacing:0px;word-spacing:0px;display:inline;opacity:1;fill:#323232;fill-opacity:1;stroke:none;stroke-width:1px;stroke-linecap:butt;stroke-linejoin:miter;stroke-opacity:1"
     id="text2393"
     transform="translate(0.37879143,-1.7613152)">
    <path
       d="m 5.8215499,93.136663 q -1.5773333,0 -2.4079999,-0.877333 -0.8213333,-0.877333 -0.8213333,-2.492 0,-0.802666 0.252,-1.428 0.252,-0.634666 0.6906666,-1.064 0.4386667,-0.438666 1.0453333,-0.662666 0.6066667,-0.224 1.316,-0.224 0.4106666,0 0.7466666,0.06533 0.336,0.056 0.588,0.14 0.252,0.07467 0.42,0.158667 0.168,0.084 0.2426666,0.130666 l -0.42,1.176 q -0.2986666,-0.158666 -0.6999999,-0.270666 -0.392,-0.112 -0.896,-0.112 -0.336,0 -0.6626666,0.112 -0.3173334,0.112 -0.5693334,0.364 -0.2426666,0.242666 -0.3919999,0.634666 -0.1493334,0.392 -0.1493334,0.952 0,0.448 0.093333,0.84 0.1026666,0.382667 0.3173333,0.662667 0.224,0.28 0.5786666,0.448 0.3546667,0.158666 0.8586667,0.158666 0.3173333,0 0.5693333,-0.03733 0.252,-0.03733 0.448,-0.084 0.196,-0.056 0.3453333,-0.121333 0.1493333,-0.06533 0.2706666,-0.121334 l 0.4013334,1.166667 q -0.308,0.186667 -0.868,0.336 -0.56,0.149333 -1.2973329,0.149333 z"
       style="font-style:normal;font-variant:normal;font-weight:bold;font-stretch:normal;font-size:9.33333302px;font-family:Ubuntu;-inkscape-font-specification:'Ubuntu, Bold';font-variant-ligatures:normal;font-variant-caps:normal;font-variant-numeric:normal;font-feature-settings:normal;text-align:start;writing-mode:lr-tb;text-anchor:start;fill:#323232;fill-opacity:1"
       id="path2439"
       inkscape:connector-curvature="0" />
    <path
       d="M 10.790966,93.09933 Q 10.1843,93.089997 9.801633,92.968663 9.4282997,92.84733 9.2042997,92.632663 8.989633,92.408663 8.905633,92.100663 8.8309664,91.78333 8.8309664,91.39133 v -5.404 l 1.3906666,-0.224 v 5.348 q 0,0.186667 0.028,0.336 0.028,0.149333 0.102667,0.252 0.084,0.102667 0.233333,0.168 0.149333,0.06533 0.401333,0.084 z"
       style="font-style:normal;font-variant:normal;font-weight:bold;font-stretch:normal;font-size:9.33333302px;font-family:Ubuntu;-inkscape-font-specification:'Ubuntu, Bold';font-variant-ligatures:normal;font-variant-caps:normal;font-variant-numeric:normal;font-feature-settings:normal;text-align:start;writing-mode:lr-tb;text-anchor:start;fill:#323232;fill-opacity:1"
       id="path2441"
       inkscape:connector-curvature="0" />
    <path
       d="m 16.376091,90.541997 q 0,0.578666 -0.168,1.064 -0.168,0.476 -0.485333,0.821333 -0.317333,0.336 -0.765333,0.522667 -0.438667,0.186666 -0.989334,0.186666 -0.541333,0 -0.989333,-0.186666 -0.438667,-0.186667 -0.756,-0.522667 -0.317333,-0.345333 -0.494667,-0.821333 -0.177333,-0.485334 -0.177333,-1.064 0,-0.578667 0.177333,-1.054667 0.186667,-0.476 0.504,-0.812 0.326667,-0.336 0.765334,-0.522666 0.448,-0.186667 0.970666,-0.186667 0.532,0 0.970667,0.186667 0.448,0.186666 0.765333,0.522666 0.317334,0.336 0.494667,0.812 0.177333,0.476 0.177333,1.054667 z m -1.418666,0 q 0,-0.644 -0.261334,-1.008 -0.252,-0.373333 -0.728,-0.373333 -0.476,0 -0.737333,0.373333 -0.261333,0.364 -0.261333,1.008 0,0.644 0.261333,1.026666 0.261333,0.373334 0.737333,0.373334 0.476,0 0.728,-0.373334 0.261334,-0.382666 0.261334,-1.026666 z"
       style="font-style:normal;font-variant:normal;font-weight:bold;font-stretch:normal;font-size:9.33333302px;font-family:Ubuntu;-inkscape-font-specification:'Ubuntu, Bold';font-variant-ligatures:normal;font-variant-caps:normal;font-variant-numeric:normal;font-feature-settings:normal;text-align:start;writing-mode:lr-tb;text-anchor:start;fill:#323232;fill-opacity:1"
       id="path2443"
       inkscape:connector-curvature="0" />
    <path
       d="m 17.220029,90.55133 q 0,-0.532 0.168,-0.998667 0.177333,-0.475999 0.504,-0.821333 0.326666,-0.354666 0.793333,-0.56 0.466666,-0.205333 1.064,-0.205333 0.392,0 0.718666,0.07467 0.326667,0.06533 0.634667,0.196 l -0.289333,1.110666 q -0.196,-0.07467 -0.429334,-0.130667 -0.233333,-0.056 -0.522666,-0.056 -0.616,0 -0.924,0.382666 -0.298667,0.382667 -0.298667,1.008 0,0.662667 0.28,1.026667 0.289333,0.364 0.998667,0.364 0.252,0 0.541333,-0.04667 0.289333,-0.04667 0.532,-0.149333 l 0.196,1.138666 q -0.242667,0.102667 -0.606667,0.177334 -0.364,0.07467 -0.802666,0.07467 -0.672,0 -1.157333,-0.196 -0.485334,-0.205333 -0.802667,-0.550666 -0.308,-0.345334 -0.457333,-0.812 -0.14,-0.476 -0.14,-1.026667 z"
       style="font-style:normal;font-variant:normal;font-weight:bold;font-stretch:normal;font-size:9.33333302px;font-family:Ubuntu;-inkscape-font-specification:'Ubuntu, Bold';font-variant-ligatures:normal;font-variant-caps:normal;font-variant-numeric:normal;font-feature-settings:normal;text-align:start;writing-mode:lr-tb;text-anchor:start;fill:#323232;fill-opacity:1"
       id="path2445"
       inkscape:connector-curvature="0" />
    <path
       d="m 23.510695,89.869997 q 0.205333,-0.224 0.42,-0.466667 0.224,-0.242666 0.429333,-0.476 0.205333,-0.242666 0.382666,-0.457333 0.186667,-0.214667 0.317334,-0.373333 h 1.652 q -0.494667,0.569333 -0.970667,1.092 -0.466667,0.513333 -1.026667,1.063999 0.28,0.252 0.578667,0.606667 0.298667,0.345333 0.578667,0.718667 0.28,0.373333 0.513333,0.746666 0.233333,0.373334 0.392,0.681334 h -1.596 q -0.149333,-0.242667 -0.345333,-0.532 -0.186667,-0.298667 -0.401334,-0.588 -0.214666,-0.298667 -0.457333,-0.569334 -0.233333,-0.270666 -0.466666,-0.457333 v 2.146667 H 22.120028 V 85.98733 l 1.390667,-0.224 z"
       style="font-style:normal;font-variant:normal;font-weight:bold;font-stretch:normal;font-size:9.33333302px;font-family:Ubuntu;-inkscape-font-specification:'Ubuntu, Bold';font-variant-ligatures:normal;font-variant-caps:normal;font-variant-numeric:normal;font-feature-settings:normal;text-align:start;writing-mode:lr-tb;text-anchor:start;fill:#323232;fill-opacity:1"
       id="path2447"
       inkscape:connector-curvature="0" />
  </g>
  <g
     aria-label="Tempo"
     style="font-style:normal;font-weight:normal;font-size:12px;line-height:125%;font-family:Sans;letter-spacing:0px;word-spacing:0px;display:inline;opacity:1;fill:#323232;fill-opacity:1;stroke:none;stroke-width:1px;stroke-linecap:butt;stroke-linejoin:miter;stroke-opacity:1"
     id="text2397"
     transform="translate(0.37879143,-0.55368797)">
    <path
       d="m 36.989965,85.352664 v 1.241333 h -1.950667 v 5.226666 h -1.456 v -5.226666 h -1.950667 v -1.241333 z"
       style="font-style:normal;font-variant:normal;font-weight:bold;font-stretch:normal;font-size:9.33333302px;font-family:Ubuntu;-inkscape-font-specification:'Ubuntu, Bold';font-variant-ligatures:normal;font-variant-caps:normal;font-variant-numeric:normal;font-feature-settings:normal;text-align:start;writing-mode:lr-tb;text-anchor:start;fill:#323232;fill-opacity:1"
       id="path2428"
       inkscape:connector-curvature="0" />
    <path
       d="m 36.897215,89.40333 q 0,-0.653333 0.196,-1.138666 0.205333,-0.494667 0.532,-0.821334 0.326666,-0.326666 0.746666,-0.494666 0.429334,-0.168 0.877334,-0.168 1.045333,0 1.652,0.644 0.606666,0.634666 0.606666,1.876 0,0.121333 -0.0093,0.270666 -0.0093,0.14 -0.01867,0.252 h -3.154666 q 0.04667,0.429334 0.401333,0.681333 0.354667,0.252 0.952,0.252 0.382667,0 0.746667,-0.06533 0.373333,-0.07467 0.606666,-0.177333 l 0.186667,1.129333 q -0.112,0.056 -0.298667,0.112 -0.186666,0.056 -0.42,0.09333 -0.224,0.04667 -0.485333,0.07467 -0.261333,0.028 -0.522667,0.028 -0.662666,0 -1.157333,-0.196 -0.485333,-0.196 -0.812,-0.532 -0.317333,-0.345333 -0.476,-0.812 -0.149333,-0.466666 -0.149333,-1.008 z m 3.266666,-0.532 q -0.0093,-0.177333 -0.06533,-0.345333 -0.04667,-0.168 -0.158667,-0.298667 -0.102666,-0.130666 -0.270666,-0.214666 -0.158667,-0.084 -0.401334,-0.084 -0.233333,0 -0.401333,0.084 -0.168,0.07467 -0.28,0.205333 -0.112,0.130667 -0.177333,0.308 -0.056,0.168 -0.084,0.345333 z"
       style="font-style:normal;font-variant:normal;font-weight:bold;font-stretch:normal;font-size:9.33333302px;font-family:Ubuntu;-inkscape-font-specification:'Ubuntu, Bold';font-variant-ligatures:normal;font-variant-caps:normal;font-variant-numeric:normal;font-feature-settings:normal;text-align:start;writing-mode:lr-tb;text-anchor:start;fill:#323232;fill-opacity:1"
       id="path2430"
       inkscape:connector-curvature="0" />
    <path
       d="m 45.278402,89.216664 q 0,-0.672 -0.177333,-0.952 -0.168,-0.28 -0.588,-0.28 -0.130667,0 -0.270667,0.01867 -0.14,0.0093 -0.270667,0.028 v 3.789333 H 42.581069 V 87.07933 q 0.177333,-0.04667 0.410666,-0.09333 0.242667,-0.056 0.504,-0.09333 0.270667,-0.04667 0.550667,-0.06533 0.28,-0.028 0.550667,-0.028 0.532,0 0.858666,0.14 0.336,0.130667 0.550667,0.317334 0.298667,-0.214667 0.681333,-0.336 0.392,-0.121334 0.718667,-0.121334 0.588,0 0.961333,0.168 0.382667,0.158667 0.606667,0.457334 0.224,0.298666 0.308,0.709333 0.084,0.410667 0.084,0.914667 v 2.771999 h -1.390667 v -2.603999 q 0,-0.672 -0.177333,-0.952 -0.168,-0.28 -0.588,-0.28 -0.112,0 -0.317334,0.056 -0.196,0.056 -0.326666,0.14 0.06533,0.214666 0.084,0.457333 0.01867,0.233333 0.01867,0.504 v 2.678666 h -1.390667 z"
       style="font-style:normal;font-variant:normal;font-weight:bold;font-stretch:normal;font-size:9.33333302px;font-family:Ubuntu;-inkscape-font-specification:'Ubuntu, Bold';font-variant-ligatures:normal;font-variant-caps:normal;font-variant-numeric:normal;font-feature-settings:normal;text-align:start;writing-mode:lr-tb;text-anchor:start;fill:#323232;fill-opacity:1"
       id="path2432"
       inkscape:connector-curvature="0" />
    <path
       d="m 53.765463,89.40333 q 0,-0.644 -0.289333,-1.026666 -0.289333,-0.392 -0.858667,-0.392 -0.186666,0 -0.345333,0.01867 -0.158667,0.0093 -0.261333,0.028 v 2.510667 q 0.130666,0.084 0.336,0.14 0.214666,0.056 0.429333,0.056 0.989333,0 0.989333,-1.334667 z M 55.18413,89.366 q 0,0.569333 -0.14,1.036 -0.14,0.466666 -0.410667,0.802666 -0.270666,0.336 -0.672,0.522667 -0.401333,0.186667 -0.924,0.186667 -0.289333,0 -0.541333,-0.056 -0.252,-0.056 -0.485333,-0.158667 v 1.848 H 50.62013 v -6.468 q 0.186667,-0.056 0.429334,-0.102666 0.242666,-0.056 0.503999,-0.09333 0.270667,-0.03733 0.541334,-0.056 0.28,-0.028 0.532,-0.028 0.606666,0 1.082666,0.186667 0.476,0.177333 0.802667,0.513333 0.326667,0.326667 0.494667,0.802667 0.177333,0.476 0.177333,1.064 z"
       style="font-style:normal;font-variant:normal;font-weight:bold;font-stretch:normal;font-size:9.33333302px;font-family:Ubuntu;-inkscape-font-specification:'Ubuntu, Bold';font-variant-ligatures:normal;font-variant-caps:normal;font-variant-numeric:normal;font-feature-settings:normal;text-align:start;writing-mode:lr-tb;text-anchor:start;fill:#323232;fill-opacity:1"
       id="path2434"
       inkscape:connector-curvature="0" />
    <path
       d="m 60.844943,89.356664 q 0,0.578666 -0.168,1.063999 -0.168,0.476 -0.485334,0.821334 -0.317333,0.336 -0.765333,0.522666 -0.438667,0.186667 -0.989333,0.186667 -0.541334,0 -0.989334,-0.186667 -0.438666,-0.186666 -0.756,-0.522666 -0.317333,-0.345334 -0.494666,-0.821334 -0.177334,-0.485333 -0.177334,-1.063999 0,-0.578667 0.177334,-1.054667 0.186666,-0.476 0.504,-0.812 0.326666,-0.336 0.765333,-0.522667 0.448,-0.186666 0.970667,-0.186666 0.532,0 0.970666,0.186666 0.448,0.186667 0.765334,0.522667 0.317333,0.336 0.494666,0.812 0.177334,0.476 0.177334,1.054667 z m -1.418667,0 q 0,-0.644 -0.261333,-1.008 -0.252,-0.373334 -0.728,-0.373334 -0.476,0 -0.737334,0.373334 -0.261333,0.364 -0.261333,1.008 0,0.644 0.261333,1.026666 0.261334,0.373333 0.737334,0.373333 0.476,0 0.728,-0.373333 0.261333,-0.382666 0.261333,-1.026666 z"
       style="font-style:normal;font-variant:normal;font-weight:bold;font-stretch:normal;font-size:9.33333302px;font-family:Ubuntu;-inkscape-font-specification:'Ubuntu, Bold';font-variant-ligatures:normal;font-variant-caps:normal;font-variant-numeric:normal;font-feature-settings:normal;text-align:start;writing-mode:lr-tb;text-anchor:start;fill:#323232;fill-opacity:1"
       id="path2436"
       inkscape:connector-curvature="0" />
  </g>
  <g
     aria-label="Clock out"
     style="font-style:normal;font-weight:normal;font-size:12px;line-height:100%;font-family:Sans;text-align:center;letter-spacing:0px;word-spacing:0px;text-anchor:middle;display:inline;opacity:1;fill:#323232;fill-opacity:1;stroke:none;stroke-width:1px;stroke-linecap:butt;stroke-linejoin:miter;stroke-opacity:1"
     id="text2401"
     transform="translate(0.37879143,-1.9804647)">
    <path
       d="m 67.517727,89.301662 q -1.577334,0 -2.408,-0.877333 -0.821333,-0.877333 -0.821333,-2.492 0,-0.802666 0.252,-1.428 0.252,-0.634666 0.690666,-1.064 0.438667,-0.438666 1.045333,-0.662666 0.606667,-0.224 1.316,-0.224 0.410667,0 0.746667,0.06533 0.336,0.056 0.588,0.14 0.252,0.07467 0.42,0.158667 0.168,0.084 0.242667,0.130666 l -0.42,1.176 q -0.298667,-0.158666 -0.7,-0.270666 -0.392,-0.112 -0.896,-0.112 -0.336,0 -0.662667,0.112 -0.317333,0.112 -0.569333,0.364 -0.242667,0.242666 -0.392,0.634666 -0.149333,0.392 -0.149333,0.952 0,0.448 0.09333,0.84 0.102666,0.382667 0.317333,0.662667 0.224,0.28 0.578667,0.448 0.354666,0.158666 0.858666,0.158666 0.317334,0 0.569334,-0.03733 0.252,-0.03733 0.448,-0.084 0.196,-0.056 0.345333,-0.121333 0.149333,-0.06533 0.270667,-0.121334 l 0.401333,1.166667 q -0.308,0.186667 -0.868,0.336 -0.56,0.149333 -1.297333,0.149333 z"
       style="font-style:normal;font-variant:normal;font-weight:bold;font-stretch:normal;font-size:9.33333302px;line-height:100%;font-family:Ubuntu;-inkscape-font-specification:'Ubuntu, Bold';font-variant-ligatures:normal;font-variant-caps:normal;font-variant-numeric:normal;font-feature-settings:normal;text-align:center;writing-mode:lr-tb;text-anchor:middle;fill:#323232;fill-opacity:1"
       id="path2411"
       inkscape:connector-curvature="0" />
    <path
       d="m 72.487143,89.264329 q -0.606666,-0.0093 -0.989333,-0.130667 -0.373333,-0.121333 -0.597333,-0.336 -0.214667,-0.224 -0.298667,-0.532 -0.07467,-0.317333 -0.07467,-0.709333 v -5.404 l 1.390667,-0.224 v 5.348 q 0,0.186667 0.028,0.336 0.028,0.149333 0.102667,0.252 0.084,0.102667 0.233333,0.168 0.149333,0.06533 0.401333,0.084 z"
       style="font-style:normal;font-variant:normal;font-weight:bold;font-stretch:normal;font-size:9.33333302px;line-height:100%;font-family:Ubuntu;-inkscape-font-specification:'Ubuntu, Bold';font-variant-ligatures:normal;font-variant-caps:normal;font-variant-numeric:normal;font-feature-settings:normal;text-align:center;writing-mode:lr-tb;text-anchor:middle;fill:#323232;fill-opacity:1"
       id="path2413"
       inkscape:connector-curvature="0" />
    <path
       d="m 78.072268,86.706996 q 0,0.578666 -0.168,1.064 -0.168,0.476 -0.485333,0.821333 -0.317334,0.336 -0.765334,0.522667 -0.438666,0.186666 -0.989333,0.186666 -0.541333,0 -0.989333,-0.186666 -0.438667,-0.186667 -0.756,-0.522667 -0.317333,-0.345333 -0.494667,-0.821333 -0.177333,-0.485334 -0.177333,-1.064 0,-0.578667 0.177333,-1.054667 0.186667,-0.476 0.504,-0.812 0.326667,-0.336 0.765334,-0.522666 0.448,-0.186667 0.970666,-0.186667 0.532,0 0.970667,0.186667 0.448,0.186666 0.765333,0.522666 0.317333,0.336 0.494667,0.812 0.177333,0.476 0.177333,1.054667 z m -1.418667,0 q 0,-0.644 -0.261333,-1.008 -0.252,-0.373333 -0.728,-0.373333 -0.476,0 -0.737333,0.373333 -0.261333,0.364 -0.261333,1.008 0,0.644 0.261333,1.026666 0.261333,0.373334 0.737333,0.373334 0.476,0 0.728,-0.373334 0.261333,-0.382666 0.261333,-1.026666 z"
       style="font-style:normal;font-variant:normal;font-weight:bold;font-stretch:normal;font-size:9.33333302px;line-height:100%;font-family:Ubuntu;-inkscape-font-specification:'Ubuntu, Bold';font-variant-ligatures:normal;font-variant-caps:normal;font-variant-numeric:normal;font-feature-settings:normal;text-align:center;writing-mode:lr-tb;text-anchor:middle;fill:#323232;fill-opacity:1"
       id="path2415"
       inkscape:connector-curvature="0" />
    <path
       d="m 78.916205,86.716329 q 0,-0.532 0.168,-0.998667 0.177334,-0.475999 0.504,-0.821333 0.326667,-0.354666 0.793334,-0.56 0.466666,-0.205333 1.064,-0.205333 0.392,0 0.718666,0.07467 0.326667,0.06533 0.634667,0.196 l -0.289333,1.110666 q -0.196,-0.07467 -0.429334,-0.130666 -0.233333,-0.056 -0.522666,-0.056 -0.616,0 -0.924,0.382666 -0.298667,0.382667 -0.298667,1.008 0,0.662667 0.28,1.026667 0.289333,0.364 0.998667,0.364 0.252,0 0.541333,-0.04667 0.289333,-0.04667 0.532,-0.149333 l 0.196,1.138666 q -0.242667,0.102667 -0.606667,0.177334 -0.364,0.07467 -0.802666,0.07467 -0.672,0 -1.157334,-0.196 -0.485333,-0.205333 -0.802666,-0.550666 -0.308,-0.345334 -0.457334,-0.812 -0.14,-0.476 -0.14,-1.026667 z"
       style="font-style:normal;font-variant:normal;font-weight:bold;font-stretch:normal;font-size:9.33333302px;line-height:100%;font-family:Ubuntu;-inkscape-font-specification:'Ubuntu, Bold';font-variant-ligatures:normal;font-variant-caps:normal;font-variant-numeric:normal;font-feature-settings:normal;text-align:center;writing-mode:lr-tb;text-anchor:middle;fill:#323232;fill-opacity:1"
       id="path2417"
       inkscape:connector-curvature="0" />
    <path
       d="m 85.206871,86.034996 q 0.205334,-0.224 0.42,-0.466667 0.224,-0.242666 0.429334,-0.476 0.205333,-0.242666 0.382666,-0.457333 0.186667,-0.214667 0.317334,-0.373333 h 1.652 q -0.494667,0.569333 -0.970667,1.092 -0.466667,0.513333 -1.026667,1.063999 0.28,0.252 0.578667,0.606667 0.298667,0.345333 0.578667,0.718667 0.28,0.373333 0.513333,0.746666 0.233333,0.373334 0.392,0.681334 h -1.596 q -0.149333,-0.242667 -0.345333,-0.532 -0.186667,-0.298667 -0.401334,-0.588 -0.214666,-0.298667 -0.457333,-0.569334 -0.233333,-0.270666 -0.466667,-0.457333 v 2.146667 h -1.390666 v -7.018667 l 1.390666,-0.224 z"
       style="font-style:normal;font-variant:normal;font-weight:bold;font-stretch:normal;font-size:9.33333302px;line-height:100%;font-family:Ubuntu;-inkscape-font-specification:'Ubuntu, Bold';font-variant-ligatures:normal;font-variant-caps:normal;font-variant-numeric:normal;font-feature-settings:normal;text-align:center;writing-mode:lr-tb;text-anchor:middle;fill:#323232;fill-opacity:1"
       id="path2419"
       inkscape:connector-curvature="0" />
    <path
       d="m 73.779299,94.376996 q 0,0.578667 -0.168,1.064 -0.168,0.476 -0.485333,0.821333 -0.317333,0.336 -0.765333,0.522667 -0.438667,0.186666 -0.989333,0.186666 -0.541334,0 -0.989334,-0.186666 -0.438666,-0.186667 -0.756,-0.522667 -0.317333,-0.345333 -0.494666,-0.821333 -0.177334,-0.485333 -0.177334,-1.064 0,-0.578667 0.177334,-1.054667 0.186666,-0.476 0.504,-0.812 0.326666,-0.336 0.765333,-0.522666 0.448,-0.186667 0.970667,-0.186667 0.532,0 0.970666,0.186667 0.448,0.186666 0.765334,0.522666 0.317333,0.336 0.494666,0.812 0.177333,0.476 0.177333,1.054667 z m -1.418666,0 q 0,-0.644 -0.261333,-1.008 -0.252,-0.373333 -0.728,-0.373333 -0.476,0 -0.737334,0.373333 -0.261333,0.364 -0.261333,1.008 0,0.644 0.261333,1.026667 0.261334,0.373333 0.737334,0.373333 0.476,0 0.728,-0.373333 0.261333,-0.382667 0.261333,-1.026667 z"
       style="font-style:normal;font-variant:normal;font-weight:bold;font-stretch:normal;font-size:9.33333302px;line-height:100%;font-family:Ubuntu;-inkscape-font-specification:'Ubuntu, Bold';font-variant-ligatures:normal;font-variant-caps:normal;font-variant-numeric:normal;font-feature-settings:normal;text-align:center;writing-mode:lr-tb;text-anchor:middle;fill:#323232;fill-opacity:1"
       id="path2421"
       inkscape:connector-curvature="0" />
    <path
       d="m 79.047237,96.672996 q -0.354667,0.102666 -0.914667,0.186666 -0.56,0.09333 -1.176,0.09333 -0.625333,0 -1.045333,-0.168 -0.410667,-0.168 -0.653334,-0.466667 -0.242666,-0.308 -0.345333,-0.728 -0.102667,-0.42 -0.102667,-0.924 v -2.734666 h 1.390667 v 2.566666 q 0,0.672 0.177333,0.970667 0.177334,0.298666 0.662667,0.298666 0.149333,0 0.317333,-0.0093 0.168,-0.01867 0.298667,-0.03733 v -3.789333 h 1.390667 z"
       style="font-style:normal;font-variant:normal;font-weight:bold;font-stretch:normal;font-size:9.33333302px;line-height:100%;font-family:Ubuntu;-inkscape-font-specification:'Ubuntu, Bold';font-variant-ligatures:normal;font-variant-caps:normal;font-variant-numeric:normal;font-feature-settings:normal;text-align:center;writing-mode:lr-tb;text-anchor:middle;fill:#323232;fill-opacity:1"
       id="path2423"
       inkscape:connector-curvature="0" />
    <path
       d="m 80.315112,90.708996 1.390666,-0.224 v 1.446667 h 1.670667 v 1.157333 h -1.670667 v 1.726667 q 0,0.438666 0.149333,0.7 0.158667,0.261333 0.625334,0.261333 0.224,0 0.457333,-0.03733 0.242667,-0.04667 0.438667,-0.121333 l 0.196,1.082667 q -0.252,0.102666 -0.56,0.177333 -0.308,0.07467 -0.756,0.07467 -0.569334,0 -0.942667,-0.149334 -0.373333,-0.158666 -0.597333,-0.429333 -0.224,-0.28 -0.317334,-0.672 -0.084,-0.392 -0.084,-0.868 z"
       style="font-style:normal;font-variant:normal;font-weight:bold;font-stretch:normal;font-size:9.33333302px;line-height:100%;font-family:Ubuntu;-inkscape-font-specification:'Ubuntu, Bold';font-variant-ligatures:normal;font-variant-caps:normal;font-variant-numeric:normal;font-feature-settings:normal;text-align:center;writing-mode:lr-tb;text-anchor:middle;fill:#323232;fill-opacity:1"
       id="path2425"
       inkscape:connector-curvature="0" />
  </g>
  <g
     aria-label="Gate Sequencer"
     style="font-style:normal;font-weight:normal;font-size:12px;line-height:125%;font-family:Sans;letter-spacing:0px;word-spacing:0px;display:inline;opacity:1;fill:#000000;fill-opacity:1;stroke:none;stroke-width:1px;stroke-linecap:butt;stroke-linejoin:miter;stroke-opacity:1"
     id="text2464"
     transform="translate(0.37879143,-0.90909077)">
    <path
       inkscape:connector-curvature="0"
       d="m 190.82267,11.276 q -2.32534,0 -3.37067,1.301333 -1.024,1.28 -1.024,3.52 0,1.088 0.256,1.984 0.256,0.874667 0.768,1.514667 0.512,0.64 1.28,1.002667 0.768,0.341333 1.792,0.341333 0.55467,0 0.93867,-0.02133 0.40533,-0.02133 0.704,-0.08533 V 15.692 h 3.328 v 7.317333 q -0.59734,0.234667 -1.92,0.490667 -1.32267,0.277333 -3.264,0.277333 -1.664,0 -3.02934,-0.512 -1.344,-0.512 -2.304,-1.493333 -0.96,-0.981333 -1.49333,-2.410667 -0.512,-1.429333 -0.512,-3.264 0,-1.856 0.576,-3.285333 0.576,-1.429334 1.57867,-2.410667 1.00266,-1.0026668 2.34666,-1.5146668 1.36534,-0.512 2.90134,-0.512 1.04533,0 1.87733,0.1493334 0.85333,0.128 1.45067,0.32 0.61866,0.1706666 1.00266,0.3626666 0.40534,0.192 0.576,0.2986667 l -0.96,2.6666671 Q 193.63867,11.809333 192.74267,11.553333 191.868,11.276 190.82267,11.276 Z"
       style="font-style:normal;font-variant:normal;font-weight:bold;font-stretch:normal;font-size:21.33333397px;font-family:Ubuntu;-inkscape-font-specification:'Ubuntu, Bold';font-variant-ligatures:normal;font-variant-caps:normal;font-variant-numeric:normal;font-feature-settings:normal;text-align:start;writing-mode:lr-tb;text-anchor:start"
       id="path2466" />
    <path
       inkscape:connector-curvature="0"
       d="m 202.645,21.281333 q 0.46934,0 0.896,-0.02133 0.42667,-0.02133 0.68267,-0.064 v -2.410667 q -0.192,-0.04267 -0.576,-0.08533 -0.384,-0.04267 -0.704,-0.04267 -0.448,0 -0.85333,0.064 -0.384,0.04267 -0.68267,0.192 -0.29867,0.149334 -0.46933,0.405334 -0.17067,0.256 -0.17067,0.64 0,0.746666 0.49067,1.045333 0.512,0.277333 1.38666,0.277333 z M 202.389,11.98 q 1.408,0 2.34667,0.32 0.93867,0.32 1.49333,0.917333 0.576,0.597333 0.81067,1.450667 0.23467,0.853333 0.23467,1.898666 V 23.18 q -0.68267,0.149333 -1.89867,0.341333 -1.216,0.213334 -2.944,0.213334 -1.088,0 -1.984,-0.192 -0.87467,-0.192 -1.51467,-0.618667 -0.64,-0.448 -0.98133,-1.152 -0.34133,-0.704 -0.34133,-1.728 0,-0.981333 0.384,-1.664 0.40533,-0.682667 1.06666,-1.088 0.66134,-0.405334 1.51467,-0.576 0.85333,-0.192 1.77067,-0.192 0.61866,0 1.088,0.064 0.49066,0.04267 0.78933,0.128 v -0.298667 q 0,-0.810667 -0.49067,-1.301333 -0.49066,-0.490667 -1.70666,-0.490667 -0.81067,0 -1.6,0.128 -0.78934,0.106667 -1.36534,0.32 l -0.40533,-2.56 Q 198.933,12.428 199.33834,12.342666 199.765,12.236 200.25567,12.172 q 0.49067,-0.08533 1.024,-0.128 0.55467,-0.064 1.10933,-0.064 z"
       style="font-style:normal;font-variant:normal;font-weight:bold;font-stretch:normal;font-size:21.33333397px;font-family:Ubuntu;-inkscape-font-specification:'Ubuntu, Bold';font-variant-ligatures:normal;font-variant-caps:normal;font-variant-numeric:normal;font-feature-settings:normal;text-align:start;writing-mode:lr-tb;text-anchor:start"
       id="path2468" />
    <path
       inkscape:connector-curvature="0"
       d="m 210.042,9.4839996 3.17867,-0.512 v 3.3066664 h 3.81866 V 14.924 h -3.81866 v 3.946667 q 0,1.002666 0.34133,1.6 0.36267,0.597333 1.42933,0.597333 0.512,0 1.04534,-0.08533 0.55466,-0.106667 1.00266,-0.277334 l 0.448,2.474667 q -0.576,0.234667 -1.28,0.405333 -0.704,0.170667 -1.728,0.170667 -1.30133,0 -2.15466,-0.341333 -0.85334,-0.362667 -1.36534,-0.981334 -0.512,-0.64 -0.72533,-1.536 -0.192,-0.896 -0.192,-1.984 z"
       style="font-style:normal;font-variant:normal;font-weight:bold;font-stretch:normal;font-size:21.33333397px;font-family:Ubuntu;-inkscape-font-specification:'Ubuntu, Bold';font-variant-ligatures:normal;font-variant-caps:normal;font-variant-numeric:normal;font-feature-settings:normal;text-align:start;writing-mode:lr-tb;text-anchor:start"
       id="path2470" />
    <path
       inkscape:connector-curvature="0"
       d="m 218.657,17.974667 q 0,-1.493334 0.448,-2.602667 0.46934,-1.130667 1.216,-1.877334 0.74667,-0.746666 1.70667,-1.130666 0.98133,-0.384 2.00533,-0.384 2.38934,0 3.776,1.472 1.38667,1.450666 1.38667,4.288 0,0.277333 -0.0213,0.618667 -0.0213,0.32 -0.0427,0.576 H 221.921 q 0.10667,0.981333 0.91734,1.557333 0.81066,0.576 2.176,0.576 0.87466,0 1.70666,-0.149333 0.85334,-0.170667 1.38667,-0.405334 l 0.42667,2.581334 q -0.256,0.128 -0.68267,0.256 -0.42667,0.128 -0.96,0.213333 -0.512,0.106667 -1.10933,0.170667 -0.59734,0.064 -1.19467,0.064 -1.51467,0 -2.64533,-0.448 -1.10934,-0.448 -1.856,-1.216 -0.72534,-0.789334 -1.088,-1.856 -0.34134,-1.066667 -0.34134,-2.304 z m 7.46667,-1.216001 q -0.0213,-0.405333 -0.14933,-0.789333 -0.10667,-0.384 -0.36267,-0.682667 Q 225.377,14.988 224.993,14.796 q -0.36266,-0.192 -0.91733,-0.192 -0.53333,0 -0.91733,0.192 -0.384,0.170666 -0.64,0.469333 -0.256,0.298667 -0.40534,0.704 -0.128,0.384 -0.192,0.789333 z"
       style="font-style:normal;font-variant:normal;font-weight:bold;font-stretch:normal;font-size:21.33333397px;font-family:Ubuntu;-inkscape-font-specification:'Ubuntu, Bold';font-variant-ligatures:normal;font-variant-caps:normal;font-variant-numeric:normal;font-feature-settings:normal;text-align:start;writing-mode:lr-tb;text-anchor:start"
       id="path2472" />
    <path
       inkscape:connector-curvature="0"
       d="m 241.019,20.961333 q 0.704,0 1.152,-0.106666 0.46933,-0.128 0.74667,-0.32 0.27733,-0.213334 0.384,-0.490667 0.10666,-0.277333 0.10666,-0.618667 0,-0.725333 -0.68266,-1.194666 Q 242.043,17.74 240.379,17.185333 q -0.72533,-0.256 -1.45067,-0.576 -0.72533,-0.341333 -1.30133,-0.832 -0.576,-0.512 -0.93867,-1.216 -0.36266,-0.725333 -0.36266,-1.749333 0,-1.024 0.384,-1.834667 0.384,-0.832 1.088,-1.4080001 0.704,-0.576 1.70666,-0.8746667 1.00267,-0.32 2.26134,-0.32 1.49333,0 2.58133,0.32 1.088,0.32 1.792,0.704 l -0.96,2.6239998 q -0.61867,-0.32 -1.38667,-0.554666 -0.74666,-0.256 -1.81333,-0.256 -1.19467,0 -1.728,0.341333 -0.512,0.32 -0.512,1.002667 0,0.405333 0.192,0.682666 0.192,0.277334 0.53333,0.512 0.36267,0.213334 0.81067,0.405334 0.46933,0.170666 1.024,0.362666 1.152,0.426667 2.00533,0.853334 0.85334,0.405333 1.408,0.96 0.576,0.554666 0.85334,1.301333 0.27733,0.746667 0.27733,1.813334 0,2.069333 -1.45067,3.221333 -1.45066,1.130667 -4.37333,1.130667 -0.98133,0 -1.77067,-0.128 -0.78933,-0.106667 -1.408,-0.277334 -0.59733,-0.170666 -1.04533,-0.362666 -0.42667,-0.192 -0.72533,-0.362667 l 0.93866,-2.645333 q 0.66134,0.362666 1.62134,0.661333 0.98133,0.277333 2.38933,0.277333 z"
       style="font-style:normal;font-variant:normal;font-weight:bold;font-stretch:normal;font-size:21.33333397px;font-family:Ubuntu;-inkscape-font-specification:'Ubuntu, Bold';font-variant-ligatures:normal;font-variant-caps:normal;font-variant-numeric:normal;font-feature-settings:normal;text-align:start;writing-mode:lr-tb;text-anchor:start"
       id="path2474" />
    <path
       inkscape:connector-curvature="0"
       d="m 248.65701,17.974667 q 0,-1.493334 0.448,-2.602667 0.46933,-1.130667 1.216,-1.877334 0.74666,-0.746666 1.70666,-1.130666 0.98134,-0.384 2.00534,-0.384 2.38933,0 3.776,1.472 1.38666,1.450666 1.38666,4.288 0,0.277333 -0.0213,0.618667 -0.0213,0.32 -0.0427,0.576 h -7.21066 q 0.10666,0.981333 0.91733,1.557333 0.81067,0.576 2.176,0.576 0.87467,0 1.70667,-0.149333 0.85333,-0.170667 1.38666,-0.405334 l 0.42667,2.581334 q -0.256,0.128 -0.68267,0.256 -0.42666,0.128 -0.96,0.213333 -0.512,0.106667 -1.10933,0.170667 -0.59733,0.064 -1.19467,0.064 -1.51466,0 -2.64533,-0.448 -1.10933,-0.448 -1.856,-1.216 -0.72533,-0.789334 -1.088,-1.856 -0.34133,-1.066667 -0.34133,-2.304 z m 7.46666,-1.216001 q -0.0213,-0.405333 -0.14933,-0.789333 -0.10667,-0.384 -0.36267,-0.682667 -0.23466,-0.298666 -0.61866,-0.490666 -0.36267,-0.192 -0.91734,-0.192 -0.53333,0 -0.91733,0.192 -0.384,0.170666 -0.64,0.469333 -0.256,0.298667 -0.40533,0.704 -0.128,0.384 -0.192,0.789333 z"
       style="font-style:normal;font-variant:normal;font-weight:bold;font-stretch:normal;font-size:21.33333397px;font-family:Ubuntu;-inkscape-font-specification:'Ubuntu, Bold';font-variant-ligatures:normal;font-variant-caps:normal;font-variant-numeric:normal;font-feature-settings:normal;text-align:start;writing-mode:lr-tb;text-anchor:start"
       id="path2476" />
    <path
       inkscape:connector-curvature="0"
       d="m 264.358,17.974667 q 0,3.050666 2.26133,3.050666 0.49067,0 0.96,-0.128 0.49067,-0.128 0.78934,-0.32 V 14.838666 Q 268.134,14.796 267.77133,14.774666 267.40867,14.732 266.982,14.732 q -1.30133,0 -1.96267,0.896 -0.66133,0.874666 -0.66133,2.346667 z m -3.24267,-0.08533 q 0,-1.301333 0.384,-2.368 0.40534,-1.088 1.152,-1.856 0.74667,-0.789333 1.83467,-1.216 1.088,-0.426667 2.47467,-0.426667 0.576,0 1.19466,0.064 0.64,0.04267 1.23734,0.128 0.61866,0.08533 1.17333,0.213334 0.55467,0.106666 0.98133,0.234666 v 14.784001 h -3.17866 v -4.224 q -0.53334,0.234666 -1.10934,0.362666 -0.576,0.128 -1.23733,0.128 -2.38933,0 -3.648,-1.557333 -1.25867,-1.578667 -1.25867,-4.266667 z"
       style="font-style:normal;font-variant:normal;font-weight:bold;font-stretch:normal;font-size:21.33333397px;font-family:Ubuntu;-inkscape-font-specification:'Ubuntu, Bold';font-variant-ligatures:normal;font-variant-caps:normal;font-variant-numeric:normal;font-feature-settings:normal;text-align:start;writing-mode:lr-tb;text-anchor:start"
       id="path2478" />
    <path
       inkscape:connector-curvature="0"
       d="m 284.10233,23.116 q -0.81066,0.234667 -2.09066,0.426667 -1.28,0.213333 -2.688,0.213333 -1.42934,0 -2.38934,-0.384 -0.93866,-0.384 -1.49333,-1.066667 -0.55467,-0.704 -0.78933,-1.664 -0.23467,-0.96 -0.23467,-2.112 v -6.250667 h 3.17867 v 5.866667 q 0,1.536 0.40533,2.218667 0.40533,0.682667 1.51467,0.682667 0.34133,0 0.72533,-0.02133 0.384,-0.04267 0.68267,-0.08533 v -8.661334 h 3.17866 z"
       style="font-style:normal;font-variant:normal;font-weight:bold;font-stretch:normal;font-size:21.33333397px;font-family:Ubuntu;-inkscape-font-specification:'Ubuntu, Bold';font-variant-ligatures:normal;font-variant-caps:normal;font-variant-numeric:normal;font-feature-settings:normal;text-align:start;writing-mode:lr-tb;text-anchor:start"
       id="path2480" />
    <path
       inkscape:connector-curvature="0"
       d="m 286.57367,17.974667 q 0,-1.493334 0.448,-2.602667 0.46933,-1.130667 1.216,-1.877334 0.74667,-0.746666 1.70667,-1.130666 0.98133,-0.384 2.00533,-0.384 2.38933,0 3.776,1.472 1.38667,1.450666 1.38667,4.288 0,0.277333 -0.0213,0.618667 -0.0213,0.32 -0.0427,0.576 h -7.21067 q 0.10667,0.981333 0.91733,1.557333 0.81067,0.576 2.176,0.576 0.87467,0 1.70667,-0.149333 0.85333,-0.170667 1.38667,-0.405334 l 0.42666,2.581334 q -0.256,0.128 -0.68266,0.256 -0.42667,0.128 -0.96,0.213333 -0.512,0.106667 -1.10934,0.170667 -0.59733,0.064 -1.19466,0.064 -1.51467,0 -2.64534,-0.448 -1.10933,-0.448 -1.856,-1.216 -0.72533,-0.789334 -1.088,-1.856 -0.34133,-1.066667 -0.34133,-2.304 z m 7.46667,-1.216001 q -0.0213,-0.405333 -0.14934,-0.789333 -0.10666,-0.384 -0.36266,-0.682667 -0.23467,-0.298666 -0.61867,-0.490666 -0.36267,-0.192 -0.91733,-0.192 -0.53334,0 -0.91734,0.192 -0.384,0.170666 -0.64,0.469333 -0.256,0.298667 -0.40533,0.704 -0.128,0.384 -0.192,0.789333 z"
       style="font-style:normal;font-variant:normal;font-weight:bold;font-stretch:normal;font-size:21.33333397px;font-family:Ubuntu;-inkscape-font-specification:'Ubuntu, Bold';font-variant-ligatures:normal;font-variant-caps:normal;font-variant-numeric:normal;font-feature-settings:normal;text-align:start;writing-mode:lr-tb;text-anchor:start"
       id="path2482" />
    <path
       inkscape:connector-curvature="0"
       d="m 299.56534,12.662666 q 0.81067,-0.234666 2.09067,-0.426666 1.28,-0.213334 2.688,-0.213334 1.42933,0 2.368,0.384 0.96,0.362667 1.51466,1.045334 0.55467,0.682666 0.78934,1.621333 0.23466,0.938667 0.23466,2.090667 V 23.5 h -3.17866 v -5.952 q 0,-1.536 -0.40534,-2.176 -0.40533,-0.64 -1.51466,-0.64 -0.34134,0 -0.72534,0.04267 -0.384,0.02133 -0.68266,0.064 V 23.5 h -3.17867 z"
       style="font-style:normal;font-variant:normal;font-weight:bold;font-stretch:normal;font-size:21.33333397px;font-family:Ubuntu;-inkscape-font-specification:'Ubuntu, Bold';font-variant-ligatures:normal;font-variant-caps:normal;font-variant-numeric:normal;font-feature-settings:normal;text-align:start;writing-mode:lr-tb;text-anchor:start"
       id="path2484" />
    <path
       inkscape:connector-curvature="0"
       d="m 311.61533,17.889333 q 0,-1.216 0.384,-2.282667 0.40534,-1.088 1.152,-1.877333 0.74667,-0.810667 1.81334,-1.28 1.06666,-0.469333 2.432,-0.469333 0.896,0 1.64266,0.170666 0.74667,0.149334 1.45067,0.448 l -0.66133,2.538667 q -0.448,-0.170667 -0.98134,-0.298667 -0.53333,-0.128 -1.19466,-0.128 -1.408,0 -2.112,0.874667 -0.68267,0.874667 -0.68267,2.304 0,1.514667 0.64,2.346667 0.66133,0.832 2.28267,0.832 0.576,0 1.23733,-0.106667 0.66133,-0.106666 1.216,-0.341333 l 0.448,2.602667 q -0.55467,0.234666 -1.38667,0.405333 -0.832,0.170667 -1.83466,0.170667 -1.536,0 -2.64534,-0.448 -1.10933,-0.469334 -1.83466,-1.258667 -0.704,-0.789333 -1.04534,-1.856 -0.32,-1.088 -0.32,-2.346667 z"
       style="font-style:normal;font-variant:normal;font-weight:bold;font-stretch:normal;font-size:21.33333397px;font-family:Ubuntu;-inkscape-font-specification:'Ubuntu, Bold';font-variant-ligatures:normal;font-variant-caps:normal;font-variant-numeric:normal;font-feature-settings:normal;text-align:start;writing-mode:lr-tb;text-anchor:start"
       id="path2486" />
    <path
       inkscape:connector-curvature="0"
       d="m 321.74033,17.974667 q 0,-1.493334 0.448,-2.602667 0.46934,-1.130667 1.216,-1.877334 Q 324.151,12.748 325.111,12.364 q 0.98133,-0.384 2.00533,-0.384 2.38934,0 3.776,1.472 1.38667,1.450666 1.38667,4.288 0,0.277333 -0.0213,0.618667 -0.0213,0.32 -0.0427,0.576 h -7.21067 q 0.10667,0.981333 0.91734,1.557333 0.81066,0.576 2.176,0.576 0.87466,0 1.70666,-0.149333 0.85334,-0.170667 1.38667,-0.405334 l 0.42667,2.581334 q -0.256,0.128 -0.68267,0.256 -0.42667,0.128 -0.96,0.213333 -0.512,0.106667 -1.10933,0.170667 -0.59734,0.064 -1.19467,0.064 -1.51467,0 -2.64533,-0.448 -1.10934,-0.448 -1.856,-1.216 -0.72534,-0.789334 -1.088,-1.856 -0.34134,-1.066667 -0.34134,-2.304 z m 7.46667,-1.216001 q -0.0213,-0.405333 -0.14933,-0.789333 -0.10667,-0.384 -0.36267,-0.682667 -0.23467,-0.298666 -0.61867,-0.490666 -0.36266,-0.192 -0.91733,-0.192 -0.53333,0 -0.91733,0.192 -0.384,0.170666 -0.64,0.469333 -0.256,0.298667 -0.40534,0.704 -0.128,0.384 -0.192,0.789333 z"
       style="font-style:normal;font-variant:normal;font-weight:bold;font-stretch:normal;font-size:21.33333397px;font-family:Ubuntu;-inkscape-font-specification:'Ubuntu, Bold';font-variant-ligatures:normal;font-variant-caps:normal;font-variant-numeric:normal;font-feature-settings:normal;text-align:start;writing-mode:lr-tb;text-anchor:start"
       id="path2488" />
    <path
       inkscape:connector-curvature="0"
       d="m 341.49468,15.094666 q -0.42667,-0.106666 -1.00267,-0.213333 -0.576,-0.128 -1.23733,-0.128 -0.29867,0 -0.72534,0.064 Q 338.12401,14.86 337.91068,14.924 V 23.5 h -3.17867 V 12.876 q 0.85333,-0.298667 2.00533,-0.554667 1.17334,-0.277333 2.60267,-0.277333 0.256,0 0.61867,0.04267 0.36266,0.02133 0.72533,0.08533 0.36267,0.04267 0.72533,0.128 0.36267,0.064 0.61867,0.170666 z"
       style="font-style:normal;font-variant:normal;font-weight:bold;font-stretch:normal;font-size:21.33333397px;font-family:Ubuntu;-inkscape-font-specification:'Ubuntu, Bold';font-variant-ligatures:normal;font-variant-caps:normal;font-variant-numeric:normal;font-feature-settings:normal;text-align:start;writing-mode:lr-tb;text-anchor:start"
       id="path2490" />
  </g>
</svg>
