<?xml version="1.0" encoding="UTF-8" standalone="no"?>
<!-- Created with Inkscape (http://www.inkscape.org/) -->

<svg
   xmlns:dc="http://purl.org/dc/elements/1.1/"
   xmlns:cc="http://creativecommons.org/ns#"
   xmlns:rdf="http://www.w3.org/1999/02/22-rdf-syntax-ns#"
   xmlns:svg="http://www.w3.org/2000/svg"
   xmlns="http://www.w3.org/2000/svg"
   xmlns:sodipodi="http://sodipodi.sourceforge.net/DTD/sodipodi-0.dtd"
   xmlns:inkscape="http://www.inkscape.org/namespaces/inkscape"
   width="525"
   height="380"
   viewBox="0 0 138.90627 100.54169"
   version="1.1"
   id="svg4541"
   sodipodi:docname="GateSeq.svg"
   inkscape:version="0.92.2 5c3e80d, 2017-08-06">
  <defs
     id="defs4535" />
  <sodipodi:namedview
     id="base"
     pagecolor="#ffffff"
     bordercolor="#666666"
     borderopacity="1.0"
     inkscape:pageopacity="0.0"
     inkscape:pageshadow="2"
     inkscape:zoom="1.979899"
     inkscape:cx="266.43227"
     inkscape:cy="195.40619"
     inkscape:document-units="mm"
     inkscape:current-layer="g13539"
     showgrid="true"
     fit-margin-top="0"
     fit-margin-left="0"
     fit-margin-right="0"
     fit-margin-bottom="0"
     inkscape:window-width="1898"
     inkscape:window-height="1026"
     inkscape:window-x="10"
     inkscape:window-y="42"
     inkscape:window-maximized="0"
     units="px"
     inkscape:snap-to-guides="true">
    <inkscape:grid
       type="xygrid"
       id="grid911" />
  </sodipodi:namedview>
  <metadata
     id="metadata4538">
    <rdf:RDF>
      <cc:Work
         rdf:about="">
        <dc:format>image/svg+xml</dc:format>
        <dc:type
           rdf:resource="http://purl.org/dc/dcmitype/StillImage" />
        <dc:title></dc:title>
      </cc:Work>
    </rdf:RDF>
  </metadata>
  <g
     inkscape:label="Layer 1"
     inkscape:groupmode="layer"
     id="layer1"
     transform="translate(36.687896,-107.67835)"
     style="display:inline">
    <g
       transform="matrix(0.27602379,0,0,0.27602379,101.75853,98.968292)"
       id="g13383"
       style="stroke-width:0.80924457">
      <g
         transform="translate(-188.93134,0.28519852)"
         id="g13452"
         style="stroke-width:0.77570349">
        <g
           id="g13539"
           transform="translate(-312.64291,31.270301)"
           style="display:inline;stroke-width:0.74355263">
          <path
             style="fill:#e6e6e6;fill-opacity:1;fill-rule:nonzero;stroke:none;stroke-width:0.93861032"
             d="M -1.9874827e-6,-3.8304622e-5 H 503.24014 V 364.24997 H -1.9874827e-6 Z m 0,0"
             id="path25077"
             inkscape:connector-curvature="0" />
          <path
             style="fill:none;stroke:#000000;stroke-width:0.60056376;stroke-linecap:round;stroke-linejoin:round;stroke-miterlimit:10;stroke-opacity:1"
             d="M 28.906319,127.82422 H 469.54105"
             id="path27449"
             inkscape:connector-curvature="0" />
          <path
             inkscape:connector-curvature="0"
             id="path10966"
             d="m 17.895464,46.540016 c 0.90625,0 1.515625,-0.28125 2.046875,-0.75 0.07813,-0.07813 0.15625,-0.203125 0.15625,-0.359375 0,-0.234375 -0.21875,-0.453125 -0.46875,-0.453125 -0.125,0 -0.21875,0.04687 -0.296875,0.109375 -0.40625,0.34375 -0.8125,0.546875 -1.390625,0.546875 -1.078125,0 -1.859375,-0.890625 -1.859375,-1.984375 v -0.01563 c 0,-1.09375 0.78125,-1.984375 1.859375,-1.984375 0.53125,0 0.9375,0.203125 1.328125,0.515625 0.0625,0.04687 0.15625,0.09375 0.296875,0.09375 0.265625,0 0.484375,-0.21875 0.484375,-0.484375 0,-0.171875 -0.07813,-0.3125 -0.1875,-0.390625 -0.484375,-0.375 -1.0625,-0.640625 -1.921875,-0.640625 -1.703125,0 -2.890625,1.3125 -2.890625,2.90625 v 0.01563 c 0,1.609375 1.21875,2.875 2.84375,2.875 z m 0,0"
             style="fill:#000000;fill-opacity:1;stroke:none;stroke-width:0.74355263" />
          <path
             inkscape:connector-curvature="0"
             id="path10970"
             d="m 21.397783,45.946266 c 0,0.28125 0.21875,0.5 0.5,0.5 h 3.015625 c 0.25,0 0.453125,-0.203125 0.453125,-0.453125 0,-0.25 -0.203125,-0.4375 -0.453125,-0.4375 h -2.53125 v -4.265625 c 0,-0.265625 -0.21875,-0.484375 -0.484375,-0.484375 -0.28125,0 -0.5,0.21875 -0.5,0.484375 z m 0,0"
             style="fill:#000000;fill-opacity:1;stroke:none;stroke-width:0.74355263" />
          <path
             inkscape:connector-curvature="0"
             id="path10962"
             d="m 28.900835,46.540016 c 1.71875,0 2.9375,-1.3125 2.9375,-2.890625 v -0.01563 c 0,-1.578125 -1.203125,-2.890625 -2.921875,-2.890625 -1.71875,0 -2.9375,1.328125 -2.9375,2.90625 v 0.01563 c 0,1.578125 1.203125,2.875 2.921875,2.875 z m 0.01563,-0.90625 c -1.109375,0 -1.90625,-0.90625 -1.90625,-1.984375 v -0.01563 c 0,-1.09375 0.78125,-1.984375 1.890625,-1.984375 1.109375,0 1.90625,0.90625 1.90625,2 v 0.01563 c 0,1.078125 -0.78125,1.96875 -1.890625,1.96875 z m 0,0"
             style="fill:#000000;fill-opacity:1;stroke:none;stroke-width:0.74355263" />
          <path
             inkscape:connector-curvature="0"
             id="path10954"
             d="m 35.77791,46.540016 c 0.90625,0 1.515625,-0.28125 2.046875,-0.75 0.07813,-0.07813 0.15625,-0.203125 0.15625,-0.359375 0,-0.234375 -0.21875,-0.453125 -0.46875,-0.453125 -0.125,0 -0.21875,0.04687 -0.296875,0.109375 -0.40625,0.34375 -0.8125,0.546875 -1.390625,0.546875 -1.078125,0 -1.859375,-0.890625 -1.859375,-1.984375 v -0.01563 c 0,-1.09375 0.78125,-1.984375 1.859375,-1.984375 0.53125,0 0.9375,0.203125 1.328125,0.515625 0.0625,0.04687 0.15625,0.09375 0.296875,0.09375 0.265625,0 0.484375,-0.21875 0.484375,-0.484375 0,-0.171875 -0.07813,-0.3125 -0.1875,-0.390625 -0.484375,-0.375 -1.0625,-0.640625 -1.921875,-0.640625 -1.703125,0 -2.890625,1.3125 -2.890625,2.90625 v 0.01563 c 0,1.609375 1.21875,2.875 2.84375,2.875 z m 0,0"
             style="fill:#000000;fill-opacity:1;stroke:none;stroke-width:0.74355263" />
          <path
             inkscape:connector-curvature="0"
             id="path10958"
             d="m 39.280108,45.993141 c 0,0.28125 0.21875,0.5 0.5,0.5 0.265625,0 0.484375,-0.21875 0.484375,-0.5 v -1.15625 l 0.90625,-0.875 1.8125,2.296875 c 0.09375,0.125 0.21875,0.234375 0.40625,0.234375 0.28125,0 0.5,-0.21875 0.5,-0.484375 0,-0.15625 -0.0625,-0.25 -0.140625,-0.359375 l -1.890625,-2.34375 1.75,-1.671875 c 0.109375,-0.109375 0.171875,-0.21875 0.171875,-0.375 0,-0.234375 -0.171875,-0.453125 -0.453125,-0.453125 -0.171875,0 -0.296875,0.0625 -0.40625,0.1875 l -2.65625,2.671875 v -2.375 c 0,-0.265625 -0.21875,-0.484375 -0.484375,-0.484375 -0.28125,0 -0.5,0.21875 -0.5,0.484375 z m 0,0"
             style="fill:#000000;fill-opacity:1;stroke:none;stroke-width:0.74355263" />
          <path
             inkscape:connector-curvature="0"
             id="path10950"
             d="m 129.28646,46.524391 c 1.17187,0 2,-0.625 2,-1.671875 v -0.01563 c 0,-0.921875 -0.60938,-1.34375 -1.79688,-1.640625 -1.07812,-0.25 -1.34375,-0.453125 -1.34375,-0.875 v -0.01563 c 0,-0.375 0.34375,-0.671875 0.92188,-0.671875 0.4375,0 0.84375,0.15625 1.28125,0.421875 0.0781,0.04687 0.15625,0.07813 0.26562,0.07813 0.25,0 0.45313,-0.203125 0.45313,-0.453125 0,-0.1875 -0.0937,-0.328125 -0.21875,-0.390625 -0.5,-0.34375 -1.0625,-0.53125 -1.76563,-0.53125 -1.10937,0 -1.92187,0.671875 -1.92187,1.625 v 0.01563 c 0,1.03125 0.67188,1.390625 1.875,1.671875 1.03125,0.25 1.26562,0.46875 1.26562,0.859375 v 0.01563 c 0,0.421875 -0.39062,0.703125 -1,0.703125 -0.60937,0 -1.10937,-0.203125 -1.56249,-0.578125 -0.0625,-0.04687 -0.15625,-0.07813 -0.29688,-0.07813 -0.25,0 -0.45312,0.203125 -0.45312,0.453125 0,0.15625 0.0781,0.296875 0.1875,0.375 0.625,0.46875 1.34374,0.703125 2.10937,0.703125 z m 0,0"
             style="fill:#000000;fill-opacity:1;stroke:none;stroke-width:0.74355263" />
          <path
             inkscape:connector-curvature="0"
             id="path10942"
             d="m 133.95674,45.993141 c 0,0.28125 0.21875,0.5 0.5,0.5 0.26562,0 0.5,-0.21875 0.5,-0.5 v -4.234375 h 1.35937 c 0.25,0 0.45313,-0.203125 0.45313,-0.453125 0,-0.25 -0.20313,-0.453125 -0.45313,-0.453125 h -3.71875 c -0.25,0 -0.45312,0.203125 -0.45312,0.453125 0,0.25 0.20312,0.453125 0.45312,0.453125 h 1.35938 z m 0,0"
             style="fill:#000000;fill-opacity:1;stroke:none;stroke-width:0.74355263" />
          <path
             inkscape:connector-curvature="0"
             id="path10946"
             d="m 138.39376,46.446266 h 3.29687 c 0.23438,0 0.4375,-0.1875 0.4375,-0.4375 0,-0.25 -0.20312,-0.4375 -0.4375,-0.4375 h -2.8125 v -1.515625 h 2.40625 c 0.25,0 0.4375,-0.1875 0.4375,-0.421875 0,-0.25 -0.1875,-0.453125 -0.4375,-0.453125 h -2.40625 v -1.453125 h 2.76563 c 0.25,0 0.4375,-0.1875 0.4375,-0.4375 0,-0.25 -0.1875,-0.4375 -0.4375,-0.4375 h -3.25 c -0.28125,0 -0.5,0.203125 -0.5,0.484375 v 4.609375 c 0,0.28125 0.21875,0.5 0.5,0.5 z m 0,0"
             style="fill:#000000;fill-opacity:1;stroke:none;stroke-width:0.74355263" />
          <path
             inkscape:connector-curvature="0"
             id="path10938"
             d="m 143.41939,45.993141 c 0,0.28125 0.21875,0.5 0.5,0.5 0.26562,0 0.48437,-0.21875 0.48437,-0.5 v -1.34375 h 1.10938 c 1.23437,0 2.25,-0.65625 2.25,-1.921875 v -0.01563 c 0,-1.125 -0.82813,-1.859375 -2.14063,-1.859375 h -1.70312 c -0.28125,0 -0.5,0.203125 -0.5,0.484375 z m 0.98437,-2.234375 v -2.015625 h 1.14063 c 0.73437,0 1.21875,0.34375 1.21875,1 v 0.01563 c 0,0.578125 -0.46875,1 -1.21875,1 z m 0,0"
             style="fill:#000000;fill-opacity:1;stroke:none;stroke-width:0.74355263" />
          <path
             inkscape:connector-curvature="0"
             id="path10934"
             d="m 150.92415,46.524391 c 1.17187,0 2,-0.625 2,-1.671875 v -0.01563 c 0,-0.921875 -0.60938,-1.34375 -1.79688,-1.640625 -1.07812,-0.25 -1.34375,-0.453125 -1.34375,-0.875 v -0.01563 c 0,-0.375 0.34375,-0.671875 0.92188,-0.671875 0.4375,0 0.84375,0.15625 1.28125,0.421875 0.0781,0.04687 0.15625,0.07813 0.26562,0.07813 0.25,0 0.45313,-0.203125 0.45313,-0.453125 0,-0.1875 -0.0937,-0.328125 -0.21875,-0.390625 -0.5,-0.34375 -1.0625,-0.53125 -1.76563,-0.53125 -1.10937,0 -1.92187,0.671875 -1.92187,1.625 v 0.01563 c 0,1.03125 0.67187,1.390625 1.875,1.671875 1.03125,0.25 1.26562,0.46875 1.26562,0.859375 v 0.01563 c 0,0.421875 -0.39062,0.703125 -1,0.703125 -0.60937,0 -1.10937,-0.203125 -1.5625,-0.578125 -0.0625,-0.04687 -0.15625,-0.07813 -0.29687,-0.07813 -0.25,0 -0.45313,0.203125 -0.45313,0.453125 0,0.15625 0.0781,0.296875 0.1875,0.375 0.625,0.46875 1.34375,0.703125 2.10938,0.703125 z m 0,0"
             style="fill:#000000;fill-opacity:1;stroke:none;stroke-width:0.74355263" />
          <path
             inkscape:connector-curvature="0"
             id="path10846"
             d="m 59.245318,50.883698 c 0,0.21875 0.1875,0.390625 0.40625,0.390625 0.21875,0 0.40625,-0.171875 0.40625,-0.390625 v -1.234375 h 1 l 1.109375,1.421875 c 0.09375,0.125 0.203125,0.203125 0.390625,0.203125 0.1875,0 0.375,-0.140625 0.375,-0.375 0,-0.125 -0.04687,-0.203125 -0.125,-0.296875 l -0.875,-1.09375 c 0.609375,-0.203125 1.03125,-0.640625 1.03125,-1.359375 v -0.01563 c 0,-0.40625 -0.125,-0.734375 -0.375,-0.984375 -0.28125,-0.28125 -0.734375,-0.453125 -1.3125,-0.453125 h -1.625 c -0.21875,0 -0.40625,0.171875 -0.40625,0.40625 z m 0.8125,-1.9375 v -1.53125 h 1.15625 c 0.59375,0 0.9375,0.265625 0.9375,0.765625 0,0.46875 -0.359375,0.765625 -0.9375,0.765625 z m 0,0"
             style="fill:#000000;fill-opacity:1;stroke:none;stroke-width:0.74355263" />
          <path
             inkscape:connector-curvature="0"
             id="path10850"
             d="m 66.03438,51.321198 c 1.1875,0 1.953125,-0.6875 1.953125,-2.046875 v -2.21875 c 0,-0.21875 -0.171875,-0.390625 -0.390625,-0.390625 -0.234375,0 -0.40625,0.171875 -0.40625,0.390625 v 2.25 c 0,0.84375 -0.4375,1.265625 -1.140625,1.265625 -0.71875,0 -1.15625,-0.453125 -1.15625,-1.296875 v -2.21875 c 0,-0.21875 -0.171875,-0.390625 -0.390625,-0.390625 -0.234375,0 -0.40625,0.171875 -0.40625,0.390625 v 2.25 c 0,1.328125 0.75,2.015625 1.9375,2.015625 z m 0,0"
             style="fill:#000000;fill-opacity:1;stroke:none;stroke-width:0.74355263" />
          <path
             inkscape:connector-curvature="0"
             id="path10842"
             d="m 69.33333,50.883698 c 0,0.21875 0.1875,0.390625 0.40625,0.390625 0.21875,0 0.390625,-0.171875 0.390625,-0.390625 v -2.890625 l 2.34375,3.03125 c 0.109375,0.140625 0.21875,0.25 0.40625,0.25 h 0.03125 c 0.21875,0 0.390625,-0.1875 0.390625,-0.40625 v -3.8125 c 0,-0.21875 -0.171875,-0.390625 -0.390625,-0.390625 -0.21875,0 -0.390625,0.171875 -0.390625,0.390625 v 2.796875 l -2.28125,-2.953125 c -0.109375,-0.140625 -0.21875,-0.234375 -0.40625,-0.234375 h -0.09375 c -0.21875,0 -0.40625,0.1875 -0.40625,0.40625 z m 0,0"
             style="fill:#000000;fill-opacity:1;stroke:none;stroke-width:0.74355263" />
          <path
             inkscape:connector-curvature="0"
             id="path10838"
             d="m 92.362871,50.883698 c 0,0.21875 0.1875,0.390625 0.40625,0.390625 0.21875,0 0.40625,-0.171875 0.40625,-0.390625 v -1.234375 h 1 l 1.109375,1.421875 c 0.09375,0.125 0.203125,0.203125 0.390625,0.203125 0.1875,0 0.375,-0.140625 0.375,-0.375 0,-0.125 -0.04687,-0.203125 -0.125,-0.296875 l -0.875,-1.09375 c 0.609375,-0.203125 1.03125,-0.640625 1.03125,-1.359375 v -0.01563 c 0,-0.40625 -0.125,-0.734375 -0.375,-0.984375 -0.28125,-0.28125 -0.734375,-0.453125 -1.3125,-0.453125 h -1.625 c -0.21875,0 -0.40625,0.171875 -0.40625,0.40625 z m 0.8125,-1.9375 v -1.53125 h 1.15625 c 0.59375,0 0.9375,0.265625 0.9375,0.765625 0,0.46875 -0.359375,0.765625 -0.9375,0.765625 z m 0,0"
             style="fill:#000000;fill-opacity:1;stroke:none;stroke-width:0.74355263" />
          <path
             inkscape:connector-curvature="0"
             id="path10830"
             d="m 97.698076,51.243073 h 2.687504 c 0.1875,0 0.35937,-0.15625 0.35937,-0.359375 0,-0.1875 -0.17187,-0.359375 -0.35937,-0.359375 h -2.281254 v -1.21875 h 1.953124 c 0.1875,0 0.35938,-0.15625 0.35938,-0.34375 0,-0.203125 -0.17188,-0.375 -0.35938,-0.375 h -1.953124 v -1.171875 h 2.250004 c 0.1875,0 0.34375,-0.15625 0.34375,-0.359375 0,-0.203125 -0.15625,-0.359375 -0.34375,-0.359375 h -2.656254 c -0.21875,0 -0.40625,0.171875 -0.40625,0.40625 v 3.734375 c 0,0.234375 0.1875,0.40625 0.40625,0.40625 z m 0,0"
             style="fill:#000000;fill-opacity:1;stroke:none;stroke-width:0.74355263" />
          <path
             inkscape:connector-curvature="0"
             id="path10834"
             d="m 103.43551,51.305573 c 0.96875,0 1.625,-0.5 1.625,-1.359375 v -0.01563 c 0,-0.75 -0.48438,-1.09375 -1.45313,-1.328125 -0.875,-0.203125 -1.07812,-0.359375 -1.07812,-0.71875 0,-0.3125 0.26562,-0.546875 0.73437,-0.546875 0.35938,0 0.70313,0.109375 1.04688,0.34375 0.0625,0.04687 0.125,0.0625 0.20312,0.0625 0.21875,0 0.39063,-0.171875 0.39063,-0.375 0,-0.15625 -0.0937,-0.265625 -0.1875,-0.3125 -0.40625,-0.28125 -0.85938,-0.421875 -1.4375,-0.421875 -0.90625,0 -1.54688,0.53125 -1.54688,1.3125 v 0.01563 c 0,0.84375 0.53125,1.125 1.5,1.359375 0.85938,0.1875 1.03125,0.375 1.03125,0.6875 v 0.01563 c 0,0.34375 -0.3125,0.578125 -0.79687,0.578125 -0.5,0 -0.90625,-0.171875 -1.28125,-0.46875 -0.0469,-0.04687 -0.125,-0.07813 -0.23438,-0.07813 -0.20312,0 -0.375,0.171875 -0.375,0.375 0,0.125 0.0625,0.234375 0.15625,0.3125 0.5,0.375 1.09375,0.5625 1.70313,0.5625 z m 0,0"
             style="fill:#000000;fill-opacity:1;stroke:none;stroke-width:0.74355263" />
          <path
             inkscape:connector-curvature="0"
             id="path10826"
             d="m 106.63168,51.243073 h 2.6875 c 0.1875,0 0.35937,-0.15625 0.35937,-0.359375 0,-0.1875 -0.17187,-0.359375 -0.35937,-0.359375 h -2.28125 v -1.21875 h 1.95312 c 0.1875,0 0.35938,-0.15625 0.35938,-0.34375 0,-0.203125 -0.17188,-0.375 -0.35938,-0.375 h -1.95312 v -1.171875 h 2.25 c 0.1875,0 0.34375,-0.15625 0.34375,-0.359375 0,-0.203125 -0.15625,-0.359375 -0.34375,-0.359375 h -2.65625 c -0.21875,0 -0.40625,0.171875 -0.40625,0.40625 v 3.734375 c 0,0.234375 0.1875,0.40625 0.40625,0.40625 z m 0,0"
             style="fill:#000000;fill-opacity:1;stroke:none;stroke-width:0.74355263" />
          <path
             inkscape:connector-curvature="0"
             id="path10822"
             d="m 111.95955,50.883698 c 0,0.21875 0.1875,0.390625 0.40625,0.390625 0.21875,0 0.40625,-0.171875 0.40625,-0.390625 v -3.453125 h 1.10938 c 0.20312,0 0.35937,-0.171875 0.35937,-0.359375 0,-0.203125 -0.15625,-0.375 -0.35937,-0.375 h -3.03125 c -0.20313,0 -0.35938,0.171875 -0.35938,0.375 0,0.1875 0.15625,0.359375 0.35938,0.359375 h 1.10937 z m 0,0"
             style="fill:#000000;fill-opacity:1;stroke:none;stroke-width:0.74355263" />
          <path
             style="fill:none;stroke:#000000;stroke-width:0.47927633;stroke-linecap:round;stroke-linejoin:round;stroke-miterlimit:10;stroke-opacity:1"
             d="M 29.4218,72.390629 V 111.48438"
             id="path27911"
             inkscape:connector-curvature="0" />
          <path
             style="fill:none;stroke:#000000;stroke-width:0.47927633;stroke-linecap:round;stroke-linejoin:round;stroke-miterlimit:10;stroke-opacity:1"
             d="M 103.125,66.722659 V 105.8125"
             id="path27915"
             inkscape:connector-curvature="0" />
          <path
             style="fill:none;stroke:#000000;stroke-width:0.47927633;stroke-linecap:round;stroke-linejoin:round;stroke-miterlimit:10;stroke-opacity:1"
             d="M 139.9765,66.722659 V 105.8125"
             id="path27923"
             inkscape:connector-curvature="0" />
          <path
             inkscape:connector-curvature="0"
             id="path10818"
             d="m 52.548784,88.45697 h 2.6875 c 0.1875,0 0.359375,-0.15625 0.359375,-0.359375 0,-0.1875 -0.171875,-0.359375 -0.359375,-0.359375 h -2.28125 v -1.21875 h 1.953125 c 0.1875,0 0.359375,-0.15625 0.359375,-0.34375 0,-0.203125 -0.171875,-0.375 -0.359375,-0.375 h -1.953125 v -1.171875 h 2.25 c 0.1875,0 0.34375,-0.15625 0.34375,-0.359375 0,-0.203125 -0.15625,-0.359375 -0.34375,-0.359375 h -2.65625 c -0.21875,0 -0.40625,0.171875 -0.40625,0.40625 v 3.734375 c 0,0.234375 0.1875,0.40625 0.40625,0.40625 z m 0,0"
             style="fill:#000000;fill-opacity:1;stroke:none;stroke-width:0.74355263" />
          <path
             inkscape:connector-curvature="0"
             id="path10814"
             d="m 56.475664,88.11322 c 0,0.234375 0.1875,0.375 0.375,0.375 0.171875,0 0.28125,-0.07813 0.390625,-0.21875 l 1.203125,-1.5625 1.21875,1.59375 c 0.09375,0.125 0.1875,0.1875 0.359375,0.1875 0.234375,0 0.40625,-0.171875 0.40625,-0.390625 0,-0.109375 -0.0625,-0.21875 -0.125,-0.296875 l -1.34375,-1.671875 1.265625,-1.578125 c 0.07813,-0.109375 0.125,-0.1875 0.125,-0.3125 0,-0.21875 -0.1875,-0.359375 -0.359375,-0.359375 -0.171875,0 -0.28125,0.07813 -0.390625,0.21875 l -1.140625,1.484375 -1.140625,-1.515625 c -0.109375,-0.125 -0.203125,-0.1875 -0.375,-0.1875 -0.21875,0 -0.390625,0.171875 -0.390625,0.390625 0,0.109375 0.0625,0.203125 0.125,0.296875 l 1.265625,1.578125 -1.34375,1.671875 c -0.07813,0.09375 -0.125,0.1875 -0.125,0.296875 z m 0,0"
             style="fill:#000000;fill-opacity:1;stroke:none;stroke-width:0.74355263" />
          <path
             inkscape:connector-curvature="0"
             id="path10802"
             d="m 62.704912,88.097595 c 0,0.21875 0.1875,0.390625 0.40625,0.390625 0.21875,0 0.40625,-0.171875 0.40625,-0.390625 V 84.64447 h 1.109375 c 0.203125,0 0.359375,-0.171875 0.359375,-0.359375 0,-0.203125 -0.15625,-0.375 -0.359375,-0.375 h -3.03125 c -0.203125,0 -0.359375,0.171875 -0.359375,0.375 0,0.1875 0.15625,0.359375 0.359375,0.359375 h 1.109375 z m 0,0"
             style="fill:#000000;fill-opacity:1;stroke:none;stroke-width:0.74355263" />
          <path
             inkscape:connector-curvature="0"
             id="path10810"
             d="m 69.8669,88.535095 c 0.734375,0 1.21875,-0.234375 1.640625,-0.609375 0.07813,-0.0625 0.140625,-0.171875 0.140625,-0.28125 0,-0.203125 -0.1875,-0.375 -0.390625,-0.375 -0.09375,0 -0.171875,0.03125 -0.234375,0.09375 -0.328125,0.28125 -0.65625,0.4375 -1.140625,0.4375 -0.859375,0 -1.5,-0.734375 -1.5,-1.625 0,-0.890625 0.640625,-1.609375 1.5,-1.609375 0.4375,0 0.78125,0.15625 1.09375,0.40625 0.04687,0.04687 0.125,0.07813 0.234375,0.07813 0.21875,0 0.40625,-0.171875 0.40625,-0.390625 0,-0.140625 -0.07813,-0.25 -0.15625,-0.3125 -0.40625,-0.3125 -0.859375,-0.515625 -1.5625,-0.515625 -1.375,0 -2.34375,1.0625 -2.34375,2.34375 v 0.01563 c 0,1.3125 0.984375,2.34375 2.3125,2.34375 z m 0,0"
             style="fill:#000000;fill-opacity:1;stroke:none;stroke-width:0.74355263" />
          <path
             inkscape:connector-curvature="0"
             id="path10798"
             d="m 72.742998,88.05072 c 0,0.234375 0.1875,0.40625 0.40625,0.40625 h 2.453125 c 0.203125,0 0.375,-0.15625 0.375,-0.359375 0,-0.203125 -0.171875,-0.375 -0.375,-0.375 H 73.555498 V 84.26947 c 0,-0.21875 -0.1875,-0.390625 -0.40625,-0.390625 -0.21875,0 -0.40625,0.171875 -0.40625,0.390625 z m 0,0"
             style="fill:#000000;fill-opacity:1;stroke:none;stroke-width:0.74355263" />
          <path
             inkscape:connector-curvature="0"
             id="path10794"
             d="m 76.925737,88.097595 c 0,0.21875 0.1875,0.390625 0.40625,0.390625 0.21875,0 0.40625,-0.171875 0.40625,-0.390625 V 87.14447 l 0.734375,-0.703125 1.46875,1.859375 c 0.07813,0.109375 0.171875,0.1875 0.328125,0.1875 0.234375,0 0.40625,-0.171875 0.40625,-0.390625 0,-0.125 -0.04687,-0.203125 -0.109375,-0.28125 l -1.53125,-1.90625 1.40625,-1.359375 c 0.09375,-0.09375 0.15625,-0.1875 0.15625,-0.3125 0,-0.1875 -0.15625,-0.359375 -0.375,-0.359375 -0.140625,0 -0.234375,0.04687 -0.328125,0.140625 l -2.15625,2.171875 V 84.26947 c 0,-0.21875 -0.1875,-0.390625 -0.40625,-0.390625 -0.21875,0 -0.40625,0.171875 -0.40625,0.390625 z m 0,0"
             style="fill:#000000;fill-opacity:1;stroke:none;stroke-width:0.74355263" />
          <text
             id="text4737"
             y="26.654743"
             x="137.89397"
             style="font-style:normal;font-weight:normal;font-size:38.34210587px;line-height:125%;font-family:Sans;letter-spacing:0px;word-spacing:0px;display:none;fill:#000000;fill-opacity:1;stroke:none;stroke-width:0.95855266px;stroke-linecap:butt;stroke-linejoin:miter;stroke-opacity:1"
             xml:space="preserve"><tspan
               style="font-style:normal;font-variant:normal;font-weight:bold;font-stretch:normal;font-size:12.78070164px;font-family:Helvetica;-inkscape-font-specification:'Helvetica Bold';stroke-width:0.95855266px"
               y="26.654743"
               x="137.89397"
               id="tspan4735"
               sodipodi:role="line">GateSEQ-8</tspan></text>
          <g
             aria-label="GateSEQ-8"
             style="font-style:normal;font-weight:normal;font-size:38.34210587px;line-height:125%;font-family:Sans;letter-spacing:0px;word-spacing:0px;fill:#000000;fill-opacity:1;stroke:none;stroke-width:0.95855266px;stroke-linecap:butt;stroke-linejoin:miter;stroke-opacity:1"
             id="text4368"
             transform="translate(80.295327,2.1529548)">
            <g
               aria-label="Gate Sequencer"
               style="font-style:normal;font-weight:normal;font-size:11.50263214px;line-height:125%;font-family:Sans;letter-spacing:0px;word-spacing:0px;fill:#000000;fill-opacity:1;stroke:none;stroke-width:0.95855266px;stroke-linecap:butt;stroke-linejoin:miter;stroke-opacity:1"
               id="text904">
              <path
                 d="m 125.77477,12.901417 q -0.60659,0.726404 -1.71491,1.130793 -1.10833,0.396901 -2.45629,0.396901 -1.41537,0 -2.48625,-0.614073 -1.0634,-0.621562 -1.64751,-1.797286 -0.57663,-1.175725 -0.59161,-2.7633278 V 8.5130436 q 0,-1.632535 0.54667,-2.8232371 0.55417,-1.1981909 1.58761,-1.827241 1.04093,-0.6365389 2.43382,-0.6365389 1.93957,0 3.03292,0.9285979 1.09335,0.9211092 1.29555,2.6884406 h -2.1867 q -0.14978,-0.9360865 -0.66649,-1.3704307 -0.50924,-0.4343442 -1.40788,-0.4343442 -1.14577,0 -1.74486,0.8611997 -0.5991,0.8611996 -0.60659,2.5611328 v 0.6964485 q 0,1.7149108 0.65152,2.5910878 0.65151,0.876177 1.90961,0.876177 1.26559,0 1.80478,-0.539186 v -1.879662 h -2.04441 V 8.5504871 h 4.29102 z"
                 style="font-style:normal;font-variant:normal;font-weight:bold;font-stretch:normal;font-size:15.33684254px;font-family:Roboto;-inkscape-font-specification:'Roboto, Bold';font-variant-ligatures:normal;font-variant-caps:normal;font-variant-numeric:normal;font-feature-settings:normal;text-align:start;writing-mode:lr-tb;text-anchor:start;stroke-width:0.95855266px"
                 id="path906"
                 inkscape:connector-curvature="0" />
              <path
                 d="m 132.15513,14.279337 q -0.14977,-0.292059 -0.21717,-0.726403 -0.78631,0.876177 -2.04441,0.876177 -1.1907,0 -1.97702,-0.68896 -0.77882,-0.68896 -0.77882,-1.737377 0,-1.288055 0.95106,-1.977014 0.95856,-0.6889602 2.76333,-0.6964489 h 0.996 v -0.464299 q 0,-0.5616519 -0.29206,-0.8986431 -0.28457,-0.3369911 -0.90613,-0.3369911 -0.54668,0 -0.8612,0.2621042 -0.30704,0.2621042 -0.30704,0.7189145 h -2.16423 q 0,-0.7039371 0.43434,-1.3030325 0.43435,-0.5990954 1.22815,-0.9360866 0.7938,-0.3444799 1.78231,-0.3444799 1.49773,0 2.37391,0.756358 0.88367,0.7488693 0.88367,2.1118113 v 3.5121971 q 0.007,1.153258 0.32201,1.744865 v 0.127308 z m -1.78979,-1.505227 q 0.47927,0 0.88366,-0.209684 0.40439,-0.217172 0.5991,-0.576629 V 10.5949 h -0.80878 q -1.62505,0 -1.72989,1.123304 l -0.007,0.127308 q 0,0.404389 0.28457,0.666493 0.28457,0.262105 0.77883,0.262105 z"
                 style="font-style:normal;font-variant:normal;font-weight:bold;font-stretch:normal;font-size:15.33684254px;font-family:Roboto;-inkscape-font-specification:'Roboto, Bold';font-variant-ligatures:normal;font-variant-caps:normal;font-variant-numeric:normal;font-feature-settings:normal;text-align:start;writing-mode:lr-tb;text-anchor:start;stroke-width:0.95855266px"
                 id="path908"
                 inkscape:connector-curvature="0" />
              <path
                 d="m 138.28837,4.1845792 v 1.9919923 h 1.38541 v 1.5876028 h -1.38541 v 4.0438937 q 0,0.449322 0.17224,0.644028 0.17224,0.194706 0.65901,0.194706 0.35945,0 0.63654,-0.05242 v 1.640024 q -0.63654,0.194706 -1.31053,0.194706 -2.27656,0 -2.32149,-2.299029 V 7.7641743 h -1.18321 V 6.1765715 h 1.18321 V 4.1845792 Z"
                 style="font-style:normal;font-variant:normal;font-weight:bold;font-stretch:normal;font-size:15.33684254px;font-family:Roboto;-inkscape-font-specification:'Roboto, Bold';font-variant-ligatures:normal;font-variant-caps:normal;font-variant-numeric:normal;font-feature-settings:normal;text-align:start;writing-mode:lr-tb;text-anchor:start;stroke-width:0.95855266px"
                 id="path910"
                 inkscape:connector-curvature="0" />
              <path
                 d="m 144.60883,14.429111 q -1.78231,0 -2.90561,-1.093349 -1.11582,-1.093349 -1.11582,-2.913102 v -0.209683 q 0,-1.2206571 0.47179,-2.1792097 0.47179,-0.9660414 1.33299,-1.4827612 0.86869,-0.5242085 1.97701,-0.5242085 1.66249,0 2.61356,1.048417 0.95855,1.048417 0.95855,2.9730114 v 0.883665 h -5.15971 q 0.10484,0.793802 0.62905,1.273078 0.5317,0.479276 1.34047,0.479276 1.25062,0 1.95455,-0.906131 l 1.0634,1.190702 q -0.48677,0.688959 -1.31801,1.078371 -0.83125,0.381924 -1.84222,0.381924 z M 144.3617,7.7791517 q -0.64402,0 -1.04841,0.4343442 -0.3969,0.4343442 -0.50924,1.243123 h 3.01046 v -0.17224 q -0.015,-0.7189145 -0.38941,-1.1083265 -0.37444,-0.3969007 -1.0634,-0.3969007 z"
                 style="font-style:normal;font-variant:normal;font-weight:bold;font-stretch:normal;font-size:15.33684254px;font-family:Roboto;-inkscape-font-specification:'Roboto, Bold';font-variant-ligatures:normal;font-variant-caps:normal;font-variant-numeric:normal;font-feature-settings:normal;text-align:start;writing-mode:lr-tb;text-anchor:start;stroke-width:0.95855266px"
                 id="path912"
                 inkscape:connector-curvature="0" />
              <path
                 d="m 158.80739,11.418656 q 0,-0.636539 -0.44932,-0.97353 -0.44932,-0.34448 -1.61756,-0.7189142 -1.16823,-0.3819233 -1.84971,-0.7488693 -1.85719,-1.0034848 -1.85719,-2.703418 0,-0.8836657 0.49425,-1.5726255 0.50174,-0.6964484 1.43034,-1.0858604 0.93609,-0.389412 2.09684,-0.389412 1.16823,0 2.08185,0.4268555 0.91362,0.4193668 1.41537,1.1907021 0.50923,0.7713353 0.50923,1.7523541 h -2.24661 q 0,-0.7488693 -0.47179,-1.1607474 -0.47179,-0.4193668 -1.3255,-0.4193668 -0.82375,0 -1.28056,0.3519686 -0.45681,0.3444798 -0.45681,0.9136205 0,0.5316972 0.53169,0.8911544 0.53919,0.3594573 1.58012,0.6739823 1.9171,0.5766294 2.79328,1.4303403 0.87618,0.8537108 0.87618,2.1267888 0,1.415363 -1.07089,2.224142 -1.07088,0.80129 -2.88314,0.80129 -1.2581,0 -2.29154,-0.45681 -1.03344,-0.464299 -1.58012,-1.26559 -0.53918,-0.80129 -0.53918,-1.857195 h 2.25409 q 0,1.804775 2.15675,1.804775 0.80129,0 1.25061,-0.322014 0.44932,-0.329503 0.44932,-0.913621 z"
                 style="font-style:normal;font-variant:normal;font-weight:bold;font-stretch:normal;font-size:15.33684254px;font-family:Roboto;-inkscape-font-specification:'Roboto, Bold';font-variant-ligatures:normal;font-variant-caps:normal;font-variant-numeric:normal;font-feature-settings:normal;text-align:start;writing-mode:lr-tb;text-anchor:start;stroke-width:0.95855266px"
                 id="path914"
                 inkscape:connector-curvature="0" />
              <path
                 d="m 166.17626,14.429111 q -1.7823,0 -2.90561,-1.093349 -1.11581,-1.093349 -1.11581,-2.913102 v -0.209683 q 0,-1.2206571 0.47178,-2.1792097 0.47179,-0.9660414 1.33299,-1.4827612 0.86869,-0.5242085 1.97702,-0.5242085 1.66249,0 2.61355,1.048417 0.95855,1.048417 0.95855,2.9730114 v 0.883665 h -5.15971 q 0.10484,0.793802 0.62905,1.273078 0.5317,0.479276 1.34048,0.479276 1.25061,0 1.95455,-0.906131 l 1.06339,1.190702 q -0.48676,0.688959 -1.31801,1.078371 -0.83124,0.381924 -1.84222,0.381924 z m -0.24712,-6.6499593 q -0.64403,0 -1.04842,0.4343442 -0.3969,0.4343442 -0.50923,1.243123 h 3.01045 v -0.17224 q -0.015,-0.7189145 -0.38941,-1.1083265 -0.37443,-0.3969007 -1.06339,-0.3969007 z"
                 style="font-style:normal;font-variant:normal;font-weight:bold;font-stretch:normal;font-size:15.33684254px;font-family:Roboto;-inkscape-font-specification:'Roboto, Bold';font-variant-ligatures:normal;font-variant-caps:normal;font-variant-numeric:normal;font-feature-settings:normal;text-align:start;writing-mode:lr-tb;text-anchor:start;stroke-width:0.95855266px"
                 id="path916"
                 inkscape:connector-curvature="0" />
              <path
                 d="m 170.40737,10.153067 q 0,-1.9096163 0.84623,-3.0179429 0.85371,-1.1083265 2.33647,-1.1083265 1.30303,0 2.07437,0.9959962 l 0.14228,-0.8462223 h 1.90213 V 17.394633 h -2.17172 v -3.811744 q -0.74887,0.846222 -1.96204,0.846222 -1.44532,0 -2.30652,-1.123304 -0.8612,-1.123304 -0.8612,-3.15274 z m 2.16424,0.157263 q 0,1.160747 0.40439,1.767331 0.41187,0.606584 1.15325,0.606584 0.996,0 1.40788,-0.793801 V 8.5429984 q -0.40439,-0.7638467 -1.3929,-0.7638467 -0.74887,0 -1.16075,0.6065841 -0.41187,0.6065841 -0.41187,1.9245942 z"
                 style="font-style:normal;font-variant:normal;font-weight:bold;font-stretch:normal;font-size:15.33684254px;font-family:Roboto;-inkscape-font-specification:'Roboto, Bold';font-variant-ligatures:normal;font-variant-caps:normal;font-variant-numeric:normal;font-feature-settings:normal;text-align:start;writing-mode:lr-tb;text-anchor:start;stroke-width:0.95855266px"
                 id="path918"
                 inkscape:connector-curvature="0" />
              <path
                 d="m 184.25397,13.455581 q -0.80129,0.97353 -2.21666,0.97353 -1.30303,0 -1.99199,-0.748869 -0.68147,-0.74887 -0.69645,-2.194187 V 6.1765715 h 2.16424 v 5.2345965 q 0,1.265589 1.15325,1.265589 1.10084,0 1.51272,-0.763847 V 6.1765715 h 2.17172 v 8.1027655 h -2.03692 z"
                 style="font-style:normal;font-variant:normal;font-weight:bold;font-stretch:normal;font-size:15.33684254px;font-family:Roboto;-inkscape-font-specification:'Roboto, Bold';font-variant-ligatures:normal;font-variant-caps:normal;font-variant-numeric:normal;font-feature-settings:normal;text-align:start;writing-mode:lr-tb;text-anchor:start;stroke-width:0.95855266px"
                 id="path920"
                 inkscape:connector-curvature="0" />
              <path
                 d="m 191.72768,14.429111 q -1.78231,0 -2.90561,-1.093349 -1.11582,-1.093349 -1.11582,-2.913102 v -0.209683 q 0,-1.2206571 0.47179,-2.1792097 0.47179,-0.9660414 1.33299,-1.4827612 0.86869,-0.5242085 1.97701,-0.5242085 1.66249,0 2.61356,1.048417 0.95855,1.048417 0.95855,2.9730114 v 0.883665 h -5.15971 q 0.10484,0.793802 0.62905,1.273078 0.5317,0.479276 1.34048,0.479276 1.25061,0 1.95455,-0.906131 l 1.06339,1.190702 q -0.48676,0.688959 -1.31801,1.078371 -0.83124,0.381924 -1.84222,0.381924 z m -0.24712,-6.6499593 q -0.64403,0 -1.04842,0.4343442 -0.3969,0.4343442 -0.50923,1.243123 h 3.01045 v -0.17224 q -0.015,-0.7189145 -0.38941,-1.1083265 -0.37443,-0.3969007 -1.06339,-0.3969007 z"
                 style="font-style:normal;font-variant:normal;font-weight:bold;font-stretch:normal;font-size:15.33684254px;font-family:Roboto;-inkscape-font-specification:'Roboto, Bold';font-variant-ligatures:normal;font-variant-caps:normal;font-variant-numeric:normal;font-feature-settings:normal;text-align:start;writing-mode:lr-tb;text-anchor:start;stroke-width:0.95855266px"
                 id="path922"
                 inkscape:connector-curvature="0" />
              <path
                 d="m 198.28778,6.1765715 0.0674,0.9360866 q 0.86869,-1.0858605 2.32899,-1.0858605 1.28805,0 1.9171,0.756358 0.62905,0.7563579 0.64403,2.2615852 v 5.2345962 h -2.16423 V 9.0971616 q 0,-0.6889597 -0.29955,-0.9959961 -0.29955,-0.3145251 -0.996,-0.3145251 -0.91362,0 -1.37043,0.778824 v 5.7138726 h -2.16423 V 6.1765715 Z"
                 style="font-style:normal;font-variant:normal;font-weight:bold;font-stretch:normal;font-size:15.33684254px;font-family:Roboto;-inkscape-font-specification:'Roboto, Bold';font-variant-ligatures:normal;font-variant-caps:normal;font-variant-numeric:normal;font-feature-settings:normal;text-align:start;writing-mode:lr-tb;text-anchor:start;stroke-width:0.95855266px"
                 id="path924"
                 inkscape:connector-curvature="0" />
              <path
                 d="m 208.26272,12.684245 q 0.59909,0 0.97353,-0.329502 0.37443,-0.329503 0.38941,-0.876177 h 2.02944 q -0.007,0.823756 -0.44933,1.512716 -0.44183,0.681471 -1.21316,1.063394 -0.76385,0.374435 -1.69245,0.374435 -1.73738,0 -2.74086,-1.100838 -1.00348,-1.108327 -1.00348,-3.055387 v -0.142285 q 0,-1.872173 0.99599,-2.9879882 0.996,-1.1158152 2.73337,-1.1158152 1.52021,0 2.43383,0.8686884 0.92111,0.8611996 0.93609,2.2990286 h -2.02944 q -0.015,-0.6290502 -0.38941,-1.0184622 -0.37444,-0.3969007 -0.98851,-0.3969007 -0.75636,0 -1.14577,0.5541633 -0.38192,0.5466745 -0.38192,1.782309 v 0.224661 q 0,1.250611 0.38192,1.797286 0.38192,0.546674 1.16075,0.546674 z"
                 style="font-style:normal;font-variant:normal;font-weight:bold;font-stretch:normal;font-size:15.33684254px;font-family:Roboto;-inkscape-font-specification:'Roboto, Bold';font-variant-ligatures:normal;font-variant-caps:normal;font-variant-numeric:normal;font-feature-settings:normal;text-align:start;writing-mode:lr-tb;text-anchor:start;stroke-width:0.95855266px"
                 id="path926"
                 inkscape:connector-curvature="0" />
              <path
                 d="m 216.6201,14.429111 q -1.78231,0 -2.90561,-1.093349 -1.11582,-1.093349 -1.11582,-2.913102 v -0.209683 q 0,-1.2206571 0.47179,-2.1792097 0.47179,-0.9660414 1.33299,-1.4827612 0.86869,-0.5242085 1.97701,-0.5242085 1.66249,0 2.61356,1.048417 0.95855,1.048417 0.95855,2.9730114 v 0.883665 h -5.15971 q 0.10484,0.793802 0.62905,1.273078 0.5317,0.479276 1.34048,0.479276 1.25061,0 1.95454,-0.906131 l 1.0634,1.190702 q -0.48677,0.688959 -1.31801,1.078371 -0.83125,0.381924 -1.84222,0.381924 z m -0.24713,-6.6499593 q -0.64402,0 -1.04841,0.4343442 -0.3969,0.4343442 -0.50923,1.243123 h 3.01045 v -0.17224 q -0.015,-0.7189145 -0.38941,-1.1083265 -0.37444,-0.3969007 -1.0634,-0.3969007 z"
                 style="font-style:normal;font-variant:normal;font-weight:bold;font-stretch:normal;font-size:15.33684254px;font-family:Roboto;-inkscape-font-specification:'Roboto, Bold';font-variant-ligatures:normal;font-variant-caps:normal;font-variant-numeric:normal;font-feature-settings:normal;text-align:start;writing-mode:lr-tb;text-anchor:start;stroke-width:0.95855266px"
                 id="path928"
                 inkscape:connector-curvature="0" />
              <path
                 d="m 225.74133,8.2060072 q -0.44184,-0.059909 -0.77883,-0.059909 -1.22814,0 -1.61007,0.8312448 v 5.301994 H 221.1882 V 6.1765715 h 2.04441 l 0.0599,0.9660413 q 0.65152,-1.1158152 1.80478,-1.1158152 0.35946,0 0.67398,0.097353 z"
                 style="font-style:normal;font-variant:normal;font-weight:bold;font-stretch:normal;font-size:15.33684254px;font-family:Roboto;-inkscape-font-specification:'Roboto, Bold';font-variant-ligatures:normal;font-variant-caps:normal;font-variant-numeric:normal;font-feature-settings:normal;text-align:start;writing-mode:lr-tb;text-anchor:start;stroke-width:0.95855266px"
                 id="path930"
                 inkscape:connector-curvature="0" />
            </g>
          </g>
          <text
             id="text4698"
             y="143.04984"
             x="26.065821"
             style="font-style:normal;font-weight:normal;font-size:38.34210587px;line-height:125%;font-family:Sans;letter-spacing:0px;word-spacing:0px;display:none;fill:#000000;fill-opacity:1;stroke:none;stroke-width:0.95855266px;stroke-linecap:butt;stroke-linejoin:miter;stroke-opacity:1"
             xml:space="preserve"><tspan
               dx="0 0.68468046 0 -1.3693609 0 0.68468046 -2.0540414 0 0 -2.0540414 0 0 0 0 0 -2.7387218 0 0 -1.4908585e-10 0 0 -2.7387218 0 0 0.68468046 0 4.7927632 0 0 3.4234023 0 0 3.4234023"
               style="font-style:normal;font-variant:normal;font-weight:normal;font-stretch:normal;font-size:9.58552647px;font-family:Helvetica;-inkscape-font-specification:Helvetica;letter-spacing:0px;word-spacing:7.28499985px;stroke-width:0.95855266px"
               y="143.04984"
               x="26.065821"
               id="tspan4696"
               sodipodi:role="line">1  2  3  4  5  6  7  8  9 10 11 12</tspan></text>
          <path
             style="display:inline;fill:none;stroke:#000000;stroke-width:0.40436059;stroke-linecap:round;stroke-linejoin:round;stroke-miterlimit:10;stroke-opacity:1"
             d="M 240.5766,340.98041 V 141.22507"
             id="path27449-8"
             inkscape:connector-curvature="0" />
        </g>
      </g>
      <g
         aria-label="1"
         transform="matrix(0.97199218,0,0,1.0228232,26.054623,19.171052)"
         style="font-style:normal;font-variant:normal;font-weight:normal;font-stretch:normal;font-size:7.66842079px;line-height:125%;font-family:Roboto;-inkscape-font-specification:'Roboto, Normal';font-variant-ligatures:normal;font-variant-caps:normal;font-variant-numeric:normal;font-feature-settings:normal;text-align:start;letter-spacing:0px;word-spacing:0px;writing-mode:lr-tb;text-anchor:start;fill:#000000;fill-opacity:1;stroke:none;stroke-width:0.93716365px;stroke-linecap:butt;stroke-linejoin:miter;stroke-opacity:1"
         id="text99">
        <path
           d="m -472.43837,151.22795 h -0.69645 v -4.61678 l -1.39664,0.51298 v -0.62905 l 1.9845,-0.74513 h 0.10859 z"
           style="font-style:normal;font-variant:normal;font-weight:normal;font-stretch:normal;font-size:7.66842079px;font-family:Roboto;-inkscape-font-specification:'Roboto, Normal';font-variant-ligatures:normal;font-variant-caps:normal;font-variant-numeric:normal;font-feature-settings:normal;text-align:start;writing-mode:lr-tb;text-anchor:start;stroke-width:0.93716365px"
           id="path220"
           inkscape:connector-curvature="0" />
      </g>
      <g
         aria-label="2"
         transform="matrix(0.97199218,0,0,1.0228232,24.454338,19.171052)"
         style="font-style:normal;font-variant:normal;font-weight:normal;font-stretch:normal;font-size:7.66842079px;line-height:125%;font-family:Roboto;-inkscape-font-specification:'Roboto, Normal';font-variant-ligatures:normal;font-variant-caps:normal;font-variant-numeric:normal;font-feature-settings:normal;text-align:start;letter-spacing:0px;word-spacing:0px;writing-mode:lr-tb;text-anchor:start;fill:#000000;fill-opacity:1;stroke:none;stroke-width:0.93716365px;stroke-linecap:butt;stroke-linejoin:miter;stroke-opacity:1"
         id="text103">
        <path
           d="m -446.27424,151.22795 h -3.5721 v -0.498 l 1.88715,-2.09683 q 0.41937,-0.47553 0.57663,-0.77134 0.161,-0.29954 0.161,-0.61781 0,-0.42686 -0.25836,-0.7002 -0.25836,-0.27333 -0.68896,-0.27333 -0.51671,0 -0.80503,0.2958 -0.28457,0.29206 -0.28457,0.81627 h -0.6927 q 0,-0.75262 0.48302,-1.21691 0.48676,-0.4643 1.29928,-0.4643 0.76011,0 1.20194,0.40064 0.44183,0.3969 0.44183,1.05965 0,0.80504 -1.02595,1.91711 l -1.46029,1.58385 h 2.73711 z"
           style="font-style:normal;font-variant:normal;font-weight:normal;font-stretch:normal;font-size:7.66842079px;font-family:Roboto;-inkscape-font-specification:'Roboto, Normal';font-variant-ligatures:normal;font-variant-caps:normal;font-variant-numeric:normal;font-feature-settings:normal;text-align:start;writing-mode:lr-tb;text-anchor:start;stroke-width:0.93716365px"
           id="path217"
           inkscape:connector-curvature="0" />
      </g>
      <g
         aria-label="3"
         transform="matrix(0.97199218,0,0,1.0228232,23.879583,19.171052)"
         style="font-style:normal;font-variant:normal;font-weight:normal;font-stretch:normal;font-size:7.66842079px;line-height:125%;font-family:Roboto;-inkscape-font-specification:'Roboto, Normal';font-variant-ligatures:normal;font-variant-caps:normal;font-variant-numeric:normal;font-feature-settings:normal;text-align:start;letter-spacing:0px;word-spacing:0px;writing-mode:lr-tb;text-anchor:start;fill:#000000;fill-opacity:1;stroke:none;stroke-width:0.93716365px;stroke-linecap:butt;stroke-linejoin:miter;stroke-opacity:1"
         id="text107">
        <path
           d="m -424.41528,148.00584 h 0.52046 q 0.49051,-0.007 0.77133,-0.25836 0.28083,-0.25088 0.28083,-0.67773 0,-0.95855 -0.95481,-0.95855 -0.44932,0 -0.71891,0.25836 -0.26585,0.25461 -0.26585,0.67772 h -0.6927 q 0,-0.64777 0.47178,-1.07462 0.47553,-0.4306 1.20568,-0.4306 0.77134,0 1.20943,0.40813 0.43808,0.40813 0.43808,1.13454 0,0.35571 -0.23214,0.68896 -0.22841,0.33324 -0.62531,0.49799 0.44932,0.14229 0.6927,0.47179 0.24713,0.3295 0.24713,0.80504 0,0.73389 -0.47928,1.16449 -0.47927,0.4306 -1.24686,0.4306 -0.76759,0 -1.25062,-0.41563 -0.47927,-0.41562 -0.47927,-1.09709 h 0.69645 q 0,0.4306 0.28082,0.68896 0.28083,0.25836 0.75262,0.25836 0.50174,0 0.76759,-0.2621 0.26585,-0.26211 0.26585,-0.75262 0,-0.47553 -0.29206,-0.73014 -0.29206,-0.25462 -0.84248,-0.26211 h -0.52046 z"
           style="font-style:normal;font-variant:normal;font-weight:normal;font-stretch:normal;font-size:7.66842079px;font-family:Roboto;-inkscape-font-specification:'Roboto, Normal';font-variant-ligatures:normal;font-variant-caps:normal;font-variant-numeric:normal;font-feature-settings:normal;text-align:start;writing-mode:lr-tb;text-anchor:start;stroke-width:0.93716365px"
           id="path214"
           inkscape:connector-curvature="0" />
      </g>
      <g
         aria-label="4"
         transform="matrix(0.97199218,0,0,1.0228232,22.786451,19.171052)"
         style="font-style:normal;font-variant:normal;font-weight:normal;font-stretch:normal;font-size:7.66842079px;line-height:125%;font-family:Roboto;-inkscape-font-specification:'Roboto, Normal';font-variant-ligatures:normal;font-variant-caps:normal;font-variant-numeric:normal;font-feature-settings:normal;text-align:start;letter-spacing:0px;word-spacing:0px;writing-mode:lr-tb;text-anchor:start;fill:#000000;fill-opacity:1;stroke:none;stroke-width:0.93716365px;stroke-linecap:butt;stroke-linejoin:miter;stroke-opacity:1"
         id="text111">
        <path
           d="m -397.73387,149.39697 h 0.75636 v 0.56539 h -0.75636 v 1.26559 h -0.69645 v -1.26559 h -2.4825 v -0.40813 l 2.44132,-3.77805 h 0.73763 z m -2.39263,0 h 1.69618 v -2.67347 l -0.0824,0.14978 z"
           style="font-style:normal;font-variant:normal;font-weight:normal;font-stretch:normal;font-size:7.66842079px;font-family:Roboto;-inkscape-font-specification:'Roboto, Normal';font-variant-ligatures:normal;font-variant-caps:normal;font-variant-numeric:normal;font-feature-settings:normal;text-align:start;writing-mode:lr-tb;text-anchor:start;stroke-width:0.93716365px"
           id="path211"
           inkscape:connector-curvature="0" />
      </g>
      <g
         aria-label="5"
         transform="matrix(0.97199218,0,0,1.0228232,22.265441,19.171052)"
         style="font-style:normal;font-variant:normal;font-weight:normal;font-stretch:normal;font-size:7.66842079px;line-height:125%;font-family:Roboto;-inkscape-font-specification:'Roboto, Normal';font-variant-ligatures:normal;font-variant-caps:normal;font-variant-numeric:normal;font-feature-settings:normal;text-align:start;letter-spacing:0px;word-spacing:0px;writing-mode:lr-tb;text-anchor:start;fill:#000000;fill-opacity:1;stroke:none;stroke-width:0.93716365px;stroke-linecap:butt;stroke-linejoin:miter;stroke-opacity:1"
         id="text115">
        <path
           d="m -376.20166,148.33534 0.27708,-2.7184 h 2.79329 v 0.64029 h -2.20542 l -0.16475,1.4865 q 0.40064,-0.23589 0.90987,-0.23589 0.74513,0 1.18322,0.49425 0.43808,0.49051 0.43808,1.32924 0,0.84248 -0.45681,1.32925 -0.45306,0.48302 -1.26933,0.48302 -0.72266,0 -1.17947,-0.40065 -0.45681,-0.40064 -0.52046,-1.10832 h 0.65526 q 0.0636,0.46804 0.33324,0.70768 0.2696,0.23589 0.71143,0.23589 0.48302,0 0.75636,-0.3295 0.27708,-0.3295 0.27708,-0.90988 0,-0.54667 -0.29955,-0.87617 -0.2958,-0.33325 -0.79005,-0.33325 -0.45307,0 -0.71143,0.19845 l -0.18347,0.14977 z"
           style="font-style:normal;font-variant:normal;font-weight:normal;font-stretch:normal;font-size:7.66842079px;font-family:Roboto;-inkscape-font-specification:'Roboto, Normal';font-variant-ligatures:normal;font-variant-caps:normal;font-variant-numeric:normal;font-feature-settings:normal;text-align:start;writing-mode:lr-tb;text-anchor:start;stroke-width:0.93716365px"
           id="path208"
           inkscape:connector-curvature="0" />
      </g>
      <g
         aria-label="6"
         transform="matrix(0.97199218,0,0,1.0228232,21.545856,19.171052)"
         style="font-style:normal;font-variant:normal;font-weight:normal;font-stretch:normal;font-size:7.66842079px;line-height:125%;font-family:Roboto;-inkscape-font-specification:'Roboto, Normal';font-variant-ligatures:normal;font-variant-caps:normal;font-variant-numeric:normal;font-feature-settings:normal;text-align:start;letter-spacing:0px;word-spacing:0px;writing-mode:lr-tb;text-anchor:start;fill:#000000;fill-opacity:1;stroke:none;stroke-width:0.93716365px;stroke-linecap:butt;stroke-linejoin:miter;stroke-opacity:1"
         id="text119">
        <path
           d="m -349.26241,145.6132 v 0.58786 h -0.12731 q -0.80877,0.015 -1.28805,0.47928 -0.47928,0.4643 -0.55416,1.30677 0.4306,-0.49425 1.17572,-0.49425 0.71143,0 1.13454,0.50174 0.42685,0.50174 0.42685,1.29555 0,0.84247 -0.46055,1.34796 -0.45681,0.50549 -1.22815,0.50549 -0.78256,0 -1.26933,-0.5991 -0.48676,-0.60284 -0.48676,-1.55016 v -0.26585 q 0,-1.50522 0.64028,-2.29902 0.64403,-0.79755 1.91336,-0.81627 z m -0.90987,2.45629 q -0.35572,0 -0.65526,0.21343 -0.29955,0.21342 -0.41563,0.53544 v 0.25461 q 0,0.67399 0.3033,1.08586 0.30329,0.41188 0.75635,0.41188 0.46805,0 0.7339,-0.34448 0.26959,-0.34448 0.26959,-0.90238 0,-0.56166 -0.27334,-0.90614 -0.26959,-0.34822 -0.71891,-0.34822 z"
           style="font-style:normal;font-variant:normal;font-weight:normal;font-stretch:normal;font-size:7.66842079px;font-family:Roboto;-inkscape-font-specification:'Roboto, Normal';font-variant-ligatures:normal;font-variant-caps:normal;font-variant-numeric:normal;font-feature-settings:normal;text-align:start;writing-mode:lr-tb;text-anchor:start;stroke-width:0.93716365px"
           id="path205"
           inkscape:connector-curvature="0" />
      </g>
      <g
         aria-label="7"
         transform="matrix(0.97199218,0,0,1.0228232,21.052489,19.171052)"
         style="font-style:normal;font-variant:normal;font-weight:normal;font-stretch:normal;font-size:7.66842079px;line-height:125%;font-family:Roboto;-inkscape-font-specification:'Roboto, Normal';font-variant-ligatures:normal;font-variant-caps:normal;font-variant-numeric:normal;font-feature-settings:normal;text-align:start;letter-spacing:0px;word-spacing:0px;writing-mode:lr-tb;text-anchor:start;fill:#000000;fill-opacity:1;stroke:none;stroke-width:0.93716365px;stroke-linecap:butt;stroke-linejoin:miter;stroke-opacity:1"
         id="text123">
        <path
           d="m -324.1416,146.1656 -2.25784,5.06235 h -0.7264 l 2.25035,-4.88263 h -2.95054 v -0.56914 h 3.68443 z"
           style="font-style:normal;font-variant:normal;font-weight:normal;font-stretch:normal;font-size:7.66842079px;font-family:Roboto;-inkscape-font-specification:'Roboto, Normal';font-variant-ligatures:normal;font-variant-caps:normal;font-variant-numeric:normal;font-feature-settings:normal;text-align:start;writing-mode:lr-tb;text-anchor:start;stroke-width:0.93716365px"
           id="path202"
           inkscape:connector-curvature="0" />
      </g>
      <g
         aria-label="8"
         transform="matrix(0.97199218,0,0,1.0228232,20.165405,19.171052)"
         style="font-style:normal;font-variant:normal;font-weight:normal;font-stretch:normal;font-size:7.66842079px;line-height:125%;font-family:Roboto;-inkscape-font-specification:'Roboto, Normal';font-variant-ligatures:normal;font-variant-caps:normal;font-variant-numeric:normal;font-feature-settings:normal;text-align:start;letter-spacing:0px;word-spacing:0px;writing-mode:lr-tb;text-anchor:start;fill:#000000;fill-opacity:1;stroke:none;stroke-width:0.93716365px;stroke-linecap:butt;stroke-linejoin:miter;stroke-opacity:1"
         id="text127">
        <path
           d="m -299.73903,147.03979 q 0,0.40814 -0.21717,0.72641 -0.21343,0.31827 -0.58037,0.498 0.42685,0.18347 0.67398,0.53544 0.25087,0.35197 0.25087,0.79754 0,0.70768 -0.47928,1.12705 -0.47553,0.41937 -1.25435,0.41937 -0.78632,0 -1.26185,-0.41937 -0.47179,-0.42311 -0.47179,-1.12705 0,-0.44183 0.23964,-0.79754 0.24339,-0.35572 0.67024,-0.53919 -0.3632,-0.17973 -0.57288,-0.498 -0.20969,-0.31827 -0.20969,-0.72266 0,-0.68896 0.44184,-1.09335 0.44183,-0.40438 1.16449,-0.40438 0.71891,0 1.16074,0.40438 0.44558,0.40439 0.44558,1.09335 z m -0.56539,2.54241 q 0,-0.45681 -0.29206,-0.74512 -0.28832,-0.28831 -0.75636,-0.28831 -0.46805,0 -0.75262,0.28457 -0.28082,0.28457 -0.28082,0.74886 0,0.4643 0.27334,0.73015 0.27708,0.26585 0.76759,0.26585 0.48676,0 0.76384,-0.26585 0.27709,-0.26959 0.27709,-0.73015 z m -1.04093,-3.471 q -0.40814,0 -0.66275,0.25461 -0.25087,0.25087 -0.25087,0.68522 0,0.41562 0.24712,0.67398 0.25087,0.25461 0.6665,0.25461 0.41562,0 0.66275,-0.25461 0.25087,-0.25836 0.25087,-0.67398 0,-0.41563 -0.25836,-0.67773 -0.25836,-0.2621 -0.65526,-0.2621 z"
           style="font-style:normal;font-variant:normal;font-weight:normal;font-stretch:normal;font-size:7.66842079px;font-family:Roboto;-inkscape-font-specification:'Roboto, Normal';font-variant-ligatures:normal;font-variant-caps:normal;font-variant-numeric:normal;font-feature-settings:normal;text-align:start;writing-mode:lr-tb;text-anchor:start;stroke-width:0.93716365px"
           id="path199"
           inkscape:connector-curvature="0" />
      </g>
      <g
         aria-label="9"
         transform="matrix(0.97199218,0,0,1.0228232,19.463343,19.171052)"
         style="font-style:normal;font-variant:normal;font-weight:normal;font-stretch:normal;font-size:7.66842079px;line-height:125%;font-family:Roboto;-inkscape-font-specification:'Roboto, Normal';font-variant-ligatures:normal;font-variant-caps:normal;font-variant-numeric:normal;font-feature-settings:normal;text-align:start;letter-spacing:0px;word-spacing:0px;writing-mode:lr-tb;text-anchor:start;fill:#000000;fill-opacity:1;stroke:none;stroke-width:0.93716365px;stroke-linecap:butt;stroke-linejoin:miter;stroke-opacity:1"
         id="text131">
        <path
           d="m -275.87883,148.67233 q -0.21717,0.25836 -0.52046,0.41562 -0.29955,0.15726 -0.65901,0.15726 -0.47178,0 -0.82375,-0.23215 -0.34823,-0.23215 -0.53919,-0.65151 -0.19096,-0.42311 -0.19096,-0.93234 0,-0.54668 0.20594,-0.98477 0.20968,-0.43809 0.59161,-0.67024 0.38192,-0.23214 0.89115,-0.23214 0.80878,0 1.27308,0.60658 0.46804,0.60284 0.46804,1.64751 v 0.2022 q 0,1.59134 -0.62905,2.32524 -0.62905,0.73014 -1.89838,0.74886 h -0.1348 v -0.58411 h 0.14603 q 0.85746,-0.015 1.31801,-0.44558 0.46056,-0.43434 0.50174,-1.37043 z m -1.06713,0 q 0.34822,0 0.64028,-0.21343 0.2958,-0.21343 0.4306,-0.52795 v -0.27708 q 0,-0.68147 -0.29581,-1.10833 -0.2958,-0.42686 -0.74886,-0.42686 -0.45681,0 -0.7339,0.35197 -0.27708,0.34823 -0.27708,0.92111 0,0.55791 0.26585,0.92111 0.26959,0.35946 0.71892,0.35946 z"
           style="font-style:normal;font-variant:normal;font-weight:normal;font-stretch:normal;font-size:7.66842079px;font-family:Roboto;-inkscape-font-specification:'Roboto, Normal';font-variant-ligatures:normal;font-variant-caps:normal;font-variant-numeric:normal;font-feature-settings:normal;text-align:start;writing-mode:lr-tb;text-anchor:start;stroke-width:0.93716365px"
           id="path196"
           inkscape:connector-curvature="0" />
      </g>
      <g
         aria-label="10"
         transform="matrix(0.97199218,0,0,1.0228232,17.008793,19.171052)"
         style="font-style:normal;font-variant:normal;font-weight:normal;font-stretch:normal;font-size:7.66842079px;line-height:125%;font-family:Roboto;-inkscape-font-specification:'Roboto, Normal';font-variant-ligatures:normal;font-variant-caps:normal;font-variant-numeric:normal;font-feature-settings:normal;text-align:start;letter-spacing:0px;word-spacing:0px;writing-mode:lr-tb;text-anchor:start;fill:#000000;fill-opacity:1;stroke:none;stroke-width:0.93716365px;stroke-linecap:butt;stroke-linejoin:miter;stroke-opacity:1"
         id="text135">
        <path
           d="m -252.32741,151.06871 h -0.69645 v -4.61678 l -1.39664,0.51298 v -0.62905 l 1.9845,-0.74513 h 0.10859 z"
           style="font-style:normal;font-variant:normal;font-weight:normal;font-stretch:normal;font-size:7.66842079px;font-family:Roboto;-inkscape-font-specification:'Roboto, Normal';font-variant-ligatures:normal;font-variant-caps:normal;font-variant-numeric:normal;font-feature-settings:normal;text-align:start;writing-mode:lr-tb;text-anchor:start;stroke-width:0.93716365px"
           id="path191"
           inkscape:connector-curvature="0" />
        <path
           d="m -246.8719,148.74347 q 0,1.21691 -0.41562,1.80852 -0.41562,0.59161 -1.29929,0.59161 -0.87243,0 -1.2918,-0.57663 -0.41936,-0.58038 -0.43434,-1.72989 v -0.92485 q 0,-1.20194 0.41562,-1.78606 0.41562,-0.58411 1.30303,-0.58411 0.87993,0 1.29555,0.56539 0.41562,0.56165 0.42685,1.73738 z m -0.6927,-0.94732 q 0,-0.87992 -0.24713,-1.28056 -0.24712,-0.40439 -0.78257,-0.40439 -0.53169,0 -0.77508,0.40064 -0.24338,0.40065 -0.25087,1.23189 v 1.10833 q 0,0.88366 0.25462,1.30677 0.25836,0.41937 0.77882,0.41937 0.51298,0 0.7601,-0.3969 0.25088,-0.3969 0.26211,-1.25061 z"
           style="font-style:normal;font-variant:normal;font-weight:normal;font-stretch:normal;font-size:7.66842079px;font-family:Roboto;-inkscape-font-specification:'Roboto, Normal';font-variant-ligatures:normal;font-variant-caps:normal;font-variant-numeric:normal;font-feature-settings:normal;text-align:start;writing-mode:lr-tb;text-anchor:start;stroke-width:0.93716365px"
           id="path193"
           inkscape:connector-curvature="0" />
      </g>
      <g
         aria-label="11"
         transform="matrix(0.97199218,0,0,1.0228232,16.853319,19.171052)"
         style="font-style:normal;font-variant:normal;font-weight:normal;font-stretch:normal;font-size:7.66842079px;line-height:125%;font-family:Roboto;-inkscape-font-specification:'Roboto, Normal';font-variant-ligatures:normal;font-variant-caps:normal;font-variant-numeric:normal;font-feature-settings:normal;text-align:start;letter-spacing:0px;word-spacing:0px;writing-mode:lr-tb;text-anchor:start;fill:#000000;fill-opacity:1;stroke:none;stroke-width:0.93716365px;stroke-linecap:butt;stroke-linejoin:miter;stroke-opacity:1"
         id="text139">
        <path
           d="m -227.87064,151.22795 h -0.69645 v -4.61678 l -1.39664,0.51298 v -0.62905 l 1.98451,-0.74513 h 0.10858 z"
           style="font-style:normal;font-variant:normal;font-weight:normal;font-stretch:normal;font-size:7.66842079px;font-family:Roboto;-inkscape-font-specification:'Roboto, Normal';font-variant-ligatures:normal;font-variant-caps:normal;font-variant-numeric:normal;font-feature-settings:normal;text-align:start;writing-mode:lr-tb;text-anchor:start;stroke-width:0.93716365px"
           id="path186"
           inkscape:connector-curvature="0" />
        <path
           d="m -223.55715,151.22795 h -0.69645 v -4.61678 l -1.39664,0.51298 v -0.62905 l 1.9845,-0.74513 h 0.10859 z"
           style="font-style:normal;font-variant:normal;font-weight:normal;font-stretch:normal;font-size:7.66842079px;font-family:Roboto;-inkscape-font-specification:'Roboto, Normal';font-variant-ligatures:normal;font-variant-caps:normal;font-variant-numeric:normal;font-feature-settings:normal;text-align:start;writing-mode:lr-tb;text-anchor:start;stroke-width:0.93716365px"
           id="path188"
           inkscape:connector-curvature="0" />
      </g>
      <g
         aria-label="12"
         transform="matrix(0.97199218,0,0,1.0228232,15.513205,19.171052)"
         style="font-style:normal;font-variant:normal;font-weight:normal;font-stretch:normal;font-size:7.66842079px;line-height:125%;font-family:Roboto;-inkscape-font-specification:'Roboto, Normal';font-variant-ligatures:normal;font-variant-caps:normal;font-variant-numeric:normal;font-feature-settings:normal;text-align:start;letter-spacing:0px;word-spacing:0px;writing-mode:lr-tb;text-anchor:start;fill:#000000;fill-opacity:1;stroke:none;stroke-width:0.93716365px;stroke-linecap:butt;stroke-linejoin:miter;stroke-opacity:1"
         id="text143">
        <path
           d="m -203.41387,151.22795 h -0.69644 v -4.61678 l -1.39664,0.51298 v -0.62905 l 1.9845,-0.74513 h 0.10858 z"
           style="font-style:normal;font-variant:normal;font-weight:normal;font-stretch:normal;font-size:7.66842079px;font-family:Roboto;-inkscape-font-specification:'Roboto, Normal';font-variant-ligatures:normal;font-variant-caps:normal;font-variant-numeric:normal;font-feature-settings:normal;text-align:start;writing-mode:lr-tb;text-anchor:start;stroke-width:0.93716365px"
           id="path181"
           inkscape:connector-curvature="0" />
        <path
           d="m -197.80484,151.22795 h -3.5721 v -0.498 l 1.88715,-2.09683 q 0.41937,-0.47553 0.57663,-0.77134 0.16101,-0.29954 0.16101,-0.61781 0,-0.42686 -0.25836,-0.7002 -0.25836,-0.27333 -0.68896,-0.27333 -0.51672,0 -0.80504,0.2958 -0.28457,0.29206 -0.28457,0.81627 h -0.6927 q 0,-0.75262 0.48302,-1.21691 0.48676,-0.4643 1.29929,-0.4643 0.7601,0 1.20193,0.40064 0.44183,0.3969 0.44183,1.05965 0,0.80504 -1.02595,1.91711 l -1.46029,1.58385 h 2.73711 z"
           style="font-style:normal;font-variant:normal;font-weight:normal;font-stretch:normal;font-size:7.66842079px;font-family:Roboto;-inkscape-font-specification:'Roboto, Normal';font-variant-ligatures:normal;font-variant-caps:normal;font-variant-numeric:normal;font-feature-settings:normal;text-align:start;writing-mode:lr-tb;text-anchor:start;stroke-width:0.93716365px"
           id="path183"
           inkscape:connector-curvature="0" />
      </g>
      <g
         aria-label="13"
         transform="matrix(0.97199218,0,0,1.0228232,14.908263,19.171052)"
         style="font-style:normal;font-variant:normal;font-weight:normal;font-stretch:normal;font-size:7.66842079px;line-height:125%;font-family:Roboto;-inkscape-font-specification:'Roboto, Normal';font-variant-ligatures:normal;font-variant-caps:normal;font-variant-numeric:normal;font-feature-settings:normal;text-align:start;letter-spacing:0px;word-spacing:0px;writing-mode:lr-tb;text-anchor:start;fill:#000000;fill-opacity:1;stroke:none;stroke-width:0.93716365px;stroke-linecap:butt;stroke-linejoin:miter;stroke-opacity:1"
         id="text147">
        <path
           d="m -178.95709,151.06871 h -0.69645 v -4.61678 l -1.39664,0.51298 v -0.62905 l 1.9845,-0.74513 h 0.10859 z"
           style="font-style:normal;font-variant:normal;font-weight:normal;font-stretch:normal;font-size:7.66842079px;font-family:Roboto;-inkscape-font-specification:'Roboto, Normal';font-variant-ligatures:normal;font-variant-caps:normal;font-variant-numeric:normal;font-feature-settings:normal;text-align:start;writing-mode:lr-tb;text-anchor:start;stroke-width:0.93716365px"
           id="path176"
           inkscape:connector-curvature="0" />
        <path
           d="m -175.91294,148.00584 h 0.52046 q 0.49051,-0.007 0.77134,-0.25836 0.28083,-0.25088 0.28083,-0.67773 0,-0.95855 -0.95481,-0.95855 -0.44932,0 -0.71892,0.25836 -0.26585,0.25461 -0.26585,0.67772 h -0.6927 q 0,-0.64777 0.47179,-1.07462 0.47553,-0.4306 1.20568,-0.4306 0.77133,0 1.20942,0.40813 0.43809,0.40813 0.43809,1.13454 0,0.35571 -0.23215,0.68896 -0.22841,0.33324 -0.62531,0.49799 0.44933,0.14229 0.69271,0.47179 0.24712,0.3295 0.24712,0.80504 0,0.73389 -0.47927,1.16449 -0.47928,0.4306 -1.24687,0.4306 -0.76759,0 -1.25061,-0.41563 -0.47928,-0.41562 -0.47928,-1.09709 h 0.69645 q 0,0.4306 0.28083,0.68896 0.28082,0.25836 0.75261,0.25836 0.50174,0 0.76759,-0.2621 0.26585,-0.26211 0.26585,-0.75262 0,-0.47553 -0.29206,-0.73014 -0.29206,-0.25462 -0.84248,-0.26211 h -0.52046 z"
           style="font-style:normal;font-variant:normal;font-weight:normal;font-stretch:normal;font-size:7.66842079px;font-family:Roboto;-inkscape-font-specification:'Roboto, Normal';font-variant-ligatures:normal;font-variant-caps:normal;font-variant-numeric:normal;font-feature-settings:normal;text-align:start;writing-mode:lr-tb;text-anchor:start;stroke-width:0.93716365px"
           id="path178"
           inkscape:connector-curvature="0" />
      </g>
      <g
         aria-label="14"
         transform="matrix(0.97199218,0,0,1.0228232,14.039428,19.171052)"
         style="font-style:normal;font-variant:normal;font-weight:normal;font-stretch:normal;font-size:7.66842079px;line-height:125%;font-family:Roboto;-inkscape-font-specification:'Roboto, Normal';font-variant-ligatures:normal;font-variant-caps:normal;font-variant-numeric:normal;font-feature-settings:normal;text-align:start;letter-spacing:0px;word-spacing:0px;writing-mode:lr-tb;text-anchor:start;fill:#000000;fill-opacity:1;stroke:none;stroke-width:0.93716365px;stroke-linecap:butt;stroke-linejoin:miter;stroke-opacity:1"
         id="text151">
        <path
           d="m -154.50032,151.22795 h -0.69645 v -4.61678 l -1.39664,0.51298 v -0.62905 l 1.9845,-0.74513 h 0.10859 z"
           style="font-style:normal;font-variant:normal;font-weight:normal;font-stretch:normal;font-size:7.66842079px;font-family:Roboto;-inkscape-font-specification:'Roboto, Normal';font-variant-ligatures:normal;font-variant-caps:normal;font-variant-numeric:normal;font-feature-settings:normal;text-align:start;writing-mode:lr-tb;text-anchor:start;stroke-width:0.93716365px"
           id="path171"
           inkscape:connector-curvature="0" />
        <path
           d="m -149.53906,149.39697 h 0.75635 v 0.56539 h -0.75635 v 1.26559 h -0.69645 v -1.26559 h -2.4825 v -0.40813 l 2.44131,-3.77805 h 0.73764 z m -2.39264,0 h 1.69619 v -2.67347 l -0.0824,0.14978 z"
           style="font-style:normal;font-variant:normal;font-weight:normal;font-stretch:normal;font-size:7.66842079px;font-family:Roboto;-inkscape-font-specification:'Roboto, Normal';font-variant-ligatures:normal;font-variant-caps:normal;font-variant-numeric:normal;font-feature-settings:normal;text-align:start;writing-mode:lr-tb;text-anchor:start;stroke-width:0.93716365px"
           id="path173"
           inkscape:connector-curvature="0" />
      </g>
      <g
         aria-label="15"
         transform="matrix(0.97199218,0,0,1.0228232,13.392608,19.171052)"
         style="font-style:normal;font-variant:normal;font-weight:normal;font-stretch:normal;font-size:7.66842079px;line-height:125%;font-family:Roboto;-inkscape-font-specification:'Roboto, Normal';font-variant-ligatures:normal;font-variant-caps:normal;font-variant-numeric:normal;font-feature-settings:normal;text-align:start;letter-spacing:0px;word-spacing:0px;writing-mode:lr-tb;text-anchor:start;fill:#000000;fill-opacity:1;stroke:none;stroke-width:0.93716365px;stroke-linecap:butt;stroke-linejoin:miter;stroke-opacity:1"
         id="text155">
        <path
           d="m -130.04353,151.06871 h -0.69645 v -4.61678 l -1.39664,0.51298 v -0.62905 l 1.9845,-0.74513 h 0.10859 z"
           style="font-style:normal;font-variant:normal;font-weight:normal;font-stretch:normal;font-size:7.66842079px;font-family:Roboto;-inkscape-font-specification:'Roboto, Normal';font-variant-ligatures:normal;font-variant-caps:normal;font-variant-numeric:normal;font-feature-settings:normal;text-align:start;writing-mode:lr-tb;text-anchor:start;stroke-width:0.93716365px"
           id="path166"
           inkscape:connector-curvature="0" />
        <path
           d="m -127.68834,148.33534 0.27708,-2.7184 h 2.79328 v 0.64029 h -2.20542 l -0.16475,1.4865 q 0.40065,-0.23589 0.90988,-0.23589 0.74512,0 1.18321,0.49425 0.43809,0.49051 0.43809,1.32924 0,0.84248 -0.45681,1.32925 -0.45307,0.48302 -1.26933,0.48302 -0.72266,0 -1.17947,-0.40065 -0.45681,-0.40064 -0.52047,-1.10832 h 0.65526 q 0.0637,0.46804 0.33325,0.70768 0.26959,0.23589 0.71143,0.23589 0.48302,0 0.75635,-0.3295 0.27709,-0.3295 0.27709,-0.90988 0,-0.54667 -0.29955,-0.87617 -0.29581,-0.33325 -0.79006,-0.33325 -0.45306,0 -0.71142,0.19845 l -0.18348,0.14977 z"
           style="font-style:normal;font-variant:normal;font-weight:normal;font-stretch:normal;font-size:7.66842079px;font-family:Roboto;-inkscape-font-specification:'Roboto, Normal';font-variant-ligatures:normal;font-variant-caps:normal;font-variant-numeric:normal;font-feature-settings:normal;text-align:start;writing-mode:lr-tb;text-anchor:start;stroke-width:0.93716365px"
           id="path168"
           inkscape:connector-curvature="0" />
      </g>
      <g
         aria-label="16"
         transform="matrix(0.97199218,0,0,1.0228232,12.713043,19.171052)"
         style="font-style:normal;font-variant:normal;font-weight:normal;font-stretch:normal;font-size:7.66842079px;line-height:125%;font-family:Roboto;-inkscape-font-specification:'Roboto, Normal';font-variant-ligatures:normal;font-variant-caps:normal;font-variant-numeric:normal;font-feature-settings:normal;text-align:start;letter-spacing:0px;word-spacing:0px;writing-mode:lr-tb;text-anchor:start;fill:#000000;fill-opacity:1;stroke:none;stroke-width:0.93716365px;stroke-linecap:butt;stroke-linejoin:miter;stroke-opacity:1"
         id="text159">
        <path
           d="m -105.58677,151.06871 h -0.69645 v -4.61678 l -1.39664,0.51298 v -0.62905 l 1.9845,-0.74513 h 0.10859 z"
           style="font-style:normal;font-variant:normal;font-weight:normal;font-stretch:normal;font-size:7.66842079px;font-family:Roboto;-inkscape-font-specification:'Roboto, Normal';font-variant-ligatures:normal;font-variant-caps:normal;font-variant-numeric:normal;font-feature-settings:normal;text-align:start;writing-mode:lr-tb;text-anchor:start;stroke-width:0.93716365px"
           id="path161"
           inkscape:connector-curvature="0" />
        <path
           d="m -100.83145,145.6132 v 0.58786 h -0.12731 q -0.80878,0.015 -1.28805,0.47928 -0.47928,0.4643 -0.55417,1.30677 0.4306,-0.49425 1.17573,-0.49425 0.71142,0 1.13453,0.50174 0.42686,0.50174 0.42686,1.29555 0,0.84247 -0.46055,1.34796 -0.45681,0.50549 -1.22815,0.50549 -0.78257,0 -1.26933,-0.5991 -0.48677,-0.60284 -0.48677,-1.55016 v -0.26585 q 0,-1.50522 0.64028,-2.29902 0.64403,-0.79755 1.91337,-0.81627 z m -0.90988,2.45629 q -0.35571,0 -0.65526,0.21343 -0.29955,0.21342 -0.41562,0.53544 v 0.25461 q 0,0.67399 0.30329,1.08586 0.30329,0.41188 0.75636,0.41188 0.46804,0 0.73389,-0.34448 0.26959,-0.34448 0.26959,-0.90238 0,-0.56166 -0.27333,-0.90614 -0.2696,-0.34822 -0.71892,-0.34822 z"
           style="font-style:normal;font-variant:normal;font-weight:normal;font-stretch:normal;font-size:7.66842079px;font-family:Roboto;-inkscape-font-specification:'Roboto, Normal';font-variant-ligatures:normal;font-variant-caps:normal;font-variant-numeric:normal;font-feature-settings:normal;text-align:start;writing-mode:lr-tb;text-anchor:start;stroke-width:0.93716365px"
           id="path163"
           inkscape:connector-curvature="0" />
      </g>
    </g>
    <g
       aria-label="L"
       style="font-style:normal;font-weight:normal;font-size:3.17499995px;line-height:125%;font-family:Sans;letter-spacing:0px;word-spacing:0px;fill:#000000;fill-opacity:1;stroke:none;stroke-width:0.26458332px;stroke-linecap:butt;stroke-linejoin:miter;stroke-opacity:1"
       id="text972"
       transform="translate(3.1750001)">
      <path
         d="m 88.179172,146.68795 h 1.069702 v 0.2434 h -1.368909 v -2.25723 h 0.299207 z"
         style="font-style:normal;font-variant:normal;font-weight:normal;font-stretch:normal;font-size:3.17499995px;font-family:Roboto;-inkscape-font-specification:'Roboto, Normal';font-variant-ligatures:normal;font-variant-caps:normal;font-variant-numeric:normal;font-feature-settings:normal;text-align:start;writing-mode:lr-tb;text-anchor:start;stroke-width:0.26458332px"
         id="path989"
         inkscape:connector-curvature="0" />
    </g>
    <g
       aria-label="P"
       style="font-style:normal;font-weight:normal;font-size:3.17499995px;line-height:125%;font-family:Sans;letter-spacing:0px;word-spacing:0px;fill:#000000;fill-opacity:1;stroke:none;stroke-width:0.26458332px;stroke-linecap:butt;stroke-linejoin:miter;stroke-opacity:1"
       id="text984"
       transform="translate(3.1750001)">
      <path
         d="m 93.469293,146.04768 v 0.88367 h -0.297656 v -2.25723 h 0.832507 q 0.37052,0 0.57981,0.18914 0.21084,0.18914 0.21084,0.50074 0,0.32867 -0.206189,0.50695 -0.204639,0.17673 -0.587561,0.17673 z m 0,-0.24339 h 0.534851 q 0.238745,0 0.365869,-0.11162 0.127124,-0.11317 0.127124,-0.32556 0,-0.20154 -0.127124,-0.32247 -0.127124,-0.12092 -0.348816,-0.12557 h -0.551904 z"
         style="font-style:normal;font-variant:normal;font-weight:normal;font-stretch:normal;font-size:3.17499995px;font-family:Roboto;-inkscape-font-specification:'Roboto, Normal';font-variant-ligatures:normal;font-variant-caps:normal;font-variant-numeric:normal;font-feature-settings:normal;text-align:start;writing-mode:lr-tb;text-anchor:start;stroke-width:0.26458332px"
         id="path986"
         inkscape:connector-curvature="0" />
    </g>
    <g
       aria-label="C"
       style="font-style:normal;font-weight:normal;font-size:3.17499995px;line-height:125%;font-family:Sans;letter-spacing:0px;word-spacing:0px;fill:#000000;fill-opacity:1;stroke:none;stroke-width:0.26458332px;stroke-linecap:butt;stroke-linejoin:miter;stroke-opacity:1"
       id="text976">
      <path
         d="m -31.401611,146.21512 q -0.04186,0.35811 -0.2651,0.55345 -0.221692,0.19379 -0.590662,0.19379 -0.399976,0 -0.641821,-0.28681 -0.240296,-0.2868 -0.240296,-0.76739 v -0.21704 q 0,-0.31471 0.111621,-0.55346 0.113172,-0.23874 0.319361,-0.36587 0.206189,-0.12867 0.47749,-0.12867 0.359668,0 0.576709,0.20154 0.217041,0.19998 0.252698,0.555 h -0.299207 q -0.03876,-0.26975 -0.168982,-0.39067 -0.128674,-0.12093 -0.361218,-0.12093 -0.285254,0 -0.448035,0.21084 -0.16123,0.21084 -0.16123,0.59997 v 0.21859 q 0,0.36742 0.153479,0.58446 0.153479,0.21704 0.429431,0.21704 0.248047,0 0.379822,-0.11162 0.133325,-0.11317 0.176733,-0.39222 z"
         style="font-style:normal;font-variant:normal;font-weight:normal;font-stretch:normal;font-size:3.17499995px;font-family:Roboto;-inkscape-font-specification:'Roboto, Normal';font-variant-ligatures:normal;font-variant-caps:normal;font-variant-numeric:normal;font-feature-settings:normal;text-align:start;writing-mode:lr-tb;text-anchor:start;stroke-width:0.26458332px"
         id="path982"
         inkscape:connector-curvature="0" />
    </g>
    <g
       aria-label="P"
       style="font-style:normal;font-weight:normal;font-size:3.17499995px;line-height:125%;font-family:Sans;letter-spacing:0px;word-spacing:0px;fill:#000000;fill-opacity:1;stroke:none;stroke-width:0.26458332px;stroke-linecap:butt;stroke-linejoin:miter;stroke-opacity:1"
       id="text980">
      <path
         d="m -25.885146,146.04768 v 0.88367 h -0.297656 v -2.25723 h 0.832507 q 0.370521,0 0.57981,0.18914 0.21084,0.18914 0.21084,0.50074 0,0.32867 -0.206189,0.50695 -0.204639,0.17673 -0.587561,0.17673 z m 0,-0.24339 h 0.534851 q 0.238746,0 0.36587,-0.11162 0.127124,-0.11317 0.127124,-0.32556 0,-0.20154 -0.127124,-0.32247 -0.127124,-0.12092 -0.348816,-0.12557 h -0.551905 z"
         style="font-style:normal;font-variant:normal;font-weight:normal;font-stretch:normal;font-size:3.17499995px;font-family:Roboto;-inkscape-font-specification:'Roboto, Normal';font-variant-ligatures:normal;font-variant-caps:normal;font-variant-numeric:normal;font-feature-settings:normal;text-align:start;writing-mode:lr-tb;text-anchor:start;stroke-width:0.26458332px"
         id="path985"
         inkscape:connector-curvature="0" />
    </g>
  </g>
</svg>
