<?xml version="1.0" encoding="UTF-8" standalone="no"?>
<!-- Created with Inkscape (http://www.inkscape.org/) -->

<svg
   xmlns:dc="http://purl.org/dc/elements/1.1/"
   xmlns:cc="http://creativecommons.org/ns#"
   xmlns:rdf="http://www.w3.org/1999/02/22-rdf-syntax-ns#"
   xmlns:svg="http://www.w3.org/2000/svg"
   xmlns="http://www.w3.org/2000/svg"
   xmlns:sodipodi="http://sodipodi.sourceforge.net/DTD/sodipodi-0.dtd"
   xmlns:inkscape="http://www.inkscape.org/namespaces/inkscape"
   width="330.49908"
   height="380"
   viewBox="0 0 87.444549 100.54166"
   version="1.1"
   id="svg12553"
   inkscape:version="0.92.2 5c3e80d, 2017-08-06"
   sodipodi:docname="SEQ3.svg">
  <defs
     id="defs12547" />
  <sodipodi:namedview
     id="base"
     pagecolor="#ffffff"
     bordercolor="#666666"
     borderopacity="1.0"
     inkscape:pageopacity="0.0"
     inkscape:pageshadow="2"
     inkscape:zoom="2.8"
     inkscape:cx="71.273348"
     inkscape:cy="201.81837"
     inkscape:document-units="mm"
     inkscape:current-layer="layer1"
     showgrid="true"
     fit-margin-top="0"
     fit-margin-left="0"
     fit-margin-right="0"
     fit-margin-bottom="0"
     units="px"
     inkscape:window-width="1898"
     inkscape:window-height="1026"
     inkscape:window-x="10"
     inkscape:window-y="42"
     inkscape:window-maximized="0"
     inkscape:snap-grids="false">
    <inkscape:grid
       type="xygrid"
       id="grid12870"
       originx="-20.372917"
       originy="84.666661" />
  </sodipodi:namedview>
  <metadata
     id="metadata12550">
    <rdf:RDF>
      <cc:Work
         rdf:about="">
        <dc:format>image/svg+xml</dc:format>
        <dc:type
           rdf:resource="http://purl.org/dc/dcmitype/StillImage" />
        <dc:title />
      </cc:Work>
    </rdf:RDF>
  </metadata>
  <g
     inkscape:label="Layer 1"
     inkscape:groupmode="layer"
     id="layer1"
     transform="translate(-26.543497,-161.30655)"
     style="display:inline;opacity:1">
    <path
       inkscape:connector-curvature="0"
       id="path33453"
       d="m 26.616839,161.37987 h 87.297891 v 100.3961 H 26.616839 Z m 0,0"
       style="fill:#e6e6e6;fill-opacity:1;fill-rule:nonzero;stroke:none;stroke-width:0.27602378" />
    <path
       style="fill:#000000;fill-opacity:1;stroke:none;stroke-width:0.27602378"
       d="m 31.305999,165.27597 c 0.500274,0 0.84963,-0.25877 0.84963,-0.72025 v -0.009 c 0,-0.40109 -0.263102,-0.5693 -0.733187,-0.69437 -0.401108,-0.10351 -0.500301,-0.15095 -0.500301,-0.3019 v -0.009 c 0,-0.11213 0.09919,-0.20271 0.297577,-0.20271 0.159597,0 0.319167,0.0561 0.487363,0.15527 0.03881,0.0259 0.07763,0.0388 0.129381,0.0388 0.129408,0 0.237225,-0.10351 0.237225,-0.23721 0,-0.0992 -0.05606,-0.1682 -0.11213,-0.2027 -0.211349,-0.12939 -0.452861,-0.20271 -0.737526,-0.20271 -0.474398,0 -0.810816,0.27602 -0.810816,0.69869 v 0.004 c 0,0.46147 0.301916,0.59086 0.767689,0.71162 0.38817,0.0992 0.470111,0.16389 0.470111,0.29327 v 0.009 c 0,0.1337 -0.129381,0.21565 -0.336391,0.21565 -0.224287,0 -0.418359,-0.0776 -0.590867,-0.20702 -0.0345,-0.0259 -0.08194,-0.0474 -0.146632,-0.0474 -0.133721,0 -0.241538,0.10351 -0.241538,0.23721 0,0.0776 0.04313,0.15095 0.09919,0.18976 0.258789,0.18546 0.564991,0.28034 0.87122,0.28034 z m 0,0"
       id="path7611"
       inkscape:connector-curvature="0" />
    <path
       style="fill:#000000;fill-opacity:1;stroke:none;stroke-width:0.27602378"
       d="m 32.891329,165.24147 h 1.298178 c 0.129382,0 0.228574,-0.0992 0.228574,-0.22427 0,-0.12507 -0.09919,-0.22858 -0.228574,-0.22858 h -1.048041 v -0.48736 h 0.884132 c 0.125095,0 0.2286,-0.0992 0.2286,-0.22427 0,-0.12938 -0.103505,-0.22858 -0.2286,-0.22858 h -0.884132 v -0.4701 h 1.035103 c 0.125069,0 0.228574,-0.0992 0.228574,-0.22858 0,-0.12508 -0.103505,-0.22859 -0.228574,-0.22859 h -1.28524 c -0.142319,0 -0.254476,0.11645 -0.254476,0.25878 v 1.80709 c 0,0.14232 0.112157,0.25446 0.254476,0.25446 z m 0,0"
       id="path7607"
       inkscape:connector-curvature="0" />
    <path
       style="fill:#000000;fill-opacity:1;stroke:none;stroke-width:0.27602378"
       d="m 35.958564,165.28028 c 0.258763,0 0.491676,-0.0733 0.685748,-0.19839 l 0.129381,0.11214 c 0.03881,0.0388 0.09919,0.069 0.168195,0.069 0.129408,0 0.237226,-0.10782 0.237226,-0.24152 0,-0.082 -0.03881,-0.14233 -0.09057,-0.18977 l -0.103532,-0.0819 c 0.129408,-0.19408 0.207037,-0.42266 0.207037,-0.6685 v -0.004 c 0,-0.65986 -0.513239,-1.19466 -1.229175,-1.19466 -0.715936,0 -1.233487,0.53911 -1.233487,1.19898 v 0.009 c 0,0.65987 0.513238,1.19035 1.229174,1.19035 z m 0.069,-0.7375 0.241511,0.20702 c -0.09057,0.0431 -0.194071,0.0604 -0.306202,0.0604 -0.409734,0 -0.702998,-0.33209 -0.702998,-0.72887 v -0.004 c 0,-0.39679 0.284639,-0.72457 0.698685,-0.72457 0.409734,0 0.698686,0.3321 0.698686,0.72888 v 0.009 c 0,0.11645 -0.0217,0.22427 -0.06038,0.31484 l -0.25445,-0.22858 c -0.05609,-0.0431 -0.09922,-0.069 -0.168222,-0.069 -0.133694,0 -0.241512,0.11213 -0.241512,0.24152 0,0.0863 0.03881,0.14664 0.09488,0.19408 z m 0,0"
       id="path7603"
       inkscape:connector-curvature="0" />
    <path
       style="fill:#000000;fill-opacity:1;stroke:none;stroke-width:0.27602378"
       d="m 37.877773,164.45653 h 0.57359 c 0.13372,0 0.245851,-0.10783 0.245851,-0.24152 0,-0.1337 -0.112131,-0.24153 -0.245851,-0.24153 h -0.57359 c -0.133721,0 -0.241539,0.10783 -0.241539,0.24153 0,0.13369 0.107818,0.24152 0.241539,0.24152 z m 0,0"
       id="path7599"
       inkscape:connector-curvature="0" />
    <path
       style="fill:#000000;fill-opacity:1;stroke:none;stroke-width:0.27602378"
       d="m 39.803833,165.28028 c 0.517552,0 0.832406,-0.31915 0.832406,-0.75906 v -0.004 c 0,-0.43129 -0.306229,-0.59518 -0.621056,-0.65124 l 0.452834,-0.43129 c 0.09491,-0.0906 0.155284,-0.15958 0.155284,-0.28465 0,-0.14233 -0.112157,-0.22858 -0.258789,-0.22858 h -1.129956 c -0.120782,0 -0.219975,0.0992 -0.219975,0.21995 0,0.12076 0.09919,0.21996 0.219975,0.21996 h 0.711623 l -0.452861,0.45285 c -0.07763,0.0776 -0.107817,0.13801 -0.107817,0.20702 0,0.12076 0.09919,0.21996 0.219948,0.21996 h 0.07763 c 0.284665,0 0.45286,0.10782 0.45286,0.29327 v 0.009 c 0,0.17252 -0.133694,0.28034 -0.327792,0.28034 -0.181134,0 -0.31914,-0.0604 -0.452834,-0.17252 -0.03881,-0.0302 -0.09057,-0.0604 -0.15957,-0.0604 -0.133721,0 -0.245851,0.11214 -0.245851,0.24584 0,0.069 0.03881,0.14232 0.08625,0.18114 0.185473,0.15957 0.43561,0.26308 0.767688,0.26308 z m 0,0"
       id="path7595"
       inkscape:connector-curvature="0" />
    <path
       inkscape:connector-curvature="0"
       id="path35483"
       d="M 31.535655,201.88078 H 108.99592"
       style="fill:none;stroke:#000000;stroke-width:0.18383184;stroke-linecap:round;stroke-linejoin:round;stroke-miterlimit:10;stroke-opacity:1" />
    <path
       inkscape:connector-curvature="0"
       id="path35723"
       d="M 31.305997,252.48497 H 109.35808"
       style="fill:none;stroke:#000000;stroke-width:0.2867488;stroke-linecap:round;stroke-linejoin:round;stroke-miterlimit:10;stroke-opacity:1" />
    <path
       inkscape:connector-curvature="0"
       id="path35809"
       d="m 49.914977,179.80454 v 17.26967"
       style="fill:none;stroke:#000000;stroke-width:0.23257209;stroke-linecap:round;stroke-linejoin:round;stroke-miterlimit:10;stroke-opacity:1" />
    <path
       style="fill:#000000;fill-opacity:1;stroke:none;stroke-width:0.27602378"
       d="m 34.621094,206.18581 c 0,0.0776 0.06038,0.13802 0.133694,0.13802 0.07763,0 0.138007,-0.0604 0.138007,-0.13802 v -1.3068 c 0,-0.0733 -0.06038,-0.1337 -0.138007,-0.1337 h -0.0042 c -0.03881,0 -0.07763,0.009 -0.129382,0.0259 l -0.237225,0.0733 c -0.05175,0.0173 -0.09057,0.0604 -0.09057,0.11645 0,0.0647 0.05606,0.11644 0.120756,0.11644 0.01296,0 0.0345,-0.004 0.04744,-0.009 l 0.159596,-0.0474 z m 0,0"
       id="path7275"
       inkscape:connector-curvature="0" />
    <path
       style="fill:#000000;fill-opacity:1;stroke:none;stroke-width:0.27602378"
       d="m 44.255949,206.1815 c 0,0.0819 0.06038,0.12939 0.146632,0.12939 h 0.875533 c 0.06469,0 0.120756,-0.0518 0.120756,-0.12077 0,-0.0647 -0.05607,-0.11644 -0.120756,-0.11644 h -0.625369 l 0.314827,-0.2674 c 0.27604,-0.21996 0.405421,-0.35365 0.405421,-0.59518 v -0.009 c 0,-0.27603 -0.211349,-0.46148 -0.513238,-0.46148 -0.241512,0 -0.383858,0.0949 -0.508926,0.25015 -0.0217,0.0259 -0.0345,0.0561 -0.0345,0.0862 0,0.069 0.05607,0.12076 0.125068,0.12076 0.04313,0 0.07334,-0.0173 0.09491,-0.0388 0.09488,-0.11645 0.181134,-0.17252 0.306203,-0.17252 0.138006,0 0.250137,0.0863 0.250137,0.24152 0,0.13801 -0.07763,0.23721 -0.293264,0.41404 l -0.474425,0.40541 c -0.04313,0.0388 -0.069,0.0819 -0.069,0.1337 z m 0,0"
       id="path7271"
       inkscape:connector-curvature="0" />
    <path
       style="fill:#000000;fill-opacity:1;stroke:none;stroke-width:0.27602378"
       d="m 55.013325,206.33676 c 0.323453,0 0.543428,-0.2027 0.543428,-0.49167 v -0.004 c 0,-0.28465 -0.224287,-0.40109 -0.457174,-0.43129 l 0.366607,-0.37521 c 0.04313,-0.0474 0.07763,-0.0863 0.07763,-0.15095 0,-0.0733 -0.06038,-0.11645 -0.138007,-0.11645 h -0.789278 c -0.06469,0 -0.120756,0.0517 -0.120756,0.11645 0,0.0647 0.05606,0.11644 0.120756,0.11644 h 0.560678 l -0.362267,0.38816 c -0.04313,0.0431 -0.05607,0.0733 -0.05607,0.11214 0,0.0604 0.05175,0.11644 0.116444,0.11644 h 0.05607 c 0.215635,0 0.353642,0.0863 0.353642,0.23721 v 0.004 c 0,0.14233 -0.112131,0.2329 -0.267388,0.2329 -0.142319,0 -0.25445,-0.0474 -0.349356,-0.14664 -0.0217,-0.0216 -0.05175,-0.0345 -0.09057,-0.0345 -0.07332,0 -0.129381,0.0604 -0.129381,0.12938 0,0.0388 0.0172,0.0776 0.04313,0.0992 0.125069,0.12076 0.293291,0.19839 0.521864,0.19839 z m 0,0"
       id="path7267"
       inkscape:connector-curvature="0" />
    <path
       style="fill:#000000;fill-opacity:1;stroke:none;stroke-width:0.27602378"
       d="m 65.337817,206.19444 c 0,0.0733 0.05606,0.12939 0.129381,0.12939 0.07334,0 0.129408,-0.0561 0.129408,-0.12939 v -0.22859 h 0.120755 c 0.06469,0 0.112131,-0.0517 0.112131,-0.11213 0,-0.0604 -0.04744,-0.11213 -0.112131,-0.11213 h -0.120755 v -0.86689 c 0,-0.0733 -0.05607,-0.1337 -0.129408,-0.1337 -0.08194,0 -0.116443,0.0345 -0.168196,0.0906 l -0.724561,0.86257 c -0.03881,0.0431 -0.06038,0.0906 -0.06038,0.14233 0,0.0733 0.06038,0.12938 0.133694,0.12938 h 0.69006 z m -0.5089,-0.45285 0.5089,-0.61243 v 0.61243 z m 0,0"
       id="path7263"
       inkscape:connector-curvature="0" />
    <path
       style="fill:#000000;fill-opacity:1;stroke:none;stroke-width:0.27602378"
       d="m 75.346422,206.33676 c 0.327766,0 0.564991,-0.20702 0.564991,-0.52186 v -0.004 c 0,-0.32778 -0.237225,-0.48735 -0.539115,-0.48735 -0.103505,0 -0.172508,0.0173 -0.245824,0.0431 l 0.02593,-0.36228 h 0.57793 c 0.069,0 0.120755,-0.0517 0.120755,-0.11644 0,-0.069 -0.05175,-0.12076 -0.120755,-0.12076 h -0.698687 c -0.06472,0 -0.120782,0.0474 -0.125095,0.12076 l -0.03019,0.55636 c -0.0042,0.0517 0.01297,0.0906 0.05175,0.11644 0.05175,0.0388 0.08625,0.0561 0.129408,0.0561 0.03881,0 0.11213,-0.0561 0.263075,-0.0561 0.189759,0 0.31914,0.0992 0.31914,0.25878 v 0.004 c 0,0.16389 -0.125068,0.2674 -0.297577,0.2674 -0.120756,0 -0.232886,-0.0431 -0.336417,-0.12939 -0.0217,-0.0216 -0.04744,-0.0302 -0.08194,-0.0302 -0.069,0 -0.129381,0.0604 -0.129381,0.1337 0,0.0431 0.0217,0.0776 0.05606,0.10351 0.125069,0.0992 0.284665,0.1682 0.495988,0.1682 z m 0,0"
       id="path7259"
       inkscape:connector-curvature="0" />
    <path
       style="fill:#000000;fill-opacity:1;stroke:none;stroke-width:0.27602378"
       d="m 85.546692,206.33676 c 0.323479,0 0.573616,-0.21996 0.573616,-0.52617 v -0.004 c 0,-0.30622 -0.241511,-0.48304 -0.539115,-0.48304 -0.185446,0 -0.288951,0.0733 -0.370893,0.15095 0.01296,-0.28034 0.138007,-0.48736 0.370893,-0.48736 0.103505,0 0.181134,0.0302 0.263076,0.0863 0.0217,0.009 0.04315,0.0172 0.06903,0.0172 0.069,0 0.129382,-0.0517 0.129382,-0.12507 0,-0.0561 -0.02593,-0.0906 -0.069,-0.11645 -0.09919,-0.069 -0.224287,-0.11214 -0.383857,-0.11214 -0.439923,0 -0.664184,0.37091 -0.664184,0.84533 v 0.004 c 0,0.31053 0.07332,0.4701 0.189759,0.58655 0.103532,0.10351 0.241539,0.16389 0.431298,0.16389 z m -0.0087,-0.23721 c -0.194071,0 -0.31914,-0.11644 -0.31914,-0.27602 v -0.004 c 0,-0.14664 0.120756,-0.27171 0.310515,-0.27171 0.194072,0 0.31914,0.11644 0.31914,0.27171 v 0.004 c 0,0.15958 -0.116443,0.27602 -0.310515,0.27602 z m 0,0"
       id="path7255"
       inkscape:connector-curvature="0" />
    <path
       style="fill:#000000;fill-opacity:1;stroke:none;stroke-width:0.27602378"
       d="m 95.326406,206.19875 c 0,0.0776 0.06903,0.12508 0.138033,0.12508 0.05607,0 0.09919,-0.0302 0.133694,-0.0906 l 0.638307,-1.21624 c 0.0217,-0.0431 0.03881,-0.0906 0.03881,-0.12938 0,-0.0776 -0.04744,-0.12076 -0.125069,-0.12076 h -0.866907 c -0.06469,0 -0.120756,0.0517 -0.120756,0.11645 0,0.069 0.05606,0.12076 0.120756,0.12076 h 0.668496 l -0.599493,1.11272 c -0.01296,0.0259 -0.02593,0.0604 -0.02593,0.0819 z m 0,0"
       id="path7251"
       inkscape:connector-curvature="0" />
    <path
       style="fill:#000000;fill-opacity:1;stroke:none;stroke-width:0.27602378"
       d="m 105.8677,206.33245 c 0.3407,0 0.59086,-0.17252 0.59086,-0.44854 v -0.004 c 0,-0.18114 -0.10781,-0.29328 -0.28035,-0.37091 0.13372,-0.069 0.2286,-0.17251 0.2286,-0.34503 v -0.004 c 0,-0.23721 -0.2286,-0.41835 -0.53911,-0.41835 -0.30621,0 -0.53481,0.18114 -0.53481,0.41835 v 0.004 c 0,0.17252 0.0949,0.27603 0.22429,0.34503 -0.17253,0.0733 -0.27604,0.18977 -0.27604,0.37522 v 0.004 c 0,0.2674 0.25017,0.44423 0.58656,0.44423 z m 0,-0.91433 c -0.15957,0 -0.27602,-0.0949 -0.27602,-0.22858 v -0.004 c 0,-0.11645 0.11213,-0.21565 0.27602,-0.21565 0.16819,0 0.27601,0.0992 0.27601,0.21565 v 0.004 c 0,0.1337 -0.11644,0.22858 -0.27601,0.22858 z m 0,0.68575 c -0.2027,0 -0.31914,-0.10351 -0.31914,-0.22859 v -0.004 c 0,-0.14232 0.138,-0.2372 0.31914,-0.2372 0.18544,0 0.32776,0.0949 0.32776,0.2372 v 0.004 c 0,0.12508 -0.12507,0.22859 -0.32776,0.22859 z m 0,0"
       id="path7247"
       inkscape:connector-curvature="0" />
    <text
       xml:space="preserve"
       style="font-style:normal;font-weight:normal;font-size:3.17499995px;line-height:125%;font-family:Sans;letter-spacing:0px;word-spacing:0px;fill:#000000;fill-opacity:1;stroke:none;stroke-width:0.26458332px;stroke-linecap:butt;stroke-linejoin:miter;stroke-opacity:1"
       x="150.3685"
       y="173.2128"
       id="text92"><tspan
         sodipodi:role="line"
         id="tspan90"
         x="150.3685"
         y="176.02193"
         style="stroke-width:0.26458332px" /></text>
    <g
       aria-label="Steps"
       style="font-style:normal;font-variant:normal;font-weight:normal;font-stretch:normal;font-size:2.82222223px;line-height:125%;font-family:Roboto;-inkscape-font-specification:'Roboto, Normal';font-variant-ligatures:normal;font-variant-caps:normal;font-variant-numeric:normal;font-feature-settings:normal;text-align:start;letter-spacing:0px;word-spacing:0px;writing-mode:lr-tb;text-anchor:start;fill:#000000;fill-opacity:1;stroke:none;stroke-width:0.26458332px;stroke-linecap:butt;stroke-linejoin:miter;stroke-opacity:1"
       id="text144"
       transform="translate(-8.9958338,2.1166667)">
      <path
         d="m 64.144646,171.78929 q -0.340375,-0.0978 -0.496093,-0.23978 -0.154341,-0.14331 -0.154341,-0.35277 0,-0.23703 0.188792,-0.39137 0.190169,-0.15571 0.493337,-0.15571 0.206706,0 0.367936,0.0799 0.162609,0.0799 0.250803,0.22049 0.08957,0.14056 0.08957,0.3073 h -0.265961 q 0,-0.1819 -0.115756,-0.28525 -0.115755,-0.10473 -0.326595,-0.10473 -0.195681,0 -0.305924,0.0868 -0.108865,0.0854 -0.108865,0.2384 0,0.12265 0.103353,0.20809 0.104731,0.0841 0.354155,0.15434 0.250803,0.0703 0.391363,0.15571 0.141938,0.0841 0.209462,0.19706 0.0689,0.113 0.0689,0.26597 0,0.24391 -0.190169,0.39136 -0.19017,0.14607 -0.508496,0.14607 -0.206706,0 -0.385851,-0.0785 -0.179145,-0.0799 -0.276986,-0.21773 -0.09646,-0.1378 -0.09646,-0.31281 h 0.265961 q 0,0.1819 0.13367,0.28801 0.135047,0.10473 0.359668,0.10473 0.209461,0 0.321083,-0.0854 0.111621,-0.0854 0.111621,-0.23289 0,-0.14745 -0.103353,-0.22737 -0.103353,-0.0813 -0.374827,-0.15986 z"
         style="font-style:normal;font-variant:normal;font-weight:normal;font-stretch:normal;font-size:2.82222223px;font-family:Roboto;-inkscape-font-specification:'Roboto, Normal';font-variant-ligatures:normal;font-variant-caps:normal;font-variant-numeric:normal;font-feature-settings:normal;text-align:start;writing-mode:lr-tb;text-anchor:start;stroke-width:0.26458332px"
         id="path195"
         inkscape:connector-curvature="0" />
      <path
         d="m 65.535087,170.83156 v 0.36104 h 0.278364 v 0.19706 h -0.278364 v 0.92467 q 0,0.0896 0.03721,0.13504 0.03721,0.0441 0.126779,0.0441 0.0441,0 0.121268,-0.0165 v 0.20671 q -0.100597,0.0276 -0.195682,0.0276 -0.170876,0 -0.257693,-0.10335 -0.08682,-0.10336 -0.08682,-0.29352 v -0.92467 h -0.271474 v -0.19706 h 0.271474 v -0.36104 z"
         style="font-style:normal;font-variant:normal;font-weight:normal;font-stretch:normal;font-size:2.82222223px;font-family:Roboto;-inkscape-font-specification:'Roboto, Normal';font-variant-ligatures:normal;font-variant-caps:normal;font-variant-numeric:normal;font-feature-settings:normal;text-align:start;writing-mode:lr-tb;text-anchor:start;stroke-width:0.26458332px"
         id="path197"
         inkscape:connector-curvature="0" />
      <path
         d="m 66.728468,172.7112 q -0.303168,0 -0.493338,-0.19844 -0.190169,-0.19981 -0.190169,-0.5333 v -0.0468 q 0,-0.22187 0.08406,-0.3955 0.08544,-0.17501 0.237023,-0.27285 0.152962,-0.0992 0.330729,-0.0992 0.290766,0 0.451997,0.19155 0.16123,0.19155 0.16123,0.54846 v 0.10611 h -1.010102 q 0.0055,0.22048 0.128158,0.35691 0.124023,0.13505 0.314192,0.13505 0.135048,0 0.228755,-0.0551 0.09371,-0.0551 0.163986,-0.14607 l 0.155719,0.12127 q -0.187414,0.28801 -0.56224,0.28801 z m -0.0317,-1.3367 q -0.15434,0 -0.259071,0.113 -0.104731,0.11162 -0.129536,0.3142 h 0.746897 v -0.0193 q -0.01102,-0.1943 -0.104731,-0.30041 -0.09371,-0.10749 -0.253559,-0.10749 z"
         style="font-style:normal;font-variant:normal;font-weight:normal;font-stretch:normal;font-size:2.82222223px;font-family:Roboto;-inkscape-font-specification:'Roboto, Normal';font-variant-ligatures:normal;font-variant-caps:normal;font-variant-numeric:normal;font-feature-settings:normal;text-align:start;writing-mode:lr-tb;text-anchor:start;stroke-width:0.26458332px"
         id="path199"
         inkscape:connector-curvature="0" />
      <path
         d="m 68.863049,171.95466 q 0,0.34037 -0.155718,0.54846 -0.155719,0.20808 -0.42168,0.20808 -0.271473,0 -0.427192,-0.17225 v 0.71795 h -0.254937 v -2.0643 h 0.232889 l 0.0124,0.16537 q 0.155718,-0.19293 0.432704,-0.19293 0.268717,0 0.424436,0.20257 0.157096,0.20257 0.157096,0.56362 z m -0.254937,-0.0289 q 0,-0.25218 -0.107487,-0.39825 -0.107487,-0.14608 -0.2949,-0.14608 -0.231511,0 -0.347266,0.20533 v 0.71245 q 0.114377,0.20395 0.350022,0.20395 0.183279,0 0.290766,-0.1447 0.108865,-0.14607 0.108865,-0.4327 z"
         style="font-style:normal;font-variant:normal;font-weight:normal;font-stretch:normal;font-size:2.82222223px;font-family:Roboto;-inkscape-font-specification:'Roboto, Normal';font-variant-ligatures:normal;font-variant-caps:normal;font-variant-numeric:normal;font-feature-settings:normal;text-align:start;writing-mode:lr-tb;text-anchor:start;stroke-width:0.26458332px"
         id="path201"
         inkscape:connector-curvature="0" />
      <path
         d="m 70.053674,172.28814 q 0,-0.10335 -0.07855,-0.15985 -0.07717,-0.0579 -0.271474,-0.0992 -0.192925,-0.0413 -0.307302,-0.0992 -0.112999,-0.0579 -0.168121,-0.1378 -0.05374,-0.0799 -0.05374,-0.19017 0,-0.18328 0.15434,-0.31006 0.155718,-0.12678 0.396875,-0.12678 0.253559,0 0.410655,0.13092 0.158475,0.13091 0.158475,0.33486 h -0.256315 q 0,-0.10473 -0.08957,-0.18052 -0.08819,-0.0758 -0.223242,-0.0758 -0.139182,0 -0.21773,0.0606 -0.07855,0.0606 -0.07855,0.15847 0,0.0923 0.07304,0.13918 0.07304,0.0469 0.263205,0.0896 0.191547,0.0427 0.310059,0.10197 0.118511,0.0593 0.175011,0.14332 0.05788,0.0827 0.05788,0.20257 0,0.19981 -0.159852,0.32108 -0.159853,0.11989 -0.41479,0.11989 -0.179145,0 -0.316949,-0.0634 -0.137803,-0.0634 -0.216352,-0.17639 -0.07717,-0.11438 -0.07717,-0.24667 h 0.254937 q 0.0069,0.12816 0.101975,0.20395 0.09646,0.0744 0.253559,0.0744 0.144694,0 0.231511,-0.0579 0.08819,-0.0593 0.08819,-0.1571 z"
         style="font-style:normal;font-variant:normal;font-weight:normal;font-stretch:normal;font-size:2.82222223px;font-family:Roboto;-inkscape-font-specification:'Roboto, Normal';font-variant-ligatures:normal;font-variant-caps:normal;font-variant-numeric:normal;font-feature-settings:normal;text-align:start;writing-mode:lr-tb;text-anchor:start;stroke-width:0.26458332px"
         id="path203"
         inkscape:connector-curvature="0" />
    </g>
    <rect
       style="opacity:1;fill:#000000;fill-opacity:1;stroke:#000000;stroke-width:0.28466856;stroke-linecap:square;stroke-miterlimit:4;stroke-dasharray:none;stroke-dashoffset:0;stroke-opacity:0.98999999"
       id="rect73"
       width="38.366405"
       height="7.6566005"
       x="70.9935"
       y="253.52576"
       ry="1.531322" />
    <g
       aria-label="Range"
       style="font-style:normal;font-weight:normal;font-size:3.17499995px;line-height:125%;font-family:Sans;letter-spacing:0px;word-spacing:0px;fill:#000000;fill-opacity:1;stroke:none;stroke-width:0.26458332px;stroke-linecap:butt;stroke-linejoin:miter;stroke-opacity:1"
       id="text133"
       transform="translate(-7.9375004)">
      <path
         d="m 60.694874,185.58914 h -0.353466 v 0.60875 h -0.199472 v -1.50482 h 0.498161 q 0.254248,0 0.390674,0.11576 0.137459,0.11575 0.137459,0.33693 0,0.14056 -0.07648,0.24495 -0.07545,0.10438 -0.21084,0.15606 l 0.353467,0.63872 v 0.0124 H 61.02147 Z m -0.353466,-0.16226 h 0.30489 q 0.147795,0 0.234611,-0.0765 0.08785,-0.0765 0.08785,-0.20464 0,-0.13953 -0.08371,-0.21394 -0.08268,-0.0744 -0.239779,-0.0754 h -0.303857 z"
         style="font-style:normal;font-variant:normal;font-weight:normal;font-stretch:normal;font-size:2.11666656px;font-family:Roboto;-inkscape-font-specification:'Roboto, Normal';font-variant-ligatures:normal;font-variant-caps:normal;font-variant-numeric:normal;font-feature-settings:normal;text-align:start;writing-mode:lr-tb;text-anchor:start;stroke-width:0.26458332px"
         id="path153"
         inkscape:connector-curvature="0" />
      <path
         d="m 62.105641,186.19789 q -0.01654,-0.0331 -0.02687,-0.11782 -0.133325,0.13849 -0.318327,0.13849 -0.165364,0 -0.271818,-0.093 -0.10542,-0.0941 -0.10542,-0.23771 0,-0.17466 0.132292,-0.27078 0.133325,-0.0971 0.374137,-0.0971 h 0.186035 v -0.0879 q 0,-0.10026 -0.05994,-0.15917 -0.05994,-0.0599 -0.176734,-0.0599 -0.102319,0 -0.171565,0.0517 -0.06925,0.0517 -0.06925,0.12506 h -0.192236 q 0,-0.0837 0.05891,-0.16123 0.05994,-0.0786 0.16123,-0.12402 0.10232,-0.0455 0.224276,-0.0455 0.19327,0 0.302824,0.0971 0.109554,0.0961 0.113688,0.26562 v 0.5147 q 0,0.15399 0.03927,0.24494 v 0.0165 z m -0.317294,-0.14573 q 0.08992,0 0.170533,-0.0465 0.08062,-0.0465 0.116788,-0.12092 v -0.22944 h -0.149861 q -0.3514,0 -0.3514,0.20567 0,0.0899 0.05994,0.14056 0.05994,0.0506 0.153995,0.0506 z"
         style="font-style:normal;font-variant:normal;font-weight:normal;font-stretch:normal;font-size:2.11666656px;font-family:Roboto;-inkscape-font-specification:'Roboto, Normal';font-variant-ligatures:normal;font-variant-caps:normal;font-variant-numeric:normal;font-feature-settings:normal;text-align:start;writing-mode:lr-tb;text-anchor:start;stroke-width:0.26458332px"
         id="path155"
         inkscape:connector-curvature="0" />
      <path
         d="m 62.749529,185.07961 0.0062,0.14056 q 0.128158,-0.16123 0.334864,-0.16123 0.3545,0 0.3576,0.39998 v 0.73897 h -0.191202 v -0.74001 q -10e-4,-0.12092 -0.05581,-0.1788 -0.05374,-0.0579 -0.168465,-0.0579 -0.09302,0 -0.163298,0.0496 -0.07028,0.0496 -0.109554,0.13022 v 0.79685 h -0.191202 v -1.11828 z"
         style="font-style:normal;font-variant:normal;font-weight:normal;font-stretch:normal;font-size:2.11666656px;font-family:Roboto;-inkscape-font-specification:'Roboto, Normal';font-variant-ligatures:normal;font-variant-caps:normal;font-variant-numeric:normal;font-feature-settings:normal;text-align:start;writing-mode:lr-tb;text-anchor:start;stroke-width:0.26458332px"
         id="path157"
         inkscape:connector-curvature="0" />
      <path
         d="m 63.693141,185.62945 q 0,-0.26148 0.120923,-0.41548 0.120923,-0.15503 0.320394,-0.15503 0.204638,0 0.31936,0.1447 l 0.0093,-0.12403 h 0.174666 v 1.09141 q 0,0.21704 -0.129191,0.3421 -0.128158,0.12505 -0.345199,0.12505 -0.120922,0 -0.236678,-0.0517 -0.115755,-0.0517 -0.176733,-0.1416 l 0.09922,-0.11472 q 0.12299,0.15193 0.300757,0.15193 0.139526,0 0.217041,-0.0786 0.07855,-0.0785 0.07855,-0.22117 v -0.0961 q -0.114722,0.13229 -0.313159,0.13229 -0.196371,0 -0.318327,-0.15813 -0.120923,-0.15813 -0.120923,-0.43098 z m 0.192236,0.0217 q 0,0.18914 0.07751,0.29766 0.07751,0.10749 0.217041,0.10749 0.180867,0 0.265617,-0.16433 v -0.51057 q -0.08785,-0.16019 -0.26355,-0.16019 -0.139526,0 -0.218075,0.10852 -0.07855,0.10852 -0.07855,0.32142 z"
         style="font-style:normal;font-variant:normal;font-weight:normal;font-stretch:normal;font-size:2.11666656px;font-family:Roboto;-inkscape-font-specification:'Roboto, Normal';font-variant-ligatures:normal;font-variant-caps:normal;font-variant-numeric:normal;font-feature-settings:normal;text-align:start;writing-mode:lr-tb;text-anchor:start;stroke-width:0.26458332px"
         id="path159"
         inkscape:connector-curvature="0" />
      <path
         d="m 65.389161,186.21856 q -0.227376,0 -0.370003,-0.14883 -0.142627,-0.14986 -0.142627,-0.39997 v -0.0351 q 0,-0.1664 0.06305,-0.29662 0.06408,-0.13126 0.177767,-0.20464 0.114722,-0.0744 0.248047,-0.0744 0.218074,0 0.338997,0.14366 0.120923,0.14366 0.120923,0.41135 v 0.0796 h -0.757576 q 0.0041,0.16536 0.09612,0.26768 0.09302,0.10129 0.235644,0.10129 0.101286,0 0.171566,-0.0413 0.07028,-0.0413 0.12299,-0.10956 l 0.116789,0.091 q -0.14056,0.21601 -0.42168,0.21601 z m -0.02377,-1.00252 q -0.115755,0 -0.194304,0.0848 -0.07855,0.0837 -0.09715,0.23564 h 0.560172 v -0.0145 q -0.0083,-0.14572 -0.07855,-0.22531 -0.07028,-0.0806 -0.190169,-0.0806 z"
         style="font-style:normal;font-variant:normal;font-weight:normal;font-stretch:normal;font-size:2.11666656px;font-family:Roboto;-inkscape-font-specification:'Roboto, Normal';font-variant-ligatures:normal;font-variant-caps:normal;font-variant-numeric:normal;font-feature-settings:normal;text-align:start;writing-mode:lr-tb;text-anchor:start;stroke-width:0.26458332px"
         id="path161"
         inkscape:connector-curvature="0" />
    </g>
    <g
       aria-label="Mode"
       style="font-style:normal;font-weight:normal;font-size:3.17499995px;line-height:125%;font-family:Sans;letter-spacing:0px;word-spacing:0px;display:inline;opacity:1;fill:#000000;fill-opacity:1;stroke:none;stroke-width:0.26458332px;stroke-linecap:butt;stroke-linejoin:miter;stroke-opacity:1"
       id="text133-9"
       transform="translate(-7.4083337)">
      <path
         d="m 66.150136,186.5317 0.491959,1.22783 0.49196,-1.22783 h 0.257349 v 1.50481 h -0.198438 v -0.58601 l 0.0186,-0.63252 -0.494027,1.21853 H 66.56561 l -0.492993,-1.21543 0.01964,0.62942 v 0.58601 H 65.89382 v -1.50481 z"
         style="font-style:normal;font-variant:normal;font-weight:normal;font-stretch:normal;font-size:2.11666656px;font-family:Roboto;-inkscape-font-specification:'Roboto, Normal';font-variant-ligatures:normal;font-variant-caps:normal;font-variant-numeric:normal;font-feature-settings:normal;text-align:start;writing-mode:lr-tb;text-anchor:start;stroke-width:0.26458332px"
         id="path164"
         inkscape:connector-curvature="0" />
      <path
         d="m 67.661155,187.46704 q 0,-0.16433 0.06408,-0.29559 0.06511,-0.13126 0.179834,-0.20257 0.115756,-0.0713 0.26355,-0.0713 0.22841,0 0.36897,0.15813 0.141593,0.15813 0.141593,0.42064 v 0.0134 q 0,0.1633 -0.06305,0.29352 -0.06201,0.12919 -0.1788,0.20154 -0.115756,0.0723 -0.266651,0.0723 -0.227376,0 -0.36897,-0.15813 -0.140559,-0.15812 -0.140559,-0.41857 z m 0.192236,0.0227 q 0,0.18603 0.08578,0.29869 0.08682,0.11265 0.23151,0.11265 0.145728,0 0.231511,-0.11369 0.08578,-0.11472 0.08578,-0.32039 0,-0.18397 -0.08785,-0.29766 -0.08682,-0.11472 -0.231511,-0.11472 -0.141593,0 -0.22841,0.11266 -0.08682,0.11265 -0.08682,0.32246 z"
         style="font-style:normal;font-variant:normal;font-weight:normal;font-stretch:normal;font-size:2.11666656px;font-family:Roboto;-inkscape-font-specification:'Roboto, Normal';font-variant-ligatures:normal;font-variant-caps:normal;font-variant-numeric:normal;font-feature-settings:normal;text-align:start;writing-mode:lr-tb;text-anchor:start;stroke-width:0.26458332px"
         id="path166"
         inkscape:connector-curvature="0" />
      <path
         d="m 68.87245,187.46807 q 0,-0.25735 0.121956,-0.41341 0.121957,-0.15709 0.319361,-0.15709 0.19637,0 0.311092,0.13435 v -0.58291 h 0.191203 v 1.5875 h -0.1757 l -0.0093,-0.11989 q -0.114722,0.14056 -0.31936,0.14056 -0.194304,0 -0.317294,-0.15916 -0.121956,-0.15916 -0.121956,-0.41548 z m 0.191203,0.0217 q 0,0.19017 0.07855,0.29765 0.07855,0.10749 0.217041,0.10749 0.181901,0 0.265617,-0.1633 v -0.51366 q -0.08578,-0.15813 -0.26355,-0.15813 -0.14056,0 -0.219108,0.10852 -0.07855,0.10852 -0.07855,0.32143 z"
         style="font-style:normal;font-variant:normal;font-weight:normal;font-stretch:normal;font-size:2.11666656px;font-family:Roboto;-inkscape-font-specification:'Roboto, Normal';font-variant-ligatures:normal;font-variant-caps:normal;font-variant-numeric:normal;font-feature-settings:normal;text-align:start;writing-mode:lr-tb;text-anchor:start;stroke-width:0.26458332px"
         id="path168"
         inkscape:connector-curvature="0" />
      <path
         d="m 70.577772,188.05718 q -0.227376,0 -0.370003,-0.14882 -0.142627,-0.14986 -0.142627,-0.39998 v -0.0351 q 0,-0.1664 0.06305,-0.29662 0.06408,-0.13126 0.177767,-0.20464 0.114722,-0.0744 0.248047,-0.0744 0.218074,0 0.338997,0.14366 0.120923,0.14366 0.120923,0.41134 v 0.0796 H 70.25635 q 0.0041,0.16537 0.09612,0.26769 0.09302,0.10128 0.235644,0.10128 0.101286,0 0.171566,-0.0413 0.07028,-0.0413 0.12299,-0.10955 l 0.116789,0.091 q -0.14056,0.216 -0.42168,0.216 z m -0.02377,-1.00252 q -0.115755,0 -0.194303,0.0847 -0.07855,0.0837 -0.09715,0.23565 h 0.560172 v -0.0145 q -0.0083,-0.14573 -0.07855,-0.22531 -0.07028,-0.0806 -0.190169,-0.0806 z"
         style="font-style:normal;font-variant:normal;font-weight:normal;font-stretch:normal;font-size:2.11666656px;font-family:Roboto;-inkscape-font-specification:'Roboto, Normal';font-variant-ligatures:normal;font-variant-caps:normal;font-variant-numeric:normal;font-feature-settings:normal;text-align:start;writing-mode:lr-tb;text-anchor:start;stroke-width:0.26458332px"
         id="path170"
         inkscape:connector-curvature="0" />
    </g>
    <g
       aria-label="Steps"
       style="font-style:normal;font-variant:normal;font-weight:normal;font-stretch:normal;font-size:2.82222223px;line-height:125%;font-family:Roboto;-inkscape-font-specification:'Roboto, Normal';font-variant-ligatures:normal;font-variant-caps:normal;font-variant-numeric:normal;font-feature-settings:normal;text-align:start;letter-spacing:0px;word-spacing:0px;writing-mode:lr-tb;text-anchor:start;display:inline;opacity:1;fill:#000000;fill-opacity:1;stroke:none;stroke-width:0.26458332px;stroke-linecap:butt;stroke-linejoin:miter;stroke-opacity:1"
       id="text144-8"
       transform="translate(5.7869344,2.1166667)">
      <path
         d="m 64.144646,171.78929 q -0.340375,-0.0978 -0.496093,-0.23978 -0.154341,-0.14331 -0.154341,-0.35277 0,-0.23703 0.188792,-0.39137 0.190169,-0.15571 0.493337,-0.15571 0.206706,0 0.367936,0.0799 0.162609,0.0799 0.250803,0.22049 0.08957,0.14056 0.08957,0.3073 h -0.265961 q 0,-0.1819 -0.115756,-0.28525 -0.115755,-0.10473 -0.326595,-0.10473 -0.195681,0 -0.305924,0.0868 -0.108865,0.0854 -0.108865,0.2384 0,0.12265 0.103353,0.20809 0.104731,0.0841 0.354155,0.15434 0.250803,0.0703 0.391363,0.15571 0.141938,0.0841 0.209462,0.19706 0.0689,0.113 0.0689,0.26597 0,0.24391 -0.190169,0.39136 -0.19017,0.14607 -0.508496,0.14607 -0.206706,0 -0.385851,-0.0785 -0.179145,-0.0799 -0.276986,-0.21773 -0.09646,-0.1378 -0.09646,-0.31281 h 0.265961 q 0,0.1819 0.13367,0.28801 0.135047,0.10473 0.359668,0.10473 0.209461,0 0.321083,-0.0854 0.111621,-0.0854 0.111621,-0.23289 0,-0.14745 -0.103353,-0.22737 -0.103353,-0.0813 -0.374827,-0.15986 z"
         style="font-style:normal;font-variant:normal;font-weight:normal;font-stretch:normal;font-size:2.82222223px;font-family:Roboto;-inkscape-font-specification:'Roboto, Normal';font-variant-ligatures:normal;font-variant-caps:normal;font-variant-numeric:normal;font-feature-settings:normal;text-align:start;writing-mode:lr-tb;text-anchor:start;stroke-width:0.26458332px"
         id="path195-5"
         inkscape:connector-curvature="0" />
      <path
         d="m 65.535087,170.83156 v 0.36104 h 0.278364 v 0.19706 h -0.278364 v 0.92467 q 0,0.0896 0.03721,0.13504 0.03721,0.0441 0.126779,0.0441 0.0441,0 0.121268,-0.0165 v 0.20671 q -0.100597,0.0276 -0.195682,0.0276 -0.170876,0 -0.257693,-0.10335 -0.08682,-0.10336 -0.08682,-0.29352 v -0.92467 h -0.271474 v -0.19706 h 0.271474 v -0.36104 z"
         style="font-style:normal;font-variant:normal;font-weight:normal;font-stretch:normal;font-size:2.82222223px;font-family:Roboto;-inkscape-font-specification:'Roboto, Normal';font-variant-ligatures:normal;font-variant-caps:normal;font-variant-numeric:normal;font-feature-settings:normal;text-align:start;writing-mode:lr-tb;text-anchor:start;stroke-width:0.26458332px"
         id="path197-1"
         inkscape:connector-curvature="0" />
      <path
         d="m 66.728468,172.7112 q -0.303168,0 -0.493338,-0.19844 -0.190169,-0.19981 -0.190169,-0.5333 v -0.0468 q 0,-0.22187 0.08406,-0.3955 0.08544,-0.17501 0.237023,-0.27285 0.152962,-0.0992 0.330729,-0.0992 0.290766,0 0.451997,0.19155 0.16123,0.19155 0.16123,0.54846 v 0.10611 h -1.010102 q 0.0055,0.22048 0.128158,0.35691 0.124023,0.13505 0.314192,0.13505 0.135048,0 0.228755,-0.0551 0.09371,-0.0551 0.163986,-0.14607 l 0.155719,0.12127 q -0.187414,0.28801 -0.56224,0.28801 z m -0.0317,-1.3367 q -0.15434,0 -0.259071,0.113 -0.104731,0.11162 -0.129536,0.3142 h 0.746897 v -0.0193 q -0.01102,-0.1943 -0.104731,-0.30041 -0.09371,-0.10749 -0.253559,-0.10749 z"
         style="font-style:normal;font-variant:normal;font-weight:normal;font-stretch:normal;font-size:2.82222223px;font-family:Roboto;-inkscape-font-specification:'Roboto, Normal';font-variant-ligatures:normal;font-variant-caps:normal;font-variant-numeric:normal;font-feature-settings:normal;text-align:start;writing-mode:lr-tb;text-anchor:start;stroke-width:0.26458332px"
         id="path199-6"
         inkscape:connector-curvature="0" />
      <path
         d="m 68.863049,171.95466 q 0,0.34037 -0.155718,0.54846 -0.155719,0.20808 -0.42168,0.20808 -0.271473,0 -0.427192,-0.17225 v 0.71795 h -0.254937 v -2.0643 h 0.232889 l 0.0124,0.16537 q 0.155718,-0.19293 0.432704,-0.19293 0.268717,0 0.424436,0.20257 0.157096,0.20257 0.157096,0.56362 z m -0.254937,-0.0289 q 0,-0.25218 -0.107487,-0.39825 -0.107487,-0.14608 -0.2949,-0.14608 -0.231511,0 -0.347266,0.20533 v 0.71245 q 0.114377,0.20395 0.350022,0.20395 0.183279,0 0.290766,-0.1447 0.108865,-0.14607 0.108865,-0.4327 z"
         style="font-style:normal;font-variant:normal;font-weight:normal;font-stretch:normal;font-size:2.82222223px;font-family:Roboto;-inkscape-font-specification:'Roboto, Normal';font-variant-ligatures:normal;font-variant-caps:normal;font-variant-numeric:normal;font-feature-settings:normal;text-align:start;writing-mode:lr-tb;text-anchor:start;stroke-width:0.26458332px"
         id="path201-6"
         inkscape:connector-curvature="0" />
      <path
         d="m 70.053674,172.28814 q 0,-0.10335 -0.07855,-0.15985 -0.07717,-0.0579 -0.271474,-0.0992 -0.192925,-0.0413 -0.307302,-0.0992 -0.112999,-0.0579 -0.168121,-0.1378 -0.05374,-0.0799 -0.05374,-0.19017 0,-0.18328 0.15434,-0.31006 0.155718,-0.12678 0.396875,-0.12678 0.253559,0 0.410655,0.13092 0.158475,0.13091 0.158475,0.33486 h -0.256315 q 0,-0.10473 -0.08957,-0.18052 -0.08819,-0.0758 -0.223242,-0.0758 -0.139182,0 -0.21773,0.0606 -0.07855,0.0606 -0.07855,0.15847 0,0.0923 0.07304,0.13918 0.07304,0.0469 0.263205,0.0896 0.191547,0.0427 0.310059,0.10197 0.118511,0.0593 0.175011,0.14332 0.05788,0.0827 0.05788,0.20257 0,0.19981 -0.159852,0.32108 -0.159853,0.11989 -0.41479,0.11989 -0.179145,0 -0.316949,-0.0634 -0.137803,-0.0634 -0.216352,-0.17639 -0.07717,-0.11438 -0.07717,-0.24667 h 0.254937 q 0.0069,0.12816 0.101975,0.20395 0.09646,0.0744 0.253559,0.0744 0.144694,0 0.231511,-0.0579 0.08819,-0.0593 0.08819,-0.1571 z"
         style="font-style:normal;font-variant:normal;font-weight:normal;font-stretch:normal;font-size:2.82222223px;font-family:Roboto;-inkscape-font-specification:'Roboto, Normal';font-variant-ligatures:normal;font-variant-caps:normal;font-variant-numeric:normal;font-feature-settings:normal;text-align:start;writing-mode:lr-tb;text-anchor:start;stroke-width:0.26458332px"
         id="path203-2"
         inkscape:connector-curvature="0" />
    </g>
    <g
       transform="translate(6.8452678)"
       aria-label="Range"
       style="font-style:normal;font-weight:normal;font-size:3.17499995px;line-height:125%;font-family:Sans;letter-spacing:0px;word-spacing:0px;display:inline;opacity:1;fill:#000000;fill-opacity:1;stroke:none;stroke-width:0.26458332px;stroke-linecap:butt;stroke-linejoin:miter;stroke-opacity:1"
       id="text133-1">
      <path
         inkscape:connector-curvature="0"
         d="m 60.694874,185.58914 h -0.353466 v 0.60875 h -0.199472 v -1.50482 h 0.498161 q 0.254248,0 0.390674,0.11576 0.137459,0.11575 0.137459,0.33693 0,0.14056 -0.07648,0.24495 -0.07545,0.10438 -0.21084,0.15606 l 0.353467,0.63872 v 0.0124 H 61.02147 Z m -0.353466,-0.16226 h 0.30489 q 0.147795,0 0.234611,-0.0765 0.08785,-0.0765 0.08785,-0.20464 0,-0.13953 -0.08371,-0.21394 -0.08268,-0.0744 -0.239779,-0.0754 h -0.303857 z"
         style="font-style:normal;font-variant:normal;font-weight:normal;font-stretch:normal;font-size:2.11666656px;font-family:Roboto;-inkscape-font-specification:'Roboto, Normal';font-variant-ligatures:normal;font-variant-caps:normal;font-variant-numeric:normal;font-feature-settings:normal;text-align:start;writing-mode:lr-tb;text-anchor:start;stroke-width:0.26458332px"
         id="path153-9" />
      <path
         inkscape:connector-curvature="0"
         d="m 62.105641,186.19789 q -0.01654,-0.0331 -0.02687,-0.11782 -0.133325,0.13849 -0.318327,0.13849 -0.165364,0 -0.271818,-0.093 -0.10542,-0.0941 -0.10542,-0.23771 0,-0.17466 0.132292,-0.27078 0.133325,-0.0971 0.374137,-0.0971 h 0.186035 v -0.0879 q 0,-0.10026 -0.05994,-0.15917 -0.05994,-0.0599 -0.176734,-0.0599 -0.102319,0 -0.171565,0.0517 -0.06925,0.0517 -0.06925,0.12506 h -0.192236 q 0,-0.0837 0.05891,-0.16123 0.05994,-0.0786 0.16123,-0.12402 0.10232,-0.0455 0.224276,-0.0455 0.19327,0 0.302824,0.0971 0.109554,0.0961 0.113688,0.26562 v 0.5147 q 0,0.15399 0.03927,0.24494 v 0.0165 z m -0.317294,-0.14573 q 0.08992,0 0.170533,-0.0465 0.08062,-0.0465 0.116788,-0.12092 v -0.22944 h -0.149861 q -0.3514,0 -0.3514,0.20567 0,0.0899 0.05994,0.14056 0.05994,0.0506 0.153995,0.0506 z"
         style="font-style:normal;font-variant:normal;font-weight:normal;font-stretch:normal;font-size:2.11666656px;font-family:Roboto;-inkscape-font-specification:'Roboto, Normal';font-variant-ligatures:normal;font-variant-caps:normal;font-variant-numeric:normal;font-feature-settings:normal;text-align:start;writing-mode:lr-tb;text-anchor:start;stroke-width:0.26458332px"
         id="path155-6" />
      <path
         inkscape:connector-curvature="0"
         d="m 62.749529,185.07961 0.0062,0.14056 q 0.128158,-0.16123 0.334864,-0.16123 0.3545,0 0.3576,0.39998 v 0.73897 h -0.191202 v -0.74001 q -10e-4,-0.12092 -0.05581,-0.1788 -0.05374,-0.0579 -0.168465,-0.0579 -0.09302,0 -0.163298,0.0496 -0.07028,0.0496 -0.109554,0.13022 v 0.79685 h -0.191202 v -1.11828 z"
         style="font-style:normal;font-variant:normal;font-weight:normal;font-stretch:normal;font-size:2.11666656px;font-family:Roboto;-inkscape-font-specification:'Roboto, Normal';font-variant-ligatures:normal;font-variant-caps:normal;font-variant-numeric:normal;font-feature-settings:normal;text-align:start;writing-mode:lr-tb;text-anchor:start;stroke-width:0.26458332px"
         id="path157-4" />
      <path
         inkscape:connector-curvature="0"
         d="m 63.693141,185.62945 q 0,-0.26148 0.120923,-0.41548 0.120923,-0.15503 0.320394,-0.15503 0.204638,0 0.31936,0.1447 l 0.0093,-0.12403 h 0.174666 v 1.09141 q 0,0.21704 -0.129191,0.3421 -0.128158,0.12505 -0.345199,0.12505 -0.120922,0 -0.236678,-0.0517 -0.115755,-0.0517 -0.176733,-0.1416 l 0.09922,-0.11472 q 0.12299,0.15193 0.300757,0.15193 0.139526,0 0.217041,-0.0786 0.07855,-0.0785 0.07855,-0.22117 v -0.0961 q -0.114722,0.13229 -0.313159,0.13229 -0.196371,0 -0.318327,-0.15813 -0.120923,-0.15813 -0.120923,-0.43098 z m 0.192236,0.0217 q 0,0.18914 0.07751,0.29766 0.07751,0.10749 0.217041,0.10749 0.180867,0 0.265617,-0.16433 v -0.51057 q -0.08785,-0.16019 -0.26355,-0.16019 -0.139526,0 -0.218075,0.10852 -0.07855,0.10852 -0.07855,0.32142 z"
         style="font-style:normal;font-variant:normal;font-weight:normal;font-stretch:normal;font-size:2.11666656px;font-family:Roboto;-inkscape-font-specification:'Roboto, Normal';font-variant-ligatures:normal;font-variant-caps:normal;font-variant-numeric:normal;font-feature-settings:normal;text-align:start;writing-mode:lr-tb;text-anchor:start;stroke-width:0.26458332px"
         id="path159-8" />
      <path
         inkscape:connector-curvature="0"
         d="m 65.389161,186.21856 q -0.227376,0 -0.370003,-0.14883 -0.142627,-0.14986 -0.142627,-0.39997 v -0.0351 q 0,-0.1664 0.06305,-0.29662 0.06408,-0.13126 0.177767,-0.20464 0.114722,-0.0744 0.248047,-0.0744 0.218074,0 0.338997,0.14366 0.120923,0.14366 0.120923,0.41135 v 0.0796 h -0.757576 q 0.0041,0.16536 0.09612,0.26768 0.09302,0.10129 0.235644,0.10129 0.101286,0 0.171566,-0.0413 0.07028,-0.0413 0.12299,-0.10956 l 0.116789,0.091 q -0.14056,0.21601 -0.42168,0.21601 z m -0.02377,-1.00252 q -0.115755,0 -0.194304,0.0848 -0.07855,0.0837 -0.09715,0.23564 h 0.560172 v -0.0145 q -0.0083,-0.14572 -0.07855,-0.22531 -0.07028,-0.0806 -0.190169,-0.0806 z"
         style="font-style:normal;font-variant:normal;font-weight:normal;font-stretch:normal;font-size:2.11666656px;font-family:Roboto;-inkscape-font-specification:'Roboto, Normal';font-variant-ligatures:normal;font-variant-caps:normal;font-variant-numeric:normal;font-feature-settings:normal;text-align:start;writing-mode:lr-tb;text-anchor:start;stroke-width:0.26458332px"
         id="path161-0" />
    </g>
    <g
       transform="translate(6.8452678)"
       aria-label="Mode"
       style="font-style:normal;font-weight:normal;font-size:3.17499995px;line-height:125%;font-family:Sans;letter-spacing:0px;word-spacing:0px;display:inline;opacity:1;fill:#000000;fill-opacity:1;stroke:none;stroke-width:0.26458332px;stroke-linecap:butt;stroke-linejoin:miter;stroke-opacity:1"
       id="text133-9-8">
      <path
         inkscape:connector-curvature="0"
         d="m 66.150136,186.5317 0.491959,1.22783 0.49196,-1.22783 h 0.257349 v 1.50481 h -0.198438 v -0.58601 l 0.0186,-0.63252 -0.494027,1.21853 H 66.56561 l -0.492993,-1.21543 0.01964,0.62942 v 0.58601 H 65.89382 v -1.50481 z"
         style="font-style:normal;font-variant:normal;font-weight:normal;font-stretch:normal;font-size:2.11666656px;font-family:Roboto;-inkscape-font-specification:'Roboto, Normal';font-variant-ligatures:normal;font-variant-caps:normal;font-variant-numeric:normal;font-feature-settings:normal;text-align:start;writing-mode:lr-tb;text-anchor:start;stroke-width:0.26458332px"
         id="path164-1" />
      <path
         inkscape:connector-curvature="0"
         d="m 67.661155,187.46704 q 0,-0.16433 0.06408,-0.29559 0.06511,-0.13126 0.179834,-0.20257 0.115756,-0.0713 0.26355,-0.0713 0.22841,0 0.36897,0.15813 0.141593,0.15813 0.141593,0.42064 v 0.0134 q 0,0.1633 -0.06305,0.29352 -0.06201,0.12919 -0.1788,0.20154 -0.115756,0.0723 -0.266651,0.0723 -0.227376,0 -0.36897,-0.15813 -0.140559,-0.15812 -0.140559,-0.41857 z m 0.192236,0.0227 q 0,0.18603 0.08578,0.29869 0.08682,0.11265 0.23151,0.11265 0.145728,0 0.231511,-0.11369 0.08578,-0.11472 0.08578,-0.32039 0,-0.18397 -0.08785,-0.29766 -0.08682,-0.11472 -0.231511,-0.11472 -0.141593,0 -0.22841,0.11266 -0.08682,0.11265 -0.08682,0.32246 z"
         style="font-style:normal;font-variant:normal;font-weight:normal;font-stretch:normal;font-size:2.11666656px;font-family:Roboto;-inkscape-font-specification:'Roboto, Normal';font-variant-ligatures:normal;font-variant-caps:normal;font-variant-numeric:normal;font-feature-settings:normal;text-align:start;writing-mode:lr-tb;text-anchor:start;stroke-width:0.26458332px"
         id="path166-0" />
      <path
         inkscape:connector-curvature="0"
         d="m 68.87245,187.46807 q 0,-0.25735 0.121956,-0.41341 0.121957,-0.15709 0.319361,-0.15709 0.19637,0 0.311092,0.13435 v -0.58291 h 0.191203 v 1.5875 h -0.1757 l -0.0093,-0.11989 q -0.114722,0.14056 -0.31936,0.14056 -0.194304,0 -0.317294,-0.15916 -0.121956,-0.15916 -0.121956,-0.41548 z m 0.191203,0.0217 q 0,0.19017 0.07855,0.29765 0.07855,0.10749 0.217041,0.10749 0.181901,0 0.265617,-0.1633 v -0.51366 q -0.08578,-0.15813 -0.26355,-0.15813 -0.14056,0 -0.219108,0.10852 -0.07855,0.10852 -0.07855,0.32143 z"
         style="font-style:normal;font-variant:normal;font-weight:normal;font-stretch:normal;font-size:2.11666656px;font-family:Roboto;-inkscape-font-specification:'Roboto, Normal';font-variant-ligatures:normal;font-variant-caps:normal;font-variant-numeric:normal;font-feature-settings:normal;text-align:start;writing-mode:lr-tb;text-anchor:start;stroke-width:0.26458332px"
         id="path168-2" />
      <path
         inkscape:connector-curvature="0"
         d="m 70.577772,188.05718 q -0.227376,0 -0.370003,-0.14882 -0.142627,-0.14986 -0.142627,-0.39998 v -0.0351 q 0,-0.1664 0.06305,-0.29662 0.06408,-0.13126 0.177767,-0.20464 0.114722,-0.0744 0.248047,-0.0744 0.218074,0 0.338997,0.14366 0.120923,0.14366 0.120923,0.41134 v 0.0796 H 70.25635 q 0.0041,0.16537 0.09612,0.26769 0.09302,0.10128 0.235644,0.10128 0.101286,0 0.171566,-0.0413 0.07028,-0.0413 0.12299,-0.10955 l 0.116789,0.091 q -0.14056,0.216 -0.42168,0.216 z m -0.02377,-1.00252 q -0.115755,0 -0.194303,0.0847 -0.07855,0.0837 -0.09715,0.23565 h 0.560172 v -0.0145 q -0.0083,-0.14573 -0.07855,-0.22531 -0.07028,-0.0806 -0.190169,-0.0806 z"
         style="font-style:normal;font-variant:normal;font-weight:normal;font-stretch:normal;font-size:2.11666656px;font-family:Roboto;-inkscape-font-specification:'Roboto, Normal';font-variant-ligatures:normal;font-variant-caps:normal;font-variant-numeric:normal;font-feature-settings:normal;text-align:start;writing-mode:lr-tb;text-anchor:start;stroke-width:0.26458332px"
         id="path170-2" />
    </g>
    <g
       aria-label="Steps"
       style="font-style:normal;font-variant:normal;font-weight:normal;font-stretch:normal;font-size:2.82222223px;line-height:125%;font-family:Roboto;-inkscape-font-specification:'Roboto, Normal';font-variant-ligatures:normal;font-variant-caps:normal;font-variant-numeric:normal;font-feature-settings:normal;text-align:start;letter-spacing:0px;word-spacing:0px;writing-mode:lr-tb;text-anchor:start;display:inline;opacity:1;fill:#000000;fill-opacity:1;stroke:none;stroke-width:0.26458332px;stroke-linecap:butt;stroke-linejoin:miter;stroke-opacity:1"
       id="text144-9"
       transform="translate(20.337672,2.1166667)">
      <path
         d="m 64.144646,171.78929 q -0.340375,-0.0978 -0.496093,-0.23978 -0.154341,-0.14331 -0.154341,-0.35277 0,-0.23703 0.188792,-0.39137 0.190169,-0.15571 0.493337,-0.15571 0.206706,0 0.367936,0.0799 0.162609,0.0799 0.250803,0.22049 0.08957,0.14056 0.08957,0.3073 h -0.265961 q 0,-0.1819 -0.115756,-0.28525 -0.115755,-0.10473 -0.326595,-0.10473 -0.195681,0 -0.305924,0.0868 -0.108865,0.0854 -0.108865,0.2384 0,0.12265 0.103353,0.20809 0.104731,0.0841 0.354155,0.15434 0.250803,0.0703 0.391363,0.15571 0.141938,0.0841 0.209462,0.19706 0.0689,0.113 0.0689,0.26597 0,0.24391 -0.190169,0.39136 -0.19017,0.14607 -0.508496,0.14607 -0.206706,0 -0.385851,-0.0785 -0.179145,-0.0799 -0.276986,-0.21773 -0.09646,-0.1378 -0.09646,-0.31281 h 0.265961 q 0,0.1819 0.13367,0.28801 0.135047,0.10473 0.359668,0.10473 0.209461,0 0.321083,-0.0854 0.111621,-0.0854 0.111621,-0.23289 0,-0.14745 -0.103353,-0.22737 -0.103353,-0.0813 -0.374827,-0.15986 z"
         style="font-style:normal;font-variant:normal;font-weight:normal;font-stretch:normal;font-size:2.82222223px;font-family:Roboto;-inkscape-font-specification:'Roboto, Normal';font-variant-ligatures:normal;font-variant-caps:normal;font-variant-numeric:normal;font-feature-settings:normal;text-align:start;writing-mode:lr-tb;text-anchor:start;stroke-width:0.26458332px"
         id="path195-7"
         inkscape:connector-curvature="0" />
      <path
         d="m 65.535087,170.83156 v 0.36104 h 0.278364 v 0.19706 h -0.278364 v 0.92467 q 0,0.0896 0.03721,0.13504 0.03721,0.0441 0.126779,0.0441 0.0441,0 0.121268,-0.0165 v 0.20671 q -0.100597,0.0276 -0.195682,0.0276 -0.170876,0 -0.257693,-0.10335 -0.08682,-0.10336 -0.08682,-0.29352 v -0.92467 h -0.271474 v -0.19706 h 0.271474 v -0.36104 z"
         style="font-style:normal;font-variant:normal;font-weight:normal;font-stretch:normal;font-size:2.82222223px;font-family:Roboto;-inkscape-font-specification:'Roboto, Normal';font-variant-ligatures:normal;font-variant-caps:normal;font-variant-numeric:normal;font-feature-settings:normal;text-align:start;writing-mode:lr-tb;text-anchor:start;stroke-width:0.26458332px"
         id="path197-5"
         inkscape:connector-curvature="0" />
      <path
         d="m 66.728468,172.7112 q -0.303168,0 -0.493338,-0.19844 -0.190169,-0.19981 -0.190169,-0.5333 v -0.0468 q 0,-0.22187 0.08406,-0.3955 0.08544,-0.17501 0.237023,-0.27285 0.152962,-0.0992 0.330729,-0.0992 0.290766,0 0.451997,0.19155 0.16123,0.19155 0.16123,0.54846 v 0.10611 h -1.010102 q 0.0055,0.22048 0.128158,0.35691 0.124023,0.13505 0.314192,0.13505 0.135048,0 0.228755,-0.0551 0.09371,-0.0551 0.163986,-0.14607 l 0.155719,0.12127 q -0.187414,0.28801 -0.56224,0.28801 z m -0.0317,-1.3367 q -0.15434,0 -0.259071,0.113 -0.104731,0.11162 -0.129536,0.3142 h 0.746897 v -0.0193 q -0.01102,-0.1943 -0.104731,-0.30041 -0.09371,-0.10749 -0.253559,-0.10749 z"
         style="font-style:normal;font-variant:normal;font-weight:normal;font-stretch:normal;font-size:2.82222223px;font-family:Roboto;-inkscape-font-specification:'Roboto, Normal';font-variant-ligatures:normal;font-variant-caps:normal;font-variant-numeric:normal;font-feature-settings:normal;text-align:start;writing-mode:lr-tb;text-anchor:start;stroke-width:0.26458332px"
         id="path199-64"
         inkscape:connector-curvature="0" />
      <path
         d="m 68.863049,171.95466 q 0,0.34037 -0.155718,0.54846 -0.155719,0.20808 -0.42168,0.20808 -0.271473,0 -0.427192,-0.17225 v 0.71795 h -0.254937 v -2.0643 h 0.232889 l 0.0124,0.16537 q 0.155718,-0.19293 0.432704,-0.19293 0.268717,0 0.424436,0.20257 0.157096,0.20257 0.157096,0.56362 z m -0.254937,-0.0289 q 0,-0.25218 -0.107487,-0.39825 -0.107487,-0.14608 -0.2949,-0.14608 -0.231511,0 -0.347266,0.20533 v 0.71245 q 0.114377,0.20395 0.350022,0.20395 0.183279,0 0.290766,-0.1447 0.108865,-0.14607 0.108865,-0.4327 z"
         style="font-style:normal;font-variant:normal;font-weight:normal;font-stretch:normal;font-size:2.82222223px;font-family:Roboto;-inkscape-font-specification:'Roboto, Normal';font-variant-ligatures:normal;font-variant-caps:normal;font-variant-numeric:normal;font-feature-settings:normal;text-align:start;writing-mode:lr-tb;text-anchor:start;stroke-width:0.26458332px"
         id="path201-63"
         inkscape:connector-curvature="0" />
      <path
         d="m 70.053674,172.28814 q 0,-0.10335 -0.07855,-0.15985 -0.07717,-0.0579 -0.271474,-0.0992 -0.192925,-0.0413 -0.307302,-0.0992 -0.112999,-0.0579 -0.168121,-0.1378 -0.05374,-0.0799 -0.05374,-0.19017 0,-0.18328 0.15434,-0.31006 0.155718,-0.12678 0.396875,-0.12678 0.253559,0 0.410655,0.13092 0.158475,0.13091 0.158475,0.33486 h -0.256315 q 0,-0.10473 -0.08957,-0.18052 -0.08819,-0.0758 -0.223242,-0.0758 -0.139182,0 -0.21773,0.0606 -0.07855,0.0606 -0.07855,0.15847 0,0.0923 0.07304,0.13918 0.07304,0.0469 0.263205,0.0896 0.191547,0.0427 0.310059,0.10197 0.118511,0.0593 0.175011,0.14332 0.05788,0.0827 0.05788,0.20257 0,0.19981 -0.159852,0.32108 -0.159853,0.11989 -0.41479,0.11989 -0.179145,0 -0.316949,-0.0634 -0.137803,-0.0634 -0.216352,-0.17639 -0.07717,-0.11438 -0.07717,-0.24667 h 0.254937 q 0.0069,0.12816 0.101975,0.20395 0.09646,0.0744 0.253559,0.0744 0.144694,0 0.231511,-0.0579 0.08819,-0.0593 0.08819,-0.1571 z"
         style="font-style:normal;font-variant:normal;font-weight:normal;font-stretch:normal;font-size:2.82222223px;font-family:Roboto;-inkscape-font-specification:'Roboto, Normal';font-variant-ligatures:normal;font-variant-caps:normal;font-variant-numeric:normal;font-feature-settings:normal;text-align:start;writing-mode:lr-tb;text-anchor:start;stroke-width:0.26458332px"
         id="path203-7"
         inkscape:connector-curvature="0" />
    </g>
    <g
       transform="translate(21.396006)"
       aria-label="Range"
       style="font-style:normal;font-weight:normal;font-size:3.17499995px;line-height:125%;font-family:Sans;letter-spacing:0px;word-spacing:0px;display:inline;opacity:1;fill:#000000;fill-opacity:1;stroke:none;stroke-width:0.26458332px;stroke-linecap:butt;stroke-linejoin:miter;stroke-opacity:1"
       id="text133-97">
      <path
         inkscape:connector-curvature="0"
         d="m 60.694874,185.58914 h -0.353466 v 0.60875 h -0.199472 v -1.50482 h 0.498161 q 0.254248,0 0.390674,0.11576 0.137459,0.11575 0.137459,0.33693 0,0.14056 -0.07648,0.24495 -0.07545,0.10438 -0.21084,0.15606 l 0.353467,0.63872 v 0.0124 H 61.02147 Z m -0.353466,-0.16226 h 0.30489 q 0.147795,0 0.234611,-0.0765 0.08785,-0.0765 0.08785,-0.20464 0,-0.13953 -0.08371,-0.21394 -0.08268,-0.0744 -0.239779,-0.0754 h -0.303857 z"
         style="font-style:normal;font-variant:normal;font-weight:normal;font-stretch:normal;font-size:2.11666656px;font-family:Roboto;-inkscape-font-specification:'Roboto, Normal';font-variant-ligatures:normal;font-variant-caps:normal;font-variant-numeric:normal;font-feature-settings:normal;text-align:start;writing-mode:lr-tb;text-anchor:start;stroke-width:0.26458332px"
         id="path153-4" />
      <path
         inkscape:connector-curvature="0"
         d="m 62.105641,186.19789 q -0.01654,-0.0331 -0.02687,-0.11782 -0.133325,0.13849 -0.318327,0.13849 -0.165364,0 -0.271818,-0.093 -0.10542,-0.0941 -0.10542,-0.23771 0,-0.17466 0.132292,-0.27078 0.133325,-0.0971 0.374137,-0.0971 h 0.186035 v -0.0879 q 0,-0.10026 -0.05994,-0.15917 -0.05994,-0.0599 -0.176734,-0.0599 -0.102319,0 -0.171565,0.0517 -0.06925,0.0517 -0.06925,0.12506 h -0.192236 q 0,-0.0837 0.05891,-0.16123 0.05994,-0.0786 0.16123,-0.12402 0.10232,-0.0455 0.224276,-0.0455 0.19327,0 0.302824,0.0971 0.109554,0.0961 0.113688,0.26562 v 0.5147 q 0,0.15399 0.03927,0.24494 v 0.0165 z m -0.317294,-0.14573 q 0.08992,0 0.170533,-0.0465 0.08062,-0.0465 0.116788,-0.12092 v -0.22944 h -0.149861 q -0.3514,0 -0.3514,0.20567 0,0.0899 0.05994,0.14056 0.05994,0.0506 0.153995,0.0506 z"
         style="font-style:normal;font-variant:normal;font-weight:normal;font-stretch:normal;font-size:2.11666656px;font-family:Roboto;-inkscape-font-specification:'Roboto, Normal';font-variant-ligatures:normal;font-variant-caps:normal;font-variant-numeric:normal;font-feature-settings:normal;text-align:start;writing-mode:lr-tb;text-anchor:start;stroke-width:0.26458332px"
         id="path155-9" />
      <path
         inkscape:connector-curvature="0"
         d="m 62.749529,185.07961 0.0062,0.14056 q 0.128158,-0.16123 0.334864,-0.16123 0.3545,0 0.3576,0.39998 v 0.73897 h -0.191202 v -0.74001 q -10e-4,-0.12092 -0.05581,-0.1788 -0.05374,-0.0579 -0.168465,-0.0579 -0.09302,0 -0.163298,0.0496 -0.07028,0.0496 -0.109554,0.13022 v 0.79685 h -0.191202 v -1.11828 z"
         style="font-style:normal;font-variant:normal;font-weight:normal;font-stretch:normal;font-size:2.11666656px;font-family:Roboto;-inkscape-font-specification:'Roboto, Normal';font-variant-ligatures:normal;font-variant-caps:normal;font-variant-numeric:normal;font-feature-settings:normal;text-align:start;writing-mode:lr-tb;text-anchor:start;stroke-width:0.26458332px"
         id="path157-1" />
      <path
         inkscape:connector-curvature="0"
         d="m 63.693141,185.62945 q 0,-0.26148 0.120923,-0.41548 0.120923,-0.15503 0.320394,-0.15503 0.204638,0 0.31936,0.1447 l 0.0093,-0.12403 h 0.174666 v 1.09141 q 0,0.21704 -0.129191,0.3421 -0.128158,0.12505 -0.345199,0.12505 -0.120922,0 -0.236678,-0.0517 -0.115755,-0.0517 -0.176733,-0.1416 l 0.09922,-0.11472 q 0.12299,0.15193 0.300757,0.15193 0.139526,0 0.217041,-0.0786 0.07855,-0.0785 0.07855,-0.22117 v -0.0961 q -0.114722,0.13229 -0.313159,0.13229 -0.196371,0 -0.318327,-0.15813 -0.120923,-0.15813 -0.120923,-0.43098 z m 0.192236,0.0217 q 0,0.18914 0.07751,0.29766 0.07751,0.10749 0.217041,0.10749 0.180867,0 0.265617,-0.16433 v -0.51057 q -0.08785,-0.16019 -0.26355,-0.16019 -0.139526,0 -0.218075,0.10852 -0.07855,0.10852 -0.07855,0.32142 z"
         style="font-style:normal;font-variant:normal;font-weight:normal;font-stretch:normal;font-size:2.11666656px;font-family:Roboto;-inkscape-font-specification:'Roboto, Normal';font-variant-ligatures:normal;font-variant-caps:normal;font-variant-numeric:normal;font-feature-settings:normal;text-align:start;writing-mode:lr-tb;text-anchor:start;stroke-width:0.26458332px"
         id="path159-7" />
      <path
         inkscape:connector-curvature="0"
         d="m 65.389161,186.21856 q -0.227376,0 -0.370003,-0.14883 -0.142627,-0.14986 -0.142627,-0.39997 v -0.0351 q 0,-0.1664 0.06305,-0.29662 0.06408,-0.13126 0.177767,-0.20464 0.114722,-0.0744 0.248047,-0.0744 0.218074,0 0.338997,0.14366 0.120923,0.14366 0.120923,0.41135 v 0.0796 h -0.757576 q 0.0041,0.16536 0.09612,0.26768 0.09302,0.10129 0.235644,0.10129 0.101286,0 0.171566,-0.0413 0.07028,-0.0413 0.12299,-0.10956 l 0.116789,0.091 q -0.14056,0.21601 -0.42168,0.21601 z m -0.02377,-1.00252 q -0.115755,0 -0.194304,0.0848 -0.07855,0.0837 -0.09715,0.23564 h 0.560172 v -0.0145 q -0.0083,-0.14572 -0.07855,-0.22531 -0.07028,-0.0806 -0.190169,-0.0806 z"
         style="font-style:normal;font-variant:normal;font-weight:normal;font-stretch:normal;font-size:2.11666656px;font-family:Roboto;-inkscape-font-specification:'Roboto, Normal';font-variant-ligatures:normal;font-variant-caps:normal;font-variant-numeric:normal;font-feature-settings:normal;text-align:start;writing-mode:lr-tb;text-anchor:start;stroke-width:0.26458332px"
         id="path161-06" />
    </g>
    <g
       transform="translate(21.396006)"
       aria-label="Mode"
       style="font-style:normal;font-weight:normal;font-size:3.17499995px;line-height:125%;font-family:Sans;letter-spacing:0px;word-spacing:0px;display:inline;opacity:1;fill:#000000;fill-opacity:1;stroke:none;stroke-width:0.26458332px;stroke-linecap:butt;stroke-linejoin:miter;stroke-opacity:1"
       id="text133-9-0">
      <path
         inkscape:connector-curvature="0"
         d="m 66.150136,186.5317 0.491959,1.22783 0.49196,-1.22783 h 0.257349 v 1.50481 h -0.198438 v -0.58601 l 0.0186,-0.63252 -0.494027,1.21853 H 66.56561 l -0.492993,-1.21543 0.01964,0.62942 v 0.58601 H 65.89382 v -1.50481 z"
         style="font-style:normal;font-variant:normal;font-weight:normal;font-stretch:normal;font-size:2.11666656px;font-family:Roboto;-inkscape-font-specification:'Roboto, Normal';font-variant-ligatures:normal;font-variant-caps:normal;font-variant-numeric:normal;font-feature-settings:normal;text-align:start;writing-mode:lr-tb;text-anchor:start;stroke-width:0.26458332px"
         id="path164-8" />
      <path
         inkscape:connector-curvature="0"
         d="m 67.661155,187.46704 q 0,-0.16433 0.06408,-0.29559 0.06511,-0.13126 0.179834,-0.20257 0.115756,-0.0713 0.26355,-0.0713 0.22841,0 0.36897,0.15813 0.141593,0.15813 0.141593,0.42064 v 0.0134 q 0,0.1633 -0.06305,0.29352 -0.06201,0.12919 -0.1788,0.20154 -0.115756,0.0723 -0.266651,0.0723 -0.227376,0 -0.36897,-0.15813 -0.140559,-0.15812 -0.140559,-0.41857 z m 0.192236,0.0227 q 0,0.18603 0.08578,0.29869 0.08682,0.11265 0.23151,0.11265 0.145728,0 0.231511,-0.11369 0.08578,-0.11472 0.08578,-0.32039 0,-0.18397 -0.08785,-0.29766 -0.08682,-0.11472 -0.231511,-0.11472 -0.141593,0 -0.22841,0.11266 -0.08682,0.11265 -0.08682,0.32246 z"
         style="font-style:normal;font-variant:normal;font-weight:normal;font-stretch:normal;font-size:2.11666656px;font-family:Roboto;-inkscape-font-specification:'Roboto, Normal';font-variant-ligatures:normal;font-variant-caps:normal;font-variant-numeric:normal;font-feature-settings:normal;text-align:start;writing-mode:lr-tb;text-anchor:start;stroke-width:0.26458332px"
         id="path166-5" />
      <path
         inkscape:connector-curvature="0"
         d="m 68.87245,187.46807 q 0,-0.25735 0.121956,-0.41341 0.121957,-0.15709 0.319361,-0.15709 0.19637,0 0.311092,0.13435 v -0.58291 h 0.191203 v 1.5875 h -0.1757 l -0.0093,-0.11989 q -0.114722,0.14056 -0.31936,0.14056 -0.194304,0 -0.317294,-0.15916 -0.121956,-0.15916 -0.121956,-0.41548 z m 0.191203,0.0217 q 0,0.19017 0.07855,0.29765 0.07855,0.10749 0.217041,0.10749 0.181901,0 0.265617,-0.1633 v -0.51366 q -0.08578,-0.15813 -0.26355,-0.15813 -0.14056,0 -0.219108,0.10852 -0.07855,0.10852 -0.07855,0.32143 z"
         style="font-style:normal;font-variant:normal;font-weight:normal;font-stretch:normal;font-size:2.11666656px;font-family:Roboto;-inkscape-font-specification:'Roboto, Normal';font-variant-ligatures:normal;font-variant-caps:normal;font-variant-numeric:normal;font-feature-settings:normal;text-align:start;writing-mode:lr-tb;text-anchor:start;stroke-width:0.26458332px"
         id="path168-3" />
      <path
         inkscape:connector-curvature="0"
         d="m 70.577772,188.05718 q -0.227376,0 -0.370003,-0.14882 -0.142627,-0.14986 -0.142627,-0.39998 v -0.0351 q 0,-0.1664 0.06305,-0.29662 0.06408,-0.13126 0.177767,-0.20464 0.114722,-0.0744 0.248047,-0.0744 0.218074,0 0.338997,0.14366 0.120923,0.14366 0.120923,0.41134 v 0.0796 H 70.25635 q 0.0041,0.16537 0.09612,0.26769 0.09302,0.10128 0.235644,0.10128 0.101286,0 0.171566,-0.0413 0.07028,-0.0413 0.12299,-0.10955 l 0.116789,0.091 q -0.14056,0.216 -0.42168,0.216 z m -0.02377,-1.00252 q -0.115755,0 -0.194303,0.0847 -0.07855,0.0837 -0.09715,0.23565 h 0.560172 v -0.0145 q -0.0083,-0.14573 -0.07855,-0.22531 -0.07028,-0.0806 -0.190169,-0.0806 z"
         style="font-style:normal;font-variant:normal;font-weight:normal;font-stretch:normal;font-size:2.11666656px;font-family:Roboto;-inkscape-font-specification:'Roboto, Normal';font-variant-ligatures:normal;font-variant-caps:normal;font-variant-numeric:normal;font-feature-settings:normal;text-align:start;writing-mode:lr-tb;text-anchor:start;stroke-width:0.26458332px"
         id="path170-9" />
    </g>
    <g
       aria-label="Steps"
       style="font-style:normal;font-variant:normal;font-weight:normal;font-stretch:normal;font-size:2.82222223px;line-height:125%;font-family:Roboto;-inkscape-font-specification:'Roboto, Normal';font-variant-ligatures:normal;font-variant-caps:normal;font-variant-numeric:normal;font-feature-settings:normal;text-align:start;letter-spacing:0px;word-spacing:0px;writing-mode:lr-tb;text-anchor:start;display:inline;opacity:1;fill:#000000;fill-opacity:1;stroke:none;stroke-width:0.26458332px;stroke-linecap:butt;stroke-linejoin:miter;stroke-opacity:1"
       id="text144-4"
       transform="translate(35.096588,2.1166667)">
      <path
         d="m 64.144646,171.78929 q -0.340375,-0.0978 -0.496093,-0.23978 -0.154341,-0.14331 -0.154341,-0.35277 0,-0.23703 0.188792,-0.39137 0.190169,-0.15571 0.493337,-0.15571 0.206706,0 0.367936,0.0799 0.162609,0.0799 0.250803,0.22049 0.08957,0.14056 0.08957,0.3073 h -0.265961 q 0,-0.1819 -0.115756,-0.28525 -0.115755,-0.10473 -0.326595,-0.10473 -0.195681,0 -0.305924,0.0868 -0.108865,0.0854 -0.108865,0.2384 0,0.12265 0.103353,0.20809 0.104731,0.0841 0.354155,0.15434 0.250803,0.0703 0.391363,0.15571 0.141938,0.0841 0.209462,0.19706 0.0689,0.113 0.0689,0.26597 0,0.24391 -0.190169,0.39136 -0.19017,0.14607 -0.508496,0.14607 -0.206706,0 -0.385851,-0.0785 -0.179145,-0.0799 -0.276986,-0.21773 -0.09646,-0.1378 -0.09646,-0.31281 h 0.265961 q 0,0.1819 0.13367,0.28801 0.135047,0.10473 0.359668,0.10473 0.209461,0 0.321083,-0.0854 0.111621,-0.0854 0.111621,-0.23289 0,-0.14745 -0.103353,-0.22737 -0.103353,-0.0813 -0.374827,-0.15986 z"
         style="font-style:normal;font-variant:normal;font-weight:normal;font-stretch:normal;font-size:2.82222223px;font-family:Roboto;-inkscape-font-specification:'Roboto, Normal';font-variant-ligatures:normal;font-variant-caps:normal;font-variant-numeric:normal;font-feature-settings:normal;text-align:start;writing-mode:lr-tb;text-anchor:start;stroke-width:0.26458332px"
         id="path195-1"
         inkscape:connector-curvature="0" />
      <path
         d="m 65.535087,170.83156 v 0.36104 h 0.278364 v 0.19706 h -0.278364 v 0.92467 q 0,0.0896 0.03721,0.13504 0.03721,0.0441 0.126779,0.0441 0.0441,0 0.121268,-0.0165 v 0.20671 q -0.100597,0.0276 -0.195682,0.0276 -0.170876,0 -0.257693,-0.10335 -0.08682,-0.10336 -0.08682,-0.29352 v -0.92467 h -0.271474 v -0.19706 h 0.271474 v -0.36104 z"
         style="font-style:normal;font-variant:normal;font-weight:normal;font-stretch:normal;font-size:2.82222223px;font-family:Roboto;-inkscape-font-specification:'Roboto, Normal';font-variant-ligatures:normal;font-variant-caps:normal;font-variant-numeric:normal;font-feature-settings:normal;text-align:start;writing-mode:lr-tb;text-anchor:start;stroke-width:0.26458332px"
         id="path197-54"
         inkscape:connector-curvature="0" />
      <path
         d="m 66.728468,172.7112 q -0.303168,0 -0.493338,-0.19844 -0.190169,-0.19981 -0.190169,-0.5333 v -0.0468 q 0,-0.22187 0.08406,-0.3955 0.08544,-0.17501 0.237023,-0.27285 0.152962,-0.0992 0.330729,-0.0992 0.290766,0 0.451997,0.19155 0.16123,0.19155 0.16123,0.54846 v 0.10611 h -1.010102 q 0.0055,0.22048 0.128158,0.35691 0.124023,0.13505 0.314192,0.13505 0.135048,0 0.228755,-0.0551 0.09371,-0.0551 0.163986,-0.14607 l 0.155719,0.12127 q -0.187414,0.28801 -0.56224,0.28801 z m -0.0317,-1.3367 q -0.15434,0 -0.259071,0.113 -0.104731,0.11162 -0.129536,0.3142 h 0.746897 v -0.0193 q -0.01102,-0.1943 -0.104731,-0.30041 -0.09371,-0.10749 -0.253559,-0.10749 z"
         style="font-style:normal;font-variant:normal;font-weight:normal;font-stretch:normal;font-size:2.82222223px;font-family:Roboto;-inkscape-font-specification:'Roboto, Normal';font-variant-ligatures:normal;font-variant-caps:normal;font-variant-numeric:normal;font-feature-settings:normal;text-align:start;writing-mode:lr-tb;text-anchor:start;stroke-width:0.26458332px"
         id="path199-1"
         inkscape:connector-curvature="0" />
      <path
         d="m 68.863049,171.95466 q 0,0.34037 -0.155718,0.54846 -0.155719,0.20808 -0.42168,0.20808 -0.271473,0 -0.427192,-0.17225 v 0.71795 h -0.254937 v -2.0643 h 0.232889 l 0.0124,0.16537 q 0.155718,-0.19293 0.432704,-0.19293 0.268717,0 0.424436,0.20257 0.157096,0.20257 0.157096,0.56362 z m -0.254937,-0.0289 q 0,-0.25218 -0.107487,-0.39825 -0.107487,-0.14608 -0.2949,-0.14608 -0.231511,0 -0.347266,0.20533 v 0.71245 q 0.114377,0.20395 0.350022,0.20395 0.183279,0 0.290766,-0.1447 0.108865,-0.14607 0.108865,-0.4327 z"
         style="font-style:normal;font-variant:normal;font-weight:normal;font-stretch:normal;font-size:2.82222223px;font-family:Roboto;-inkscape-font-specification:'Roboto, Normal';font-variant-ligatures:normal;font-variant-caps:normal;font-variant-numeric:normal;font-feature-settings:normal;text-align:start;writing-mode:lr-tb;text-anchor:start;stroke-width:0.26458332px"
         id="path201-5"
         inkscape:connector-curvature="0" />
      <path
         d="m 70.053674,172.28814 q 0,-0.10335 -0.07855,-0.15985 -0.07717,-0.0579 -0.271474,-0.0992 -0.192925,-0.0413 -0.307302,-0.0992 -0.112999,-0.0579 -0.168121,-0.1378 -0.05374,-0.0799 -0.05374,-0.19017 0,-0.18328 0.15434,-0.31006 0.155718,-0.12678 0.396875,-0.12678 0.253559,0 0.410655,0.13092 0.158475,0.13091 0.158475,0.33486 h -0.256315 q 0,-0.10473 -0.08957,-0.18052 -0.08819,-0.0758 -0.223242,-0.0758 -0.139182,0 -0.21773,0.0606 -0.07855,0.0606 -0.07855,0.15847 0,0.0923 0.07304,0.13918 0.07304,0.0469 0.263205,0.0896 0.191547,0.0427 0.310059,0.10197 0.118511,0.0593 0.175011,0.14332 0.05788,0.0827 0.05788,0.20257 0,0.19981 -0.159852,0.32108 -0.159853,0.11989 -0.41479,0.11989 -0.179145,0 -0.316949,-0.0634 -0.137803,-0.0634 -0.216352,-0.17639 -0.07717,-0.11438 -0.07717,-0.24667 h 0.254937 q 0.0069,0.12816 0.101975,0.20395 0.09646,0.0744 0.253559,0.0744 0.144694,0 0.231511,-0.0579 0.08819,-0.0593 0.08819,-0.1571 z"
         style="font-style:normal;font-variant:normal;font-weight:normal;font-stretch:normal;font-size:2.82222223px;font-family:Roboto;-inkscape-font-specification:'Roboto, Normal';font-variant-ligatures:normal;font-variant-caps:normal;font-variant-numeric:normal;font-feature-settings:normal;text-align:start;writing-mode:lr-tb;text-anchor:start;stroke-width:0.26458332px"
         id="path203-5"
         inkscape:connector-curvature="0" />
    </g>
    <g
       transform="translate(35.625755)"
       aria-label="Range"
       style="font-style:normal;font-weight:normal;font-size:3.17499995px;line-height:125%;font-family:Sans;letter-spacing:0px;word-spacing:0px;display:inline;opacity:1;fill:#000000;fill-opacity:1;stroke:none;stroke-width:0.26458332px;stroke-linecap:butt;stroke-linejoin:miter;stroke-opacity:1"
       id="text133-4">
      <path
         inkscape:connector-curvature="0"
         d="m 60.694874,185.58914 h -0.353466 v 0.60875 h -0.199472 v -1.50482 h 0.498161 q 0.254248,0 0.390674,0.11576 0.137459,0.11575 0.137459,0.33693 0,0.14056 -0.07648,0.24495 -0.07545,0.10438 -0.21084,0.15606 l 0.353467,0.63872 v 0.0124 H 61.02147 Z m -0.353466,-0.16226 h 0.30489 q 0.147795,0 0.234611,-0.0765 0.08785,-0.0765 0.08785,-0.20464 0,-0.13953 -0.08371,-0.21394 -0.08268,-0.0744 -0.239779,-0.0754 h -0.303857 z"
         style="font-style:normal;font-variant:normal;font-weight:normal;font-stretch:normal;font-size:2.11666656px;font-family:Roboto;-inkscape-font-specification:'Roboto, Normal';font-variant-ligatures:normal;font-variant-caps:normal;font-variant-numeric:normal;font-feature-settings:normal;text-align:start;writing-mode:lr-tb;text-anchor:start;stroke-width:0.26458332px"
         id="path153-98" />
      <path
         inkscape:connector-curvature="0"
         d="m 62.105641,186.19789 q -0.01654,-0.0331 -0.02687,-0.11782 -0.133325,0.13849 -0.318327,0.13849 -0.165364,0 -0.271818,-0.093 -0.10542,-0.0941 -0.10542,-0.23771 0,-0.17466 0.132292,-0.27078 0.133325,-0.0971 0.374137,-0.0971 h 0.186035 v -0.0879 q 0,-0.10026 -0.05994,-0.15917 -0.05994,-0.0599 -0.176734,-0.0599 -0.102319,0 -0.171565,0.0517 -0.06925,0.0517 -0.06925,0.12506 h -0.192236 q 0,-0.0837 0.05891,-0.16123 0.05994,-0.0786 0.16123,-0.12402 0.10232,-0.0455 0.224276,-0.0455 0.19327,0 0.302824,0.0971 0.109554,0.0961 0.113688,0.26562 v 0.5147 q 0,0.15399 0.03927,0.24494 v 0.0165 z m -0.317294,-0.14573 q 0.08992,0 0.170533,-0.0465 0.08062,-0.0465 0.116788,-0.12092 v -0.22944 h -0.149861 q -0.3514,0 -0.3514,0.20567 0,0.0899 0.05994,0.14056 0.05994,0.0506 0.153995,0.0506 z"
         style="font-style:normal;font-variant:normal;font-weight:normal;font-stretch:normal;font-size:2.11666656px;font-family:Roboto;-inkscape-font-specification:'Roboto, Normal';font-variant-ligatures:normal;font-variant-caps:normal;font-variant-numeric:normal;font-feature-settings:normal;text-align:start;writing-mode:lr-tb;text-anchor:start;stroke-width:0.26458332px"
         id="path155-3" />
      <path
         inkscape:connector-curvature="0"
         d="m 62.749529,185.07961 0.0062,0.14056 q 0.128158,-0.16123 0.334864,-0.16123 0.3545,0 0.3576,0.39998 v 0.73897 h -0.191202 v -0.74001 q -10e-4,-0.12092 -0.05581,-0.1788 -0.05374,-0.0579 -0.168465,-0.0579 -0.09302,0 -0.163298,0.0496 -0.07028,0.0496 -0.109554,0.13022 v 0.79685 h -0.191202 v -1.11828 z"
         style="font-style:normal;font-variant:normal;font-weight:normal;font-stretch:normal;font-size:2.11666656px;font-family:Roboto;-inkscape-font-specification:'Roboto, Normal';font-variant-ligatures:normal;font-variant-caps:normal;font-variant-numeric:normal;font-feature-settings:normal;text-align:start;writing-mode:lr-tb;text-anchor:start;stroke-width:0.26458332px"
         id="path157-8" />
      <path
         inkscape:connector-curvature="0"
         d="m 63.693141,185.62945 q 0,-0.26148 0.120923,-0.41548 0.120923,-0.15503 0.320394,-0.15503 0.204638,0 0.31936,0.1447 l 0.0093,-0.12403 h 0.174666 v 1.09141 q 0,0.21704 -0.129191,0.3421 -0.128158,0.12505 -0.345199,0.12505 -0.120922,0 -0.236678,-0.0517 -0.115755,-0.0517 -0.176733,-0.1416 l 0.09922,-0.11472 q 0.12299,0.15193 0.300757,0.15193 0.139526,0 0.217041,-0.0786 0.07855,-0.0785 0.07855,-0.22117 v -0.0961 q -0.114722,0.13229 -0.313159,0.13229 -0.196371,0 -0.318327,-0.15813 -0.120923,-0.15813 -0.120923,-0.43098 z m 0.192236,0.0217 q 0,0.18914 0.07751,0.29766 0.07751,0.10749 0.217041,0.10749 0.180867,0 0.265617,-0.16433 v -0.51057 q -0.08785,-0.16019 -0.26355,-0.16019 -0.139526,0 -0.218075,0.10852 -0.07855,0.10852 -0.07855,0.32142 z"
         style="font-style:normal;font-variant:normal;font-weight:normal;font-stretch:normal;font-size:2.11666656px;font-family:Roboto;-inkscape-font-specification:'Roboto, Normal';font-variant-ligatures:normal;font-variant-caps:normal;font-variant-numeric:normal;font-feature-settings:normal;text-align:start;writing-mode:lr-tb;text-anchor:start;stroke-width:0.26458332px"
         id="path159-5" />
      <path
         inkscape:connector-curvature="0"
         d="m 65.389161,186.21856 q -0.227376,0 -0.370003,-0.14883 -0.142627,-0.14986 -0.142627,-0.39997 v -0.0351 q 0,-0.1664 0.06305,-0.29662 0.06408,-0.13126 0.177767,-0.20464 0.114722,-0.0744 0.248047,-0.0744 0.218074,0 0.338997,0.14366 0.120923,0.14366 0.120923,0.41135 v 0.0796 h -0.757576 q 0.0041,0.16536 0.09612,0.26768 0.09302,0.10129 0.235644,0.10129 0.101286,0 0.171566,-0.0413 0.07028,-0.0413 0.12299,-0.10956 l 0.116789,0.091 q -0.14056,0.21601 -0.42168,0.21601 z m -0.02377,-1.00252 q -0.115755,0 -0.194304,0.0848 -0.07855,0.0837 -0.09715,0.23564 h 0.560172 v -0.0145 q -0.0083,-0.14572 -0.07855,-0.22531 -0.07028,-0.0806 -0.190169,-0.0806 z"
         style="font-style:normal;font-variant:normal;font-weight:normal;font-stretch:normal;font-size:2.11666656px;font-family:Roboto;-inkscape-font-specification:'Roboto, Normal';font-variant-ligatures:normal;font-variant-caps:normal;font-variant-numeric:normal;font-feature-settings:normal;text-align:start;writing-mode:lr-tb;text-anchor:start;stroke-width:0.26458332px"
         id="path161-2" />
    </g>
    <g
       transform="translate(36.154922)"
       aria-label="Mode"
       style="font-style:normal;font-weight:normal;font-size:3.17499995px;line-height:125%;font-family:Sans;letter-spacing:0px;word-spacing:0px;display:inline;opacity:1;fill:#000000;fill-opacity:1;stroke:none;stroke-width:0.26458332px;stroke-linecap:butt;stroke-linejoin:miter;stroke-opacity:1"
       id="text133-9-2">
      <path
         inkscape:connector-curvature="0"
         d="m 66.150136,186.5317 0.491959,1.22783 0.49196,-1.22783 h 0.257349 v 1.50481 h -0.198438 v -0.58601 l 0.0186,-0.63252 -0.494027,1.21853 H 66.56561 l -0.492993,-1.21543 0.01964,0.62942 v 0.58601 H 65.89382 v -1.50481 z"
         style="font-style:normal;font-variant:normal;font-weight:normal;font-stretch:normal;font-size:2.11666656px;font-family:Roboto;-inkscape-font-specification:'Roboto, Normal';font-variant-ligatures:normal;font-variant-caps:normal;font-variant-numeric:normal;font-feature-settings:normal;text-align:start;writing-mode:lr-tb;text-anchor:start;stroke-width:0.26458332px"
         id="path164-2" />
      <path
         inkscape:connector-curvature="0"
         d="m 67.661155,187.46704 q 0,-0.16433 0.06408,-0.29559 0.06511,-0.13126 0.179834,-0.20257 0.115756,-0.0713 0.26355,-0.0713 0.22841,0 0.36897,0.15813 0.141593,0.15813 0.141593,0.42064 v 0.0134 q 0,0.1633 -0.06305,0.29352 -0.06201,0.12919 -0.1788,0.20154 -0.115756,0.0723 -0.266651,0.0723 -0.227376,0 -0.36897,-0.15813 -0.140559,-0.15812 -0.140559,-0.41857 z m 0.192236,0.0227 q 0,0.18603 0.08578,0.29869 0.08682,0.11265 0.23151,0.11265 0.145728,0 0.231511,-0.11369 0.08578,-0.11472 0.08578,-0.32039 0,-0.18397 -0.08785,-0.29766 -0.08682,-0.11472 -0.231511,-0.11472 -0.141593,0 -0.22841,0.11266 -0.08682,0.11265 -0.08682,0.32246 z"
         style="font-style:normal;font-variant:normal;font-weight:normal;font-stretch:normal;font-size:2.11666656px;font-family:Roboto;-inkscape-font-specification:'Roboto, Normal';font-variant-ligatures:normal;font-variant-caps:normal;font-variant-numeric:normal;font-feature-settings:normal;text-align:start;writing-mode:lr-tb;text-anchor:start;stroke-width:0.26458332px"
         id="path166-7" />
      <path
         inkscape:connector-curvature="0"
         d="m 68.87245,187.46807 q 0,-0.25735 0.121956,-0.41341 0.121957,-0.15709 0.319361,-0.15709 0.19637,0 0.311092,0.13435 v -0.58291 h 0.191203 v 1.5875 h -0.1757 l -0.0093,-0.11989 q -0.114722,0.14056 -0.31936,0.14056 -0.194304,0 -0.317294,-0.15916 -0.121956,-0.15916 -0.121956,-0.41548 z m 0.191203,0.0217 q 0,0.19017 0.07855,0.29765 0.07855,0.10749 0.217041,0.10749 0.181901,0 0.265617,-0.1633 v -0.51366 q -0.08578,-0.15813 -0.26355,-0.15813 -0.14056,0 -0.219108,0.10852 -0.07855,0.10852 -0.07855,0.32143 z"
         style="font-style:normal;font-variant:normal;font-weight:normal;font-stretch:normal;font-size:2.11666656px;font-family:Roboto;-inkscape-font-specification:'Roboto, Normal';font-variant-ligatures:normal;font-variant-caps:normal;font-variant-numeric:normal;font-feature-settings:normal;text-align:start;writing-mode:lr-tb;text-anchor:start;stroke-width:0.26458332px"
         id="path168-0" />
      <path
         inkscape:connector-curvature="0"
         d="m 70.577772,188.05718 q -0.227376,0 -0.370003,-0.14882 -0.142627,-0.14986 -0.142627,-0.39998 v -0.0351 q 0,-0.1664 0.06305,-0.29662 0.06408,-0.13126 0.177767,-0.20464 0.114722,-0.0744 0.248047,-0.0744 0.218074,0 0.338997,0.14366 0.120923,0.14366 0.120923,0.41134 v 0.0796 H 70.25635 q 0.0041,0.16537 0.09612,0.26769 0.09302,0.10128 0.235644,0.10128 0.101286,0 0.171566,-0.0413 0.07028,-0.0413 0.12299,-0.10955 l 0.116789,0.091 q -0.14056,0.216 -0.42168,0.216 z m -0.02377,-1.00252 q -0.115755,0 -0.194303,0.0847 -0.07855,0.0837 -0.09715,0.23565 h 0.560172 v -0.0145 q -0.0083,-0.14573 -0.07855,-0.22531 -0.07028,-0.0806 -0.190169,-0.0806 z"
         style="font-style:normal;font-variant:normal;font-weight:normal;font-stretch:normal;font-size:2.11666656px;font-family:Roboto;-inkscape-font-specification:'Roboto, Normal';font-variant-ligatures:normal;font-variant-caps:normal;font-variant-numeric:normal;font-feature-settings:normal;text-align:start;writing-mode:lr-tb;text-anchor:start;stroke-width:0.26458332px"
         id="path170-3" />
    </g>
  </g>
</svg>
