<?xml version="1.0" encoding="UTF-8" standalone="no"?>
<svg
   xmlns:dc="http://purl.org/dc/elements/1.1/"
   xmlns:cc="http://creativecommons.org/ns#"
   xmlns:rdf="http://www.w3.org/1999/02/22-rdf-syntax-ns#"
   xmlns:svg="http://www.w3.org/2000/svg"
   xmlns="http://www.w3.org/2000/svg"
   xmlns:sodipodi="http://sodipodi.sourceforge.net/DTD/sodipodi-0.dtd"
   xmlns:inkscape="http://www.inkscape.org/namespaces/inkscape"
   id="svg8"
   width="60"
   height="380.00003"
   viewBox="0 0 59.999998 380.00004"
   version="1.1"
   sodipodi:docname="Walker.svg"
   inkscape:version="0.92.2 2405546, 2018-03-11">
  <metadata
     id="metadata29">
    <rdf:RDF>
      <cc:Work
         rdf:about="">
        <dc:format>image/svg+xml</dc:format>
        <dc:type
           rdf:resource="http://purl.org/dc/dcmitype/StillImage" />
        <dc:title>BlankPanel1</dc:title>
      </cc:Work>
    </rdf:RDF>
  </metadata>
  <defs
     id="defs27">
    <clipPath
       id="clipPath837"
       clipPathUnits="userSpaceOnUse">
      <path
         inkscape:connector-curvature="0"
         id="path835"
         d="M 0,842 H 595 V 0 H 0 Z" />
    </clipPath>
    <clipPath
       id="clipPath13703"
       clipPathUnits="userSpaceOnUse">
      <path
         inkscape:connector-curvature="0"
         id="path13701"
         d="M 0,1020.448 H 935.433 V 0 H 0 Z" />
    </clipPath>
  </defs>
  <sodipodi:namedview
     pagecolor="#ffffff"
     bordercolor="#666666"
     borderopacity="1"
     objecttolerance="10"
     gridtolerance="10"
     guidetolerance="10"
     inkscape:pageopacity="0"
     inkscape:pageshadow="2"
     inkscape:window-width="1898"
     inkscape:window-height="1026"
     id="namedview25"
     showgrid="false"
     inkscape:zoom="2.0000001"
     inkscape:cx="19.427455"
     inkscape:cy="165.49275"
     inkscape:window-x="10"
     inkscape:window-y="42"
     inkscape:window-maximized="0"
     inkscape:current-layer="g827"
     showguides="true"
     inkscape:guide-bbox="true"
     inkscape:snap-bbox="true"
     inkscape:snap-bbox-edge-midpoints="true">
    <inkscape:grid
       type="xygrid"
       id="grid826" />
  </sodipodi:namedview>
  <title
     id="title2">BlankPanel1</title>
  <g
     transform="matrix(1.3333333,0,0,-1.3333333,-826.22953,717.78288)"
     inkscape:label="1"
     id="g827"
     style="opacity:1">
    <g
       id="g831"
       transform="matrix(0.65499991,0,0,0.9990382,214.17333,0.58771452)"
       style="fill:#cdcfca;fill-opacity:1">
      <g
         transform="translate(619.08227,-482.18084)"
         inkscape:label="02"
         id="g13693"
         style="fill:#cdcfca;fill-opacity:1">
        <path
           inkscape:connector-curvature="0"
           id="path13695"
           style="fill:#cdcfca;fill-opacity:1;fill-rule:evenodd;stroke:none;stroke-width:0.22436777"
           d="M 0,735.3352 H 68.666843 V 1020.448 H 0 Z" />
        <path
           style="opacity:1;fill:#cdcfca;fill-opacity:1;stroke:#000000;stroke-width:0.47412768;stroke-linecap:square;stroke-miterlimit:4;stroke-dasharray:none;stroke-dashoffset:0;stroke-opacity:0.98999999"
           d="M -0.45300759,190.33385 V 0.445719 H 45.063249 90.579506 V 190.33385 380.22199 H 45.063249 -0.45300759 Z"
           id="path26"
           inkscape:connector-curvature="0"
           transform="matrix(0.75000002,0,0,-0.75000002,0.58989299,1020.518)" />
      </g>
    </g>
    <g
       inkscape:groupmode="layer"
       id="layer2"
       inkscape:label="Layer 1"
       style="opacity:0" />
    <flowRoot
       xml:space="preserve"
       id="flowRoot826"
       style="font-style:normal;font-weight:normal;font-size:12px;line-height:125%;font-family:Sans;letter-spacing:0px;word-spacing:0px;fill:#000000;fill-opacity:1;stroke:none;stroke-width:1px;stroke-linecap:butt;stroke-linejoin:miter;stroke-opacity:1"
       transform="matrix(0.75000002,0,0,-0.75000002,619.67216,538.33717)"><flowRegion
         id="flowRegion828"><rect
           id="rect830"
           width="50"
           height="20"
           x="5"
           y="10.000031" /></flowRegion><flowPara
         id="flowPara834">MANIFOLDM</flowPara></flowRoot>    <text
       xml:space="preserve"
       style="font-style:normal;font-weight:normal;font-size:9px;line-height:125%;font-family:Sans;letter-spacing:0px;word-spacing:0px;fill:#000000;fill-opacity:1;stroke:none;stroke-width:0.75px;stroke-linecap:butt;stroke-linejoin:miter;stroke-opacity:1"
       x="619.67218"
       y="-354.58713"
       id="text888"
       transform="scale(1,-1)"><tspan
         sodipodi:role="line"
         id="tspan886"
         x="619.67218"
         y="-346.62424"
         style="stroke-width:0.75px" /></text>
    <g
       aria-label="Stepsize"
       transform="matrix(1,0,0,-1,0,-4.03401)"
       style="font-style:normal;font-variant:normal;font-weight:normal;font-stretch:normal;font-size:13.5px;line-height:125%;font-family:Sans;-inkscape-font-specification:Sans;text-align:start;letter-spacing:0px;word-spacing:0px;writing-mode:lr-tb;text-anchor:start;fill:#323232;fill-opacity:1;stroke:none;stroke-width:0.75px;stroke-linecap:butt;stroke-linejoin:miter;stroke-opacity:1"
       id="text3434">
      <path
         d="m 626.47087,-486.93569 q 0.297,0 0.486,-0.045 0.198,-0.054 0.315,-0.135 0.117,-0.09 0.162,-0.207 0.045,-0.117 0.045,-0.261 0,-0.306 -0.288,-0.504 -0.288,-0.207 -0.99,-0.441 -0.306,-0.108 -0.612,-0.243 -0.306,-0.144 -0.549,-0.351 -0.243,-0.216 -0.396,-0.513 -0.153,-0.306 -0.153,-0.738 0,-0.432 0.162,-0.774 0.162,-0.351 0.459,-0.594 0.297,-0.243 0.72,-0.369 0.423,-0.135 0.954,-0.135 0.63,0 1.089,0.135 0.459,0.135 0.756,0.297 l -0.405,1.107 q -0.261,-0.135 -0.585,-0.234 -0.315,-0.108 -0.765,-0.108 -0.504,0 -0.729,0.144 -0.216,0.135 -0.216,0.423 0,0.171 0.081,0.288 0.081,0.117 0.225,0.216 0.153,0.09 0.342,0.171 0.198,0.072 0.432,0.153 0.486,0.18 0.846,0.36 0.36,0.171 0.594,0.405 0.243,0.234 0.36,0.549 0.117,0.315 0.117,0.765 0,0.873 -0.612,1.359 -0.612,0.477 -1.845,0.477 -0.414,0 -0.747,-0.054 -0.333,-0.045 -0.594,-0.117 -0.252,-0.072 -0.441,-0.153 -0.18,-0.081 -0.306,-0.153 l 0.396,-1.116 q 0.279,0.153 0.684,0.279 0.414,0.117 1.008,0.117 z"
         style="font-style:normal;font-variant:normal;font-weight:bold;font-stretch:normal;font-size:9px;font-family:Ubuntu;-inkscape-font-specification:'Ubuntu, Bold';font-variant-ligatures:normal;font-variant-caps:normal;font-variant-numeric:normal;font-feature-settings:normal;text-align:center;writing-mode:lr-tb;text-anchor:middle;fill:#323232;fill-opacity:1;stroke-width:0.75px"
         id="path3597"
         inkscape:connector-curvature="0" />
      <path
         d="m 629.87315,-491.77769 1.341,-0.216 v 1.395 h 1.611 v 1.116 h -1.611 v 1.665 q 0,0.423 0.144,0.675 0.153,0.252 0.603,0.252 0.216,0 0.441,-0.036 0.234,-0.045 0.423,-0.117 l 0.189,1.044 q -0.243,0.099 -0.54,0.171 -0.297,0.072 -0.729,0.072 -0.549,0 -0.909,-0.144 -0.36,-0.153 -0.576,-0.414 -0.216,-0.27 -0.306,-0.648 -0.081,-0.378 -0.081,-0.837 z"
         style="font-style:normal;font-variant:normal;font-weight:bold;font-stretch:normal;font-size:9px;font-family:Ubuntu;-inkscape-font-specification:'Ubuntu, Bold';font-variant-ligatures:normal;font-variant-caps:normal;font-variant-numeric:normal;font-feature-settings:normal;text-align:center;writing-mode:lr-tb;text-anchor:middle;fill:#323232;fill-opacity:1;stroke-width:0.75px"
         id="path3599"
         inkscape:connector-curvature="0" />
      <path
         d="m 633.5076,-488.19569 q 0,-0.63 0.189,-1.098 0.198,-0.477 0.513,-0.792 0.315,-0.315 0.72,-0.477 0.414,-0.162 0.846,-0.162 1.008,0 1.593,0.621 0.585,0.612 0.585,1.809 0,0.117 -0.009,0.261 -0.009,0.135 -0.018,0.243 h -3.042 q 0.045,0.414 0.387,0.657 0.342,0.243 0.918,0.243 0.369,0 0.72,-0.063 0.36,-0.072 0.585,-0.171 l 0.18,1.089 q -0.108,0.054 -0.288,0.108 -0.18,0.054 -0.405,0.09 -0.216,0.045 -0.468,0.072 -0.252,0.027 -0.504,0.027 -0.639,0 -1.116,-0.189 -0.468,-0.189 -0.783,-0.513 -0.306,-0.333 -0.459,-0.783 -0.144,-0.45 -0.144,-0.972 z m 3.15,-0.513 q -0.009,-0.171 -0.063,-0.333 -0.045,-0.162 -0.153,-0.288 -0.099,-0.126 -0.261,-0.207 -0.153,-0.081 -0.387,-0.081 -0.225,0 -0.387,0.081 -0.162,0.072 -0.27,0.198 -0.108,0.126 -0.171,0.297 -0.054,0.162 -0.081,0.333 z"
         style="font-style:normal;font-variant:normal;font-weight:bold;font-stretch:normal;font-size:9px;font-family:Ubuntu;-inkscape-font-specification:'Ubuntu, Bold';font-variant-ligatures:normal;font-variant-caps:normal;font-variant-numeric:normal;font-feature-settings:normal;text-align:center;writing-mode:lr-tb;text-anchor:middle;fill:#323232;fill-opacity:1;stroke-width:0.75px"
         id="path3601"
         inkscape:connector-curvature="0" />
      <path
         d="m 642.02146,-488.19569 q 0,-0.621 -0.279,-0.99 -0.279,-0.378 -0.828,-0.378 -0.18,0 -0.333,0.018 -0.153,0.009 -0.252,0.027 v 2.421 q 0.126,0.081 0.324,0.135 0.207,0.054 0.414,0.054 0.954,0 0.954,-1.287 z m 1.368,-0.036 q 0,0.549 -0.135,0.999 -0.135,0.45 -0.396,0.774 -0.261,0.324 -0.648,0.504 -0.387,0.18 -0.891,0.18 -0.279,0 -0.522,-0.054 -0.243,-0.054 -0.468,-0.153 v 1.782 h -1.341 v -6.237 q 0.18,-0.054 0.414,-0.099 0.234,-0.054 0.486,-0.09 0.261,-0.036 0.522,-0.054 0.27,-0.027 0.513,-0.027 0.585,0 1.044,0.18 0.459,0.171 0.774,0.495 0.315,0.315 0.477,0.774 0.171,0.459 0.171,1.026 z"
         style="font-style:normal;font-variant:normal;font-weight:bold;font-stretch:normal;font-size:9px;font-family:Ubuntu;-inkscape-font-specification:'Ubuntu, Bold';font-variant-ligatures:normal;font-variant-caps:normal;font-variant-numeric:normal;font-feature-settings:normal;text-align:center;writing-mode:lr-tb;text-anchor:middle;fill:#323232;fill-opacity:1;stroke-width:0.75px"
         id="path3603"
         inkscape:connector-curvature="0" />
      <path
         d="m 645.7791,-486.82769 q 0.369,0 0.522,-0.072 0.153,-0.072 0.153,-0.279 0,-0.162 -0.198,-0.279 -0.198,-0.126 -0.603,-0.279 -0.315,-0.117 -0.576,-0.243 -0.252,-0.126 -0.432,-0.297 -0.18,-0.18 -0.279,-0.423 -0.099,-0.243 -0.099,-0.585 0,-0.666 0.495,-1.053 0.495,-0.387 1.359,-0.387 0.432,0 0.828,0.081 0.396,0.072 0.63,0.162 l -0.234,1.044 q -0.234,-0.081 -0.513,-0.144 -0.27,-0.063 -0.612,-0.063 -0.63,0 -0.63,0.351 0,0.081 0.027,0.144 0.027,0.063 0.108,0.126 0.081,0.054 0.216,0.126 0.144,0.063 0.36,0.144 0.441,0.162 0.729,0.324 0.288,0.153 0.45,0.342 0.171,0.18 0.234,0.405 0.072,0.225 0.072,0.522 0,0.702 -0.531,1.062 -0.522,0.36 -1.485,0.36 -0.63,0 -1.053,-0.108 -0.414,-0.108 -0.576,-0.18 l 0.225,-1.089 q 0.342,0.135 0.702,0.216 0.36,0.072 0.711,0.072 z"
         style="font-style:normal;font-variant:normal;font-weight:bold;font-stretch:normal;font-size:9px;font-family:Ubuntu;-inkscape-font-specification:'Ubuntu, Bold';font-variant-ligatures:normal;font-variant-caps:normal;font-variant-numeric:normal;font-feature-settings:normal;text-align:center;writing-mode:lr-tb;text-anchor:middle;fill:#323232;fill-opacity:1;stroke-width:0.75px"
         id="path3605"
         inkscape:connector-curvature="0" />
      <path
         d="m 650.12048,-485.86469 h -1.341 v -4.734 h 1.341 z m 0.126,-6.102 q 0,0.369 -0.243,0.585 -0.234,0.207 -0.558,0.207 -0.324,0 -0.567,-0.207 -0.234,-0.216 -0.234,-0.585 0,-0.369 0.234,-0.576 0.243,-0.216 0.567,-0.216 0.324,0 0.558,0.216 0.243,0.207 0.243,0.576 z"
         style="font-style:normal;font-variant:normal;font-weight:bold;font-stretch:normal;font-size:9px;font-family:Ubuntu;-inkscape-font-specification:'Ubuntu, Bold';font-variant-ligatures:normal;font-variant-caps:normal;font-variant-numeric:normal;font-feature-settings:normal;text-align:center;writing-mode:lr-tb;text-anchor:middle;fill:#323232;fill-opacity:1;stroke-width:0.75px"
         id="path3607"
         inkscape:connector-curvature="0" />
      <path
         d="m 654.93604,-489.69869 q -0.162,0.18 -0.441,0.486 -0.27,0.306 -0.585,0.675 -0.315,0.369 -0.639,0.774 -0.315,0.405 -0.576,0.783 h 2.286 v 1.116 h -3.915 v -0.792 q 0.189,-0.324 0.45,-0.693 0.27,-0.378 0.558,-0.756 0.297,-0.378 0.585,-0.729 0.288,-0.36 0.531,-0.648 h -2.016 v -1.116 h 3.762 z"
         style="font-style:normal;font-variant:normal;font-weight:bold;font-stretch:normal;font-size:9px;font-family:Ubuntu;-inkscape-font-specification:'Ubuntu, Bold';font-variant-ligatures:normal;font-variant-caps:normal;font-variant-numeric:normal;font-feature-settings:normal;text-align:center;writing-mode:lr-tb;text-anchor:middle;fill:#323232;fill-opacity:1;stroke-width:0.75px"
         id="path3609"
         inkscape:connector-curvature="0" />
      <path
         d="m 655.51541,-488.19569 q 0,-0.63 0.189,-1.098 0.198,-0.477 0.513,-0.792 0.315,-0.315 0.72,-0.477 0.414,-0.162 0.846,-0.162 1.008,0 1.593,0.621 0.585,0.612 0.585,1.809 0,0.117 -0.009,0.261 -0.009,0.135 -0.018,0.243 h -3.042 q 0.045,0.414 0.387,0.657 0.342,0.243 0.918,0.243 0.369,0 0.72,-0.063 0.36,-0.072 0.585,-0.171 l 0.18,1.089 q -0.108,0.054 -0.288,0.108 -0.18,0.054 -0.405,0.09 -0.216,0.045 -0.468,0.072 -0.252,0.027 -0.504,0.027 -0.639,0 -1.116,-0.189 -0.468,-0.189 -0.783,-0.513 -0.306,-0.333 -0.459,-0.783 -0.144,-0.45 -0.144,-0.972 z m 3.15,-0.513 q -0.009,-0.171 -0.063,-0.333 -0.045,-0.162 -0.153,-0.288 -0.099,-0.126 -0.261,-0.207 -0.153,-0.081 -0.387,-0.081 -0.225,0 -0.387,0.081 -0.162,0.072 -0.27,0.198 -0.108,0.126 -0.171,0.297 -0.054,0.162 -0.081,0.333 z"
         style="font-style:normal;font-variant:normal;font-weight:bold;font-stretch:normal;font-size:9px;font-family:Ubuntu;-inkscape-font-specification:'Ubuntu, Bold';font-variant-ligatures:normal;font-variant-caps:normal;font-variant-numeric:normal;font-feature-settings:normal;text-align:center;writing-mode:lr-tb;text-anchor:middle;fill:#323232;fill-opacity:1;stroke-width:0.75px"
         id="path3611"
         inkscape:connector-curvature="0" />
    </g>
    <g
       aria-label="Mod"
       transform="matrix(1,0,0,-1,0,3)"
       style="font-style:normal;font-variant:normal;font-weight:normal;font-stretch:normal;font-size:13.5px;line-height:125%;font-family:Sans;-inkscape-font-specification:Sans;text-align:start;letter-spacing:0px;word-spacing:0px;writing-mode:lr-tb;text-anchor:start;fill:#323232;fill-opacity:1;stroke:none;stroke-width:0.75px;stroke-linecap:butt;stroke-linejoin:miter;stroke-opacity:1"
       id="text3448">
      <path
         d="m 625.42747,-459.59188 q 0.126,0.231 0.287,0.574 0.168,0.336 0.343,0.735 0.182,0.392 0.357,0.805 0.175,0.413 0.329,0.777 0.154,-0.364 0.329,-0.777 0.175,-0.413 0.35,-0.805 0.182,-0.399 0.343,-0.735 0.168,-0.343 0.294,-0.574 h 0.994 q 0.07,0.483 0.126,1.085 0.063,0.595 0.105,1.246 0.049,0.644 0.084,1.295 0.042,0.651 0.07,1.225 h -1.064 q -0.021,-0.707 -0.056,-1.54 -0.035,-0.833 -0.105,-1.68 -0.126,0.294 -0.28,0.651 -0.154,0.357 -0.308,0.714 -0.147,0.357 -0.287,0.686 -0.14,0.322 -0.238,0.553 h -0.763 q -0.098,-0.231 -0.238,-0.553 -0.14,-0.329 -0.294,-0.686 -0.147,-0.357 -0.301,-0.714 -0.154,-0.357 -0.28,-0.651 -0.07,0.847 -0.105,1.68 -0.035,0.833 -0.056,1.54 h -1.064 q 0.028,-0.574 0.063,-1.225 0.042,-0.651 0.084,-1.295 0.049,-0.651 0.105,-1.246 0.063,-0.602 0.133,-1.085 z"
         style="font-style:normal;font-variant:normal;font-weight:bold;font-stretch:normal;font-size:7px;font-family:Ubuntu;-inkscape-font-specification:'Ubuntu, Bold';font-variant-ligatures:normal;font-variant-caps:normal;font-variant-numeric:normal;font-feature-settings:normal;text-align:center;writing-mode:lr-tb;text-anchor:middle;fill:#323232;fill-opacity:1;stroke-width:0.75px"
         id="path3590"
         inkscape:connector-curvature="0" />
      <path
         d="m 633.78886,-456.58888 q 0,0.434 -0.126,0.798 -0.126,0.357 -0.364,0.616 -0.238,0.252 -0.574,0.392 -0.329,0.14 -0.742,0.14 -0.406,0 -0.742,-0.14 -0.329,-0.14 -0.567,-0.392 -0.238,-0.259 -0.371,-0.616 -0.133,-0.364 -0.133,-0.798 0,-0.434 0.133,-0.791 0.14,-0.357 0.378,-0.609 0.245,-0.252 0.574,-0.392 0.336,-0.14 0.728,-0.14 0.399,0 0.728,0.14 0.336,0.14 0.574,0.392 0.238,0.252 0.371,0.609 0.133,0.357 0.133,0.791 z m -1.064,0 q 0,-0.483 -0.196,-0.756 -0.189,-0.28 -0.546,-0.28 -0.357,0 -0.553,0.28 -0.196,0.273 -0.196,0.756 0,0.483 0.196,0.77 0.196,0.28 0.553,0.28 0.357,0 0.546,-0.28 0.196,-0.287 0.196,-0.77 z"
         style="font-style:normal;font-variant:normal;font-weight:bold;font-stretch:normal;font-size:7px;font-family:Ubuntu;-inkscape-font-specification:'Ubuntu, Bold';font-variant-ligatures:normal;font-variant-caps:normal;font-variant-numeric:normal;font-feature-settings:normal;text-align:center;writing-mode:lr-tb;text-anchor:middle;fill:#323232;fill-opacity:1;stroke-width:0.75px"
         id="path3592"
         inkscape:connector-curvature="0" />
      <path
         d="m 635.48581,-456.60988 q 0,0.483 0.217,0.777 0.217,0.294 0.644,0.294 0.14,0 0.259,-0.007 0.119,-0.014 0.196,-0.028 v -1.897 q -0.098,-0.063 -0.259,-0.105 -0.154,-0.042 -0.315,-0.042 -0.742,0 -0.742,1.008 z m 2.359,1.75 q -0.14,0.042 -0.322,0.084 -0.182,0.035 -0.385,0.063 -0.196,0.028 -0.406,0.042 -0.203,0.021 -0.392,0.021 -0.455,0 -0.812,-0.133 -0.357,-0.133 -0.602,-0.378 -0.245,-0.252 -0.378,-0.602 -0.126,-0.357 -0.126,-0.798 0,-0.448 0.112,-0.805 0.112,-0.364 0.322,-0.616 0.21,-0.252 0.511,-0.385 0.308,-0.133 0.7,-0.133 0.217,0 0.385,0.042 0.175,0.042 0.35,0.119 v -1.666 l 1.043,-0.168 z"
         style="font-style:normal;font-variant:normal;font-weight:bold;font-stretch:normal;font-size:7px;font-family:Ubuntu;-inkscape-font-specification:'Ubuntu, Bold';font-variant-ligatures:normal;font-variant-caps:normal;font-variant-numeric:normal;font-feature-settings:normal;text-align:center;writing-mode:lr-tb;text-anchor:middle;fill:#323232;fill-opacity:1;stroke-width:0.75px"
         id="path3594"
         inkscape:connector-curvature="0" />
    </g>
    <g
       aria-label="Rand"
       transform="matrix(1,0,0,-1,0,3)"
       style="font-style:normal;font-variant:normal;font-weight:normal;font-stretch:normal;font-size:13.5px;line-height:125%;font-family:Sans;-inkscape-font-specification:Sans;text-align:start;letter-spacing:0px;word-spacing:0px;writing-mode:lr-tb;text-anchor:start;fill:#323232;fill-opacity:1;stroke:none;stroke-width:0.75px;stroke-linecap:butt;stroke-linejoin:miter;stroke-opacity:1"
       id="text3452">
      <path
         d="m 647.19725,-459.64089 q 1.092,0 1.673,0.392 0.581,0.385 0.581,1.204 0,0.511 -0.238,0.833 -0.231,0.315 -0.672,0.497 0.147,0.182 0.308,0.42 0.161,0.231 0.315,0.49 0.161,0.252 0.308,0.532 0.147,0.273 0.273,0.539 h -1.225 q -0.133,-0.238 -0.273,-0.483 -0.133,-0.245 -0.28,-0.476 -0.14,-0.231 -0.28,-0.434 -0.14,-0.21 -0.28,-0.378 h -0.539 v 1.771 h -1.092 v -4.781 q 0.357,-0.07 0.735,-0.098 0.385,-0.028 0.686,-0.028 z m 0.063,0.931 q -0.119,0 -0.217,0.007 -0.091,0.007 -0.175,0.014 v 1.316 h 0.308 q 0.616,0 0.882,-0.154 0.266,-0.154 0.266,-0.525 0,-0.357 -0.273,-0.504 -0.266,-0.154 -0.791,-0.154 z"
         style="font-style:normal;font-variant:normal;font-weight:bold;font-stretch:normal;font-size:7px;font-family:Ubuntu;-inkscape-font-specification:'Ubuntu, Bold';font-variant-ligatures:normal;font-variant-caps:normal;font-variant-numeric:normal;font-feature-settings:normal;text-align:center;writing-mode:lr-tb;text-anchor:middle;fill:#323232;fill-opacity:1;stroke-width:0.75px"
         id="path3581"
         inkscape:connector-curvature="0" />
      <path
         d="m 651.61129,-455.46189 q 0.154,0 0.294,-0.007 0.14,-0.007 0.224,-0.021 v -0.791 q -0.063,-0.014 -0.189,-0.028 -0.126,-0.014 -0.231,-0.014 -0.147,0 -0.28,0.021 -0.126,0.014 -0.224,0.063 -0.098,0.049 -0.154,0.133 -0.056,0.084 -0.056,0.21 0,0.245 0.161,0.343 0.168,0.091 0.455,0.091 z m -0.084,-3.052 q 0.462,0 0.77,0.105 0.308,0.105 0.49,0.301 0.189,0.196 0.266,0.476 0.077,0.28 0.077,0.623 v 2.17 q -0.224,0.049 -0.623,0.112 -0.399,0.07 -0.966,0.07 -0.357,0 -0.651,-0.063 -0.287,-0.063 -0.497,-0.203 -0.21,-0.147 -0.322,-0.378 -0.112,-0.231 -0.112,-0.567 0,-0.322 0.126,-0.546 0.133,-0.224 0.35,-0.357 0.217,-0.133 0.497,-0.189 0.28,-0.063 0.581,-0.063 0.203,0 0.357,0.021 0.161,0.014 0.259,0.042 v -0.098 q 0,-0.266 -0.161,-0.427 -0.161,-0.161 -0.56,-0.161 -0.266,0 -0.525,0.042 -0.259,0.035 -0.448,0.105 l -0.133,-0.84 q 0.091,-0.028 0.224,-0.056 0.14,-0.035 0.301,-0.056 0.161,-0.028 0.336,-0.042 0.182,-0.021 0.364,-0.021 z"
         style="font-style:normal;font-variant:normal;font-weight:bold;font-stretch:normal;font-size:7px;font-family:Ubuntu;-inkscape-font-specification:'Ubuntu, Bold';font-variant-ligatures:normal;font-variant-caps:normal;font-variant-numeric:normal;font-feature-settings:normal;text-align:center;writing-mode:lr-tb;text-anchor:middle;fill:#323232;fill-opacity:1;stroke-width:0.75px"
         id="path3583"
         inkscape:connector-curvature="0" />
      <path
         d="m 654.07344,-458.28989 q 0.266,-0.077 0.686,-0.14 0.42,-0.07 0.882,-0.07 0.469,0 0.777,0.126 0.315,0.119 0.497,0.343 0.182,0.224 0.259,0.532 0.077,0.308 0.077,0.686 v 2.079 h -1.043 v -1.953 q 0,-0.504 -0.133,-0.714 -0.133,-0.21 -0.497,-0.21 -0.112,0 -0.238,0.014 -0.126,0.007 -0.224,0.021 v 2.842 h -1.043 z"
         style="font-style:normal;font-variant:normal;font-weight:bold;font-stretch:normal;font-size:7px;font-family:Ubuntu;-inkscape-font-specification:'Ubuntu, Bold';font-variant-ligatures:normal;font-variant-caps:normal;font-variant-numeric:normal;font-feature-settings:normal;text-align:center;writing-mode:lr-tb;text-anchor:middle;fill:#323232;fill-opacity:1;stroke-width:0.75px"
         id="path3585"
         inkscape:connector-curvature="0" />
      <path
         d="m 659.09134,-456.60289 q 0,0.483 0.217,0.777 0.217,0.294 0.644,0.294 0.14,0 0.259,-0.007 0.119,-0.014 0.196,-0.028 v -1.897 q -0.098,-0.063 -0.259,-0.105 -0.154,-0.042 -0.315,-0.042 -0.742,0 -0.742,1.008 z m 2.359,1.75 q -0.14,0.042 -0.322,0.084 -0.182,0.035 -0.385,0.063 -0.196,0.028 -0.406,0.042 -0.203,0.021 -0.392,0.021 -0.455,0 -0.812,-0.133 -0.357,-0.133 -0.602,-0.378 -0.245,-0.252 -0.378,-0.602 -0.126,-0.357 -0.126,-0.798 0,-0.448 0.112,-0.805 0.112,-0.364 0.322,-0.616 0.21,-0.252 0.511,-0.385 0.308,-0.133 0.7,-0.133 0.217,0 0.385,0.042 0.175,0.042 0.35,0.119 v -1.666 l 1.043,-0.168 z"
         style="font-style:normal;font-variant:normal;font-weight:bold;font-stretch:normal;font-size:7px;font-family:Ubuntu;-inkscape-font-specification:'Ubuntu, Bold';font-variant-ligatures:normal;font-variant-caps:normal;font-variant-numeric:normal;font-feature-settings:normal;text-align:center;writing-mode:lr-tb;text-anchor:middle;fill:#323232;fill-opacity:1;stroke-width:0.75px"
         id="path3587"
         inkscape:connector-curvature="0" />
    </g>
    <g
       aria-label="Range"
       transform="matrix(1,0,0,-1,0,9.5303301)"
       style="font-style:normal;font-variant:normal;font-weight:normal;font-stretch:normal;font-size:13.5px;line-height:125%;font-family:Sans;-inkscape-font-specification:Sans;text-align:start;letter-spacing:0px;word-spacing:0px;writing-mode:lr-tb;text-anchor:start;fill:#323232;fill-opacity:1;stroke:none;stroke-width:0.75px;stroke-linecap:butt;stroke-linejoin:miter;stroke-opacity:1"
       id="text3456">
      <path
         d="m 631.22858,-418.67369 q 1.404,0 2.151,0.504 0.747,0.495 0.747,1.548 0,0.657 -0.306,1.071 -0.297,0.405 -0.864,0.639 0.189,0.234 0.396,0.54 0.207,0.297 0.405,0.63 0.207,0.324 0.396,0.684 0.189,0.351 0.351,0.693 h -1.575 q -0.171,-0.306 -0.351,-0.621 -0.171,-0.315 -0.36,-0.612 -0.18,-0.297 -0.36,-0.558 -0.18,-0.27 -0.36,-0.486 h -0.693 v 2.277 h -1.404 v -6.147 q 0.459,-0.09 0.945,-0.126 0.495,-0.036 0.882,-0.036 z m 0.081,1.197 q -0.153,0 -0.279,0.009 -0.117,0.009 -0.225,0.018 v 1.692 h 0.396 q 0.792,0 1.134,-0.198 0.342,-0.198 0.342,-0.675 0,-0.459 -0.351,-0.648 -0.342,-0.198 -1.017,-0.198 z"
         style="font-style:normal;font-variant:normal;font-weight:bold;font-stretch:normal;font-size:9px;font-family:Ubuntu;-inkscape-font-specification:'Ubuntu, Bold';font-variant-ligatures:normal;font-variant-caps:normal;font-variant-numeric:normal;font-feature-settings:normal;text-align:center;writing-mode:lr-tb;text-anchor:middle;fill:#323232;fill-opacity:1;stroke-width:0.75px"
         id="path3570"
         inkscape:connector-curvature="0" />
      <path
         d="m 636.90378,-413.30069 q 0.198,0 0.378,-0.009 0.18,-0.009 0.288,-0.027 v -1.017 q -0.081,-0.018 -0.243,-0.036 -0.162,-0.018 -0.297,-0.018 -0.189,0 -0.36,0.027 -0.162,0.018 -0.288,0.081 -0.126,0.063 -0.198,0.171 -0.072,0.108 -0.072,0.27 0,0.315 0.207,0.441 0.216,0.117 0.585,0.117 z m -0.108,-3.924 q 0.594,0 0.99,0.135 0.396,0.135 0.63,0.387 0.243,0.252 0.342,0.612 0.099,0.36 0.099,0.801 v 2.79 q -0.288,0.063 -0.801,0.144 -0.513,0.09 -1.242,0.09 -0.459,0 -0.837,-0.081 -0.369,-0.081 -0.639,-0.261 -0.27,-0.189 -0.414,-0.486 -0.144,-0.297 -0.144,-0.729 0,-0.414 0.162,-0.702 0.171,-0.288 0.45,-0.459 0.279,-0.171 0.639,-0.243 0.36,-0.081 0.747,-0.081 0.261,0 0.459,0.027 0.207,0.018 0.333,0.054 v -0.126 q 0,-0.342 -0.207,-0.549 -0.207,-0.207 -0.72,-0.207 -0.342,0 -0.675,0.054 -0.333,0.045 -0.576,0.135 l -0.171,-1.08 q 0.117,-0.036 0.288,-0.072 0.18,-0.045 0.387,-0.072 0.207,-0.036 0.432,-0.054 0.234,-0.027 0.468,-0.027 z"
         style="font-style:normal;font-variant:normal;font-weight:bold;font-stretch:normal;font-size:9px;font-family:Ubuntu;-inkscape-font-specification:'Ubuntu, Bold';font-variant-ligatures:normal;font-variant-caps:normal;font-variant-numeric:normal;font-feature-settings:normal;text-align:center;writing-mode:lr-tb;text-anchor:middle;fill:#323232;fill-opacity:1;stroke-width:0.75px"
         id="path3572"
         inkscape:connector-curvature="0" />
      <path
         d="m 640.06939,-416.93669 q 0.342,-0.099 0.882,-0.18 0.54,-0.09 1.134,-0.09 0.603,0 0.999,0.162 0.405,0.153 0.639,0.441 0.234,0.288 0.333,0.684 0.099,0.396 0.099,0.882 v 2.673 h -1.341 v -2.511 q 0,-0.648 -0.171,-0.918 -0.171,-0.27 -0.639,-0.27 -0.144,0 -0.306,0.018 -0.162,0.009 -0.288,0.027 v 3.654 h -1.341 z"
         style="font-style:normal;font-variant:normal;font-weight:bold;font-stretch:normal;font-size:9px;font-family:Ubuntu;-inkscape-font-specification:'Ubuntu, Bold';font-variant-ligatures:normal;font-variant-caps:normal;font-variant-numeric:normal;font-feature-settings:normal;text-align:center;writing-mode:lr-tb;text-anchor:middle;fill:#323232;fill-opacity:1;stroke-width:0.75px"
         id="path3574"
         inkscape:connector-curvature="0" />
      <path
         d="m 646.52099,-414.88469 q 0,1.125 0.909,1.125 0.207,0 0.387,-0.054 0.18,-0.054 0.306,-0.126 v -2.142 q -0.099,-0.018 -0.234,-0.027 -0.135,-0.018 -0.315,-0.018 -0.531,0 -0.792,0.351 -0.261,0.351 -0.261,0.891 z m 2.943,1.926 q 0,1.161 -0.594,1.719 -0.585,0.567 -1.818,0.567 -0.432,0 -0.864,-0.081 -0.432,-0.072 -0.801,-0.198 l 0.234,-1.125 q 0.315,0.126 0.657,0.198 0.351,0.072 0.792,0.072 0.576,0 0.81,-0.252 0.243,-0.252 0.243,-0.648 v -0.171 q -0.216,0.099 -0.45,0.153 -0.225,0.045 -0.495,0.045 -0.981,0 -1.503,-0.576 -0.522,-0.585 -0.522,-1.629 0,-0.522 0.162,-0.945 0.162,-0.432 0.468,-0.738 0.315,-0.306 0.765,-0.468 0.45,-0.171 1.017,-0.171 0.243,0 0.495,0.027 0.261,0.018 0.513,0.054 0.252,0.036 0.477,0.09 0.234,0.045 0.414,0.099 z"
         style="font-style:normal;font-variant:normal;font-weight:bold;font-stretch:normal;font-size:9px;font-family:Ubuntu;-inkscape-font-specification:'Ubuntu, Bold';font-variant-ligatures:normal;font-variant-caps:normal;font-variant-numeric:normal;font-feature-settings:normal;text-align:center;writing-mode:lr-tb;text-anchor:middle;fill:#323232;fill-opacity:1;stroke-width:0.75px"
         id="path3576"
         inkscape:connector-curvature="0" />
      <path
         d="m 650.49674,-414.69569 q 0,-0.63 0.189,-1.098 0.198,-0.477 0.513,-0.792 0.315,-0.315 0.72,-0.477 0.414,-0.162 0.846,-0.162 1.008,0 1.593,0.621 0.585,0.612 0.585,1.809 0,0.117 -0.009,0.261 -0.009,0.135 -0.018,0.243 h -3.042 q 0.045,0.414 0.387,0.657 0.342,0.243 0.918,0.243 0.369,0 0.72,-0.063 0.36,-0.072 0.585,-0.171 l 0.18,1.089 q -0.108,0.054 -0.288,0.108 -0.18,0.054 -0.405,0.09 -0.216,0.045 -0.468,0.072 -0.252,0.027 -0.504,0.027 -0.639,0 -1.116,-0.189 -0.468,-0.189 -0.783,-0.513 -0.306,-0.333 -0.459,-0.783 -0.144,-0.45 -0.144,-0.972 z m 3.15,-0.513 q -0.009,-0.171 -0.063,-0.333 -0.045,-0.162 -0.153,-0.288 -0.099,-0.126 -0.261,-0.207 -0.153,-0.081 -0.387,-0.081 -0.225,0 -0.387,0.081 -0.162,0.072 -0.27,0.198 -0.108,0.126 -0.171,0.297 -0.054,0.162 -0.081,0.333 z"
         style="font-style:normal;font-variant:normal;font-weight:bold;font-stretch:normal;font-size:9px;font-family:Ubuntu;-inkscape-font-specification:'Ubuntu, Bold';font-variant-ligatures:normal;font-variant-caps:normal;font-variant-numeric:normal;font-feature-settings:normal;text-align:center;writing-mode:lr-tb;text-anchor:middle;fill:#323232;fill-opacity:1;stroke-width:0.75px"
         id="path3578"
         inkscape:connector-curvature="0" />
    </g>
    <g
       aria-label="Size"
       transform="scale(1,-1)"
       style="font-style:normal;font-variant:normal;font-weight:normal;font-stretch:normal;font-size:13.5px;line-height:125%;font-family:Sans;-inkscape-font-specification:Sans;text-align:start;letter-spacing:0px;word-spacing:0px;writing-mode:lr-tb;text-anchor:start;fill:#323232;fill-opacity:1;stroke:none;stroke-width:0.75px;stroke-linecap:butt;stroke-linejoin:miter;stroke-opacity:1"
       id="text3472">
      <path
         d="m 626.04505,-336.57354 q 0.231,0 0.378,-0.035 0.154,-0.042 0.245,-0.105 0.091,-0.07 0.126,-0.161 0.035,-0.091 0.035,-0.203 0,-0.238 -0.224,-0.392 -0.224,-0.161 -0.77,-0.343 -0.238,-0.084 -0.476,-0.189 -0.238,-0.112 -0.427,-0.273 -0.189,-0.168 -0.308,-0.399 -0.119,-0.238 -0.119,-0.574 0,-0.336 0.126,-0.602 0.126,-0.273 0.357,-0.462 0.231,-0.189 0.56,-0.287 0.329,-0.105 0.742,-0.105 0.49,0 0.847,0.105 0.357,0.105 0.588,0.231 l -0.315,0.861 q -0.203,-0.105 -0.455,-0.182 -0.245,-0.084 -0.595,-0.084 -0.392,0 -0.567,0.112 -0.168,0.105 -0.168,0.329 0,0.133 0.063,0.224 0.063,0.091 0.175,0.168 0.119,0.07 0.266,0.133 0.154,0.056 0.336,0.119 0.378,0.14 0.658,0.28 0.28,0.133 0.462,0.315 0.189,0.182 0.28,0.427 0.091,0.245 0.091,0.595 0,0.679 -0.476,1.057 -0.476,0.371 -1.435,0.371 -0.322,0 -0.581,-0.042 -0.259,-0.035 -0.462,-0.091 -0.196,-0.056 -0.343,-0.119 -0.14,-0.063 -0.238,-0.119 l 0.308,-0.868 q 0.217,0.119 0.532,0.217 0.322,0.091 0.784,0.091 z"
         style="font-style:normal;font-variant:normal;font-weight:bold;font-stretch:normal;font-size:7px;font-family:Ubuntu;-inkscape-font-specification:'Ubuntu, Bold';font-variant-ligatures:normal;font-variant-caps:normal;font-variant-numeric:normal;font-feature-settings:normal;text-align:center;writing-mode:lr-tb;text-anchor:middle;fill:#323232;fill-opacity:1;stroke-width:0.75px"
         id="path3526" />
      <path
         d="m 629.76927,-335.74054 h -1.043 v -3.682 h 1.043 z m 0.098,-4.746 q 0,0.287 -0.189,0.455 -0.182,0.161 -0.434,0.161 -0.252,0 -0.441,-0.161 -0.182,-0.168 -0.182,-0.455 0,-0.287 0.182,-0.448 0.189,-0.168 0.441,-0.168 0.252,0 0.434,0.168 0.189,0.161 0.189,0.448 z"
         style="font-style:normal;font-variant:normal;font-weight:bold;font-stretch:normal;font-size:7px;font-family:Ubuntu;-inkscape-font-specification:'Ubuntu, Bold';font-variant-ligatures:normal;font-variant-caps:normal;font-variant-numeric:normal;font-feature-settings:normal;text-align:center;writing-mode:lr-tb;text-anchor:middle;fill:#323232;fill-opacity:1;stroke-width:0.75px"
         id="path3528" />
      <path
         d="m 633.5147,-338.72254 q -0.126,0.14 -0.343,0.378 -0.21,0.238 -0.455,0.525 -0.245,0.287 -0.497,0.602 -0.245,0.315 -0.448,0.609 h 1.778 v 0.868 h -3.045 v -0.616 q 0.147,-0.252 0.35,-0.539 0.21,-0.294 0.434,-0.588 0.231,-0.294 0.455,-0.567 0.224,-0.28 0.413,-0.504 h -1.568 v -0.868 h 2.926 z"
         style="font-style:normal;font-variant:normal;font-weight:bold;font-stretch:normal;font-size:7px;font-family:Ubuntu;-inkscape-font-specification:'Ubuntu, Bold';font-variant-ligatures:normal;font-variant-caps:normal;font-variant-numeric:normal;font-feature-settings:normal;text-align:center;writing-mode:lr-tb;text-anchor:middle;fill:#323232;fill-opacity:1;stroke-width:0.75px"
         id="path3530" />
      <path
         d="m 633.96533,-337.55354 q 0,-0.49 0.147,-0.854 0.154,-0.371 0.399,-0.616 0.245,-0.245 0.56,-0.371 0.322,-0.126 0.658,-0.126 0.784,0 1.239,0.483 0.455,0.476 0.455,1.407 0,0.091 -0.007,0.203 -0.007,0.105 -0.014,0.189 h -2.366 q 0.035,0.322 0.301,0.511 0.266,0.189 0.714,0.189 0.287,0 0.56,-0.049 0.28,-0.056 0.455,-0.133 l 0.14,0.847 q -0.084,0.042 -0.224,0.084 -0.14,0.042 -0.315,0.07 -0.168,0.035 -0.364,0.056 -0.196,0.021 -0.392,0.021 -0.497,0 -0.868,-0.147 -0.364,-0.147 -0.609,-0.399 -0.238,-0.259 -0.357,-0.609 -0.112,-0.35 -0.112,-0.756 z m 2.45,-0.399 q -0.007,-0.133 -0.049,-0.259 -0.035,-0.126 -0.119,-0.224 -0.077,-0.098 -0.203,-0.161 -0.119,-0.063 -0.301,-0.063 -0.175,0 -0.301,0.063 -0.126,0.056 -0.21,0.154 -0.084,0.098 -0.133,0.231 -0.042,0.126 -0.063,0.259 z"
         style="font-style:normal;font-variant:normal;font-weight:bold;font-stretch:normal;font-size:7px;font-family:Ubuntu;-inkscape-font-specification:'Ubuntu, Bold';font-variant-ligatures:normal;font-variant-caps:normal;font-variant-numeric:normal;font-feature-settings:normal;text-align:center;writing-mode:lr-tb;text-anchor:middle;fill:#323232;fill-opacity:1;stroke-width:0.75px"
         id="path3532" />
    </g>
    <g
       aria-label="Range"
       transform="matrix(1,0,0,-1,-1.8106602,0)"
       style="font-style:normal;font-variant:normal;font-weight:normal;font-stretch:normal;font-size:13.5px;line-height:125%;font-family:Sans;-inkscape-font-specification:Sans;text-align:start;letter-spacing:0px;word-spacing:0px;writing-mode:lr-tb;text-anchor:start;fill:#323232;fill-opacity:1;stroke:none;stroke-width:0.75px;stroke-linecap:butt;stroke-linejoin:miter;stroke-opacity:1"
       id="text3476">
      <path
         d="m 645.10161,-340.64754 q 1.092,0 1.673,0.392 0.581,0.385 0.581,1.204 0,0.511 -0.238,0.833 -0.231,0.315 -0.672,0.497 0.147,0.182 0.308,0.42 0.161,0.231 0.315,0.49 0.161,0.252 0.308,0.532 0.147,0.273 0.273,0.539 h -1.225 q -0.133,-0.238 -0.273,-0.483 -0.133,-0.245 -0.28,-0.476 -0.14,-0.231 -0.28,-0.434 -0.14,-0.21 -0.28,-0.378 h -0.539 v 1.771 h -1.092 v -4.781 q 0.357,-0.07 0.735,-0.098 0.385,-0.028 0.686,-0.028 z m 0.063,0.931 q -0.119,0 -0.217,0.007 -0.091,0.007 -0.175,0.014 v 1.316 h 0.308 q 0.616,0 0.882,-0.154 0.266,-0.154 0.266,-0.525 0,-0.357 -0.273,-0.504 -0.266,-0.154 -0.791,-0.154 z"
         style="font-style:normal;font-variant:normal;font-weight:bold;font-stretch:normal;font-size:7px;font-family:Ubuntu;-inkscape-font-specification:'Ubuntu, Bold';font-variant-ligatures:normal;font-variant-caps:normal;font-variant-numeric:normal;font-feature-settings:normal;text-align:center;writing-mode:lr-tb;text-anchor:middle;fill:#323232;fill-opacity:1;stroke-width:0.75px"
         id="path3515"
         inkscape:connector-curvature="0" />
      <path
         d="m 649.51565,-336.46854 q 0.154,0 0.294,-0.007 0.14,-0.007 0.224,-0.021 v -0.791 q -0.063,-0.014 -0.189,-0.028 -0.126,-0.014 -0.231,-0.014 -0.147,0 -0.28,0.021 -0.126,0.014 -0.224,0.063 -0.098,0.049 -0.154,0.133 -0.056,0.084 -0.056,0.21 0,0.245 0.161,0.343 0.168,0.091 0.455,0.091 z m -0.084,-3.052 q 0.462,0 0.77,0.105 0.308,0.105 0.49,0.301 0.189,0.196 0.266,0.476 0.077,0.28 0.077,0.623 v 2.17 q -0.224,0.049 -0.623,0.112 -0.399,0.07 -0.966,0.07 -0.357,0 -0.651,-0.063 -0.287,-0.063 -0.497,-0.203 -0.21,-0.147 -0.322,-0.378 -0.112,-0.231 -0.112,-0.567 0,-0.322 0.126,-0.546 0.133,-0.224 0.35,-0.357 0.217,-0.133 0.497,-0.189 0.28,-0.063 0.581,-0.063 0.203,0 0.357,0.021 0.161,0.014 0.259,0.042 v -0.098 q 0,-0.266 -0.161,-0.427 -0.161,-0.161 -0.56,-0.161 -0.266,0 -0.525,0.042 -0.259,0.035 -0.448,0.105 l -0.133,-0.84 q 0.091,-0.028 0.224,-0.056 0.14,-0.035 0.301,-0.056 0.161,-0.028 0.336,-0.042 0.182,-0.021 0.364,-0.021 z"
         style="font-style:normal;font-variant:normal;font-weight:bold;font-stretch:normal;font-size:7px;font-family:Ubuntu;-inkscape-font-specification:'Ubuntu, Bold';font-variant-ligatures:normal;font-variant-caps:normal;font-variant-numeric:normal;font-feature-settings:normal;text-align:center;writing-mode:lr-tb;text-anchor:middle;fill:#323232;fill-opacity:1;stroke-width:0.75px"
         id="path3517"
         inkscape:connector-curvature="0" />
      <path
         d="m 651.97779,-339.29654 q 0.266,-0.077 0.686,-0.14 0.42,-0.07 0.882,-0.07 0.469,0 0.777,0.126 0.315,0.119 0.497,0.343 0.182,0.224 0.259,0.532 0.077,0.308 0.077,0.686 v 2.079 h -1.043 v -1.953 q 0,-0.504 -0.133,-0.714 -0.133,-0.21 -0.497,-0.21 -0.112,0 -0.238,0.014 -0.126,0.007 -0.224,0.021 v 2.842 h -1.043 z"
         style="font-style:normal;font-variant:normal;font-weight:bold;font-stretch:normal;font-size:7px;font-family:Ubuntu;-inkscape-font-specification:'Ubuntu, Bold';font-variant-ligatures:normal;font-variant-caps:normal;font-variant-numeric:normal;font-feature-settings:normal;text-align:center;writing-mode:lr-tb;text-anchor:middle;fill:#323232;fill-opacity:1;stroke-width:0.75px"
         id="path3519"
         inkscape:connector-curvature="0" />
      <path
         d="m 656.9957,-337.70054 q 0,0.875 0.707,0.875 0.161,0 0.301,-0.042 0.14,-0.042 0.238,-0.098 v -1.666 q -0.077,-0.014 -0.182,-0.021 -0.105,-0.014 -0.245,-0.014 -0.413,0 -0.616,0.273 -0.203,0.273 -0.203,0.693 z m 2.289,1.498 q 0,0.903 -0.462,1.337 -0.455,0.441 -1.414,0.441 -0.336,0 -0.672,-0.063 -0.336,-0.056 -0.623,-0.154 l 0.182,-0.875 q 0.245,0.098 0.511,0.154 0.273,0.056 0.616,0.056 0.448,0 0.63,-0.196 0.189,-0.196 0.189,-0.504 v -0.133 q -0.168,0.077 -0.35,0.119 -0.175,0.035 -0.385,0.035 -0.763,0 -1.169,-0.448 -0.406,-0.455 -0.406,-1.267 0,-0.406 0.126,-0.735 0.126,-0.336 0.364,-0.574 0.245,-0.238 0.595,-0.364 0.35,-0.133 0.791,-0.133 0.189,0 0.385,0.021 0.203,0.014 0.399,0.042 0.196,0.028 0.371,0.07 0.182,0.035 0.322,0.077 z"
         style="font-style:normal;font-variant:normal;font-weight:bold;font-stretch:normal;font-size:7px;font-family:Ubuntu;-inkscape-font-specification:'Ubuntu, Bold';font-variant-ligatures:normal;font-variant-caps:normal;font-variant-numeric:normal;font-feature-settings:normal;text-align:center;writing-mode:lr-tb;text-anchor:middle;fill:#323232;fill-opacity:1;stroke-width:0.75px"
         id="path3521"
         inkscape:connector-curvature="0" />
      <path
         d="m 660.08795,-337.55354 q 0,-0.49 0.147,-0.854 0.154,-0.371 0.399,-0.616 0.245,-0.245 0.56,-0.371 0.322,-0.126 0.658,-0.126 0.784,0 1.239,0.483 0.455,0.476 0.455,1.407 0,0.091 -0.007,0.203 -0.007,0.105 -0.014,0.189 h -2.366 q 0.035,0.322 0.301,0.511 0.266,0.189 0.714,0.189 0.287,0 0.56,-0.049 0.28,-0.056 0.455,-0.133 l 0.14,0.847 q -0.084,0.042 -0.224,0.084 -0.14,0.042 -0.315,0.07 -0.168,0.035 -0.364,0.056 -0.196,0.021 -0.392,0.021 -0.497,0 -0.868,-0.147 -0.364,-0.147 -0.609,-0.399 -0.238,-0.259 -0.357,-0.609 -0.112,-0.35 -0.112,-0.756 z m 2.45,-0.399 q -0.007,-0.133 -0.049,-0.259 -0.035,-0.126 -0.119,-0.224 -0.077,-0.098 -0.203,-0.161 -0.119,-0.063 -0.301,-0.063 -0.175,0 -0.301,0.063 -0.126,0.056 -0.21,0.154 -0.084,0.098 -0.133,0.231 -0.042,0.126 -0.063,0.259 z"
         style="font-style:normal;font-variant:normal;font-weight:bold;font-stretch:normal;font-size:7px;font-family:Ubuntu;-inkscape-font-specification:'Ubuntu, Bold';font-variant-ligatures:normal;font-variant-caps:normal;font-variant-numeric:normal;font-feature-settings:normal;text-align:center;writing-mode:lr-tb;text-anchor:middle;fill:#323232;fill-opacity:1;stroke-width:0.75px"
         id="path3523"
         inkscape:connector-curvature="0" />
    </g>
    <rect
       id="rect26-7-3-4-6-26-7"
       width="22.177631"
       height="32.337082"
       x="640.08337"
       y="-308.35272"
       style="display:inline;opacity:1;fill:#323232;fill-opacity:1;stroke-width:1.2048825"
       ry="2.6947556"
       transform="scale(1,-1)" />
    <g
       aria-label="Out"
       transform="matrix(1,0,0,-1,-4.5969573e-5,3.2680186e-4)"
       style="font-style:normal;font-weight:normal;font-size:9px;line-height:125%;font-family:Sans;letter-spacing:0px;word-spacing:0px;opacity:1;fill:#cdcfca;fill-opacity:1;stroke:none;stroke-width:0.75px;stroke-linecap:butt;stroke-linejoin:miter;stroke-opacity:1"
       id="text1138">
      <path
         inkscape:connector-curvature="0"
         d="m 644.77809,-303.58147 q 0,0.459 0.108,0.828 0.117,0.369 0.324,0.639 0.216,0.261 0.522,0.405 0.306,0.144 0.702,0.144 0.387,0 0.693,-0.144 0.315,-0.144 0.522,-0.405 0.216,-0.27 0.324,-0.639 0.117,-0.369 0.117,-0.828 0,-0.459 -0.117,-0.828 -0.108,-0.378 -0.324,-0.639 -0.207,-0.27 -0.522,-0.414 -0.306,-0.144 -0.693,-0.144 -0.396,0 -0.702,0.153 -0.306,0.144 -0.522,0.414 -0.207,0.261 -0.324,0.639 -0.108,0.369 -0.108,0.819 z m 4.761,0 q 0,0.801 -0.243,1.413 -0.234,0.603 -0.648,1.017 -0.414,0.405 -0.99,0.612 -0.567,0.207 -1.224,0.207 -0.639,0 -1.206,-0.207 -0.567,-0.207 -0.99,-0.612 -0.423,-0.414 -0.666,-1.017 -0.243,-0.612 -0.243,-1.413 0,-0.801 0.252,-1.404 0.252,-0.612 0.675,-1.026 0.432,-0.414 0.99,-0.621 0.567,-0.207 1.188,-0.207 0.639,0 1.206,0.207 0.567,0.207 0.99,0.621 0.423,0.414 0.666,1.026 0.243,0.603 0.243,1.404 z"
         style="font-style:normal;font-variant:normal;font-weight:bold;font-stretch:normal;font-size:9px;font-family:Ubuntu;-inkscape-font-specification:'Ubuntu, Bold';font-variant-ligatures:normal;font-variant-caps:normal;font-variant-numeric:normal;font-feature-settings:normal;text-align:start;writing-mode:lr-tb;text-anchor:start;fill:#cdcfca;fill-opacity:1;stroke-width:0.75px"
         id="path1140" />
      <path
         inkscape:connector-curvature="0"
         d="m 654.65165,-300.62047 q -0.342,0.099 -0.882,0.18 -0.54,0.09 -1.134,0.09 -0.603,0 -1.008,-0.162 -0.396,-0.162 -0.63,-0.45 -0.234,-0.297 -0.333,-0.702 -0.099,-0.405 -0.099,-0.891 v -2.637 h 1.341 v 2.475 q 0,0.648 0.171,0.936 0.171,0.288 0.639,0.288 0.144,0 0.306,-0.009 0.162,-0.018 0.288,-0.036 v -3.654 h 1.341 z"
         style="font-style:normal;font-variant:normal;font-weight:bold;font-stretch:normal;font-size:9px;font-family:Ubuntu;-inkscape-font-specification:'Ubuntu, Bold';font-variant-ligatures:normal;font-variant-caps:normal;font-variant-numeric:normal;font-feature-settings:normal;text-align:start;writing-mode:lr-tb;text-anchor:start;fill:#cdcfca;fill-opacity:1;stroke-width:0.75px"
         id="path1142" />
      <path
         inkscape:connector-curvature="0"
         d="m 655.87425,-306.37147 1.341,-0.216 v 1.395 h 1.611 v 1.116 h -1.611 v 1.665 q 0,0.423 0.144,0.675 0.153,0.252 0.603,0.252 0.216,0 0.441,-0.036 0.234,-0.045 0.423,-0.117 l 0.189,1.044 q -0.243,0.099 -0.54,0.171 -0.297,0.072 -0.729,0.072 -0.549,0 -0.909,-0.144 -0.36,-0.153 -0.576,-0.414 -0.216,-0.27 -0.306,-0.648 -0.081,-0.378 -0.081,-0.837 z"
         style="font-style:normal;font-variant:normal;font-weight:bold;font-stretch:normal;font-size:9px;font-family:Ubuntu;-inkscape-font-specification:'Ubuntu, Bold';font-variant-ligatures:normal;font-variant-caps:normal;font-variant-numeric:normal;font-feature-settings:normal;text-align:start;writing-mode:lr-tb;text-anchor:start;fill:#cdcfca;fill-opacity:1;stroke-width:0.75px"
         id="path1144" />
    </g>
    <g
       aria-label="Cl"
       transform="matrix(1,0,0,-1,1.87754,0)"
       style="font-style:normal;font-variant:normal;font-weight:normal;font-stretch:normal;font-size:13.5px;line-height:125%;font-family:Sans;-inkscape-font-specification:Sans;text-align:start;letter-spacing:0px;word-spacing:0px;writing-mode:lr-tb;text-anchor:start;fill:#323232;fill-opacity:1;stroke:none;stroke-width:0.75px;stroke-linecap:butt;stroke-linejoin:miter;stroke-opacity:1"
       id="text3738">
      <path
         d="m 628.11118,-300.03129 q -1.521,0 -2.322,-0.846 -0.792,-0.846 -0.792,-2.403 0,-0.774 0.243,-1.377 0.243,-0.612 0.666,-1.026 0.423,-0.423 1.008,-0.639 0.585,-0.216 1.269,-0.216 0.396,0 0.72,0.063 0.324,0.054 0.567,0.135 0.243,0.072 0.405,0.153 0.162,0.081 0.234,0.126 l -0.405,1.134 q -0.288,-0.153 -0.675,-0.261 -0.378,-0.108 -0.864,-0.108 -0.324,0 -0.639,0.108 -0.306,0.108 -0.549,0.351 -0.234,0.234 -0.378,0.612 -0.144,0.378 -0.144,0.918 0,0.432 0.09,0.81 0.099,0.369 0.306,0.639 0.216,0.27 0.558,0.432 0.342,0.153 0.828,0.153 0.306,0 0.549,-0.036 0.243,-0.036 0.432,-0.081 0.189,-0.054 0.333,-0.117 0.144,-0.063 0.261,-0.117 l 0.387,1.125 q -0.297,0.18 -0.837,0.324 -0.54,0.144 -1.251,0.144 z"
         style="font-style:normal;font-variant:normal;font-weight:bold;font-stretch:normal;font-size:9px;font-family:Ubuntu;-inkscape-font-specification:'Ubuntu, Bold';font-variant-ligatures:normal;font-variant-caps:normal;font-variant-numeric:normal;font-feature-settings:normal;text-align:start;writing-mode:lr-tb;text-anchor:start;fill:#323232;fill-opacity:1;stroke-width:0.75px"
         id="path3740"
         inkscape:connector-curvature="0" />
      <path
         d="m 632.90312,-300.06729 q -0.585,-0.009 -0.954,-0.126 -0.36,-0.117 -0.576,-0.324 -0.207,-0.216 -0.288,-0.513 -0.072,-0.306 -0.072,-0.684 v -5.211 l 1.341,-0.216 v 5.157 q 0,0.18 0.027,0.324 0.027,0.144 0.099,0.243 0.081,0.099 0.225,0.162 0.144,0.063 0.387,0.081 z"
         style="font-style:normal;font-variant:normal;font-weight:bold;font-stretch:normal;font-size:9px;font-family:Ubuntu;-inkscape-font-specification:'Ubuntu, Bold';font-variant-ligatures:normal;font-variant-caps:normal;font-variant-numeric:normal;font-feature-settings:normal;text-align:start;writing-mode:lr-tb;text-anchor:start;fill:#323232;fill-opacity:1;stroke-width:0.75px"
         id="path3742"
         inkscape:connector-curvature="0" />
    </g>
    <g
       aria-label="Bias"
       transform="scale(1,-1)"
       style="font-style:normal;font-weight:normal;font-size:9px;line-height:125%;font-family:Sans;letter-spacing:0px;word-spacing:0px;fill:#000000;fill-opacity:1;stroke:none;stroke-width:0.75px;stroke-linecap:butt;stroke-linejoin:miter;stroke-opacity:1"
       id="text883">
      <path
         d="m 635.80162,-347.9847 q -0.513,0 -1.026,-0.036 -0.504,-0.027 -1.053,-0.144 v -6.048 q 0.432,-0.081 0.945,-0.117 0.513,-0.045 0.954,-0.045 0.594,0 1.089,0.09 0.504,0.081 0.864,0.288 0.36,0.207 0.558,0.549 0.207,0.333 0.207,0.828 0,0.747 -0.72,1.179 0.594,0.225 0.81,0.612 0.216,0.387 0.216,0.873 0,0.981 -0.72,1.476 -0.711,0.495 -2.124,0.495 z m -0.711,-2.799 v 1.611 q 0.153,0.018 0.333,0.027 0.18,0.009 0.396,0.009 0.63,0 1.017,-0.18 0.387,-0.18 0.387,-0.666 0,-0.432 -0.324,-0.612 -0.324,-0.189 -0.927,-0.189 z m 0,-1.071 h 0.684 q 0.648,0 0.927,-0.162 0.279,-0.171 0.279,-0.54 0,-0.378 -0.288,-0.531 -0.288,-0.153 -0.846,-0.153 -0.18,0 -0.387,0.009 -0.207,0 -0.369,0.018 z"
         style="font-style:normal;font-variant:normal;font-weight:bold;font-stretch:normal;font-size:9px;font-family:Ubuntu;-inkscape-font-specification:'Ubuntu, Bold';font-variant-ligatures:normal;font-variant-caps:normal;font-variant-numeric:normal;font-feature-settings:normal;text-align:start;writing-mode:lr-tb;text-anchor:start;fill:#323232;fill-opacity:1;stroke-width:0.75px"
         id="path885" />
      <path
         d="m 641.0205,-348.0657 h -1.341 v -4.734 h 1.341 z m 0.126,-6.102 q 0,0.369 -0.243,0.585 -0.234,0.207 -0.558,0.207 -0.324,0 -0.567,-0.207 -0.234,-0.216 -0.234,-0.585 0,-0.369 0.234,-0.576 0.243,-0.216 0.567,-0.216 0.324,0 0.558,0.216 0.243,0.207 0.243,0.576 z"
         style="font-style:normal;font-variant:normal;font-weight:bold;font-stretch:normal;font-size:9px;font-family:Ubuntu;-inkscape-font-specification:'Ubuntu, Bold';font-variant-ligatures:normal;font-variant-caps:normal;font-variant-numeric:normal;font-feature-settings:normal;text-align:start;writing-mode:lr-tb;text-anchor:start;fill:#323232;fill-opacity:1;stroke-width:0.75px"
         id="path887" />
      <path
         d="m 644.09006,-349.0017 q 0.198,0 0.378,-0.009 0.18,-0.009 0.288,-0.027 v -1.017 q -0.081,-0.018 -0.243,-0.036 -0.162,-0.018 -0.297,-0.018 -0.189,0 -0.36,0.027 -0.162,0.018 -0.288,0.081 -0.126,0.063 -0.198,0.171 -0.072,0.108 -0.072,0.27 0,0.315 0.207,0.441 0.216,0.117 0.585,0.117 z m -0.108,-3.924 q 0.594,0 0.99,0.135 0.396,0.135 0.63,0.387 0.243,0.252 0.342,0.612 0.099,0.36 0.099,0.801 v 2.79 q -0.288,0.063 -0.801,0.144 -0.513,0.09 -1.242,0.09 -0.459,0 -0.837,-0.081 -0.369,-0.081 -0.639,-0.261 -0.27,-0.189 -0.414,-0.486 -0.144,-0.297 -0.144,-0.729 0,-0.414 0.162,-0.702 0.171,-0.288 0.45,-0.459 0.279,-0.171 0.639,-0.243 0.36,-0.081 0.747,-0.081 0.261,0 0.459,0.027 0.207,0.018 0.333,0.054 v -0.126 q 0,-0.342 -0.207,-0.549 -0.207,-0.207 -0.72,-0.207 -0.342,0 -0.675,0.054 -0.333,0.045 -0.576,0.135 l -0.171,-1.08 q 0.117,-0.036 0.288,-0.072 0.18,-0.045 0.387,-0.072 0.207,-0.036 0.432,-0.054 0.234,-0.027 0.468,-0.027 z"
         style="font-style:normal;font-variant:normal;font-weight:bold;font-stretch:normal;font-size:9px;font-family:Ubuntu;-inkscape-font-specification:'Ubuntu, Bold';font-variant-ligatures:normal;font-variant-caps:normal;font-variant-numeric:normal;font-feature-settings:normal;text-align:start;writing-mode:lr-tb;text-anchor:start;fill:#323232;fill-opacity:1;stroke-width:0.75px"
         id="path889" />
      <path
         d="m 648.61467,-349.0287 q 0.369,0 0.522,-0.072 0.153,-0.072 0.153,-0.279 0,-0.162 -0.198,-0.279 -0.198,-0.126 -0.603,-0.279 -0.315,-0.117 -0.576,-0.243 -0.252,-0.126 -0.432,-0.297 -0.18,-0.18 -0.279,-0.423 -0.099,-0.243 -0.099,-0.585 0,-0.666 0.495,-1.053 0.495,-0.387 1.359,-0.387 0.432,0 0.828,0.081 0.396,0.072 0.63,0.162 l -0.234,1.044 q -0.234,-0.081 -0.513,-0.144 -0.27,-0.063 -0.612,-0.063 -0.63,0 -0.63,0.351 0,0.081 0.027,0.144 0.027,0.063 0.108,0.126 0.081,0.054 0.216,0.126 0.144,0.063 0.36,0.144 0.441,0.162 0.729,0.324 0.288,0.153 0.45,0.342 0.171,0.18 0.234,0.405 0.072,0.225 0.072,0.522 0,0.702 -0.531,1.062 -0.522,0.36 -1.485,0.36 -0.63,0 -1.053,-0.108 -0.414,-0.108 -0.576,-0.18 l 0.225,-1.089 q 0.342,0.135 0.702,0.216 0.36,0.072 0.711,0.072 z"
         style="font-style:normal;font-variant:normal;font-weight:bold;font-stretch:normal;font-size:9px;font-family:Ubuntu;-inkscape-font-specification:'Ubuntu, Bold';font-variant-ligatures:normal;font-variant-caps:normal;font-variant-numeric:normal;font-feature-settings:normal;text-align:start;writing-mode:lr-tb;text-anchor:start;fill:#323232;fill-opacity:1;stroke-width:0.75px"
         id="path891" />
    </g>
  </g>
</svg>
