<?xml version="1.0" encoding="UTF-8" standalone="no"?>
<!-- Created with Inkscape (http://www.inkscape.org/) -->

<svg
   xmlns:dc="http://purl.org/dc/elements/1.1/"
   xmlns:cc="http://creativecommons.org/ns#"
   xmlns:rdf="http://www.w3.org/1999/02/22-rdf-syntax-ns#"
   xmlns:svg="http://www.w3.org/2000/svg"
   xmlns="http://www.w3.org/2000/svg"
   xmlns:sodipodi="http://sodipodi.sourceforge.net/DTD/sodipodi-0.dtd"
   xmlns:inkscape="http://www.inkscape.org/namespaces/inkscape"
   width="31.999996"
   height="32.000275"
   viewBox="0 0 8.4666655 8.4667388"
   version="1.1"
   id="svg113936"
   inkscape:version="0.92.2 2405546, 2018-03-11"
   sodipodi:docname="BefacoTinyWhiteKnob.svg">
  <defs
     id="defs113930" />
  <sodipodi:namedview
     id="base"
     pagecolor="#ffffff"
     bordercolor="#666666"
     borderopacity="1.0"
     inkscape:pageopacity="0.0"
     inkscape:pageshadow="2"
     inkscape:zoom="5.6"
     inkscape:cx="15.501697"
     inkscape:cy="-9.4596125"
     inkscape:document-units="mm"
     inkscape:current-layer="layer1"
     showgrid="false"
     fit-margin-top="0"
     fit-margin-left="0"
     fit-margin-right="0"
     fit-margin-bottom="0"
     inkscape:window-width="1134"
     inkscape:window-height="1026"
     inkscape:window-x="10"
     inkscape:window-y="42"
     inkscape:window-maximized="0"
     units="px" />
  <metadata
     id="metadata113933">
    <rdf:RDF>
      <cc:Work
         rdf:about="">
        <dc:format>image/svg+xml</dc:format>
        <dc:type
           rdf:resource="http://purl.org/dc/dcmitype/StillImage" />
        <dc:title></dc:title>
      </cc:Work>
    </rdf:RDF>
  </metadata>
  <g
     inkscape:label="Layer 1"
     inkscape:groupmode="layer"
     id="layer1"
     transform="translate(-111.86932,-86.328393)">
    <path
       inkscape:connector-curvature="0"
       style="fill:#d4d4d4;fill-opacity:1;fill-rule:nonzero;stroke:none;stroke-width:0.26537749"
       d="m 119.61706,92.916866 c 1.30304,-1.940574 0.78575,-4.56636 -1.15482,-5.868368 -1.93953,-1.302009 -4.57259,-0.790949 -5.87458,1.149623 -1.30306,1.940573 -0.78369,4.577762 1.15585,5.880809 1.94058,1.302007 4.57153,0.778507 5.87355,-1.162064"
       id="path109730" />
    <path
       inkscape:connector-curvature="0"
       style="fill:#ffffff;fill-opacity:1;fill-rule:nonzero;stroke:none;stroke-width:0.26537749"
       d="m 119.53724,91.359845 c -0.43538,1.902218 -2.33037,3.091233 -4.23257,2.65585 -1.90223,-0.435387 -3.09126,-2.330346 -2.65584,-4.232563 0.43538,-1.901184 2.33033,-3.091234 4.23256,-2.655852 1.90117,0.435386 3.09121,2.330347 2.65585,4.232565"
       id="path109732" />
    <path
       inkscape:connector-curvature="0"
       style="fill:none;stroke:#7f7878;stroke-width:0.10800865;stroke-linecap:round;stroke-linejoin:round;stroke-miterlimit:4;stroke-opacity:1"
       d="m 119.53724,91.359859 c -0.43538,1.902217 -2.33036,3.091232 -4.23257,2.655847 -1.90222,-0.435385 -3.09123,-2.330346 -2.65584,-4.232564 0.43538,-1.901181 2.33034,-3.091233 4.23256,-2.655847 1.90118,0.435384 3.09123,2.330346 2.65585,4.232564 z m 0,0"
       id="path109734" />
    <path
       inkscape:connector-curvature="0"
       style="fill:#000000;fill-opacity:1;fill-rule:nonzero;stroke:none;stroke-width:0.26537749"
       d="m 115.94946,88.411668 c -0.10573,-0.07153 -0.13479,-0.215619 -0.0632,-0.322393 0.0716,-0.106769 0.21665,-0.134762 0.32342,-0.06324 0.10683,0.07152 0.13476,0.215619 0.0632,0.322393 -0.0715,0.106769 -0.21666,0.134761 -0.32342,0.06324"
       id="path109736" />
    <path
       inkscape:connector-curvature="0"
       style="fill:none;stroke:#000000;stroke-width:0.4413228;stroke-linecap:square;stroke-linejoin:miter;stroke-miterlimit:4;stroke-opacity:1"
       d="m 115.94945,88.41168 c -0.10573,-0.07153 -0.13477,-0.21562 -0.0632,-0.322392 0.0715,-0.106769 0.21668,-0.134761 0.32344,-0.06324 0.10683,0.07151 0.13476,0.215618 0.0632,0.322391 -0.0715,0.10677 -0.21665,0.134762 -0.32343,0.06324 z m 0,0"
       id="path109738" />
  </g>
</svg>
